<svg width="238" height="239" viewBox="0 0 238 239" fill="none" xmlns="http://www.w3.org/2000/svg">
<path d="M119.281 0.988281C117.34 0.988281 115.398 1.03516 113.457 1.13281C111.52 1.22656 109.582 1.37109 107.648 1.5625C105.715 1.75 103.789 1.98828 101.867 2.27344C99.9453 2.55859 98.0312 2.89063 96.125 3.26953C94.2227 3.64844 92.3281 4.07422 90.4414 4.54688C88.5586 5.01953 86.6875 5.53516 84.8281 6.10156C82.9688 6.66406 81.125 7.27344 79.2969 7.92578C77.4648 8.58203 75.6562 9.28125 73.8594 10.0234C72.0664 10.7656 70.2891 11.5547 68.5352 12.3867C66.7773 13.2148 65.043 14.0898 63.332 15.0039C61.6172 15.9219 59.9258 16.8789 58.2617 17.875C56.5937 18.875 54.9531 19.9141 53.3398 20.9922C51.7227 22.0703 50.1367 23.1914 48.5781 24.3477C47.0156 25.5039 45.4844 26.6992 43.9844 27.9297C42.4805 29.1641 41.0117 30.4336 39.5742 31.7383C38.1328 33.043 36.7266 34.3789 35.3516 35.7539C33.9805 37.1289 32.6406 38.5352 31.3359 39.9727C30.0312 41.4141 28.7617 42.8828 27.5312 44.3828C26.2969 45.8867 25.1055 47.418 23.9453 48.9766C22.7891 50.5391 21.6719 52.125 20.5938 53.7383C19.5117 55.3555 18.4727 56.9961 17.4766 58.6602C16.4766 60.3281 15.5195 62.0195 14.6055 63.7305C13.6875 65.4453 12.8164 67.1797 11.9844 68.9336C11.1523 70.6914 10.3672 72.4648 9.625 74.2617C8.87891 76.0547 8.17969 77.8672 7.52734 79.6953C6.87109 81.5234 6.26172 83.3672 5.69922 85.2266C5.13672 87.0859 4.61719 88.957 4.14453 90.8438C3.67578 92.7266 3.25 94.6211 2.87109 96.5273C2.49219 98.4336 2.16016 100.344 1.875 102.266C1.58984 104.188 1.35156 106.117 1.16016 108.047C0.96875 109.98 0.828125 111.918 0.730469 113.859C0.636719 115.797 0.589844 117.738 0.589844 119.684C0.589844 121.625 0.636719 123.566 0.730469 125.508C0.828125 127.445 0.96875 129.383 1.16016 131.316C1.35156 133.25 1.58984 135.176 1.875 137.098C2.16016 139.02 2.49219 140.934 2.87109 142.84C3.25 144.742 3.67578 146.637 4.14453 148.523C4.61719 150.406 5.13672 152.277 5.69922 154.137C6.26172 155.996 6.87109 157.84 7.52734 159.668C8.17969 161.5 8.87891 163.309 9.625 165.105C10.3672 166.898 11.1523 168.676 11.9844 170.43C12.8164 172.187 13.6875 173.922 14.6055 175.633C15.5195 177.348 16.4766 179.035 17.4766 180.703C18.4727 182.371 19.5117 184.012 20.5938 185.625C21.6719 187.238 22.7891 188.828 23.9453 190.387C25.1055 191.949 26.2969 193.48 27.5312 194.98C28.7617 196.484 30.0312 197.953 31.3359 199.391C32.6406 200.832 33.9805 202.238 35.3516 203.613C36.7266 204.984 38.1328 206.324 39.5742 207.629C41.0117 208.934 42.4805 210.203 43.9844 211.434C45.4844 212.668 47.0156 213.859 48.5781 215.02C50.1367 216.176 51.7227 217.293 53.3398 218.371C54.9531 219.453 56.5937 220.492 58.2617 221.488C59.9258 222.488 61.6172 223.445 63.332 224.359C65.043 225.277 66.7773 226.148 68.5352 226.98C70.2891 227.812 72.0664 228.598 73.8594 229.34C75.6562 230.086 77.4648 230.785 79.2969 231.438C81.125 232.094 82.9688 232.703 84.8281 233.266C86.6875 233.828 88.5586 234.348 90.4414 234.82C92.3281 235.289 94.2227 235.715 96.125 236.094C98.0312 236.473 99.9453 236.805 101.867 237.09C103.789 237.375 105.715 237.613 107.648 237.805C109.582 237.996 111.52 238.137 113.457 238.234C115.398 238.328 117.34 238.375 119.281 238.375C121.227 238.375 123.164 238.328 125.105 238.234C127.047 238.137 128.984 237.996 130.918 237.805C132.848 237.613 134.777 237.375 136.699 237.09C138.621 236.805 140.531 236.473 142.438 236.094C144.344 235.715 146.238 235.289 148.121 234.82C150.008 234.348 151.879 233.828 153.738 233.266C155.598 232.703 157.441 232.094 159.27 231.438C161.098 230.785 162.91 230.086 164.703 229.34C166.5 228.598 168.273 227.812 170.031 226.98C171.785 226.148 173.52 225.277 175.234 224.359C176.945 223.445 178.637 222.488 180.305 221.488C181.969 220.492 183.609 219.453 185.227 218.371C186.84 217.293 188.426 216.176 189.988 215.02C191.547 213.859 193.078 212.668 194.582 211.434C196.082 210.203 197.551 208.934 198.992 207.629C200.43 206.324 201.836 204.984 203.211 203.613C204.586 202.238 205.922 200.832 207.227 199.391C208.531 197.953 209.801 196.484 211.035 194.98C212.266 193.48 213.461 191.949 214.617 190.387C215.773 188.828 216.895 187.238 217.973 185.625C219.051 184.012 220.09 182.371 221.09 180.703C222.086 179.035 223.043 177.348 223.961 175.633C224.875 173.922 225.75 172.187 226.578 170.43C227.41 168.676 228.195 166.898 228.941 165.105C229.684 163.309 230.383 161.5 231.039 159.668C231.691 157.84 232.301 155.996 232.863 154.137C233.43 152.277 233.945 150.406 234.418 148.523C234.891 146.637 235.316 144.742 235.695 142.84C236.074 140.934 236.406 139.02 236.691 137.098C236.977 135.176 237.215 133.25 237.402 131.316C237.594 129.383 237.738 127.445 237.832 125.508C237.93 123.566 237.977 121.625 237.977 119.684C237.977 117.738 237.93 115.797 237.832 113.859C237.738 111.918 237.594 109.98 237.402 108.047C237.215 106.117 236.977 104.188 236.691 102.266C236.406 100.344 236.074 98.4336 235.695 96.5273C235.316 94.6211 234.891 92.7266 234.418 90.8438C233.945 88.957 233.43 87.0859 232.863 85.2266C232.301 83.3672 231.691 81.5234 231.039 79.6953C230.383 77.8672 229.684 76.0547 228.941 74.2617C228.195 72.4648 227.41 70.6914 226.578 68.9336C225.75 67.1797 224.875 65.4453 223.961 63.7305C223.043 62.0195 222.086 60.3281 221.09 58.6602C220.09 56.9961 219.051 55.3555 217.973 53.7383C216.895 52.125 215.773 50.5391 214.617 48.9766C213.461 47.418 212.266 45.8867 211.035 44.3828C209.801 42.8828 208.531 41.4141 207.227 39.9727C205.922 38.5352 204.586 37.1289 203.211 35.7539C201.836 34.3789 200.43 33.043 198.992 31.7383C197.551 30.4336 196.082 29.1641 194.582 27.9297C193.078 26.6992 191.547 25.5039 189.988 24.3477C188.426 23.1914 186.84 22.0703 185.227 20.9922C183.609 19.9141 181.969 18.875 180.305 17.875C178.637 16.8789 176.945 15.9219 175.234 15.0039C173.52 14.0898 171.785 13.2148 170.031 12.3867C168.273 11.5547 166.5 10.7656 164.703 10.0234C162.91 9.28125 161.098 8.58203 159.27 7.92578C157.441 7.27344 155.598 6.66406 153.738 6.10156C151.879 5.53516 150.008 5.01953 148.121 4.54688C146.238 4.07422 144.344 3.64844 142.438 3.26953C140.531 2.89063 138.621 2.55859 136.699 2.27344C134.777 1.98828 132.848 1.75 130.918 1.5625C128.984 1.37109 127.047 1.22656 125.105 1.13281C123.164 1.03516 121.227 0.988281 119.281 0.988281ZM110.805 34.9023C110.805 34.3437 110.859 33.793 110.969 33.2461C111.074 32.7031 111.238 32.1719 111.449 31.6562C111.664 31.1445 111.922 30.6523 112.234 30.1914C112.543 29.7266 112.895 29.3008 113.289 28.9062C113.68 28.5117 114.109 28.1602 114.57 27.8516C115.035 27.543 115.523 27.2813 116.039 27.0703C116.551 26.8555 117.082 26.6953 117.629 26.5859C118.176 26.4766 118.727 26.4219 119.281 26.4219C119.84 26.4219 120.391 26.4766 120.938 26.5859C121.48 26.6953 122.012 26.8555 122.527 27.0703C123.039 27.2813 123.531 27.543 123.992 27.8516C124.457 28.1602 124.883 28.5117 125.277 28.9062C125.672 29.3008 126.023 29.7266 126.332 30.1914C126.641 30.6523 126.902 31.1445 127.113 31.6562C127.328 32.1719 127.488 32.7031 127.598 33.2461C127.707 33.793 127.762 34.3437 127.762 34.9023V111.203C127.762 111.762 127.707 112.312 127.598 112.859C127.488 113.406 127.328 113.934 127.113 114.449C126.902 114.965 126.641 115.453 126.332 115.914C126.023 116.379 125.672 116.805 125.277 117.199C124.883 117.594 124.457 117.945 123.992 118.254C123.531 118.563 123.039 118.824 122.527 119.039C122.012 119.25 121.48 119.41 120.938 119.52C120.391 119.629 119.84 119.684 119.281 119.684C118.727 119.684 118.176 119.629 117.629 119.52C117.082 119.41 116.551 119.25 116.039 119.039C115.523 118.824 115.035 118.563 114.57 118.254C114.109 117.945 113.68 117.594 113.289 117.199C112.895 116.805 112.543 116.379 112.234 115.914C111.922 115.453 111.664 114.965 111.449 114.449C111.238 113.934 111.074 113.406 110.969 112.859C110.859 112.312 110.805 111.762 110.805 111.203V34.9023ZM179.223 179.621C178.145 180.723 177.039 181.793 175.902 182.832C174.766 183.871 173.602 184.879 172.41 185.855C171.219 186.828 170.004 187.773 168.762 188.684C167.52 189.594 166.254 190.469 164.965 191.309C163.672 192.148 162.359 192.953 161.027 193.723C159.695 194.492 158.34 195.223 156.965 195.918C155.594 196.613 154.199 197.273 152.793 197.891C151.383 198.512 149.957 199.094 148.516 199.633C147.074 200.176 145.617 200.68 144.148 201.141C142.684 201.605 141.203 202.027 139.711 202.41C138.219 202.789 136.719 203.133 135.207 203.434C133.699 203.73 132.18 203.992 130.656 204.207C129.133 204.426 127.602 204.602 126.07 204.738C124.535 204.871 123 204.965 121.461 205.016C119.922 205.062 118.383 205.074 116.844 205.039C115.305 205.008 113.766 204.93 112.23 204.812C110.695 204.699 109.164 204.539 107.637 204.34C106.109 204.137 104.59 203.895 103.078 203.613C101.562 203.328 100.059 203.004 98.5625 202.641C97.0664 202.273 95.582 201.867 94.1094 201.422C92.6367 200.977 91.1758 200.492 89.7266 199.965C88.2813 199.441 86.8477 198.875 85.4336 198.27C84.0156 197.668 82.6172 197.027 81.2344 196.344C79.8555 195.664 78.4922 194.949 77.1484 194.195C75.8086 193.441 74.4883 192.648 73.1875 191.824C71.8867 191 70.6133 190.137 69.3594 189.242C68.1055 188.348 66.8789 187.418 65.6797 186.453C64.4766 185.492 63.3008 184.496 62.1523 183.473C61.0078 182.445 59.8867 181.387 58.7969 180.301C57.707 179.215 56.6484 178.098 55.6172 176.953C54.5898 175.805 53.5938 174.633 52.625 173.434C51.6602 172.234 50.7305 171.012 49.832 169.762C48.9336 168.508 48.0664 167.234 47.2383 165.938C46.4102 164.641 45.6172 163.32 44.8594 161.98C44.1016 160.641 43.3828 159.281 42.6992 157.902C42.0156 156.52 41.3711 155.125 40.7617 153.707C40.1562 152.293 39.5859 150.863 39.0586 149.418C38.5273 147.973 38.0391 146.512 37.5898 145.039C37.1406 143.566 36.7305 142.082 36.3633 140.59C35.9922 139.094 35.6641 137.59 35.3789 136.078C35.0898 134.562 34.8438 133.043 34.6406 131.52C34.4375 129.992 34.2734 128.461 34.1523 126.926C34.0352 125.391 33.9531 123.855 33.918 122.316C33.8789 120.777 33.8867 119.238 33.9336 117.699C33.9805 116.16 34.0664 114.621 34.1992 113.09C34.3281 111.555 34.5 110.023 34.7148 108.5C34.9297 106.977 35.1836 105.457 35.4805 103.945C35.7773 102.438 36.1133 100.934 36.4922 99.4414C36.8711 97.9492 37.2891 96.4688 37.75 95C38.207 93.5273 38.707 92.0742 39.2461 90.6289C39.7852 89.1875 40.3633 87.7617 40.9766 86.3516C41.5938 84.9375 42.25 83.5469 42.9414 82.1719C43.6328 80.793 44.3633 79.4375 45.1289 78.1016C45.8945 76.7695 46.6953 75.4531 47.5312 74.1602C48.3711 72.8711 49.2422 71.6016 50.1484 70.3555C51.0547 69.1133 51.9961 67.8945 52.9688 66.6992C53.9414 65.5078 54.9453 64.3398 55.9844 63.2031C57.0195 62.0625 58.0859 60.9531 59.1836 59.875C60.2812 58.793 61.4062 57.7422 62.5586 56.7266C63.7148 55.707 64.8945 54.7188 66.1055 53.7656C67.3125 52.8086 68.543 51.8867 69.8047 51C71.0625 50.1133 72.3437 49.2617 73.6484 48.4414C74.9531 47.625 76.2773 46.8438 77.625 46.0977C78.9727 45.3516 80.3398 44.6445 81.7227 43.9727C82.2188 43.7461 82.7344 43.5664 83.2617 43.4375C83.793 43.3086 84.332 43.2344 84.875 43.207C85.4219 43.1836 85.9648 43.2109 86.5039 43.2891C87.043 43.3711 87.5703 43.5 88.0859 43.6836C88.6016 43.8633 89.0938 44.0937 89.5625 44.3711C90.0312 44.6484 90.4727 44.9648 90.8828 45.3281C91.2891 45.6914 91.6602 46.0859 91.9922 46.5195C92.3242 46.9531 92.6133 47.4141 92.8555 47.9023C93.0977 48.3906 93.293 48.8984 93.4375 49.4258C93.582 49.9492 93.6758 50.4844 93.7148 51.0312C93.7578 51.5742 93.7461 52.1172 93.6836 52.6602C93.6211 53.2031 93.5078 53.7305 93.3398 54.2539C93.1758 54.7734 92.9609 55.2695 92.6992 55.75C92.4375 56.2305 92.1328 56.6758 91.7812 57.0977C91.4336 57.5156 91.0469 57.8984 90.625 58.2461C90.2031 58.5898 89.75 58.8906 89.2695 59.1484C88.1367 59.7109 87.0234 60.3008 85.9258 60.9258C84.8242 61.5508 83.7461 62.2031 82.6836 62.8867C81.6211 63.5703 80.5781 64.2852 79.5586 65.0273C78.5352 65.7695 77.5352 66.5391 76.5547 67.3359C75.5781 68.1367 74.6211 68.9609 73.6875 69.8125C72.7539 70.6641 71.8477 71.5391 70.9609 72.4414C70.0781 73.3438 69.2187 74.2695 68.3867 75.2227C67.5547 76.1719 66.75 77.1445 65.9727 78.1406C65.1953 79.1328 64.4453 80.1523 63.7227 81.1875C63.0039 82.2227 62.3125 83.2812 61.6484 84.3555C60.9883 85.4336 60.3555 86.5273 59.7539 87.6367C59.1523 88.7461 58.582 89.875 58.0469 91.0156C57.5078 92.1602 57.0039 93.3164 56.5273 94.4883C56.0547 95.6602 55.6133 96.8438 55.207 98.0391C54.8008 99.2344 54.4258 100.441 54.0859 101.656C53.7461 102.875 53.4414 104.098 53.168 105.332C52.8984 106.566 52.6602 107.805 52.4609 109.051C52.2578 110.301 52.0898 111.551 51.957 112.809C51.8242 114.062 51.7266 115.324 51.668 116.586C51.6055 117.844 51.5781 119.109 51.5859 120.371C51.5937 121.633 51.6367 122.895 51.7188 124.156C51.7969 125.418 51.9102 126.676 52.0586 127.93C52.2109 129.184 52.3945 130.434 52.6133 131.676C52.832 132.922 53.0859 134.156 53.375 135.387C53.6641 136.617 53.9844 137.84 54.3398 139.051C54.6992 140.262 55.0859 141.461 55.5117 142.652C55.9336 143.844 56.3906 145.02 56.8789 146.184C57.3711 147.348 57.8906 148.5 58.4453 149.633C59 150.77 59.582 151.887 60.1992 152.992C60.8164 154.094 61.4609 155.18 62.1406 156.246C62.8164 157.312 63.5234 158.359 64.2578 159.387C64.9922 160.414 65.7539 161.418 66.5469 162.402C67.3398 163.387 68.1562 164.348 69 165.289C69.8477 166.227 70.7188 167.141 71.6133 168.031C72.5117 168.922 73.4297 169.785 74.375 170.625C75.3203 171.465 76.2852 172.273 77.2773 173.059C78.2656 173.844 79.2773 174.602 80.3086 175.328C81.3398 176.059 82.3945 176.758 83.4648 177.426C84.5352 178.094 85.625 178.734 86.7305 179.344C87.8398 179.953 88.9609 180.527 90.1016 181.074C91.2383 181.621 92.3945 182.133 93.5625 182.613C94.7266 183.098 95.9102 183.547 97.1016 183.961C98.293 184.375 99.5 184.758 100.711 185.105C101.926 185.453 103.148 185.77 104.383 186.047C105.613 186.328 106.852 186.574 108.098 186.785C109.344 186.996 110.594 187.172 111.848 187.312C113.102 187.453 114.363 187.559 115.621 187.629C116.883 187.699 118.145 187.734 119.41 187.734C120.672 187.734 121.934 187.699 123.195 187.629C124.457 187.559 125.715 187.453 126.969 187.312C128.227 187.172 129.477 186.996 130.723 186.785C131.969 186.574 133.207 186.328 134.438 186.047C135.668 185.77 136.891 185.453 138.105 185.105C139.32 184.758 140.523 184.375 141.719 183.961C142.91 183.547 144.09 183.098 145.258 182.613C146.426 182.133 147.578 181.621 148.719 181.074C149.859 180.527 150.98 179.953 152.086 179.344C153.195 178.734 154.285 178.094 155.355 177.426C156.426 176.758 157.477 176.059 158.508 175.328C159.543 174.602 160.551 173.844 161.543 173.059C162.531 172.273 163.5 171.465 164.445 170.625C165.387 169.785 166.309 168.922 167.207 168.031C168.102 167.141 168.973 166.227 169.816 165.289C170.664 164.348 171.48 163.387 172.273 162.402C173.062 161.418 173.828 160.414 174.562 159.387C175.297 158.359 176.004 157.312 176.68 156.246C177.355 155.18 178.004 154.094 178.617 152.992C179.234 151.887 179.82 150.77 180.375 149.633C180.926 148.5 181.449 147.348 181.938 146.184C182.426 145.02 182.883 143.844 183.309 142.652C183.73 141.461 184.121 140.262 184.477 139.051C184.832 137.84 185.156 136.617 185.445 135.387C185.734 134.156 185.988 132.922 186.207 131.676C186.426 130.434 186.609 129.184 186.758 127.93C186.906 126.676 187.023 125.418 187.102 124.156C187.18 122.895 187.223 121.633 187.234 120.371C187.242 119.109 187.215 117.844 187.152 116.586C187.09 115.324 186.992 114.062 186.863 112.809C186.73 111.551 186.562 110.301 186.359 109.051C186.156 107.805 185.922 106.566 185.648 105.332C185.379 104.098 185.07 102.875 184.73 101.656C184.391 100.441 184.02 99.2344 183.609 98.0391C183.203 96.8438 182.762 95.6602 182.289 94.4883C181.816 93.3164 181.312 92.1602 180.773 91.0156C180.234 89.875 179.664 88.7461 179.062 87.6367C178.465 86.5273 177.832 85.4336 177.168 84.3555C176.508 83.2812 175.816 82.2227 175.094 81.1875C174.375 80.1484 173.625 79.1328 172.848 78.1406C172.066 77.1445 171.262 76.1719 170.43 75.2227C169.598 74.2695 168.742 73.3438 167.855 72.4414C166.973 71.5391 166.063 70.6641 165.129 69.8125C164.199 68.9609 163.242 68.1367 162.262 67.3359C161.285 66.5391 160.281 65.7695 159.262 65.0273C158.238 64.2852 157.195 63.5703 156.133 62.8867C155.074 62.2031 153.992 61.5508 152.895 60.9258C151.797 60.3008 150.68 59.7109 149.551 59.1484C149.066 58.8906 148.617 58.5898 148.195 58.2461C147.77 57.8984 147.387 57.5156 147.035 57.0977C146.688 56.6758 146.383 56.2305 146.121 55.75C145.859 55.2695 145.645 54.7734 145.477 54.2539C145.313 53.7305 145.199 53.2031 145.133 52.6602C145.07 52.1172 145.063 51.5742 145.102 51.0312C145.145 50.4844 145.238 49.9492 145.383 49.4258C145.527 48.8984 145.723 48.3906 145.965 47.9023C146.207 47.4141 146.496 46.9531 146.828 46.5195C147.16 46.0859 147.527 45.6914 147.938 45.3281C148.348 44.9648 148.785 44.6484 149.258 44.3711C149.727 44.0937 150.219 43.8633 150.734 43.6836C151.246 43.5 151.773 43.3711 152.316 43.2891C152.855 43.2109 153.398 43.1836 153.941 43.207C154.488 43.2344 155.023 43.3086 155.555 43.4375C156.086 43.5664 156.598 43.7461 157.094 43.9727C158.59 44.7188 160.059 45.5078 161.508 46.3398C162.957 47.1719 164.379 48.0469 165.773 48.9648C167.172 49.8828 168.539 50.8398 169.879 51.8359C171.219 52.832 172.527 53.8711 173.805 54.9453C175.082 56.0195 176.328 57.1328 177.539 58.2812C178.754 59.4297 179.93 60.6133 181.074 61.832C182.215 63.0469 183.32 64.3008 184.391 65.582C185.461 66.8672 186.488 68.1797 187.48 69.5234C188.473 70.8672 189.422 72.2422 190.332 73.6406C191.242 75.043 192.109 76.4688 192.938 77.9219C193.762 79.3711 194.543 80.8477 195.281 82.3438C196.02 83.8438 196.715 85.3633 197.363 86.9023C198.012 88.4414 198.613 89.9961 199.172 91.5703C199.73 93.1445 200.238 94.7344 200.699 96.3398C201.164 97.9453 201.578 99.5625 201.945 101.191C202.313 102.82 202.633 104.461 202.902 106.109C203.172 107.758 203.395 109.41 203.566 111.074C203.738 112.734 203.863 114.398 203.938 116.066C204.012 117.734 204.035 119.406 204.012 121.074C203.988 122.746 203.914 124.414 203.789 126.078C203.668 127.742 203.496 129.406 203.273 131.059C203.055 132.715 202.785 134.363 202.465 136.004C202.148 137.641 201.781 139.27 201.363 140.891C200.949 142.508 200.488 144.109 199.98 145.703C199.469 147.293 198.914 148.867 198.309 150.426C197.707 151.98 197.059 153.52 196.367 155.039C195.672 156.559 194.934 158.059 194.152 159.531C193.371 161.008 192.547 162.461 191.676 163.887C190.809 165.312 189.902 166.715 188.949 168.086C188 169.461 187.008 170.805 185.98 172.121C184.949 173.434 183.883 174.719 182.773 175.969C181.668 177.219 180.527 178.437 179.348 179.621H179.223Z" fill="url(#paint0_linear)"/>
<defs>
<linearGradient id="paint0_linear" x1="119.283" y1="0.988281" x2="119.283" y2="238.375" gradientUnits="userSpaceOnUse">
<stop stop-color="#F55959"/>
<stop offset="1" stop-color="#EA0303"/>
</linearGradient>
</defs>
</svg>
