<?xml version="1.0" encoding="UTF-8"?>
<svg xmlns="http://www.w3.org/2000/svg" xmlns:xlink="http://www.w3.org/1999/xlink" width="375pt" height="374.999991pt" viewBox="0 0 375 374.999991" version="1.2">
<defs>
<clipPath id="clip1">
  <path d="M 0 125 L 51 125 L 51 286.96875 L 0 286.96875 Z M 0 125 "/>
</clipPath>
<clipPath id="clip2">
  <path d="M 25 87.65625 L 375 87.65625 L 375 286.96875 L 25 286.96875 Z M 25 87.65625 "/>
</clipPath>
</defs>
<g id="surface1">
<g clip-path="url(#clip1)" clip-rule="nonzero">
<path style=" stroke:none;fill-rule:nonzero;fill:rgb(78.039551%,26.269531%,26.269531%);fill-opacity:1;" d="M 0.292969 149.941406 L 25.253906 149.941406 L 25.253906 286.96875 L 50.214844 286.96875 L 50.214844 125.027344 L 0.292969 125.027344 Z M 0.292969 149.941406 "/>
</g>
<g clip-path="url(#clip2)" clip-rule="nonzero">
<path style=" stroke:none;fill-rule:nonzero;fill:rgb(78.039551%,26.269531%,26.269531%);fill-opacity:1;" d="M 25.253906 112.570312 L 62.695312 112.570312 L 62.695312 286.96875 L 87.65625 286.96875 L 87.65625 87.65625 L 25.253906 87.65625 Z M 137.578125 187.3125 C 137.578125 146.09375 171.164062 112.570312 212.460938 112.570312 C 253.757812 112.570312 287.34375 146.09375 287.34375 187.3125 L 312.304688 187.3125 C 312.304688 132.363281 267.511719 87.65625 212.460938 87.65625 C 157.410156 87.65625 112.617188 132.363281 112.617188 187.3125 C 112.617188 242.261719 157.410156 286.96875 212.460938 286.96875 L 374.707031 286.96875 L 374.707031 262.054688 L 212.460938 262.054688 C 171.164062 262.054688 137.578125 228.53125 137.578125 187.3125 Z M 137.578125 187.3125 "/>
</g>
<path style=" stroke:none;fill-rule:nonzero;fill:rgb(78.039551%,26.269531%,26.269531%);fill-opacity:1;" d="M 212.460938 212.226562 C 198.695312 212.226562 187.5 201.050781 187.5 187.3125 C 187.5 173.574219 198.695312 162.398438 212.460938 162.398438 C 226.226562 162.398438 237.421875 173.574219 237.421875 187.3125 L 262.382812 187.3125 C 262.382812 159.832031 239.992188 137.484375 212.460938 137.484375 C 184.929688 137.484375 162.539062 159.832031 162.539062 187.3125 C 162.539062 214.792969 184.929688 237.140625 212.460938 237.140625 L 374.707031 237.140625 L 374.707031 212.226562 Z M 212.460938 212.226562 "/>
</g>
</svg>
