<svg width="375" height="246" viewBox="0 0 375 246" fill="none" xmlns="http://www.w3.org/2000/svg">
<path d="M374.867 236.402C374.867 241.242 290.988 245.168 187.516 245.168C84.043 245.168 0.152344 241.242 0.152344 236.402C0.152344 231.559 84.043 227.637 187.516 227.637C290.988 227.637 374.867 231.559 374.867 236.402Z" fill="#BFC6D3"/>
<path d="M335.48 183.668C335.48 190.785 329.715 196.559 322.609 196.559H52.3984C45.2969 196.559 39.5391 190.785 39.5391 183.668V13.3008C39.5391 6.18359 45.2969 0.394531 52.3984 0.394531H322.609C329.715 0.394531 335.48 6.18359 335.48 13.3008V183.668Z" fill="#FEF3D2"/>
<path d="M230.145 239.117H145.406L150.57 165.613H222.426L230.145 239.117Z" fill="#4D4D4D"/>
<path d="M335.48 183.668C335.48 190.785 329.715 196.559 322.609 196.559H52.3984C45.2969 196.559 39.5391 190.785 39.5391 183.668V13.3008C39.5391 6.18359 45.2969 0.394531 52.3984 0.394531H322.609C329.715 0.394531 335.48 6.18359 335.48 13.3008V183.668Z" fill="#686868"/>
<path d="M321.707 152.707H51.1211V13.4375H321.707V152.707Z" fill="#EFEFEF"/>
<path d="M52.3984 196.559H322.609C329.715 196.559 335.48 190.785 335.48 183.668V164.316H39.5391V183.668C39.5391 190.785 45.2969 196.559 52.3984 196.559Z" fill="#686868"/>
<path d="M267.387 227.512H104.141V239.117H267.387V227.512Z" fill="#5C5C5C"/>
<path d="M295.426 165.844C295.426 168.246 293.391 170.191 290.871 170.191H80.6562C78.1367 170.191 76.0938 168.246 76.0938 165.844V30.7305C76.0938 28.3281 78.1367 26.3789 80.6562 26.3789H290.871C293.391 26.3789 295.426 28.3281 295.426 30.7305V165.844Z" fill="#7056B0"/>
<path d="M286.094 156.871C286.094 159.523 283.883 161.68 281.141 161.68H90.0156C87.2852 161.68 85.0703 159.523 85.0703 156.871V40.3984C85.0703 37.7422 87.2852 35.5938 90.0156 35.5938H281.141C283.883 35.5938 286.094 37.7422 286.094 40.3984V156.871Z" fill="white"/>
<path d="M214.918 41.6562L286.098 17.8203V179.039L213.863 156.582L214.918 41.6562Z" fill="#DBE0EB"/>
<path d="M202.832 41.6562L274.008 17.8203V179.039L201.773 156.582L202.832 41.6562Z" fill="white"/>
<path d="M185.59 35.5938L260.797 9.625V181.535L184.465 161.676L185.59 35.5938Z" fill="#DBE0EB"/>
<path d="M176.375 48.1406C176.375 49.3555 175.34 50.3359 174.066 50.3359H95.7734C94.5 50.3359 93.4727 49.3555 93.4727 48.1406C93.4727 46.9258 94.5 45.9375 95.7734 45.9375H174.066C175.34 45.9375 176.375 46.9258 176.375 48.1406Z" fill="#DD3A3A"/>
<path d="M176.375 58.8711C176.375 60.0898 175.34 61.0742 174.066 61.0742H95.7734C94.5 61.0742 93.4727 60.0898 93.4727 58.8711C93.4727 57.6602 94.5 56.6797 95.7734 56.6797H174.066C175.34 56.6797 176.375 57.6602 176.375 58.8711Z" fill="#DD3A3A"/>
<path d="M176.375 69.6094C176.375 70.8281 175.34 71.8125 174.066 71.8125H95.7734C94.5 71.8125 93.4727 70.8281 93.4727 69.6094C93.4727 68.3984 94.5 67.4141 95.7734 67.4141H174.066C175.34 67.4141 176.375 68.3984 176.375 69.6094Z" fill="#DD3A3A"/>
<path d="M176.375 125.98C176.375 127.195 175.34 128.176 174.066 128.176H95.7734C94.5 128.176 93.4727 127.195 93.4727 125.98C93.4727 124.766 94.5 123.777 95.7734 123.777H174.066C175.34 123.777 176.375 124.766 176.375 125.98Z" fill="#DD3A3A"/>
<path d="M176.375 136.715C176.375 137.93 175.34 138.918 174.066 138.918H95.7734C94.5 138.918 93.4727 137.93 93.4727 136.715C93.4727 135.5 94.5 134.516 95.7734 134.516H174.066C175.34 134.516 176.375 135.5 176.375 136.715Z" fill="#DD3A3A"/>
<path d="M176.375 147.449C176.375 148.664 175.34 149.648 174.066 149.648H95.7734C94.5 149.648 93.4727 148.664 93.4727 147.449C93.4727 146.234 94.5 145.25 95.7734 145.25H174.066C175.34 145.25 176.375 146.234 176.375 147.449Z" fill="#DD3A3A"/>
<path d="M128.598 115.727H93.4727V80.832H128.598V115.727Z" fill="#F23F3F"/>
<path d="M176.375 115.727H141.25V80.832H176.375V115.727Z" fill="#F23F3F"/>
<path d="M277.957 132.562C276.637 131.898 272.258 131.391 269.836 134.785C266.586 139.336 265.109 150.648 258.082 153.824C251.039 156.992 246.828 153.93 243.746 152.23C240.656 150.543 240.215 148.418 238.297 147.633C236.398 146.859 235.566 149.168 239.863 153.066C241.93 154.926 251 165.363 260.078 163.152C271.973 160.242 285.754 136.461 277.957 132.562Z" fill="#E27A63"/>
<path d="M256.297 211.179C257.895 219.832 262.293 231.168 262.457 237.094C262.481 238.035 262.348 238.379 259.281 239.078C256.215 239.754 258.984 241.711 264.172 241.988C269.359 242.265 268.141 217.129 266.379 205.265C264.828 194.887 254.43 201.148 256.297 211.179Z" fill="#EF8E72"/>
<path d="M266.566 239.641C266.566 239.641 261.895 241.27 259.281 239.078C259.281 239.078 254.145 239.434 257.23 241.043C260.32 242.66 266.391 244.277 266.566 239.641Z" fill="#7478C4"/>
<path d="M286.094 156.871C286.094 156.871 259.094 175.301 255.102 184.867C251.527 193.473 259.047 228.453 259.047 228.453C259.047 228.453 264.652 230.77 269.871 227.672L269.582 200.555L292.437 180.188L286.094 156.871Z" fill="#E34392"/>
<path d="M298.668 219.133C306.031 224.972 317.535 230.996 321.824 235.664C322.508 236.398 322.645 236.769 320.66 239.504C318.672 242.199 322.266 241.832 326.641 238.394C331.012 234.961 312.383 215.57 302.637 207.258C294.105 199.988 290.117 212.367 298.668 219.133Z" fill="#EF8E72"/>
<path d="M326.926 234.82C326.926 234.82 324.305 239.414 320.664 239.504C320.664 239.504 316.77 243.41 320.391 242.531C324.008 241.652 330.031 238.672 326.926 234.82Z" fill="#7478C4"/>
<path d="M290.051 156.789C290.051 156.789 275.73 188.262 279.242 198.773C282.398 208.234 313.012 231.098 313.012 231.098C313.012 231.098 319.156 229.023 321.184 222.836L301.914 201.203L306.023 168.676L290.051 156.789Z" fill="#F359A5"/>
<path d="M305.961 166.926C305.969 166.918 305.984 166.906 305.984 166.898C305.984 166.898 305.969 166.914 305.961 166.926C305.82 166.711 305.699 166.52 305.555 166.305C300.695 157.922 297.215 152.738 297.645 142.914C298.262 128.824 287.879 129.906 281.539 130.418C275.207 130.937 265.191 133.711 265.316 145.023C265.406 153.18 268.148 163.723 273.172 170.57C278.879 178.336 312.844 175.656 305.961 166.926Z" fill="#FCD6DA"/>
<path d="M305.555 166.304C305.703 166.519 305.82 166.711 305.965 166.922C305.969 166.914 305.984 166.894 305.984 166.894C305.984 166.906 305.969 166.918 305.965 166.922C311.289 173.679 292.195 176.801 280.621 174.289C278.859 171.562 287.578 170.969 290.848 168.398C298.379 162.457 271.855 161.558 276.457 159.406C281.418 157.094 288.75 158.144 285.629 150.847C282.492 143.562 286.113 134.172 289.199 131.277C292.438 128.254 299.402 134.101 297.516 139.371C297.641 140.437 297.703 141.59 297.648 142.91C297.219 152.738 300.695 157.922 305.555 166.304Z" fill="#F0B3BA"/>
<path d="M209.164 159.523L208.664 87.5625L271.848 121.418L242.93 124.93L262.16 156.719L244.254 167.602L224.422 136.18L209.164 159.523Z" fill="#F29D10"/>
<path d="M294.496 131.367C293.188 130.691 288.82 130.129 286.348 133.496C283.039 138.004 281.434 149.301 274.367 152.383C267.285 155.465 263.105 152.348 260.039 150.625C256.969 148.891 256.555 146.758 254.66 145.953C252.77 145.152 251.906 147.453 256.156 151.402C258.199 153.293 267.145 163.84 276.25 161.734C288.172 158.976 302.234 135.363 294.496 131.367Z" fill="#E27A63"/>
<path d="M280.762 122.125C280.762 122.125 279.289 127.461 283.211 129.496C287.227 131.578 274.672 141.309 274.516 138.371C274.32 134.57 275.84 132.035 273.289 128.07L280.762 122.125Z" fill="#E75945"/>
<path d="M271.309 114.117C268.668 117.641 267.512 131.359 271.324 133.684C272.992 134.68 278.703 132.242 281.48 125.824C282.625 123.195 283.781 118.422 280.621 114.367C279.184 112.524 274.398 110.008 271.309 114.117Z" fill="#F3A688"/>
<path d="M268.371 116.25C267.945 118.019 268.211 118.363 273.289 118.262C278.355 118.172 279.156 117.695 278.848 118.969C277.977 122.691 281.375 121.402 280.285 125.855C279.191 130.308 282.906 127.086 284.148 123.379C284.395 122.621 285.891 118.945 282.609 114.211C278.77 108.68 269.918 109.769 268.371 116.25Z" fill="#313664"/>
<path d="M282.609 114.207C285.941 118.524 284.395 122.621 284.148 123.379C283.219 126.125 280.941 128.676 280.277 127.871C279.484 126.903 282.578 125.942 281.191 123.184C279.812 120.426 281.637 119.469 280.738 117.012C279.848 114.551 278.039 115.367 272.312 115.465C269.992 115.512 269.406 114.699 269.516 113.735C272.449 109.61 279.117 109.676 282.609 114.207Z" fill="#313664"/>
<path d="M65.5352 202.77C65.5352 204.449 56.2852 205.809 44.8594 205.809C33.4336 205.809 24.1758 204.449 24.1758 202.77C24.1758 201.09 33.4336 199.723 44.8594 199.723C56.2852 199.723 65.5352 201.09 65.5352 202.77Z" fill="#F18214"/>
<path d="M44.8594 199.723C33.4336 199.723 24.1758 201.09 24.1758 202.77H65.5352C65.5352 201.09 56.2852 199.723 44.8594 199.723Z" fill="#F18214"/>
<path d="M35 215.93C35 215.93 48.2188 191.558 35 179.285C21.7734 167.012 26.1094 150.426 31.2422 142.426C36.3633 134.418 31.7109 110.926 17.125 115.14C2.53907 119.348 4.84766 149.914 11.7656 155.992C24.0273 166.781 10.168 185.828 30.3281 193.098C40.0703 196.605 35 215.93 35 215.93Z" fill="#2EB14D"/>
<path d="M54.1797 110.422C49.5781 107.633 40.6641 103.172 38.0274 119.684C34.6875 140.496 60.9414 149.629 52.4414 156.687C33.1914 172.656 26.3047 186.199 38.0274 199.723C43.5664 206.121 46.0117 213.797 35.4219 214.027C24.832 214.262 72.4688 212.066 61.5977 177.465C59.4414 170.613 80.6485 157.609 69.3711 141.41C62.086 130.949 70.1055 120.105 54.1797 110.422Z" fill="#34C355"/>
<path d="M38.8789 211.582C38.8789 211.582 48.5781 203.777 41.1992 196.414C25.8281 181.074 47.2149 174.176 35.3203 162.308C23.4336 150.433 35.1172 133.363 47.2774 133.742C50.9883 133.848 57.3203 134.539 49.0703 145.129C35.5938 162.441 48.9844 172.902 51.3555 177.988C56.332 188.695 56.1446 205.336 38.8789 211.582Z" fill="#24933E"/>
<path d="M48.3594 212.125C48.3594 212.125 40.4687 197.586 48.3594 190.254C56.2539 182.934 53.664 173.039 50.6055 168.254C47.5508 163.488 50.3242 149.465 59.0312 151.981C67.7422 154.496 66.3594 172.735 62.2344 176.36C54.914 182.801 63.1953 194.164 51.1523 198.5C45.3359 200.598 48.3594 212.125 48.3594 212.125Z" fill="#2BA647"/>
<path d="M44.8594 205.809C33.4336 205.809 24.1758 204.449 24.1758 202.77L28.582 239.535C28.582 241.215 35.8672 242.578 44.8594 242.578C53.8438 242.578 61.1367 241.215 61.1367 239.535L65.5352 202.77C65.5352 204.449 56.2852 205.809 44.8594 205.809Z" fill="#FAB92D"/>
</svg>
