<?xml version="1.0" encoding="UTF-8"?>
<svg xmlns="http://www.w3.org/2000/svg" xmlns:xlink="http://www.w3.org/1999/xlink" width="375pt" height="374.999991pt" viewBox="0 0 375 374.999991" version="1.2">
<g id="surface1">
<path style=" stroke:none;fill-rule:nonzero;fill:rgb(78.039551%,92.939758%,90.19928%);fill-opacity:1;" d="M 353.503906 214.996094 C 354.8125 212.3125 355.972656 209.488281 356.972656 206.527344 C 368.449219 172.664062 351.09375 132.101562 314.554688 122.308594 C 310.609375 72.695312 275.742188 38.660156 236.367188 32.851562 C 191.300781 26.207031 150.015625 54.835938 136.277344 100.335938 C 119.722656 94.472656 103.589844 95.1875 88.382812 104.074219 C 81.484375 107.261719 75.175781 111.96875 69.511719 118.164062 C 61.203125 127.253906 55.796875 138.726562 53.597656 150.828125 C 50.335938 151.339844 47.132812 151.855469 44.113281 152.9375 C 26.507812 159.25 15.398438 172.246094 12.351562 191.824219 C 10.457031 204.011719 14.28125 216.171875 16.417969 221.082031 C 24.851562 240.5 44.40625 251.503906 64.273438 248.59375 C 65.265625 248.449219 66.703125 248.894531 67.550781 249.605469 C 68.601562 280.636719 83.667969 308.082031 106.269531 323.757812 C 142.53125 348.910156 189.191406 341.164062 218.625 306.667969 C 231.238281 319.566406 246.246094 325.835938 263.878906 323.558594 C 281.414062 321.296875 295.027344 311.625 304.960938 295.890625 C 309.550781 297.125 313.898438 298.902344 318.394531 299.394531 C 336.011719 301.320312 350.316406 294.316406 360.808594 278.476562 C 364.828125 272.414062 368.628906 264.554688 368.621094 250.785156 C 368.632812 236.597656 362.992188 223.667969 353.503906 214.996094 Z M 353.503906 214.996094 "/>
<path style=" stroke:none;fill-rule:nonzero;fill:rgb(99.21875%,98.81897%,93.728638%);fill-opacity:1;" d="M 299.3125 192.875 C 299.3125 192.875 350.261719 192.875 350.570312 192.875 C 362.339844 192.875 371.875 183.332031 371.875 171.566406 C 371.875 161.304688 364.613281 152.734375 354.945312 150.71875 C 355.058594 149.820312 355.132812 148.910156 355.132812 147.980469 C 355.132812 135.796875 345.253906 125.914062 333.070312 125.914062 C 325.875 125.914062 319.503906 129.375 315.476562 134.707031 C 314.449219 121.140625 302.328125 110.675781 288.152344 112.410156 C 277.78125 113.679688 269.210938 121.691406 267.300781 131.960938 C 266.691406 135.253906 266.753906 138.449219 267.363281 141.449219 C 264.582031 138.453125 260.625 136.570312 256.21875 136.570312 C 248.15625 136.570312 241.570312 142.851562 241.050781 150.78125 C 237.390625 149.972656 233.410156 150.023438 229.210938 151.601562 C 221.191406 154.613281 215.484375 162.160156 215.148438 170.722656 C 214.671875 182.875 224.386719 192.882812 236.4375 192.882812 C 237.351562 192.882812 240.570312 192.882812 241.308594 192.882812 L 285.558594 192.882812 "/>
<path style=" stroke:none;fill-rule:nonzero;fill:rgb(27.839661%,16.859436%,16.079712%);fill-opacity:1;" d="M 350.566406 195.050781 L 299.3125 195.050781 C 298.109375 195.050781 297.132812 194.078125 297.132812 192.875 C 297.132812 191.671875 298.109375 190.695312 299.3125 190.695312 L 350.570312 190.695312 C 361.117188 190.695312 369.699219 182.113281 369.699219 171.566406 C 369.699219 162.558594 363.308594 154.6875 354.507812 152.847656 C 353.398438 152.617188 352.652344 151.574219 352.789062 150.453125 C 352.886719 149.640625 352.960938 148.816406 352.960938 147.980469 C 352.960938 137.015625 344.039062 128.09375 333.078125 128.09375 C 326.808594 128.09375 321.023438 130.984375 317.222656 136.019531 C 316.675781 136.742188 315.730469 137.050781 314.871094 136.796875 C 314 136.539062 313.378906 135.773438 313.308594 134.871094 C 312.855469 128.871094 309.917969 123.230469 305.246094 119.40625 C 300.53125 115.535156 294.570312 113.832031 288.425781 114.570312 C 278.984375 115.726562 271.183594 123.039062 269.449219 132.355469 C 268.910156 135.269531 268.929688 138.179688 269.511719 141.011719 C 269.707031 141.972656 269.242188 142.9375 268.367188 143.386719 C 267.515625 143.835938 266.445312 143.652344 265.777344 142.933594 C 263.273438 140.234375 259.878906 138.753906 256.230469 138.753906 C 249.394531 138.753906 243.683594 144.101562 243.238281 150.925781 C 243.195312 151.5625 242.882812 152.148438 242.371094 152.527344 C 241.867188 152.90625 241.203125 153.042969 240.597656 152.910156 C 236.921875 152.09375 233.457031 152.339844 229.992188 153.636719 C 222.71875 156.367188 217.632812 163.265625 217.34375 170.800781 C 217.136719 176.058594 219.027344 181.042969 222.664062 184.824219 C 226.304688 188.605469 231.203125 190.695312 236.449219 190.695312 L 285.558594 190.695312 C 286.761719 190.695312 287.738281 191.671875 287.738281 192.875 C 287.738281 194.078125 286.761719 195.050781 285.558594 195.050781 L 236.441406 195.050781 C 229.996094 195.050781 223.984375 192.496094 219.515625 187.84375 C 215.046875 183.199219 212.726562 177.085938 212.976562 170.628906 C 213.339844 161.363281 219.558594 152.898438 228.453125 149.554688 C 231.945312 148.242188 235.546875 147.8125 239.207031 148.253906 C 240.851562 140.308594 247.910156 134.386719 256.226562 134.386719 C 259.207031 134.386719 262.128906 135.167969 264.695312 136.605469 C 264.691406 134.929688 264.847656 133.242188 265.160156 131.554688 C 267.234375 120.390625 276.578125 111.625 287.890625 110.242188 C 295.234375 109.335938 302.359375 111.40625 308 116.03125 C 312.378906 119.617188 315.480469 124.535156 316.882812 129.945312 C 321.292969 125.953125 326.988281 123.738281 333.070312 123.738281 C 346.4375 123.738281 357.308594 134.613281 357.308594 147.980469 C 357.308594 148.34375 357.300781 148.703125 357.277344 149.066406 C 367.101562 151.996094 374.046875 161.167969 374.046875 171.570312 C 374.054688 184.519531 363.519531 195.050781 350.566406 195.050781 Z M 350.566406 195.050781 "/>
<path style=" stroke:none;fill-rule:nonzero;fill:rgb(99.21875%,98.81897%,93.728638%);fill-opacity:1;" d="M 286.964844 145.941406 C 279.085938 145.421875 272.300781 150.867188 271.816406 158.097656 C 271.753906 158.992188 271.792969 159.878906 271.925781 160.738281 C 270.40625 159.019531 268.15625 157.855469 265.570312 157.6875 C 260.84375 157.375 256.757812 160.496094 256.167969 164.746094 C 255.308594 164.511719 254.410156 164.355469 253.480469 164.292969 C 246.585938 163.839844 240.652344 168.601562 240.222656 174.929688 "/>
<path style=" stroke:none;fill-rule:nonzero;fill:rgb(27.839661%,16.859436%,16.079712%);fill-opacity:1;" d="M 240.222656 176.019531 C 240.199219 176.019531 240.175781 176.019531 240.148438 176.019531 C 239.550781 175.980469 239.09375 175.464844 239.140625 174.863281 C 239.601562 167.949219 246 162.710938 253.554688 163.207031 C 254.144531 163.246094 254.738281 163.324219 255.332031 163.4375 C 256.523438 159.21875 260.792969 156.3125 265.640625 156.605469 C 267.496094 156.726562 269.230469 157.308594 270.710938 158.269531 C 270.714844 158.1875 270.71875 158.109375 270.726562 158.027344 C 271.25 150.207031 278.574219 144.320312 287.035156 144.855469 C 287.636719 144.894531 288.089844 145.414062 288.046875 146.015625 C 288.011719 146.589844 287.53125 147.03125 286.960938 147.03125 C 286.9375 147.03125 286.914062 147.03125 286.886719 147.03125 C 279.691406 146.546875 273.339844 151.550781 272.894531 158.175781 C 272.839844 158.96875 272.875 159.777344 272.992188 160.585938 C 273.066406 161.058594 272.8125 161.527344 272.375 161.730469 C 271.929688 161.925781 271.414062 161.828125 271.097656 161.464844 C 269.714844 159.90625 267.671875 158.925781 265.488281 158.78125 C 261.347656 158.496094 257.757812 161.199219 257.238281 164.902344 C 257.191406 165.210938 257.015625 165.488281 256.757812 165.660156 C 256.496094 165.835938 256.171875 165.882812 255.875 165.804688 C 255.050781 165.582031 254.21875 165.4375 253.402344 165.386719 C 247.117188 164.957031 241.6875 169.296875 241.304688 175.007812 C 241.269531 175.582031 240.796875 176.019531 240.222656 176.019531 Z M 240.222656 176.019531 "/>
<path style=" stroke:none;fill-rule:nonzero;fill:rgb(99.21875%,98.81897%,93.728638%);fill-opacity:1;" d="M 359.195312 153.214844 C 351.792969 149.722656 343.226562 152.195312 340.070312 158.738281 C 339.675781 159.546875 339.382812 160.386719 339.191406 161.238281 "/>
<path style=" stroke:none;fill-rule:nonzero;fill:rgb(27.839661%,16.859436%,16.079712%);fill-opacity:1;" d="M 339.191406 162.324219 C 339.109375 162.324219 339.03125 162.316406 338.945312 162.296875 C 338.359375 162.160156 337.996094 161.574219 338.128906 160.988281 C 338.347656 160.046875 338.664062 159.128906 339.082031 158.265625 C 342.496094 151.195312 351.71875 148.484375 359.660156 152.234375 C 360.203125 152.492188 360.4375 153.140625 360.179688 153.683594 C 359.917969 154.230469 359.265625 154.460938 358.730469 154.207031 C 351.867188 150.980469 343.941406 153.222656 341.050781 159.214844 C 340.699219 159.933594 340.429688 160.699219 340.246094 161.488281 C 340.136719 161.984375 339.691406 162.324219 339.191406 162.324219 Z M 339.191406 162.324219 "/>
<path style=" stroke:none;fill-rule:nonzero;fill:rgb(100%,100%,100%);fill-opacity:1;" d="M 46.976562 180.289062 L 3.265625 180.289062 C 2.0625 180.289062 1.085938 179.3125 1.085938 178.109375 C 1.085938 176.90625 2.0625 175.929688 3.265625 175.929688 L 46.976562 175.929688 C 48.179688 175.929688 49.15625 176.90625 49.15625 178.109375 C 49.15625 179.3125 48.183594 180.289062 46.976562 180.289062 Z M 59.539062 180.289062 L 53.234375 180.289062 C 52.03125 180.289062 51.054688 179.3125 51.054688 178.109375 C 51.054688 176.90625 52.03125 175.929688 53.234375 175.929688 L 59.539062 175.929688 C 60.738281 175.929688 61.714844 176.90625 61.714844 178.109375 C 61.714844 179.3125 60.746094 180.289062 59.539062 180.289062 Z M 77.203125 180.289062 L 66.109375 180.289062 C 64.90625 180.289062 63.929688 179.3125 63.929688 178.109375 C 63.929688 176.90625 64.90625 175.929688 66.109375 175.929688 L 77.203125 175.929688 C 78.40625 175.929688 79.382812 176.90625 79.382812 178.109375 C 79.382812 179.3125 78.40625 180.289062 77.203125 180.289062 Z M 77.203125 188.414062 L 35.296875 188.414062 C 34.09375 188.414062 33.117188 187.4375 33.117188 186.234375 C 33.117188 185.035156 34.09375 184.058594 35.296875 184.058594 L 77.203125 184.058594 C 78.40625 184.058594 79.382812 185.035156 79.382812 186.234375 C 79.382812 187.4375 78.40625 188.414062 77.203125 188.414062 Z M 27.75 188.414062 L 25.222656 188.414062 C 24.019531 188.414062 23.042969 187.4375 23.042969 186.234375 C 23.042969 185.035156 24.019531 184.058594 25.222656 184.058594 L 27.75 184.058594 C 28.953125 184.058594 29.929688 185.035156 29.929688 186.234375 C 29.929688 187.4375 28.957031 188.414062 27.75 188.414062 Z M 17.390625 188.414062 L 11.042969 188.414062 C 9.839844 188.414062 8.867188 187.4375 8.867188 186.234375 C 8.867188 185.035156 9.839844 184.058594 11.042969 184.058594 L 17.390625 184.058594 C 18.59375 184.058594 19.570312 185.035156 19.570312 186.234375 C 19.570312 187.4375 18.597656 188.414062 17.390625 188.414062 Z M 57.207031 172.160156 L 35.296875 172.160156 C 34.09375 172.160156 33.117188 171.183594 33.117188 169.980469 C 33.117188 168.777344 34.09375 167.800781 35.296875 167.800781 L 57.207031 167.800781 C 58.410156 167.800781 59.382812 168.777344 59.382812 169.980469 C 59.382812 171.183594 58.410156 172.160156 57.207031 172.160156 Z M 57.207031 164.03125 L 51.726562 164.03125 C 50.523438 164.03125 49.546875 163.054688 49.546875 161.851562 C 49.546875 160.648438 50.523438 159.671875 51.726562 159.671875 L 57.207031 159.671875 C 58.410156 159.671875 59.382812 160.648438 59.382812 161.851562 C 59.382812 163.054688 58.410156 164.03125 57.207031 164.03125 Z M 42.960938 196.542969 L 35.292969 196.542969 C 34.089844 196.542969 33.113281 195.566406 33.113281 194.363281 C 33.113281 193.160156 34.089844 192.183594 35.292969 192.183594 L 42.960938 192.183594 C 44.160156 192.183594 45.136719 193.160156 45.136719 194.363281 C 45.136719 195.566406 44.167969 196.542969 42.960938 196.542969 Z M 42.960938 196.542969 "/>
<path style=" stroke:none;fill-rule:nonzero;fill:rgb(100%,100%,100%);fill-opacity:1;" d="M 278.734375 65.769531 L 235.019531 65.769531 C 233.816406 65.769531 232.839844 64.792969 232.839844 63.589844 C 232.839844 62.386719 233.816406 61.410156 235.019531 61.410156 L 278.734375 61.410156 C 279.933594 61.410156 280.910156 62.386719 280.910156 63.589844 C 280.910156 64.792969 279.933594 65.769531 278.734375 65.769531 Z M 291.292969 65.769531 L 284.992188 65.769531 C 283.789062 65.769531 282.8125 64.792969 282.8125 63.589844 C 282.8125 62.386719 283.789062 61.410156 284.992188 61.410156 L 291.292969 61.410156 C 292.496094 61.410156 293.472656 62.386719 293.472656 63.589844 C 293.472656 64.792969 292.496094 65.769531 291.292969 65.769531 Z M 308.964844 65.769531 L 297.867188 65.769531 C 296.667969 65.769531 295.691406 64.792969 295.691406 63.589844 C 295.691406 62.386719 296.667969 61.410156 297.867188 61.410156 L 308.964844 61.410156 C 310.167969 61.410156 311.144531 62.386719 311.144531 63.589844 C 311.144531 64.792969 310.167969 65.769531 308.964844 65.769531 Z M 300.132812 49.511719 L 258.222656 49.511719 C 257.019531 49.511719 256.042969 48.539062 256.042969 47.335938 C 256.042969 46.132812 257.019531 45.15625 258.222656 45.15625 L 300.132812 45.15625 C 301.332031 45.15625 302.308594 46.132812 302.308594 47.335938 C 302.308594 48.539062 301.339844 49.511719 300.132812 49.511719 Z M 250.679688 49.511719 L 248.152344 49.511719 C 246.949219 49.511719 245.972656 48.539062 245.972656 47.335938 C 245.972656 46.132812 246.949219 45.15625 248.152344 45.15625 L 250.679688 45.15625 C 251.882812 45.15625 252.859375 46.132812 252.859375 47.335938 C 252.859375 48.539062 251.882812 49.511719 250.679688 49.511719 Z M 240.320312 49.511719 L 233.976562 49.511719 C 232.773438 49.511719 231.796875 48.539062 231.796875 47.335938 C 231.796875 46.132812 232.773438 45.15625 233.976562 45.15625 L 240.320312 45.15625 C 241.523438 45.15625 242.5 46.132812 242.5 47.335938 C 242.5 48.539062 241.523438 49.511719 240.320312 49.511719 Z M 288.964844 57.640625 L 267.054688 57.640625 C 265.851562 57.640625 264.875 56.664062 264.875 55.460938 C 264.875 54.257812 265.851562 53.285156 267.054688 53.285156 L 288.964844 53.285156 C 290.167969 53.285156 291.144531 54.257812 291.144531 55.460938 C 291.144531 56.664062 290.167969 57.640625 288.964844 57.640625 Z M 288.964844 57.640625 "/>
<path style=" stroke:none;fill-rule:nonzero;fill:rgb(100%,100%,100%);fill-opacity:1;" d="M 288.964844 49.511719 L 283.484375 49.511719 C 282.28125 49.511719 281.304688 48.539062 281.304688 47.335938 C 281.304688 46.132812 282.28125 45.15625 283.484375 45.15625 L 288.964844 45.15625 C 290.167969 45.15625 291.144531 46.132812 291.144531 47.335938 C 291.144531 48.539062 290.167969 49.511719 288.964844 49.511719 Z M 260.707031 57.640625 L 253.046875 57.640625 C 251.84375 57.640625 250.867188 56.664062 250.867188 55.460938 C 250.867188 54.257812 251.84375 53.285156 253.046875 53.285156 L 260.710938 53.285156 C 261.914062 53.285156 262.890625 54.257812 262.890625 55.460938 C 262.890625 56.664062 261.914062 57.640625 260.707031 57.640625 Z M 260.707031 57.640625 "/>
<path style=" stroke:none;fill-rule:nonzero;fill:rgb(96.859741%,36.079407%,36.079407%);fill-opacity:1;" d="M 256.378906 300.316406 L 126.886719 300.316406 C 110.476562 300.316406 97.046875 286.890625 97.046875 270.476562 L 97.046875 140.984375 C 97.046875 124.574219 110.476562 111.144531 126.886719 111.144531 L 256.378906 111.144531 C 272.792969 111.144531 286.21875 124.574219 286.21875 140.984375 L 286.21875 270.476562 C 286.222656 286.890625 272.792969 300.316406 256.378906 300.316406 Z M 256.378906 300.316406 "/>
<path style=" stroke:none;fill-rule:nonzero;fill:rgb(27.839661%,16.859436%,16.079712%);fill-opacity:1;" d="M 256.378906 303.375 L 126.886719 303.375 C 108.753906 303.375 93.996094 288.617188 93.996094 270.484375 L 93.996094 140.984375 C 93.996094 122.847656 108.753906 108.09375 126.886719 108.09375 L 256.378906 108.09375 C 274.519531 108.09375 289.273438 122.851562 289.273438 140.984375 L 289.273438 270.476562 C 289.273438 288.617188 274.519531 303.375 256.378906 303.375 Z M 126.886719 114.195312 C 112.113281 114.195312 100.101562 126.210938 100.101562 140.984375 L 100.101562 270.476562 C 100.101562 285.253906 112.117188 297.269531 126.886719 297.269531 L 256.378906 297.269531 C 271.152344 297.269531 283.167969 285.253906 283.167969 270.476562 L 283.167969 140.984375 C 283.167969 126.210938 271.148438 114.195312 256.378906 114.195312 Z M 126.886719 114.195312 "/>
<path style=" stroke:none;fill-rule:nonzero;fill:rgb(27.839661%,16.859436%,16.079712%);fill-opacity:1;" d="M 248.070312 288.332031 L 135.203125 288.332031 C 120.773438 288.332031 109.035156 276.597656 109.035156 262.167969 L 109.035156 149.296875 C 109.035156 134.867188 120.773438 123.128906 135.203125 123.128906 L 242.683594 123.128906 C 243.523438 123.128906 244.207031 123.816406 244.207031 124.65625 C 244.207031 125.496094 243.527344 126.179688 242.683594 126.179688 L 135.203125 126.179688 C 122.457031 126.179688 112.082031 136.550781 112.082031 149.296875 L 112.082031 262.164062 C 112.082031 274.90625 122.457031 285.277344 135.203125 285.277344 L 248.070312 285.277344 C 260.816406 285.277344 271.1875 274.910156 271.1875 262.164062 L 271.1875 199.722656 C 271.1875 198.882812 271.867188 198.199219 272.714844 198.199219 C 273.558594 198.199219 274.238281 198.882812 274.238281 199.722656 L 274.238281 262.167969 C 274.234375 276.59375 262.5 288.332031 248.070312 288.332031 Z M 272.710938 192.242188 C 271.867188 192.242188 271.183594 191.558594 271.183594 190.714844 L 271.183594 178.707031 C 271.183594 177.863281 271.863281 177.179688 272.710938 177.179688 C 273.554688 177.179688 274.234375 177.863281 274.234375 178.707031 L 274.234375 190.714844 C 274.234375 191.5625 273.554688 192.242188 272.710938 192.242188 Z M 272.710938 192.242188 "/>
<path style=" stroke:none;fill-rule:nonzero;fill:rgb(27.839661%,16.859436%,16.079712%);fill-opacity:1;" d="M 272.710938 174.230469 C 271.867188 174.230469 271.183594 173.546875 271.183594 172.703125 L 271.183594 166.699219 C 271.183594 165.859375 271.863281 165.171875 272.710938 165.171875 C 273.554688 165.171875 274.234375 165.859375 274.234375 166.699219 L 274.234375 172.703125 C 274.234375 173.546875 273.554688 174.230469 272.710938 174.230469 Z M 272.710938 174.230469 "/>
<path style=" stroke:none;fill-rule:nonzero;fill:rgb(99.21875%,98.81897%,93.328857%);fill-opacity:1;" d="M 155.246094 240.054688 L 155.246094 169.980469 L 194.703125 169.980469 L 194.703125 177.867188 L 164.925781 177.867188 L 164.925781 201.859375 L 193.441406 201.859375 L 193.441406 209.753906 L 164.925781 209.753906 L 164.925781 240.054688 Z M 155.246094 240.054688 "/>
<path style=" stroke:none;fill-rule:nonzero;fill:rgb(27.839661%,16.859436%,16.079712%);fill-opacity:1;" d="M 164.925781 241.359375 L 155.246094 241.359375 C 154.523438 241.359375 153.9375 240.773438 153.9375 240.050781 L 153.9375 169.980469 C 153.9375 169.257812 154.523438 168.671875 155.246094 168.671875 L 194.699219 168.671875 C 195.421875 168.671875 196.007812 169.257812 196.007812 169.980469 L 196.007812 177.867188 C 196.007812 178.59375 195.421875 179.175781 194.699219 179.175781 L 166.234375 179.175781 L 166.234375 200.550781 L 193.441406 200.550781 C 194.164062 200.550781 194.746094 201.136719 194.746094 201.859375 L 194.746094 209.753906 C 194.746094 210.476562 194.164062 211.058594 193.441406 211.058594 L 166.234375 211.058594 L 166.234375 240.054688 C 166.234375 240.773438 165.648438 241.359375 164.925781 241.359375 Z M 156.554688 238.746094 L 163.617188 238.746094 L 163.617188 209.753906 C 163.617188 209.027344 164.203125 208.445312 164.925781 208.445312 L 192.132812 208.445312 L 192.132812 203.167969 L 164.925781 203.167969 C 164.203125 203.167969 163.617188 202.582031 163.617188 201.859375 L 163.617188 177.867188 C 163.617188 177.144531 164.203125 176.5625 164.925781 176.5625 L 193.390625 176.5625 L 193.390625 171.289062 L 156.554688 171.289062 Z M 156.554688 238.746094 "/>
<path style=" stroke:none;fill-rule:nonzero;fill:rgb(99.21875%,98.81897%,93.328857%);fill-opacity:1;" d="M 215.742188 227.695312 C 215.742188 229.613281 216.140625 231.085938 216.953125 232.109375 C 217.757812 233.132812 219.144531 233.644531 221.109375 233.644531 C 222.652344 233.644531 224.230469 233.441406 225.847656 233.046875 L 226.269531 239.785156 C 223.957031 240.519531 221.394531 240.890625 218.589844 240.890625 C 214.171875 240.890625 211.011719 239.667969 209.121094 237.21875 C 207.226562 234.769531 206.277344 231.753906 206.277344 228.179688 L 206.277344 169.980469 L 215.75 169.980469 L 215.75 227.695312 Z M 215.742188 227.695312 "/>
<path style=" stroke:none;fill-rule:nonzero;fill:rgb(27.839661%,16.859436%,16.079712%);fill-opacity:1;" d="M 218.582031 242.203125 C 213.761719 242.203125 210.222656 240.796875 208.078125 238.023438 C 206.007812 235.347656 204.964844 232.039062 204.964844 228.183594 L 204.964844 169.980469 C 204.964844 169.257812 205.546875 168.671875 206.269531 168.671875 L 215.742188 168.671875 C 216.464844 168.671875 217.046875 169.257812 217.046875 169.980469 L 217.046875 227.695312 C 217.046875 229.304688 217.363281 230.515625 217.980469 231.304688 C 219.03125 232.636719 222.410156 232.554688 225.535156 231.78125 C 225.914062 231.691406 226.308594 231.773438 226.617188 232 C 226.929688 232.230469 227.125 232.585938 227.148438 232.972656 L 227.574219 239.710938 C 227.609375 240.308594 227.234375 240.855469 226.660156 241.035156 C 224.230469 241.8125 221.511719 242.203125 218.582031 242.203125 Z M 207.578125 171.289062 L 207.578125 228.183594 C 207.578125 231.445312 208.441406 234.21875 210.148438 236.425781 C 211.773438 238.523438 214.613281 239.59375 218.585938 239.59375 C 220.855469 239.59375 222.976562 239.335938 224.898438 238.828125 L 224.636719 234.644531 C 223.441406 234.855469 222.257812 234.960938 221.105469 234.960938 C 218.730469 234.960938 216.988281 234.277344 215.921875 232.925781 C 214.933594 231.667969 214.433594 229.910156 214.433594 227.699219 L 214.433594 171.289062 Z M 207.578125 171.289062 "/>
<path style=" stroke:none;fill-rule:nonzero;fill:rgb(99.21875%,98.81897%,93.728638%);fill-opacity:1;" d="M 147.628906 308.820312 C 155.835938 308.820312 162.957031 308.820312 163.054688 308.820312 C 172.25 308.820312 179.707031 301.527344 179.707031 292.527344 C 179.707031 284.671875 174.035156 278.121094 166.480469 276.574219 C 166.566406 275.886719 166.628906 275.195312 166.628906 274.484375 C 166.628906 265.160156 158.90625 257.605469 149.382812 257.605469 C 143.761719 257.605469 138.78125 260.25 135.632812 264.328125 C 134.828125 253.953125 125.359375 245.945312 114.28125 247.277344 C 106.175781 248.246094 99.476562 254.375 97.984375 262.226562 C 97.503906 264.746094 97.558594 267.191406 98.03125 269.484375 C 95.863281 267.195312 92.769531 265.753906 89.324219 265.753906 C 83.023438 265.753906 77.875 270.558594 77.472656 276.625 C 74.609375 276.003906 71.496094 276.042969 68.21875 277.246094 C 61.953125 279.546875 57.488281 285.320312 57.226562 291.871094 C 56.855469 301.167969 64.449219 308.820312 73.867188 308.820312 C 74.582031 308.820312 77.097656 308.820312 77.675781 308.820312 L 112.253906 308.820312 M 119.398438 308.820312 L 120.96875 308.820312 "/>
<path style=" stroke:none;fill-rule:nonzero;fill:rgb(27.839661%,16.859436%,16.079712%);fill-opacity:1;" d="M 163.054688 311 L 147.628906 311 C 146.425781 311 145.449219 310.023438 145.449219 308.820312 C 145.449219 307.617188 146.425781 306.640625 147.628906 306.640625 L 163.054688 306.640625 C 171.035156 306.640625 177.523438 300.308594 177.523438 292.527344 C 177.523438 285.882812 172.695312 280.074219 166.035156 278.710938 C 164.925781 278.484375 164.171875 277.4375 164.308594 276.308594 C 164.382812 275.707031 164.4375 275.101562 164.4375 274.484375 C 164.4375 266.378906 157.675781 259.785156 149.371094 259.785156 C 144.613281 259.785156 140.226562 261.921875 137.34375 265.660156 C 136.792969 266.375 135.847656 266.667969 134.996094 266.414062 C 134.136719 266.15625 133.515625 265.390625 133.449219 264.496094 C 133.105469 260.054688 130.988281 256.023438 127.480469 253.144531 C 123.875 250.183594 119.265625 248.851562 114.527344 249.433594 C 107.355469 250.292969 101.421875 255.71875 100.109375 262.628906 C 99.703125 264.78125 99.71875 266.941406 100.15625 269.039062 C 100.355469 269.996094 99.894531 270.960938 99.03125 271.410156 C 98.175781 271.863281 97.113281 271.691406 96.441406 270.980469 C 94.570312 269.007812 92.035156 267.929688 89.308594 267.929688 C 84.210938 267.929688 79.960938 271.8125 79.628906 276.765625 C 79.585938 277.398438 79.269531 277.980469 78.765625 278.363281 C 78.257812 278.746094 77.613281 278.886719 76.996094 278.75 C 74.207031 278.144531 71.578125 278.324219 68.957031 279.289062 C 63.457031 281.3125 59.605469 286.402344 59.390625 291.957031 C 59.238281 295.769531 60.617188 299.398438 63.289062 302.171875 C 66.058594 305.050781 69.808594 306.636719 73.855469 306.636719 L 112.234375 306.636719 C 113.4375 306.636719 114.414062 307.613281 114.414062 308.816406 C 114.414062 310.019531 113.4375 310.996094 112.234375 310.996094 L 73.855469 310.996094 C 68.683594 310.996094 63.695312 308.882812 60.148438 305.191406 C 56.648438 301.554688 54.835938 296.789062 55.03125 291.78125 C 55.328125 284.484375 60.316406 277.820312 67.453125 275.199219 C 70.109375 274.21875 72.851562 273.859375 75.648438 274.128906 C 77.152344 268.046875 82.75 263.566406 89.3125 263.566406 C 91.492188 263.566406 93.582031 264.046875 95.472656 264.957031 C 95.511719 263.910156 95.632812 262.859375 95.832031 261.8125 C 97.492188 253.054688 104.96875 246.1875 114.007812 245.101562 C 119.953125 244.394531 125.710938 246.050781 130.246094 249.773438 C 133.507812 252.445312 135.816406 255.917969 136.984375 259.804688 C 140.433594 256.980469 144.769531 255.417969 149.375 255.417969 C 160.085938 255.417969 168.800781 263.964844 168.800781 274.476562 C 168.800781 274.621094 168.796875 274.769531 168.789062 274.917969 C 176.484375 277.339844 181.882812 284.453125 181.882812 292.515625 C 181.882812 302.710938 173.4375 311 163.054688 311 Z M 120.964844 311 L 119.398438 311 C 118.199219 311 117.222656 310.023438 117.222656 308.820312 C 117.222656 307.617188 118.199219 306.640625 119.398438 306.640625 L 120.964844 306.640625 C 122.167969 306.640625 123.144531 307.617188 123.144531 308.820312 C 123.144531 310.023438 122.167969 311 120.964844 311 Z M 120.964844 311 "/>
<path style=" stroke:none;fill-rule:nonzero;fill:rgb(27.839661%,16.859436%,16.079712%);fill-opacity:1;" d="M 155.613281 285.707031 C 155.535156 285.707031 155.453125 285.695312 155.371094 285.679688 C 154.785156 285.546875 154.414062 284.964844 154.546875 284.375 C 154.710938 283.652344 154.960938 282.953125 155.292969 282.289062 C 157.921875 276.957031 165.199219 274.992188 171.511719 277.90625 C 172.058594 278.15625 172.300781 278.808594 172.042969 279.351562 C 171.789062 279.894531 171.136719 280.132812 170.597656 279.882812 C 165.347656 277.457031 159.359375 278.96875 157.25 283.257812 C 156.992188 283.769531 156.800781 284.308594 156.679688 284.855469 C 156.5625 285.359375 156.109375 285.707031 155.613281 285.707031 Z M 155.613281 285.707031 "/>
<path style=" stroke:none;fill-rule:nonzero;fill:rgb(27.839661%,16.859436%,16.079712%);fill-opacity:1;" d="M 133.132812 311 L 128.308594 311 C 127.105469 311 126.128906 310.023438 126.128906 308.820312 C 126.128906 307.617188 127.105469 306.640625 128.308594 306.640625 L 133.132812 306.640625 C 134.335938 306.640625 135.3125 307.617188 135.3125 308.820312 C 135.3125 310.023438 134.335938 311 133.132812 311 Z M 133.132812 311 "/>
<path style=" stroke:none;fill-rule:nonzero;fill:rgb(27.839661%,16.859436%,16.079712%);fill-opacity:1;" d="M 189.375 302.515625 C 189.15625 302.515625 188.941406 302.410156 188.820312 302.210938 L 180.265625 288.671875 C 180.074219 288.367188 180.164062 287.964844 180.46875 287.769531 C 180.765625 287.582031 181.179688 287.671875 181.371094 287.976562 L 189.925781 301.511719 C 190.121094 301.816406 190.027344 302.222656 189.722656 302.414062 C 189.617188 302.480469 189.496094 302.515625 189.375 302.515625 Z M 193.730469 302.515625 C 193.515625 302.515625 193.300781 302.410156 193.179688 302.210938 L 184.625 288.671875 C 184.433594 288.367188 184.523438 287.964844 184.828125 287.769531 C 185.128906 287.582031 185.539062 287.671875 185.730469 287.976562 L 194.285156 301.511719 C 194.476562 301.816406 194.386719 302.222656 194.082031 302.414062 C 193.976562 302.480469 193.855469 302.515625 193.730469 302.515625 Z M 198.089844 302.515625 C 197.871094 302.515625 197.660156 302.410156 197.535156 302.210938 L 188.980469 288.671875 C 188.789062 288.367188 188.882812 287.964844 189.1875 287.769531 C 189.488281 287.582031 189.898438 287.671875 190.089844 287.976562 L 198.644531 301.511719 C 198.835938 301.816406 198.742188 302.222656 198.4375 302.414062 C 198.335938 302.480469 198.210938 302.515625 198.089844 302.515625 Z M 202.449219 302.515625 C 202.230469 302.515625 202.015625 302.410156 201.894531 302.210938 L 193.339844 288.671875 C 193.148438 288.367188 193.238281 287.964844 193.542969 287.769531 C 193.84375 287.582031 194.253906 287.671875 194.445312 287.976562 L 203 301.511719 C 203.195312 301.816406 203.101562 302.222656 202.796875 302.414062 C 202.691406 302.480469 202.570312 302.515625 202.449219 302.515625 Z M 206.804688 302.515625 C 206.589844 302.515625 206.375 302.410156 206.253906 302.210938 L 197.699219 288.671875 C 197.507812 288.367188 197.597656 287.964844 197.902344 287.769531 C 198.203125 287.582031 198.613281 287.671875 198.804688 287.976562 L 207.359375 301.511719 C 207.550781 301.816406 207.460938 302.222656 207.15625 302.414062 C 207.050781 302.480469 206.929688 302.515625 206.804688 302.515625 Z M 211.164062 302.515625 C 210.945312 302.515625 210.734375 302.410156 210.609375 302.210938 L 202.054688 288.671875 C 201.863281 288.367188 201.957031 287.964844 202.261719 287.769531 C 202.5625 287.582031 202.972656 287.671875 203.164062 287.976562 L 211.71875 301.511719 C 211.910156 301.816406 211.816406 302.222656 211.511719 302.414062 C 211.410156 302.480469 211.285156 302.515625 211.164062 302.515625 Z M 215.523438 302.515625 C 215.304688 302.515625 215.089844 302.410156 214.96875 302.210938 L 209.316406 293.265625 C 209.125 292.960938 209.214844 292.554688 209.523438 292.363281 C 209.820312 292.175781 210.230469 292.265625 210.421875 292.570312 L 216.074219 301.511719 C 216.269531 301.816406 216.175781 302.222656 215.871094 302.414062 C 215.765625 302.480469 215.644531 302.515625 215.523438 302.515625 Z M 219.878906 302.515625 C 219.664062 302.515625 219.449219 302.410156 219.328125 302.210938 L 215.78125 296.59375 C 215.589844 296.285156 215.679688 295.882812 215.984375 295.691406 C 216.285156 295.5 216.695312 295.589844 216.886719 295.894531 L 220.433594 301.511719 C 220.625 301.816406 220.535156 302.222656 220.230469 302.414062 C 220.125 302.480469 220.003906 302.515625 219.878906 302.515625 Z M 219.878906 302.515625 "/>
</g>
</svg>
