<?xml version="1.0" encoding="UTF-8"?>
<svg xmlns="http://www.w3.org/2000/svg" xmlns:xlink="http://www.w3.org/1999/xlink" width="375pt" height="374.999991pt" viewBox="0 0 375 374.999991" version="1.2">
<g id="surface1">
<path style=" stroke:none;fill-rule:nonzero;fill:rgb(14.898682%,7.058716%,0%);fill-opacity:1;" d="M 343.75 0 L 31.25 0 C 14 0 0 13.984375 0 31.25 L 0 343.75 C 0 361.015625 14 375 31.25 375 L 343.75 375 C 361 375 375 361.015625 375 343.75 L 375 31.25 C 375 13.984375 361 0 343.75 0 Z M 343.75 0 "/>
<path style=" stroke:none;fill-rule:nonzero;fill:rgb(100%,48.629761%,0%);fill-opacity:1;" d="M 343.75 15.625 C 352.359375 15.625 359.375 22.640625 359.375 31.25 L 359.375 343.75 C 359.375 352.359375 352.359375 359.375 343.75 359.375 L 31.25 359.375 C 22.640625 359.375 15.625 352.359375 15.625 343.75 L 15.625 31.25 C 15.625 22.640625 22.640625 15.625 31.25 15.625 Z M 343.75 0 L 31.25 0 C 14 0 0 13.984375 0 31.25 L 0 343.75 C 0 361.015625 14 375 31.25 375 L 343.75 375 C 361 375 375 361.015625 375 343.75 L 375 31.25 C 375 13.984375 361 0 343.75 0 Z M 343.75 0 "/>
<path style=" stroke:none;fill-rule:nonzero;fill:rgb(100%,48.629761%,0%);fill-opacity:1;" d="M 273.921875 253.78125 C 273.921875 255.078125 273.671875 255.59375 272.125 255.59375 L 247.90625 255.59375 C 246.34375 255.59375 245.828125 254.8125 245.828125 253.5625 L 245.828125 130.3125 L 245.703125 130.328125 C 245.703125 129.078125 246.21875 128.609375 247.515625 128.609375 L 272.046875 128.609375 C 273.421875 128.609375 273.921875 129.125 273.921875 130.421875 Z M 273.921875 253.78125 "/>
<path style=" stroke:none;fill-rule:nonzero;fill:rgb(100%,48.629761%,0%);fill-opacity:1;" d="M 259.671875 110.78125 C 250.296875 110.78125 243.890625 105.109375 243.890625 94.796875 L 243.953125 94.796875 C 243.953125 84.75 250.90625 78.8125 259.9375 78.8125 C 269.46875 78.8125 275.921875 85.25 275.921875 94.796875 C 275.921875 105.109375 269.203125 110.78125 259.671875 110.78125 Z M 259.671875 110.78125 "/>
<path style=" stroke:none;fill-rule:nonzero;fill:rgb(100%,48.629761%,0%);fill-opacity:1;" d="M 172.65625 84.75 C 172.40625 83.46875 171.875 83.1875 170.84375 83.1875 L 138.09375 83.1875 C 137.3125 83.1875 136.796875 83.71875 136.796875 84.75 C 136.546875 92.484375 136.046875 94.953125 135.265625 97.765625 L 90.890625 253.15625 C 90.65625 254.953125 90.890625 255.46875 92.453125 255.46875 L 115.390625 255.46875 C 116.921875 255.46875 117.4375 255.171875 117.703125 253.875 L 130.078125 207.03125 L 130.03125 207.015625 L 180.140625 207.015625 L 193.03125 254.125 C 193.28125 255.15625 194.046875 255.46875 195.34375 255.46875 L 221.125 255.46875 C 222.421875 255.46875 222.6875 254.703125 222.421875 253.40625 Z M 136.765625 181.640625 C 143.21875 157.421875 151.46875 126.484375 154.8125 108.203125 L 155.078125 108.203125 C 158.953125 126.515625 169.265625 164.359375 173.640625 181.640625 Z M 136.765625 181.640625 "/>
</g>
</svg>
