<?xml version="1.0" encoding="UTF-8"?>
<svg xmlns="http://www.w3.org/2000/svg" xmlns:xlink="http://www.w3.org/1999/xlink" width="375pt" height="374.999991pt" viewBox="0 0 375 374.999991" version="1.2">
<g id="surface1">
<path style=" stroke:none;fill-rule:nonzero;fill:rgb(12.159729%,2.349854%,25.099182%);fill-opacity:1;" d="M 0 31.25 L 0 343.75 C 0 361.015625 13.984375 375 31.25 375 L 343.75 375 C 361.015625 375 375 361.015625 375 343.75 L 375 31.25 C 375 13.984375 361.015625 0 343.75 0 L 31.25 0 C 13.984375 0 0 13.984375 0 31.25 Z M 0 31.25 "/>
<path style=" stroke:none;fill-rule:nonzero;fill:rgb(82.348633%,56.858826%,99.609375%);fill-opacity:1;" d="M 343.75 15.625 C 352.359375 15.625 359.375 22.640625 359.375 31.25 L 359.375 343.75 C 359.375 352.359375 352.359375 359.375 343.75 359.375 L 31.25 359.375 C 22.640625 359.375 15.625 352.359375 15.625 343.75 L 15.625 31.25 C 15.625 22.640625 22.640625 15.625 31.25 15.625 Z M 343.75 0 L 31.25 0 C 14 0 0 13.984375 0 31.25 L 0 343.75 C 0 361.015625 14 375 31.25 375 L 343.75 375 C 361 375 375 361.015625 375 343.75 L 375 31.25 C 375 13.984375 361 0 343.75 0 Z M 343.75 0 "/>
<path style=" stroke:none;fill-rule:nonzero;fill:rgb(82.348633%,56.858826%,99.609375%);fill-opacity:1;" d="M 257.84375 126.34375 C 224.328125 126.34375 205.234375 156.5 205.234375 193.375 C 205.234375 227.40625 220.703125 257.828125 261.953125 257.828125 C 274.859375 257.828125 285.125 256.015625 293.359375 251.890625 C 294.40625 251.109375 294.921875 250.328125 294.921875 248.765625 L 294.921875 229.171875 C 294.921875 227.890625 294.140625 227.625 293.09375 228.125 C 284.859375 231.75 276.90625 232.96875 267.625 232.96875 C 243.921875 232.96875 233.875 218.8125 233.59375 197.703125 L 274.296875 197.703125 C 287.96875 197.703125 297.25 197.1875 300.34375 196.671875 C 301.625 196.40625 302.140625 195.96875 302.40625 194.6875 C 303.1875 191.859375 303.734375 185.671875 303.734375 178.171875 C 303.734375 154.984375 291.875 126.34375 257.84375 126.34375 Z M 276.90625 175.921875 C 276.140625 176.171875 273.3125 176.171875 265.3125 176.171875 L 265.28125 176.140625 L 233.828125 176.140625 C 235.359375 162.234375 241.8125 149.078125 256.765625 149.078125 C 273.015625 149.078125 277.171875 164.6875 277.171875 173.203125 C 277.171875 173.96875 276.90625 174.859375 276.90625 175.921875 Z M 276.90625 175.921875 "/>
<path style=" stroke:none;fill-rule:nonzero;fill:rgb(82.348633%,56.858826%,99.609375%);fill-opacity:1;" d="M 148.578125 85.09375 C 148.328125 83.8125 147.796875 83.53125 146.765625 83.53125 L 114.015625 83.53125 C 113.234375 83.53125 112.71875 84.0625 112.71875 85.09375 C 112.46875 92.828125 111.96875 95.09375 111.1875 97.90625 L 66.8125 253.109375 C 66.5625 254.90625 66.8125 255.453125 68.375 255.453125 L 91.3125 255.453125 C 92.84375 255.453125 93.359375 254.984375 93.625 253.6875 L 106 207.03125 L 106.046875 207 L 156.046875 207 L 168.9375 253.90625 C 169.203125 254.9375 169.953125 255.40625 171.234375 255.40625 L 197.015625 255.40625 C 198.3125 255.40625 198.5625 254.65625 198.3125 253.375 Z M 112.46875 181.65625 C 118.9375 157.40625 127.40625 126.5 130.75 108.21875 L 131 108.21875 C 134.84375 126.5 145.46875 164.375 149.84375 181.65625 Z M 112.46875 181.65625 "/>
</g>
</svg>
