<svg width="50" height="50" viewBox="0 0 50 50" fill="none" xmlns="http://www.w3.org/2000/svg">
<path d="M0 25C0 38.8068 11.1932 50 25 50C38.8068 50 50 38.8068 50 25C50 11.1927 38.8068 0 25 0C11.1932 0 0 11.1927 0 25Z" fill="#F23F3F"/>
<path d="M49.9956 25.4528C49.9956 25.4523 49.9956 25.4512 49.9956 25.4507C49.9956 25.4512 49.9956 25.4523 49.9956 25.4528ZM49.9961 25.4341C49.9961 25.4335 49.9961 25.432 49.9961 25.4309C49.9961 25.4325 49.9961 25.4325 49.9961 25.4341ZM49.9961 25.4158C49.9961 25.4143 49.9961 25.4137 49.9961 25.4122C49.9961 25.4137 49.9961 25.4143 49.9961 25.4158ZM49.9966 25.3966C49.9966 25.395 49.9966 25.3945 49.9966 25.3929C49.9966 25.3945 49.9966 25.395 49.9966 25.3966ZM49.9966 25.3783C49.9966 25.3768 49.9966 25.3752 49.9972 25.3731C49.9966 25.3752 49.9966 25.3768 49.9966 25.3783ZM49.9972 25.3585C49.9972 25.357 49.9972 25.3559 49.9972 25.3544C49.9972 25.3559 49.9972 25.357 49.9972 25.3585ZM49.9972 25.3398C49.9972 25.3387 49.9977 25.3367 49.9977 25.3356C49.9977 25.3367 49.9972 25.3393 49.9972 25.3398ZM49.9977 25.3205C49.9977 25.3184 49.9977 25.3195 49.9977 25.3169C49.9977 25.3184 49.9977 25.3195 49.9977 25.3205ZM49.9977 25.3018C49.9977 25.3007 49.9977 25.2997 49.9977 25.2986C49.9977 25.2997 49.9977 25.3007 49.9977 25.3018ZM49.9987 25.232C49.9987 25.2294 49.9987 25.2268 49.9987 25.2252C49.9987 25.2268 49.9987 25.2304 49.9987 25.232ZM49.9987 25.2132C49.9987 25.2106 49.9987 25.208 49.9987 25.2059C49.9987 25.2091 49.9987 25.2101 49.9987 25.2132ZM49.9993 25.1945C49.9993 25.1913 49.9993 25.1898 49.9993 25.1861C49.9993 25.1893 49.9993 25.1913 49.9993 25.1945ZM49.9993 25.1752C49.9993 25.1726 49.9993 25.1695 49.9993 25.1669C49.9993 25.1695 49.9993 25.1731 49.9993 25.1752ZM49.9993 25.1559C49.9993 25.1533 49.9993 25.1502 49.9993 25.1465C49.9993 25.1497 49.9993 25.1533 49.9993 25.1559ZM49.9993 25.1372C49.9993 25.1335 49.9993 25.1309 49.9993 25.1273C49.9993 25.1304 49.9993 25.134 49.9993 25.1372ZM49.9993 25.1179C49.9993 25.1143 49.9993 25.1106 49.9998 25.1075C49.9993 25.1117 49.9993 25.1137 49.9993 25.1179ZM49.9998 25.0981C49.9998 25.0945 49.9998 25.0919 49.9998 25.0882C49.9998 25.0913 49.9998 25.095 49.9998 25.0981ZM49.9998 25.0788C49.9998 25.0752 49.9998 25.071 49.9998 25.0684C49.9998 25.071 49.9998 25.0757 49.9998 25.0788ZM49.9998 25.059C49.9998 25.0559 49.9998 25.0507 49.9998 25.0476C49.9998 25.0518 49.9998 25.0554 49.9998 25.059ZM49.9998 25.0398C49.9998 25.0356 49.9998 25.0309 49.9998 25.0268C49.9998 25.0309 49.9998 25.0351 49.9998 25.0398ZM49.9998 25.02C49.9998 25.0137 49.9998 25.007 49.9998 25.0007C49.9998 25.007 49.9998 25.0143 49.9998 25.02ZM49.9998 25.0007C49.9998 24.9945 49.9998 24.9882 49.9998 24.9825C49.9998 24.9887 49.9998 24.9945 49.9998 25.0007ZM49.9998 24.97C49.9998 24.9684 49.9998 24.9669 49.9998 24.9658C49.9998 24.9669 49.9998 24.9684 49.9998 24.97Z" fill="#F1F1F0"/>
<path d="M27.8479 49.8331L7.79736 29.7821C8.27497 29.7071 8.74684 29.6712 9.21247 29.6712C14.6187 29.6712 19.126 34.5045 21.1765 39.117C23.8234 30.8816 30.2937 23.529 38.2354 20.2936C36.4677 17.0107 36.4364 12.6446 38.6974 9.7998L49.6302 20.7321C49.8661 22.1087 49.9979 23.5206 50 24.9644C50 24.9654 50 24.967 50 24.9686C50 24.9727 50 24.9769 50 24.9811C50 24.9868 50 24.993 50 24.9993C50 25.0055 50 25.0123 50 25.0186C50 25.0212 50 25.0227 50 25.0253C50 25.0295 50 25.0342 50 25.0383C50 25.0404 50 25.0436 50 25.0462C50 25.0493 50 25.0545 50 25.0576C50 25.0607 50 25.0633 50 25.067C50 25.0696 50 25.0738 50 25.0774C50 25.0805 50 25.0837 50 25.0868C50 25.0904 50 25.093 50 25.0967C50 25.0998 50 25.1029 50 25.1061C49.9994 25.1092 49.9994 25.1128 49.9994 25.1165C49.9994 25.1191 49.9994 25.1227 49.9994 25.1258C49.9994 25.1295 49.9994 25.1321 49.9994 25.1357C49.9994 25.1389 49.9994 25.142 49.9994 25.1451C49.9994 25.1488 49.9994 25.1519 49.9994 25.1545C49.9994 25.1587 49.9994 25.1613 49.9994 25.1654C49.9994 25.168 49.9994 25.1712 49.9994 25.1738C49.9994 25.1779 49.9994 25.1805 49.9994 25.1847C49.9994 25.1883 49.9994 25.1899 49.9994 25.193C49.9989 25.1962 49.9989 25.2014 49.9989 25.2045C49.9989 25.2066 49.9989 25.2092 49.9989 25.2118C49.9989 25.2154 49.9989 25.2196 49.9989 25.2238C49.9989 25.2253 49.9989 25.2279 49.9989 25.2305C49.9984 25.2529 49.9984 25.2748 49.9979 25.2972C49.9979 25.2982 49.9979 25.2993 49.9979 25.3003C49.9979 25.3055 49.9979 25.3102 49.9979 25.3154C49.9979 25.318 49.9979 25.317 49.9979 25.3191C49.9979 25.3243 49.9979 25.329 49.9979 25.3342C49.9979 25.3352 49.9974 25.3373 49.9974 25.3383C49.9974 25.3436 49.9974 25.3477 49.9974 25.3529C49.9974 25.3545 49.9974 25.3555 49.9974 25.3571C49.9974 25.3623 49.9974 25.367 49.9974 25.3717C49.9968 25.3738 49.9968 25.3753 49.9968 25.3769C49.9968 25.3811 49.9968 25.3868 49.9968 25.3915C49.9968 25.393 49.9968 25.3936 49.9968 25.3951C49.9968 25.4003 49.9963 25.4055 49.9963 25.4107C49.9963 25.4123 49.9963 25.4128 49.9963 25.4144C49.9963 25.4191 49.9963 25.4253 49.9963 25.4295C49.9963 25.4305 49.9963 25.4321 49.9963 25.4326C49.9958 25.4383 49.9958 25.4436 49.9958 25.4493C49.9958 25.4498 49.9958 25.4508 49.9958 25.4514C49.7713 38.0899 40.1661 48.4352 27.8479 49.8331Z" fill="#C12929"/>
<path d="M7.5166 29.5331L16.6135 24.0561L21.0692 32.5034C21.0692 32.5034 23.0187 26.191 28.2171 19.3222C33.4156 12.4529 38.8926 9.76074 38.8926 9.76074C38.8926 9.76074 38.614 14.4024 38.7994 17.0014C38.9848 19.6008 39.5421 22.0144 39.5421 22.0144C39.5421 22.0144 34.1577 24.4279 28.5885 31.2045C23.0187 37.9811 21.2551 41.4154 21.2551 41.4154C21.2551 41.4154 17.8202 36.7738 14.2926 33.9894C10.7656 31.2045 7.5166 29.5331 7.5166 29.5331Z" fill="white"/>
</svg>
