<svg width="159" height="159" viewBox="0 0 159 159" fill="none" xmlns="http://www.w3.org/2000/svg">
<mask id="mask0" mask-type="alpha" maskUnits="userSpaceOnUse" x="0" y="0" width="159" height="159">
<circle cx="79.5" cy="79.5" r="79.5" fill="#C4C4C4"/>
</mask>
<g mask="url(#mask0)">
<line x1="100.129" y1="-8.64645" x2="-76.6478" y2="168.13" stroke="#C4C4C4"/>
<line x1="55.1289" y1="-8.64645" x2="-121.648" y2="168.13" stroke="#C4C4C4"/>
<line x1="70.1289" y1="-8.64645" x2="-106.648" y2="168.13" stroke="#C4C4C4"/>
<line x1="85.1289" y1="-8.64645" x2="-91.6478" y2="168.13" stroke="#C4C4C4"/>
<line x1="160.129" y1="-8.64645" x2="-16.6477" y2="168.13" stroke="#C4C4C4"/>
<line x1="115.129" y1="-8.64645" x2="-61.6477" y2="168.13" stroke="#C4C4C4"/>
<line x1="130.129" y1="-8.64645" x2="-46.6477" y2="168.13" stroke="#C4C4C4"/>
<line x1="145.129" y1="-8.64645" x2="-31.6477" y2="168.13" stroke="#C4C4C4"/>
<line x1="220.129" y1="-8.64645" x2="43.3523" y2="168.13" stroke="#C4C4C4"/>
<line x1="175.129" y1="-8.64645" x2="-1.64775" y2="168.13" stroke="#C4C4C4"/>
<line x1="190.129" y1="-8.64645" x2="13.3523" y2="168.13" stroke="#C4C4C4"/>
<line x1="205.129" y1="-8.64645" x2="28.3523" y2="168.13" stroke="#C4C4C4"/>
<line x1="280.129" y1="-8.64645" x2="103.352" y2="168.13" stroke="#C4C4C4"/>
<line x1="235.129" y1="-8.64645" x2="58.3523" y2="168.13" stroke="#C4C4C4"/>
<line x1="250.129" y1="-8.64645" x2="73.3522" y2="168.13" stroke="#C4C4C4"/>
<line x1="265.129" y1="-8.64645" x2="88.3522" y2="168.13" stroke="#C4C4C4"/>
</g>
</svg>
