<?xml version="1.0" encoding="UTF-8"?>
<svg xmlns="http://www.w3.org/2000/svg" xmlns:xlink="http://www.w3.org/1999/xlink" width="375pt" height="374.999991pt" viewBox="0 0 375 374.999991" version="1.2">
<defs>
<clipPath id="clip1">
  <path d="M 0 151.609375 L 367 151.609375 L 367 223.609375 L 0 223.609375 Z M 0 151.609375 "/>
</clipPath>
<clipPath id="clip2">
  <path d="M 36.363281 189.234375 C 36.363281 194.75 34.730469 199.394531 31.460938 203.152344 C 28.050781 207.09375 23.617188 209.070312 18.1875 209.070312 C 12.746094 209.070312 8.324219 207.09375 4.914062 203.152344 C 1.640625 199.394531 0 194.75 0 189.234375 C 0 183.707031 1.640625 179.0625 4.914062 175.316406 C 8.363281 171.414062 12.796875 169.464844 18.1875 169.464844 C 23.617188 169.464844 28.050781 171.414062 31.460938 175.316406 C 34.730469 179.0625 36.363281 183.707031 36.363281 189.234375 Z M 25.554688 189.234375 C 25.554688 186.738281 24.960938 184.628906 23.769531 182.925781 C 22.441406 180.988281 20.578125 180.027344 18.1875 180.027344 C 15.796875 180.027344 13.933594 180.988281 12.601562 182.925781 C 11.402344 184.628906 10.804688 186.738281 10.804688 189.234375 C 10.804688 191.71875 11.402344 193.851562 12.601562 195.609375 C 13.933594 197.546875 15.796875 198.507812 18.1875 198.507812 C 20.578125 198.507812 22.441406 197.546875 23.769531 195.609375 C 24.960938 193.851562 25.554688 191.71875 25.554688 189.234375 Z M 75.4375 189.234375 C 75.4375 194.386719 73.960938 198.886719 71.003906 202.734375 C 67.835938 206.949219 63.75 209.070312 58.789062 209.070312 C 55.285156 209.070312 52.3125 208.042969 49.882812 206.015625 C 49.882812 206.480469 49.933594 207.613281 50.039062 209.421875 C 50.140625 211.242188 50.191406 212.722656 50.191406 213.894531 C 50.191406 220.359375 48.277344 223.585938 44.453125 223.585938 C 42.886719 223.585938 41.609375 223.027344 40.589844 221.921875 C 39.578125 220.800781 39.074219 219.460938 39.074219 217.875 L 39.074219 175.824219 C 39.074219 174.292969 39.59375 172.964844 40.625 171.847656 C 41.660156 170.742188 42.941406 170.183594 44.464844 170.183594 C 46.765625 170.183594 48.445312 171.335938 49.507812 173.640625 C 51.769531 170.859375 54.859375 169.464844 58.773438 169.464844 C 63.75 169.464844 67.824219 171.546875 71.003906 175.722656 C 73.953125 179.585938 75.4375 184.085938 75.4375 189.234375 Z M 64.628906 189.234375 C 64.628906 186.738281 64.023438 184.628906 62.835938 182.925781 C 61.5 180.988281 59.640625 180.027344 57.25 180.027344 C 54.859375 180.027344 52.996094 180.988281 51.664062 182.925781 C 50.476562 184.628906 49.882812 186.738281 49.882812 189.234375 C 49.882812 191.71875 50.476562 193.851562 51.664062 195.609375 C 52.996094 197.546875 54.859375 198.507812 57.25 198.507812 C 59.640625 198.507812 61.5 197.546875 62.835938 195.609375 C 64.023438 193.851562 64.628906 191.71875 64.628906 189.234375 Z M 114.757812 188.066406 C 114.757812 189.886719 114.335938 191.132812 113.472656 191.835938 C 112.621094 192.527344 111.296875 192.878906 109.496094 192.878906 L 89.988281 192.878906 C 89.988281 194.957031 90.964844 196.558594 92.898438 197.675781 C 94.464844 198.546875 96.378906 198.992188 98.636719 198.992188 C 100.398438 198.992188 102.503906 198.402344 104.96875 197.246094 C 107.441406 196.078125 109.03125 195.503906 109.71875 195.503906 C 110.964844 195.503906 112.027344 195.960938 112.910156 196.894531 C 113.773438 197.820312 114.210938 198.9375 114.210938 200.226562 C 114.210938 203.203125 112.003906 205.519531 107.585938 207.183594 C 104.210938 208.433594 100.785156 209.070312 97.28125 209.070312 C 91.644531 209.070312 87.09375 207.183594 83.617188 203.425781 C 80.144531 199.667969 78.394531 194.945312 78.394531 189.234375 C 78.394531 183.796875 80.207031 179.15625 83.828125 175.28125 C 87.429688 171.402344 91.914062 169.464844 97.269531 169.464844 C 102.246094 169.464844 106.410156 171.300781 109.742188 174.96875 C 113.074219 178.636719 114.757812 183.003906 114.757812 188.066406 Z M 103.953125 185.332031 C 103.902344 183.667969 103.136719 182.160156 101.667969 180.792969 C 100.191406 179.429688 98.628906 178.753906 96.972656 178.753906 C 95.261719 178.753906 93.671875 179.429688 92.203125 180.792969 C 90.726562 182.160156 89.988281 183.667969 89.988281 185.332031 Z M 151.066406 202.644531 C 151.066406 204.230469 150.558594 205.570312 149.554688 206.6875 C 148.53125 207.796875 147.257812 208.355469 145.6875 208.355469 C 141.917969 208.355469 140.027344 205.335938 140.027344 199.316406 C 140.027344 198.15625 140.105469 196.335938 140.261719 193.828125 C 140.429688 191.328125 140.507812 189.496094 140.507812 188.339844 C 140.507812 181.949219 138.449219 178.753906 134.351562 178.753906 C 130.253906 178.753906 128.210938 181.949219 128.210938 188.339844 C 128.210938 189.496094 128.277344 191.328125 128.390625 193.828125 C 128.519531 196.335938 128.59375 198.15625 128.59375 199.316406 C 128.59375 205.335938 126.730469 208.355469 123.003906 208.355469 C 121.441406 208.355469 120.160156 207.796875 119.148438 206.6875 C 118.132812 205.570312 117.628906 204.230469 117.628906 202.644531 L 117.628906 175.8125 C 117.628906 174.238281 118.132812 172.898438 119.148438 171.820312 C 120.160156 170.726562 121.457031 170.183594 123.019531 170.183594 C 125.605469 170.183594 127.402344 171.335938 128.40625 173.640625 C 130.152344 170.859375 133.242188 169.464844 137.664062 169.464844 C 141.761719 169.464844 145.019531 170.558594 147.40625 172.730469 C 149.847656 175.058594 151.066406 178.257812 151.066406 182.328125 Z M 184.972656 201.488281 C 184.972656 203.945312 183.386719 205.894531 180.199219 207.328125 C 177.671875 208.484375 174.992188 209.070312 172.175781 209.070312 C 166.730469 209.070312 162.308594 207.09375 158.898438 203.152344 C 155.632812 199.394531 153.992188 194.75 153.992188 189.234375 C 153.992188 183.707031 155.652344 179.039062 159.007812 175.214844 C 162.351562 171.378906 166.730469 169.464844 172.175781 169.464844 C 175.320312 169.464844 178.019531 169.933594 180.269531 170.859375 C 183.410156 172.105469 184.972656 174.058594 184.972656 176.710938 C 184.972656 178.050781 184.5625 179.234375 183.730469 180.261719 C 182.898438 181.273438 181.839844 181.796875 180.550781 181.796875 C 179.667969 181.796875 178.402344 181.496094 176.753906 180.914062 C 175.097656 180.3125 173.78125 180.027344 172.8125 180.027344 C 170.234375 180.027344 168.234375 180.949219 166.800781 182.796875 C 165.46875 184.460938 164.796875 186.59375 164.796875 189.234375 C 164.796875 191.71875 165.390625 193.828125 166.59375 195.53125 C 167.917969 197.519531 169.796875 198.507812 172.1875 198.507812 C 173.25 198.507812 174.695312 198.195312 176.546875 197.558594 C 178.394531 196.9375 179.726562 196.609375 180.550781 196.609375 C 181.753906 196.609375 182.785156 197.128906 183.667969 198.144531 C 184.535156 199.171875 184.972656 200.277344 184.972656 201.488281 Z M 224.253906 202.644531 C 224.253906 204.230469 223.753906 205.570312 222.742188 206.6875 C 221.71875 207.796875 220.429688 208.355469 218.859375 208.355469 C 216.511719 208.355469 214.832031 207.195312 213.824219 204.894531 C 211.558594 207.679688 208.472656 209.070312 204.550781 209.070312 C 199.542969 209.070312 195.429688 206.949219 192.25 202.734375 C 189.355469 198.886719 187.894531 194.386719 187.894531 189.234375 C 187.894531 184.085938 189.355469 179.585938 192.25 175.722656 C 195.480469 171.546875 199.578125 169.464844 204.550781 169.464844 C 208.472656 169.464844 211.558594 170.859375 213.824219 173.640625 C 214.832031 171.335938 216.511719 170.183594 218.859375 170.183594 C 220.386719 170.183594 221.667969 170.742188 222.707031 171.847656 C 223.738281 172.964844 224.253906 174.277344 224.253906 175.8125 Z M 213.449219 189.234375 C 213.449219 186.738281 212.855469 184.628906 211.667969 182.925781 C 210.285156 180.988281 208.421875 180.027344 206.078125 180.027344 C 203.691406 180.027344 201.828125 180.988281 200.496094 182.925781 C 199.292969 184.628906 198.699219 186.738281 198.699219 189.234375 C 198.699219 191.71875 199.277344 193.851562 200.433594 195.609375 C 201.800781 197.546875 203.691406 198.507812 206.078125 198.507812 C 208.472656 198.507812 210.332031 197.546875 211.667969 195.609375 C 212.855469 193.851562 213.449219 191.71875 213.449219 189.234375 Z M 251.824219 175.097656 C 251.824219 177.425781 250.699219 179.023438 248.449219 179.894531 C 246.371094 180.597656 244.300781 181.316406 242.238281 182.054688 C 239.972656 183.355469 238.847656 185.773438 238.847656 189.289062 L 238.847656 202.644531 C 238.847656 204.230469 238.328125 205.570312 237.324219 206.6875 C 236.296875 207.796875 235.007812 208.355469 233.445312 208.355469 C 231.871094 208.355469 230.574219 207.796875 229.570312 206.6875 C 228.546875 205.570312 228.039062 204.230469 228.039062 202.644531 L 228.039062 175.8125 C 228.039062 174.238281 228.546875 172.898438 229.558594 171.820312 C 230.574219 170.726562 231.871094 170.183594 233.433594 170.183594 C 236.019531 170.183594 237.808594 171.335938 238.820312 173.640625 C 241.136719 170.859375 243.621094 169.464844 246.292969 169.464844 C 247.820312 169.464844 249.125 170.023438 250.210938 171.128906 C 251.28125 172.25 251.824219 173.574219 251.824219 175.097656 Z M 280.019531 175.589844 C 280.019531 178.011719 279.070312 179.53125 277.203125 180.183594 C 276.277344 180.507812 274.351562 180.675781 271.421875 180.675781 L 271.421875 202.644531 C 271.421875 204.230469 270.902344 205.570312 269.894531 206.6875 C 268.875 207.796875 267.578125 208.355469 266.019531 208.355469 C 264.492188 208.355469 263.203125 207.796875 262.164062 206.6875 C 261.132812 205.570312 260.617188 204.230469 260.617188 202.644531 L 260.617188 180.675781 C 258.386719 180.675781 256.777344 180.390625 255.757812 179.832031 C 254.359375 179.050781 253.671875 177.632812 253.671875 175.589844 C 253.671875 173.550781 254.382812 172.160156 255.816406 171.414062 C 256.789062 170.871094 258.386719 170.585938 260.617188 170.585938 L 260.617188 165.929688 C 260.617188 160.453125 262.414062 157.722656 266.019531 157.722656 C 269.613281 157.722656 271.421875 160.453125 271.421875 165.929688 L 271.421875 170.585938 C 274.351562 170.585938 276.277344 170.753906 277.203125 171.078125 C 279.070312 171.726562 280.019531 173.238281 280.019531 175.589844 Z M 366.832031 168.988281 C 366.804688 165.648438 360.671875 164.132812 344.800781 164.132812 C 307.566406 164.132812 298.117188 162.53125 288.007812 151.828125 C 292.253906 158.253906 294.582031 170.3125 333.945312 169.710938 C 375.015625 169.074219 349.960938 180.367188 342.671875 193.121094 C 355.8125 181.316406 366.789062 173.535156 366.832031 169.035156 Z M 314.5 203.269531 C 314.5 206.390625 311.988281 208.925781 308.882812 208.925781 C 305.765625 208.925781 303.246094 206.390625 303.246094 203.269531 C 303.246094 200.132812 305.765625 197.597656 308.882812 197.597656 C 311.988281 197.597656 314.5 200.132812 314.5 203.269531 Z M 340.152344 203.269531 C 340.152344 206.390625 337.628906 208.925781 334.527344 208.925781 C 331.410156 208.925781 328.886719 206.390625 328.886719 203.269531 C 328.886719 200.132812 331.410156 197.597656 334.527344 197.597656 C 337.628906 197.597656 340.152344 200.132812 340.152344 203.269531 Z M 340.152344 203.269531 "/>
</clipPath>
<linearGradient id="linear0" gradientUnits="userSpaceOnUse" x1="0.5" y1="1" x2="0.5" y2="-0.00000000261518" gradientTransform="matrix(366.832201,0,0,71.757605,0.00000347508,151.827846)">
<stop offset="0" style="stop-color:rgb(1.599121%,71.398926%,94.099426%);stop-opacity:1;"/>
<stop offset="0.125" style="stop-color:rgb(1.599121%,71.398926%,94.099426%);stop-opacity:1;"/>
<stop offset="0.1875" style="stop-color:rgb(1.599121%,71.398926%,94.099426%);stop-opacity:1;"/>
<stop offset="0.21875" style="stop-color:rgb(1.739502%,71.446228%,94.099426%);stop-opacity:1;"/>
<stop offset="0.226562" style="stop-color:rgb(1.991272%,71.533203%,94.099426%);stop-opacity:1;"/>
<stop offset="0.234375" style="stop-color:rgb(2.215576%,71.611023%,94.099426%);stop-opacity:1;"/>
<stop offset="0.242188" style="stop-color:rgb(2.43988%,71.687317%,94.099426%);stop-opacity:1;"/>
<stop offset="0.25" style="stop-color:rgb(2.664185%,71.765137%,94.099426%);stop-opacity:1;"/>
<stop offset="0.257812" style="stop-color:rgb(2.888489%,71.841431%,94.099426%);stop-opacity:1;"/>
<stop offset="0.265625" style="stop-color:rgb(3.112793%,71.91925%,94.099426%);stop-opacity:1;"/>
<stop offset="0.273438" style="stop-color:rgb(3.337097%,71.995544%,94.099426%);stop-opacity:1;"/>
<stop offset="0.28125" style="stop-color:rgb(3.561401%,72.073364%,94.099426%);stop-opacity:1;"/>
<stop offset="0.289062" style="stop-color:rgb(3.785706%,72.149658%,94.099426%);stop-opacity:1;"/>
<stop offset="0.296875" style="stop-color:rgb(4.01001%,72.227478%,94.099426%);stop-opacity:1;"/>
<stop offset="0.304688" style="stop-color:rgb(4.232788%,72.303772%,94.099426%);stop-opacity:1;"/>
<stop offset="0.3125" style="stop-color:rgb(4.457092%,72.381592%,94.099426%);stop-opacity:1;"/>
<stop offset="0.320312" style="stop-color:rgb(4.681396%,72.457886%,94.099426%);stop-opacity:1;"/>
<stop offset="0.328125" style="stop-color:rgb(4.905701%,72.535706%,94.099426%);stop-opacity:1;"/>
<stop offset="0.335938" style="stop-color:rgb(5.130005%,72.612%,94.099426%);stop-opacity:1;"/>
<stop offset="0.34375" style="stop-color:rgb(5.354309%,72.689819%,94.099426%);stop-opacity:1;"/>
<stop offset="0.351562" style="stop-color:rgb(5.578613%,72.766113%,94.099426%);stop-opacity:1;"/>
<stop offset="0.359375" style="stop-color:rgb(5.802917%,72.843933%,94.099426%);stop-opacity:1;"/>
<stop offset="0.367188" style="stop-color:rgb(6.027222%,72.920227%,94.099426%);stop-opacity:1;"/>
<stop offset="0.375" style="stop-color:rgb(6.251526%,72.998047%,94.099426%);stop-opacity:1;"/>
<stop offset="0.382812" style="stop-color:rgb(6.47583%,73.074341%,94.099426%);stop-opacity:1;"/>
<stop offset="0.390625" style="stop-color:rgb(6.700134%,73.152161%,94.099426%);stop-opacity:1;"/>
<stop offset="0.398437" style="stop-color:rgb(6.924438%,73.228455%,94.099426%);stop-opacity:1;"/>
<stop offset="0.40625" style="stop-color:rgb(7.147217%,73.306274%,94.099426%);stop-opacity:1;"/>
<stop offset="0.414062" style="stop-color:rgb(7.371521%,73.382568%,94.099426%);stop-opacity:1;"/>
<stop offset="0.421875" style="stop-color:rgb(7.595825%,73.460388%,94.099426%);stop-opacity:1;"/>
<stop offset="0.429688" style="stop-color:rgb(7.820129%,73.536682%,94.099426%);stop-opacity:1;"/>
<stop offset="0.4375" style="stop-color:rgb(8.044434%,73.614502%,94.099426%);stop-opacity:1;"/>
<stop offset="0.445312" style="stop-color:rgb(8.268738%,73.690796%,94.099426%);stop-opacity:1;"/>
<stop offset="0.453125" style="stop-color:rgb(8.493042%,73.768616%,94.099426%);stop-opacity:1;"/>
<stop offset="0.460938" style="stop-color:rgb(8.717346%,73.84491%,94.099426%);stop-opacity:1;"/>
<stop offset="0.46875" style="stop-color:rgb(8.94165%,73.922729%,94.099426%);stop-opacity:1;"/>
<stop offset="0.476562" style="stop-color:rgb(9.165955%,73.999023%,94.099426%);stop-opacity:1;"/>
<stop offset="0.484375" style="stop-color:rgb(9.390259%,74.075317%,94.099426%);stop-opacity:1;"/>
<stop offset="0.492187" style="stop-color:rgb(9.614563%,74.153137%,94.099426%);stop-opacity:1;"/>
<stop offset="0.5" style="stop-color:rgb(9.838867%,74.229431%,94.099426%);stop-opacity:1;"/>
<stop offset="0.507813" style="stop-color:rgb(10.063171%,74.307251%,94.099426%);stop-opacity:1;"/>
<stop offset="0.515625" style="stop-color:rgb(10.28595%,74.383545%,94.099426%);stop-opacity:1;"/>
<stop offset="0.523438" style="stop-color:rgb(10.510254%,74.461365%,94.099426%);stop-opacity:1;"/>
<stop offset="0.53125" style="stop-color:rgb(10.734558%,74.537659%,94.099426%);stop-opacity:1;"/>
<stop offset="0.539062" style="stop-color:rgb(10.958862%,74.615479%,94.099426%);stop-opacity:1;"/>
<stop offset="0.546875" style="stop-color:rgb(11.183167%,74.691772%,94.099426%);stop-opacity:1;"/>
<stop offset="0.554688" style="stop-color:rgb(11.407471%,74.769592%,94.099426%);stop-opacity:1;"/>
<stop offset="0.5625" style="stop-color:rgb(11.631775%,74.845886%,94.099426%);stop-opacity:1;"/>
<stop offset="0.570312" style="stop-color:rgb(11.856079%,74.923706%,94.099426%);stop-opacity:1;"/>
<stop offset="0.578125" style="stop-color:rgb(12.080383%,75%,94.099426%);stop-opacity:1;"/>
<stop offset="0.585938" style="stop-color:rgb(12.304688%,75.07782%,94.099426%);stop-opacity:1;"/>
<stop offset="0.59375" style="stop-color:rgb(12.528992%,75.154114%,94.099426%);stop-opacity:1;"/>
<stop offset="0.601562" style="stop-color:rgb(12.753296%,75.231934%,94.099426%);stop-opacity:1;"/>
<stop offset="0.609375" style="stop-color:rgb(12.9776%,75.308228%,94.099426%);stop-opacity:1;"/>
<stop offset="0.617188" style="stop-color:rgb(13.200378%,75.386047%,94.099426%);stop-opacity:1;"/>
<stop offset="0.625" style="stop-color:rgb(13.424683%,75.462341%,94.099426%);stop-opacity:1;"/>
<stop offset="0.632812" style="stop-color:rgb(13.648987%,75.540161%,94.099426%);stop-opacity:1;"/>
<stop offset="0.640625" style="stop-color:rgb(13.873291%,75.616455%,94.099426%);stop-opacity:1;"/>
<stop offset="0.648438" style="stop-color:rgb(14.097595%,75.694275%,94.099426%);stop-opacity:1;"/>
<stop offset="0.65625" style="stop-color:rgb(14.321899%,75.770569%,94.099426%);stop-opacity:1;"/>
<stop offset="0.664062" style="stop-color:rgb(14.546204%,75.848389%,94.099426%);stop-opacity:1;"/>
<stop offset="0.671875" style="stop-color:rgb(14.770508%,75.924683%,94.099426%);stop-opacity:1;"/>
<stop offset="0.679688" style="stop-color:rgb(14.994812%,76.002502%,94.099426%);stop-opacity:1;"/>
<stop offset="0.6875" style="stop-color:rgb(15.219116%,76.078796%,94.099426%);stop-opacity:1;"/>
<stop offset="0.695312" style="stop-color:rgb(15.44342%,76.156616%,94.099426%);stop-opacity:1;"/>
<stop offset="0.703125" style="stop-color:rgb(15.667725%,76.23291%,94.099426%);stop-opacity:1;"/>
<stop offset="0.710938" style="stop-color:rgb(15.892029%,76.31073%,94.099426%);stop-opacity:1;"/>
<stop offset="0.71875" style="stop-color:rgb(16.116333%,76.387024%,94.099426%);stop-opacity:1;"/>
<stop offset="0.726562" style="stop-color:rgb(16.339111%,76.464844%,94.099426%);stop-opacity:1;"/>
<stop offset="0.734375" style="stop-color:rgb(16.563416%,76.541138%,94.099426%);stop-opacity:1;"/>
<stop offset="0.742188" style="stop-color:rgb(16.78772%,76.618958%,94.099426%);stop-opacity:1;"/>
<stop offset="0.75" style="stop-color:rgb(17.012024%,76.695251%,94.099426%);stop-opacity:1;"/>
<stop offset="0.757812" style="stop-color:rgb(17.236328%,76.771545%,94.099426%);stop-opacity:1;"/>
<stop offset="0.765625" style="stop-color:rgb(17.460632%,76.849365%,94.099426%);stop-opacity:1;"/>
<stop offset="0.773438" style="stop-color:rgb(17.684937%,76.925659%,94.099426%);stop-opacity:1;"/>
<stop offset="0.78125" style="stop-color:rgb(17.909241%,77.003479%,94.099426%);stop-opacity:1;"/>
<stop offset="0.789062" style="stop-color:rgb(18.133545%,77.079773%,94.099426%);stop-opacity:1;"/>
<stop offset="0.796875" style="stop-color:rgb(18.357849%,77.157593%,94.099426%);stop-opacity:1;"/>
<stop offset="0.804688" style="stop-color:rgb(18.582153%,77.233887%,94.099426%);stop-opacity:1;"/>
<stop offset="0.8125" style="stop-color:rgb(18.806458%,77.311707%,94.099426%);stop-opacity:1;"/>
<stop offset="0.820313" style="stop-color:rgb(19.030762%,77.388%,94.099426%);stop-opacity:1;"/>
<stop offset="0.828125" style="stop-color:rgb(19.25354%,77.46582%,94.099426%);stop-opacity:1;"/>
<stop offset="0.835938" style="stop-color:rgb(19.477844%,77.542114%,94.099426%);stop-opacity:1;"/>
<stop offset="0.84375" style="stop-color:rgb(19.702148%,77.619934%,94.099426%);stop-opacity:1;"/>
<stop offset="0.851562" style="stop-color:rgb(19.926453%,77.696228%,94.099426%);stop-opacity:1;"/>
<stop offset="0.859375" style="stop-color:rgb(20.150757%,77.774048%,94.099426%);stop-opacity:1;"/>
<stop offset="0.867188" style="stop-color:rgb(20.375061%,77.850342%,94.099426%);stop-opacity:1;"/>
<stop offset="0.875" style="stop-color:rgb(20.599365%,77.928162%,94.099426%);stop-opacity:1;"/>
<stop offset="0.882812" style="stop-color:rgb(20.823669%,78.004456%,94.099426%);stop-opacity:1;"/>
<stop offset="0.890625" style="stop-color:rgb(21.047974%,78.082275%,94.099426%);stop-opacity:1;"/>
<stop offset="0.898438" style="stop-color:rgb(21.272278%,78.158569%,94.099426%);stop-opacity:1;"/>
<stop offset="0.90625" style="stop-color:rgb(21.496582%,78.236389%,94.099426%);stop-opacity:1;"/>
<stop offset="0.914063" style="stop-color:rgb(21.720886%,78.312683%,94.099426%);stop-opacity:1;"/>
<stop offset="0.921875" style="stop-color:rgb(21.94519%,78.390503%,94.099426%);stop-opacity:1;"/>
<stop offset="0.929688" style="stop-color:rgb(22.167969%,78.466797%,94.099426%);stop-opacity:1;"/>
<stop offset="0.9375" style="stop-color:rgb(22.392273%,78.544617%,94.099426%);stop-opacity:1;"/>
<stop offset="0.945312" style="stop-color:rgb(22.616577%,78.620911%,94.099426%);stop-opacity:1;"/>
<stop offset="0.953125" style="stop-color:rgb(22.840881%,78.69873%,94.099426%);stop-opacity:1;"/>
<stop offset="0.960938" style="stop-color:rgb(23.065186%,78.775024%,94.099426%);stop-opacity:1;"/>
<stop offset="0.96875" style="stop-color:rgb(23.28949%,78.852844%,94.099426%);stop-opacity:1;"/>
<stop offset="0.976562" style="stop-color:rgb(23.513794%,78.929138%,94.099426%);stop-opacity:1;"/>
<stop offset="0.984375" style="stop-color:rgb(23.738098%,79.006958%,94.099426%);stop-opacity:1;"/>
<stop offset="0.992187" style="stop-color:rgb(23.962402%,79.083252%,94.099426%);stop-opacity:1;"/>
<stop offset="1" style="stop-color:rgb(24.186707%,79.161072%,94.099426%);stop-opacity:1;"/>
</linearGradient>
</defs>
<g id="surface1">
<g clip-path="url(#clip1)" clip-rule="nonzero">
<g clip-path="url(#clip2)" clip-rule="nonzero">
<path style=" stroke:none;fill-rule:nonzero;fill:url(#linear0);" d="M 0 151.828125 L 0 223.585938 L 375 223.585938 L 375 151.828125 Z M 0 151.828125 "/>
</g>
</g>
</g>
</svg>
