<?xml version="1.0" encoding="UTF-8"?>
<svg xmlns="http://www.w3.org/2000/svg" xmlns:xlink="http://www.w3.org/1999/xlink" width="375pt" height="374.999991pt" viewBox="0 0 375 374.999991" version="1.2">
<g id="surface1">
<path style=" stroke:none;fill-rule:nonzero;fill:rgb(8.239746%,39.608765%,75.289917%);fill-opacity:1;" d="M 257.863281 233.644531 L 220.875 196.59375 L 184.761719 232.78125 L 147.761719 269.832031 L 140.519531 277.105469 C 128.542969 289.09375 109.019531 289.125 96.957031 277.042969 C 85 265.0625 84.949219 245.6875 96.8125 233.644531 L 59.78125 196.59375 L 59.78125 196.582031 C 38.394531 218.113281 31.1875 248.449219 38.167969 275.863281 C 16.050781 281.082031 -0.417969 300.980469 -0.417969 324.738281 C -0.417969 352.46875 22.042969 374.96875 49.75 374.96875 C 73.59375 374.9375 93.542969 358.332031 98.65625 336.011719 C 126 342.8125 156.144531 335.53125 177.519531 314.136719 L 184.769531 306.863281 L 221.769531 269.78125 Z M 257.863281 233.644531 "/>
<path style=" stroke:none;fill-rule:nonzero;fill:rgb(100%,59.609985%,0%);fill-opacity:1;" d="M 374.167969 50.230469 C 374.175781 22.488281 351.71875 0 324 0 C 298.636719 0 277.675781 18.84375 274.292969 43.300781 C 246.074219 35.019531 214.3125 42.03125 192.042969 64.324219 L 184.8125 71.53125 L 147.78125 108.613281 L 111.574219 144.8125 L 111.582031 144.824219 L 148.605469 181.875 L 184.792969 145.675781 L 221.800781 108.636719 L 229.03125 101.394531 C 241.105469 89.34375 260.53125 89.34375 272.5 101.34375 C 284.480469 113.300781 284.5 132.738281 272.582031 144.769531 L 272.613281 144.800781 L 309.613281 181.84375 C 331.644531 159.675781 338.699219 128.175781 330.613281 100.050781 C 355.1875 96.8125 374.167969 75.75 374.167969 50.230469 Z M 374.167969 50.230469 "/>
<path style=" stroke:none;fill-rule:nonzero;fill:rgb(95.689392%,26.269531%,21.179199%);fill-opacity:1;" d="M 331.5 275.050781 C 338.136719 247.792969 330.792969 217.792969 309.511719 196.5 L 302.25 189.207031 L 265.238281 152.15625 L 229.175781 115.980469 L 229.167969 116 L 192.15625 153.042969 L 192.144531 153.050781 L 228.230469 189.21875 L 265.238281 226.292969 L 272.480469 233.53125 C 284.542969 245.625 284.519531 265.074219 272.542969 277.082031 C 260.582031 289.050781 241.199219 289.074219 229.175781 277.167969 L 192.175781 314.25 L 192.167969 314.261719 C 214.699219 336.707031 246.863281 343.5625 275.28125 334.832031 C 279.90625 357.761719 300.175781 375 324.4375 375 C 352.125 375 374.605469 352.53125 374.605469 324.78125 C 374.625 299.449219 355.886719 278.480469 331.5 275.050781 Z M 331.5 275.050781 "/>
<path style=" stroke:none;fill-rule:nonzero;fill:rgb(29.798889%,68.629456%,31.369019%);fill-opacity:1;" d="M 140.394531 262.46875 L 177.394531 225.417969 L 177.40625 225.40625 L 141.230469 189.21875 L 104.207031 152.167969 L 96.957031 144.925781 C 84.980469 132.9375 84.957031 113.375 97.011719 101.324219 C 109 89.34375 128.394531 89.3125 140.417969 101.207031 L 177.4375 64.144531 C 156.34375 43.09375 126.769531 35.71875 99.75 42.074219 C 95.875 18.21875 75.175781 0.0195312 50.238281 0 C 22.53125 0 0.0820312 22.488281 0.0820312 50.230469 C 0.0820312 74.167969 16.78125 94.167969 39.144531 99.238281 C 30.667969 127.605469 37.582031 159.59375 59.957031 181.988281 L 67.175781 189.21875 L 104.207031 226.269531 Z M 140.394531 262.46875 "/>
</g>
</svg>
