<svg width="168" height="193" viewBox="0 0 168 193" fill="none" xmlns="http://www.w3.org/2000/svg">
<path d="M143.033 185.994C140.802 188.278 136.108 188.359 129.877 186.326L139.075 176.917C142.966 178.382 146.483 179.19 149.541 179.336L143.033 185.994ZM87.9081 156.542L97.4477 146.786C98.8894 148.301 100.377 149.805 101.904 151.292C103.433 152.78 104.979 154.224 106.535 155.621L96.9956 165.378C95.4581 163.999 93.9123 162.557 92.3643 161.051C90.8331 159.563 89.3477 158.059 87.9081 156.542ZM68.0977 129.128L77.4331 119.578C79.1602 122.971 81.2831 126.492 83.7435 130.063L74.2685 139.755C71.9956 136.39 70.0456 133.086 68.4769 129.911C68.3477 129.649 68.2227 129.388 68.0977 129.128ZM66.0748 111.169L72.5852 104.511C72.8102 107.559 73.706 111.042 75.2748 114.886L66.0789 124.294C63.906 118.165 63.8602 113.436 66.0748 111.169ZM77.106 143.753L86.606 134.036C88.9102 137.101 91.4435 140.182 94.1706 143.234L84.6393 152.986C81.9039 149.915 79.381 146.821 77.106 143.753ZM100.644 168.549L110.177 158.799C113.306 161.44 116.46 163.888 119.591 166.107L110.091 175.824C107.023 173.682 103.858 171.255 100.644 168.549ZM114.173 178.549L123.646 168.859C127.287 171.224 130.869 173.249 134.316 174.886L124.983 184.43C121.65 182.951 118.01 180.988 114.173 178.549ZM97.8352 99.8819C107.806 104.474 119.108 112.651 129.656 122.907C140.204 133.163 148.687 144.221 153.544 154.046C157.9 162.863 158.798 169.871 155.944 172.788C153.094 175.705 146.048 174.988 137.098 170.867C127.127 166.276 115.825 158.101 105.277 147.842C94.7289 137.586 86.2456 126.528 81.3914 116.703C77.0331 107.886 76.1352 100.88 78.9893 97.9631C80.1477 96.7756 82.0019 96.1902 84.3935 96.1902C87.8852 96.1902 92.5248 97.4381 97.8352 99.8819ZM133.029 119.457C122.098 108.828 110.316 100.324 99.8602 95.509C88.6456 90.3465 80.0039 90.0215 75.531 94.5985L62.6164 107.807C58.1414 112.384 58.6831 120.99 64.1456 132.04C69.2352 142.344 78.0602 153.871 88.9914 164.501C104.831 179.901 124.756 192.669 137.566 192.669C141.198 192.669 144.258 191.642 146.491 189.359L159.404 176.151C163.879 171.574 163.337 162.967 157.877 151.917C152.785 141.613 143.96 130.086 133.029 119.457Z" fill="#515358"/>
<path d="M89.1791 107.876C89.3395 107.751 89.6041 107.684 89.9728 107.684C93.3687 107.684 105.437 113.296 122.671 130.053C141.765 148.621 146.985 161.213 145.752 162.878C144.108 164.146 131.36 159.265 112.262 140.699C93.1562 122.119 87.9416 109.524 89.1791 107.876ZM108.892 144.146C117.037 152.067 125.448 158.784 132.573 163.057C137.881 166.24 142.01 167.826 145.042 167.826C146.792 167.826 148.179 167.296 149.21 166.24C152.029 163.357 150.85 157.957 145.6 149.734C141.133 142.74 134.19 134.526 126.042 126.603C117.896 118.682 109.485 111.965 102.36 107.692C93.9833 102.667 88.5437 101.624 85.7228 104.511C82.9041 107.392 84.0853 112.792 89.3353 121.015C93.7999 128.011 100.744 136.226 108.892 144.146Z" fill="#515358"/>
<path d="M93.5353 16.1171L96.5707 12.7025C96.8998 14.1629 97.4519 15.8046 98.2853 17.6504L93.6436 22.8796C92.5478 19.7504 92.4748 17.3129 93.5353 16.1171ZM135.406 22.0109C151.762 36.4546 157.589 50.0734 154.567 53.4775C153.006 55.2359 148.485 54.8963 142.767 52.5879C136.017 49.865 128.258 44.7963 120.925 38.3171C113.589 31.8421 107.608 24.7754 104.079 18.4254C101.092 13.0421 100.204 8.60877 101.764 6.85044C102.421 6.11085 103.61 5.72544 105.237 5.72544C111.089 5.72544 122.606 10.7067 135.406 22.0109ZM139.594 63.4588L144.237 58.2296C146.175 58.8296 147.877 59.1796 149.369 59.3296L146.337 62.7463C145.275 63.9421 142.839 64.1629 139.594 63.4588ZM128.6 58.9963L133.554 53.4171C135.548 54.5567 137.51 55.5567 139.412 56.3963L134.558 61.8609C134.55 61.8588 134.546 61.8567 134.539 61.8546C132.631 61.0838 130.637 60.1192 128.6 58.9963ZM119.127 52.8192L124.144 47.1692C125.887 48.4859 127.637 49.7192 129.375 50.8567L124.385 56.4775C122.642 55.3588 120.883 54.1359 119.127 52.8192ZM110.144 45.2504L115.169 39.5921C116.002 40.3775 116.852 41.1567 117.723 41.9254C118.594 42.6942 119.471 43.4421 120.352 44.1734L115.327 49.8317C114.448 49.1025 113.569 48.3546 112.698 47.5838C111.825 46.815 110.975 46.0359 110.144 45.2504ZM106.708 41.8525C105.185 40.2713 103.756 38.6796 102.433 37.0921L107.425 31.4713C108.764 33.0546 110.204 34.6359 111.725 36.2046L106.708 41.8525ZM95.8415 27.6713L100.694 22.2067C101.76 23.9879 102.992 25.8088 104.369 27.6442L99.4144 33.2234C98.0498 31.3421 96.8498 29.4879 95.8498 27.69C95.8478 27.6859 95.8436 27.6775 95.8415 27.6713ZM109.496 51.19C117.229 58.0213 125.479 63.3942 132.725 66.3192C136.981 68.0359 140.289 68.6879 142.862 68.6879C146.506 68.6879 148.673 67.3817 149.954 65.9379L158.183 56.6713C164.964 49.0338 153.16 31.2525 138.608 18.4025C124.056 5.5546 104.935 -3.9829 98.1477 3.65669L89.9207 12.9234C87.7332 15.3879 86.254 20.3525 91.6248 30.0254C95.4123 36.8421 101.76 44.3609 109.496 51.19Z" fill="#515358"/>
<path d="M55.2311 87.9L46.1061 82.0917C47.0457 80.7354 47.9666 79.35 48.8707 77.9375C49.7666 76.5375 50.6374 75.1167 51.4811 73.6813L60.6145 79.4896C59.7853 80.8958 58.9145 82.3146 58.002 83.7458C57.0957 85.1604 56.1707 86.5458 55.2311 87.9ZM36.3145 108.758C36.1895 108.856 36.0645 108.952 35.9395 109.046L27.0478 103.39C29.3853 101.496 31.7478 99.3125 34.0999 96.8771L43.1436 102.633C40.8582 104.946 38.5666 107.006 36.3145 108.758ZM21.5811 113.95L15.6374 110.169C17.8811 109.421 20.3082 108.188 22.8978 106.463L31.5874 111.99C27.2291 114.525 23.6478 115.265 21.5811 113.95ZM46.4957 99.0521L37.4145 93.2729C39.4041 91.0063 41.3686 88.5771 43.2853 86.0125L52.4041 91.8146C50.4707 94.3854 48.4936 96.8083 46.4957 99.0521ZM6.89156 90.0375C8.98323 81.0417 13.8166 70.3333 20.502 59.8833C27.1874 49.4333 34.8895 40.55 42.1853 34.8729C47.0645 31.075 51.4061 29.0396 54.4332 29.0396C55.4082 29.0396 56.2457 29.25 56.9228 29.6792C62.6666 33.3354 59.102 52.9896 44.7999 75.3438C38.1124 85.7938 30.4124 94.6792 23.1124 100.358C16.6686 105.375 11.1582 107.317 8.37906 105.55C5.5999 103.783 5.04573 97.9813 6.89156 90.0375ZM72.6082 47.9854L63.8811 42.4333C64.3478 39.4646 64.4728 36.725 64.202 34.3125L70.1228 38.0792C72.2416 39.4292 73.0937 42.9542 72.6082 47.9854ZM57.9707 61.0979L67.0874 66.8979C65.9103 69.5938 64.5436 72.4 62.9853 75.2875L53.8499 69.475C55.3499 66.6938 56.7332 63.8854 57.9707 61.0979ZM62.827 47.4771L71.7541 53.1563C71.1228 55.9563 70.1853 59.0479 68.9374 62.3604L59.852 56.5813C61.0707 53.4542 62.077 50.3917 62.827 47.4771ZM72.7207 34.0188L59.5186 25.6188C54.7374 22.575 47.7124 24.4604 39.2145 31.0729C31.4957 37.0813 23.4041 46.3938 16.4291 57.2917C9.45615 68.1938 4.39781 79.4354 2.18531 88.95C-0.248021 99.4209 0.995729 106.567 5.78115 109.61L18.9832 118.01C20.4707 118.956 22.1728 119.427 24.0686 119.427C28.2749 119.427 33.4311 117.115 39.2874 112.556C47.0061 106.548 55.0999 97.2354 62.0728 86.3375C75.0999 65.9771 83.2582 40.7229 72.7207 34.0188Z" fill="#515358"/>
<path d="M152.404 110.267C151.021 106.709 148.846 103.19 145.427 100.855C148.846 98.5173 151.021 94.9986 152.404 91.4382C153.788 94.9986 155.963 98.5173 159.379 100.855C155.963 103.19 153.788 106.709 152.404 110.267ZM167.804 101.096C167.808 101.053 167.81 101.011 167.813 100.967C167.813 100.928 167.817 100.892 167.817 100.855C167.817 100.815 167.813 100.78 167.813 100.74C167.81 100.696 167.808 100.653 167.804 100.611C167.8 100.578 167.794 100.544 167.79 100.513C167.783 100.467 167.777 100.417 167.767 100.371C167.765 100.359 167.763 100.349 167.76 100.338C167.756 100.315 167.748 100.294 167.744 100.271C167.733 100.23 167.721 100.186 167.708 100.142C167.696 100.105 167.683 100.067 167.669 100.032C167.656 99.9965 167.644 99.9611 167.629 99.9256C167.613 99.884 167.594 99.8444 167.573 99.8048C167.56 99.7757 167.546 99.7465 167.529 99.7173C167.508 99.6777 167.485 99.6381 167.46 99.5986C167.444 99.5715 167.425 99.5423 167.408 99.5173C167.383 99.4819 167.36 99.4465 167.333 99.4131C167.313 99.3798 167.288 99.3527 167.263 99.3215C167.242 99.2965 167.219 99.2694 167.194 99.2423C167.163 99.2069 167.129 99.1736 167.096 99.1402C167.079 99.1236 167.06 99.1069 167.042 99.0902C167 99.0506 166.956 99.0111 166.91 98.9736C166.9 98.9652 166.888 98.9569 166.877 98.9486C166.823 98.909 166.769 98.8694 166.713 98.8319C166.706 98.8298 166.702 98.8256 166.696 98.8215C166.633 98.784 166.573 98.7486 166.508 98.7152C166.504 98.7132 166.502 98.7111 166.498 98.7111C166.433 98.6756 166.367 98.6465 166.298 98.6194C166.294 98.6173 166.29 98.6152 166.283 98.6131C166.217 98.5882 166.15 98.5652 166.081 98.5444C166.073 98.5402 166.063 98.5402 166.054 98.5381C166.008 98.5236 165.965 98.5111 165.919 98.5007C154.948 96.1027 154.821 78.8319 154.819 78.5632C154.819 78.5569 154.819 78.5486 154.819 78.5423C154.819 78.4965 154.815 78.4486 154.813 78.4048C154.808 78.3715 154.808 78.3382 154.806 78.3069C154.8 78.2444 154.79 78.184 154.779 78.1236C154.775 78.1069 154.775 78.0882 154.771 78.0715C154.756 77.9965 154.738 77.9257 154.715 77.8548C154.715 77.8507 154.715 77.8444 154.713 77.8423C154.573 77.3923 154.304 76.9965 153.95 76.7027C153.948 76.7007 153.948 76.6986 153.946 76.6986C153.894 76.6569 153.84 76.6152 153.783 76.5798C153.775 76.5715 153.767 76.5632 153.758 76.559C153.713 76.5277 153.665 76.5007 153.615 76.4715C153.596 76.4611 153.577 76.4486 153.558 76.4361C153.517 76.4152 153.477 76.3986 153.438 76.3777C153.406 76.3652 153.377 76.3486 153.346 76.334C153.313 76.3215 153.279 76.309 153.246 76.2986C153.206 76.2819 153.165 76.2673 153.123 76.2548C153.096 76.2444 153.067 76.2402 153.038 76.2319C152.99 76.2194 152.942 76.2048 152.892 76.1944C152.865 76.1902 152.838 76.1861 152.81 76.1819C152.758 76.1715 152.706 76.1632 152.654 76.1569C152.621 76.1548 152.585 76.1548 152.552 76.1527C152.504 76.1486 152.458 76.1465 152.41 76.1465C152.408 76.1465 152.406 76.1465 152.404 76.1465C152.402 76.1465 152.398 76.1465 152.398 76.1465C152.35 76.1465 152.304 76.1486 152.254 76.1527C152.223 76.1548 152.19 76.1548 152.156 76.1569C152.098 76.1632 152.044 76.1736 151.985 76.184C151.963 76.1882 151.94 76.1902 151.917 76.1944C151.858 76.2069 151.804 76.2215 151.748 76.2382C151.727 76.2423 151.706 76.2486 151.685 76.2548C151.633 76.2694 151.581 76.2902 151.531 76.309C151.51 76.3173 151.488 76.3257 151.465 76.334C151.419 76.3527 151.377 76.3757 151.333 76.3965C151.306 76.4111 151.279 76.4215 151.254 76.4361C151.219 76.4548 151.185 76.4757 151.152 76.4965C151.119 76.5173 151.085 76.5361 151.052 76.5569C151.029 76.5736 151.006 76.5923 150.981 76.609C150.944 76.6382 150.904 76.6652 150.867 76.6965C150.85 76.709 150.835 76.7236 150.821 76.7382C150.777 76.7757 150.735 76.8132 150.694 76.8527C150.685 76.8611 150.679 76.8694 150.671 76.8777C150.625 76.9257 150.581 76.9736 150.538 77.0257C150.533 77.0298 150.531 77.034 150.529 77.0382C150.385 77.2132 150.267 77.409 150.177 77.6215C150.177 77.6236 150.175 77.6257 150.175 77.6277C150.146 77.6986 150.119 77.7673 150.098 77.8423C150.094 77.8486 150.092 77.859 150.09 77.8673C150.069 77.934 150.052 78.0007 150.04 78.0715C150.033 78.0902 150.031 78.109 150.029 78.1277C150.019 78.1882 150.008 78.2465 150.002 78.3069C149.998 78.3382 149.998 78.3715 149.998 78.4048C149.994 78.4486 149.99 78.4965 149.99 78.5423C149.99 78.5486 149.99 78.5569 149.99 78.5632C149.99 78.8319 149.86 96.1027 138.89 98.5007C138.84 98.5111 138.79 98.5257 138.742 98.5402C138.74 98.5402 138.74 98.5402 138.74 98.5402C138.356 98.6507 138.023 98.8465 137.752 99.1048C137.744 99.109 137.738 99.1173 137.731 99.1215C137.685 99.1652 137.642 99.2111 137.6 99.259C137.588 99.2736 137.573 99.2881 137.56 99.3048C137.527 99.3465 137.494 99.3861 137.465 99.4277C137.446 99.4506 137.427 99.4777 137.41 99.5027C137.385 99.5381 137.363 99.5756 137.34 99.6111C137.321 99.6444 137.302 99.6756 137.285 99.7069C137.267 99.7444 137.248 99.7798 137.229 99.8152C137.213 99.8506 137.198 99.884 137.183 99.9194C137.167 99.959 137.15 99.9986 137.138 100.038C137.125 100.071 137.113 100.105 137.102 100.14C137.09 100.184 137.075 100.23 137.065 100.274C137.06 100.296 137.052 100.315 137.046 100.338C137.046 100.349 137.044 100.359 137.042 100.371C137.031 100.417 137.025 100.467 137.019 100.513C137.013 100.544 137.008 100.578 137.004 100.611C137.002 100.653 136.998 100.696 136.996 100.74C136.994 100.78 136.992 100.815 136.992 100.855C136.992 100.892 136.994 100.928 136.996 100.967C136.998 101.011 137.002 101.053 137.004 101.096C137.008 101.13 137.013 101.163 137.019 101.194C137.025 101.242 137.031 101.29 137.042 101.336C137.044 101.349 137.046 101.359 137.046 101.369C137.05 101.38 137.054 101.39 137.056 101.401C137.085 101.524 137.123 101.644 137.169 101.759C137.175 101.776 137.183 101.79 137.192 101.807C137.235 101.911 137.29 102.013 137.348 102.111C137.356 102.124 137.365 102.138 137.373 102.149C137.433 102.249 137.506 102.34 137.583 102.428C137.598 102.446 137.615 102.465 137.631 102.482C137.708 102.567 137.792 102.646 137.881 102.719C137.898 102.732 137.915 102.744 137.931 102.757C138.025 102.83 138.125 102.899 138.231 102.957C138.238 102.961 138.246 102.963 138.252 102.969C138.354 103.021 138.456 103.069 138.569 103.109C138.585 103.115 138.604 103.124 138.621 103.132C138.708 103.161 138.798 103.186 138.89 103.207C149.86 105.605 149.99 122.876 149.99 123.144C149.99 123.151 149.99 123.159 149.99 123.165C149.99 123.211 149.994 123.257 149.998 123.303C149.998 123.336 149.998 123.369 150.002 123.401C150.008 123.463 150.019 123.524 150.029 123.584C150.031 123.601 150.033 123.619 150.04 123.636C150.052 123.709 150.071 123.782 150.092 123.853C150.094 123.857 150.096 123.861 150.096 123.865C150.238 124.317 150.506 124.711 150.858 125.005C150.86 125.007 150.863 125.007 150.865 125.009C150.917 125.051 150.971 125.09 151.023 125.128C151.033 125.134 151.042 125.142 151.05 125.149C151.098 125.18 151.144 125.209 151.194 125.236C151.213 125.246 151.231 125.261 151.25 125.271C151.29 125.29 151.331 125.309 151.371 125.33C151.402 125.342 151.431 125.359 151.463 125.371C151.496 125.386 151.529 125.396 151.565 125.409C151.604 125.424 151.642 125.44 151.685 125.453C151.713 125.463 151.744 125.467 151.771 125.476C151.819 125.488 151.867 125.503 151.917 125.513C151.942 125.517 151.971 125.521 151.998 125.526C152.05 125.534 152.102 125.544 152.156 125.551C152.19 125.553 152.225 125.553 152.258 125.555C152.304 125.557 152.35 125.561 152.398 125.561C152.398 125.561 152.402 125.561 152.404 125.561C152.406 125.561 152.408 125.561 152.41 125.561C152.458 125.561 152.504 125.557 152.554 125.555C152.588 125.553 152.621 125.553 152.652 125.551C152.71 125.542 152.767 125.534 152.821 125.524C152.846 125.519 152.869 125.517 152.892 125.513C152.95 125.501 153.004 125.484 153.06 125.469C153.081 125.465 153.102 125.459 153.121 125.453C153.175 125.438 153.225 125.417 153.277 125.399C153.3 125.39 153.321 125.382 153.344 125.371C153.388 125.355 153.431 125.332 153.475 125.311C153.5 125.296 153.529 125.286 153.556 125.271C153.59 125.253 153.621 125.23 153.654 125.211C153.69 125.192 153.725 125.171 153.756 125.151C153.779 125.134 153.802 125.115 153.827 125.099C153.865 125.069 153.904 125.042 153.942 125.011C153.958 124.999 153.973 124.982 153.988 124.969C154.031 124.932 154.075 124.894 154.115 124.855C154.123 124.846 154.129 124.838 154.138 124.83C154.183 124.782 154.229 124.734 154.271 124.682C154.275 124.678 154.275 124.676 154.279 124.671C154.423 124.494 154.542 124.299 154.631 124.086C154.631 124.084 154.633 124.082 154.633 124.08C154.663 124.009 154.69 123.938 154.713 123.867C154.715 123.857 154.715 123.849 154.719 123.84C154.74 123.774 154.756 123.707 154.771 123.638C154.775 123.617 154.775 123.599 154.779 123.58C154.792 123.519 154.8 123.461 154.806 123.401C154.808 123.369 154.808 123.336 154.813 123.303C154.815 123.257 154.819 123.211 154.819 123.165C154.819 123.159 154.819 123.151 154.819 123.144C154.821 122.876 154.948 105.605 165.919 103.207C166.01 103.186 166.1 103.161 166.185 103.132C166.204 103.124 166.223 103.115 166.242 103.109C166.35 103.069 166.456 103.021 166.556 102.969C166.565 102.963 166.571 102.961 166.577 102.957C166.685 102.899 166.783 102.83 166.879 102.757C166.894 102.744 166.91 102.732 166.925 102.719C167.017 102.646 167.1 102.567 167.179 102.482C167.196 102.465 167.21 102.446 167.225 102.428C167.302 102.34 167.373 102.249 167.438 102.149C167.444 102.138 167.45 102.124 167.458 102.111C167.519 102.013 167.571 101.911 167.617 101.807C167.623 101.79 167.631 101.776 167.64 101.759C167.685 101.644 167.723 101.524 167.752 101.401C167.754 101.39 167.758 101.38 167.76 101.369C167.763 101.359 167.765 101.349 167.767 101.336C167.777 101.29 167.783 101.242 167.79 101.194C167.794 101.163 167.8 101.13 167.804 101.096Z" fill="#515358"/>
<path d="M26.7437 170.305C25.152 165.851 22.5083 161.345 18.1249 158.542C22.5083 155.74 25.152 151.234 26.7437 146.78C28.3374 151.234 30.9791 155.74 35.3624 158.542C30.9791 161.345 28.3374 165.851 26.7437 170.305ZM44.027 158.432C44.0249 158.386 44.0249 158.342 44.0187 158.299C44.0166 158.267 44.0103 158.236 44.0062 158.203C43.9999 158.153 43.9916 158.107 43.9833 158.059C43.9812 158.049 43.9812 158.038 43.977 158.026C43.9729 158.005 43.9645 157.982 43.9583 157.961C43.9478 157.917 43.9374 157.874 43.9228 157.83C43.9124 157.792 43.8979 157.757 43.8853 157.72C43.8728 157.686 43.8603 157.651 43.8437 157.615C43.827 157.576 43.8103 157.534 43.7895 157.492C43.7749 157.465 43.7603 157.436 43.7458 157.407C43.7249 157.365 43.6999 157.326 43.677 157.286C43.6604 157.259 43.6437 157.234 43.627 157.207C43.5999 157.17 43.5749 157.134 43.5478 157.099C43.527 157.07 43.5041 157.042 43.4833 157.015C43.4583 156.986 43.4312 156.957 43.4062 156.928C43.3791 156.897 43.3479 156.863 43.3166 156.834C43.2958 156.811 43.2749 156.792 43.252 156.774C43.2145 156.736 43.1749 156.703 43.1333 156.67C43.1166 156.657 43.0999 156.645 43.0833 156.632C43.0354 156.597 42.9874 156.561 42.9374 156.528C42.9249 156.522 42.9145 156.513 42.8999 156.505C42.8458 156.472 42.7916 156.438 42.7353 156.411C42.7229 156.405 42.7104 156.397 42.6999 156.39C42.6416 156.363 42.5854 156.336 42.527 156.313C42.5103 156.307 42.4937 156.301 42.4791 156.295C42.4249 156.274 42.3666 156.255 42.3083 156.236C42.2874 156.23 42.2666 156.226 42.2437 156.22C42.2083 156.209 42.1729 156.199 42.1333 156.19C29.2854 153.38 29.1583 133.286 29.1583 133.03C29.1583 133.026 29.1583 133.015 29.1583 133.011C29.1583 132.967 29.1541 132.924 29.152 132.882C29.1499 132.847 29.1499 132.811 29.1458 132.776C29.1395 132.72 29.1312 132.663 29.1208 132.611C29.1166 132.586 29.1145 132.561 29.1103 132.538C29.0958 132.472 29.077 132.405 29.0604 132.338C29.0562 132.33 29.0541 132.32 29.052 132.311C28.7979 131.488 28.1124 130.855 27.2624 130.67C27.2541 130.667 27.2437 130.665 27.2353 130.663C27.1791 130.651 27.1208 130.642 27.0624 130.636C27.0395 130.634 27.0187 130.628 26.9937 130.626C26.9499 130.622 26.902 130.62 26.8541 130.617C26.8208 130.617 26.7874 130.613 26.752 130.613C26.7479 130.613 26.7458 130.613 26.7437 130.613C26.7416 130.613 26.7395 130.613 26.7353 130.613C26.702 130.613 26.6666 130.617 26.6333 130.617C26.5854 130.62 26.5374 130.622 26.4937 130.626C26.4687 130.628 26.4437 130.634 26.4187 130.636C26.3624 130.645 26.3062 130.651 26.252 130.663C26.2374 130.667 26.2229 130.672 26.2083 130.674C26.1458 130.688 26.0812 130.703 26.0208 130.724C26.0124 130.726 26.0083 130.728 26.0041 130.728C25.3312 130.945 24.7874 131.447 24.5166 132.09C24.5166 132.092 24.5145 132.097 24.5124 132.101C24.4833 132.17 24.4583 132.238 24.4374 132.309C24.4312 132.322 24.4291 132.336 24.4249 132.349C24.4083 132.411 24.3916 132.476 24.3791 132.538C24.3729 132.563 24.3687 132.588 24.3645 132.613C24.3562 132.667 24.3458 132.722 24.3416 132.776C24.3374 132.811 24.3374 132.847 24.3354 132.882C24.3333 132.924 24.327 132.967 24.327 133.011C24.327 133.015 24.327 133.026 24.327 133.03C24.327 133.286 24.1999 153.38 11.352 156.19C11.3062 156.201 11.2666 156.213 11.2229 156.226C11.2124 156.228 11.202 156.23 11.1916 156.234C11.1208 156.253 11.052 156.278 10.9854 156.303C10.9833 156.305 10.9791 156.305 10.9791 156.307C10.7604 156.392 10.5604 156.507 10.3812 156.649C10.3791 156.651 10.377 156.651 10.377 156.651C10.3208 156.695 10.2666 156.742 10.2145 156.79C10.2062 156.797 10.1999 156.805 10.1895 156.813C10.1458 156.857 10.1041 156.901 10.0645 156.947C10.0499 156.963 10.0354 156.98 10.0208 156.997C9.98952 157.034 9.95619 157.076 9.92702 157.115C9.90827 157.14 9.88952 157.167 9.87077 157.192C9.84785 157.228 9.82494 157.263 9.80202 157.301C9.78327 157.332 9.76452 157.363 9.74785 157.397C9.72702 157.432 9.71035 157.47 9.6916 157.505C9.67493 157.54 9.66035 157.574 9.64577 157.609C9.62702 157.649 9.61244 157.686 9.59785 157.728C9.58535 157.761 9.57493 157.795 9.56452 157.83C9.54993 157.874 9.53743 157.917 9.52702 157.963C9.52285 157.984 9.51452 158.005 9.50827 158.026C9.50827 158.038 9.50619 158.049 9.5041 158.059C9.49369 158.107 9.48743 158.153 9.48118 158.203C9.47493 158.236 9.47077 158.267 9.4666 158.299C9.46244 158.342 9.46035 158.386 9.45827 158.432C9.45619 158.467 9.4541 158.507 9.4541 158.542C9.4541 158.58 9.45619 158.617 9.45827 158.653C9.46035 158.699 9.46244 158.742 9.4666 158.788C9.47077 158.82 9.47493 158.851 9.48118 158.882C9.48743 158.932 9.49369 158.978 9.5041 159.026C9.50619 159.036 9.50827 159.047 9.50827 159.059C9.51035 159.07 9.5166 159.078 9.51868 159.088C9.54785 159.213 9.58535 159.332 9.63118 159.449C9.63743 159.465 9.64577 159.48 9.6541 159.495C9.69785 159.601 9.74994 159.703 9.81035 159.799C9.81868 159.813 9.82493 159.826 9.83327 159.84C9.89577 159.936 9.96868 160.028 10.0458 160.117C10.0604 160.136 10.0749 160.155 10.0916 160.172C10.1708 160.257 10.2562 160.334 10.3437 160.409C10.3604 160.422 10.377 160.434 10.3937 160.447C10.4874 160.52 10.5854 160.588 10.6937 160.647C10.6999 160.651 10.7083 160.653 10.7145 160.657C10.8145 160.711 10.9187 160.757 11.0312 160.799C11.0479 160.807 11.0645 160.813 11.0833 160.82C11.1708 160.851 11.2604 160.876 11.352 160.897C24.1999 163.705 24.327 183.799 24.327 184.055C24.327 184.061 24.327 184.07 24.327 184.076C24.327 184.12 24.3333 184.161 24.3354 184.205C24.3374 184.24 24.3374 184.276 24.3416 184.309C24.3458 184.365 24.3562 184.422 24.3666 184.476C24.3708 184.501 24.3729 184.524 24.3791 184.547C24.3916 184.615 24.4103 184.68 24.4291 184.747C24.4312 184.755 24.4333 184.765 24.4354 184.774C24.6895 185.599 25.377 186.232 26.2291 186.417C26.2374 186.42 26.2437 186.42 26.252 186.422C26.3083 186.434 26.3666 186.442 26.427 186.449C26.4479 186.453 26.4687 186.457 26.4916 186.461C26.5374 186.463 26.5854 186.465 26.6333 186.467C26.6666 186.47 26.702 186.472 26.7353 186.472C26.7395 186.472 26.7416 186.472 26.7437 186.472C26.7458 186.472 26.7479 186.472 26.752 186.472C26.7874 186.472 26.8208 186.47 26.8562 186.467C26.902 186.465 26.9499 186.463 26.9937 186.461C27.0208 186.457 27.0437 186.453 27.0687 186.449C27.1229 186.442 27.1812 186.434 27.2353 186.422C27.2499 186.42 27.2604 186.415 27.2749 186.411C27.3395 186.399 27.4041 186.382 27.4687 186.361C27.4729 186.359 27.477 186.359 27.4853 186.357C28.1562 186.14 28.6979 185.64 28.9708 184.997C28.9729 184.992 28.9729 184.988 28.9749 184.984C29.002 184.917 29.0291 184.849 29.052 184.776C29.0541 184.763 29.0583 184.749 29.0624 184.736C29.0791 184.674 29.0958 184.611 29.1103 184.547C29.1145 184.522 29.1187 184.499 29.1208 184.472C29.1312 184.417 29.1395 184.365 29.1458 184.309C29.1499 184.276 29.1499 184.24 29.152 184.205C29.1541 184.161 29.1583 184.12 29.1583 184.076C29.1583 184.07 29.1583 184.061 29.1583 184.055C29.1583 183.799 29.2854 163.705 42.1333 160.897C42.227 160.876 42.3145 160.851 42.402 160.82C42.4208 160.813 42.4395 160.807 42.4583 160.799C42.5666 160.757 42.6729 160.711 42.7708 160.657C42.7791 160.653 42.7854 160.651 42.7937 160.647C42.8999 160.588 42.9999 160.52 43.0958 160.447C43.1103 160.434 43.127 160.422 43.1416 160.409C43.2333 160.334 43.3166 160.257 43.3958 160.172C43.4124 160.155 43.4249 160.136 43.4395 160.117C43.5166 160.028 43.5895 159.936 43.6541 159.84C43.6624 159.826 43.6666 159.813 43.677 159.799C43.7353 159.703 43.7874 159.601 43.8333 159.495C43.8395 159.48 43.8479 159.465 43.8541 159.449C43.902 159.332 43.9395 159.213 43.9666 159.088C43.9708 159.078 43.9729 159.07 43.977 159.059C43.9812 159.047 43.9812 159.036 43.9833 159.026C43.9916 158.978 43.9999 158.932 44.0062 158.882C44.0103 158.851 44.0166 158.82 44.0187 158.788C44.0249 158.742 44.0249 158.699 44.027 158.653C44.0291 158.617 44.0333 158.58 44.0333 158.542C44.0333 158.507 44.0291 158.467 44.027 158.432Z" fill="#515358"/>
</svg>
