<?xml version="1.0" encoding="UTF-8"?>
<svg xmlns="http://www.w3.org/2000/svg" xmlns:xlink="http://www.w3.org/1999/xlink" width="375pt" height="374.999991pt" viewBox="0 0 375 374.999991" version="1.2">
<defs>
<clipPath id="clip1">
  <path d="M 42.65625 0.0703125 L 331.886719 0.0703125 L 331.886719 375 L 42.65625 375 Z M 42.65625 0.0703125 "/>
</clipPath>
</defs>
<g id="surface1">
<path style=" stroke:none;fill-rule:nonzero;fill:rgb(30.979919%,29.798889%,29.798889%);fill-opacity:1;" d="M 180.765625 314.105469 L 176.410156 314.105469 L 176.410156 342.875 L 180.765625 342.875 C 185.722656 342.875 189.507812 341.648438 192.132812 339.183594 C 194.746094 336.71875 196.058594 333.144531 196.058594 328.449219 C 196.058594 323.765625 194.753906 320.210938 192.152344 317.769531 C 189.539062 315.335938 185.746094 314.105469 180.765625 314.105469 "/>
<path style=" stroke:none;fill-rule:nonzero;fill:rgb(30.979919%,29.798889%,29.798889%);fill-opacity:1;" d="M 241.59375 313.730469 L 236.488281 313.730469 L 236.488281 325.820312 L 241.59375 325.820312 C 244.144531 325.820312 245.960938 325.347656 247.070312 324.398438 C 248.175781 323.453125 248.722656 321.902344 248.722656 319.726562 C 248.722656 317.574219 248.175781 316.046875 247.070312 315.117188 C 245.960938 314.191406 244.144531 313.730469 241.59375 313.730469 "/>
<g clip-path="url(#clip1)" clip-rule="nonzero">
<path style=" stroke:none;fill-rule:nonzero;fill:rgb(30.979919%,29.798889%,29.798889%);fill-opacity:1;" d="M 54.6875 280.300781 L 54.6875 13.507812 C 54.6875 12.753906 55.300781 12.140625 56.042969 12.140625 L 211.660156 12.085938 L 239.316406 12.085938 C 239.316406 12.085938 246.9375 12.742188 246.9375 21.226562 C 246.9375 31.898438 246.894531 48.308594 246.894531 48.308594 C 246.863281 49.640625 246.800781 61.011719 254.164062 68.6875 C 258.542969 73.242188 264.464844 75.558594 271.769531 75.558594 C 286.1875 75.558594 312.832031 75.589844 312.832031 75.589844 C 317.574219 75.589844 319.738281 78.882812 319.738281 83.105469 C 319.738281 87.316406 319.738281 98.652344 319.738281 98.652344 C 319.757812 131.058594 319.789062 215.804688 319.8125 280.300781 Z M 253.929688 352.070312 L 248.1875 340.355469 C 247.035156 338 245.851562 336.382812 244.671875 335.523438 C 243.488281 334.660156 241.894531 334.230469 239.917969 334.230469 L 236.488281 334.230469 L 236.488281 352.070312 L 224.335938 352.070312 L 224.335938 304.921875 L 242.886719 304.921875 C 249.089844 304.921875 253.636719 305.957031 256.53125 308.046875 C 259.421875 310.125 260.863281 313.429688 260.863281 317.929688 C 260.863281 321.039062 260.113281 323.601562 258.605469 325.59375 C 257.113281 327.597656 254.84375 329.074219 251.808594 330.019531 C 253.476562 330.398438 254.960938 331.257812 256.273438 332.59375 C 257.585938 333.929688 258.917969 335.964844 260.273438 338.675781 L 266.855469 352.070312 Z M 206.972656 337.964844 C 205.894531 340.753906 204.261719 343.210938 202.058594 345.339844 C 199.53125 347.785156 196.496094 349.519531 192.972656 350.53125 C 189.433594 351.554688 184.132812 352.070312 177.078125 352.070312 L 164.261719 352.070312 L 164.261719 304.921875 L 177.078125 304.921875 C 184.21875 304.921875 189.550781 305.429688 193.046875 306.453125 C 196.550781 307.464844 199.550781 309.207031 202.058594 311.640625 C 204.261719 313.773438 205.894531 316.226562 206.972656 319.003906 C 208.046875 321.785156 208.582031 324.925781 208.582031 328.449219 C 208.582031 332 208.046875 335.175781 206.972656 337.964844 Z M 147.742188 317.328125 C 145.496094 315.785156 143.269531 314.667969 141.089844 313.945312 C 138.90625 313.234375 136.605469 312.878906 134.183594 312.878906 C 129.851562 312.878906 126.441406 314.269531 123.957031 317.046875 C 121.484375 319.824219 120.238281 323.65625 120.238281 328.546875 C 120.238281 333.402344 121.484375 337.222656 123.957031 340 C 126.441406 342.777344 129.851562 344.167969 134.183594 344.167969 C 136.605469 344.167969 138.90625 343.8125 141.089844 343.089844 C 143.269531 342.378906 145.496094 341.25 147.742188 339.722656 L 147.742188 349.476562 C 145.519531 350.640625 143.195312 351.511719 140.777344 352.101562 C 138.355469 352.683594 135.828125 352.984375 133.207031 352.984375 C 125.355469 352.984375 119.152344 350.789062 114.5625 346.398438 C 109.980469 342.015625 107.691406 336.058594 107.691406 328.546875 C 107.691406 321.007812 109.980469 315.042969 114.5625 310.652344 C 119.152344 306.257812 125.355469 304.0625 133.207031 304.0625 C 135.828125 304.0625 138.355469 304.363281 140.777344 304.945312 C 143.195312 305.535156 145.519531 306.417969 147.742188 307.570312 Z M 263.660156 57.671875 C 271.058594 64.5 281.671875 67.4375 289.328125 68.011719 C 276.402344 67.0625 276.402344 67.0625 276.402344 67.0625 C 276.402344 67.0625 267.015625 66.953125 260.960938 61.539062 C 254.898438 56.125 254.679688 47.929688 254.679688 47.929688 L 252.863281 34.300781 C 252.863281 34.300781 256.261719 50.859375 263.660156 57.671875 Z M 331.769531 83.773438 C 331.769531 77.636719 330.554688 72.425781 326.339844 68.828125 C 325.671875 68.257812 322.910156 66.0625 322.910156 66.0625 L 253.832031 6.035156 L 253.851562 6.058594 C 247.433594 0.253906 237.058594 0.0820312 236.875 0.0820312 L 54.289062 0.0820312 C 47.871094 0.0820312 42.65625 5.304688 42.65625 11.710938 L 42.65625 363.40625 C 42.65625 369.8125 47.871094 375.035156 54.289062 375.035156 L 320.253906 375.035156 C 326.671875 375.035156 331.886719 369.8125 331.886719 363.40625 L 331.769531 83.773438 "/>
</g>
<path style=" stroke:none;fill-rule:nonzero;fill:rgb(30.979919%,29.798889%,29.798889%);fill-opacity:1;" d="M 95.023438 248.96875 C 95.023438 248.96875 110.410156 201.335938 110.410156 165.878906 C 110.410156 115.09375 100.820312 82.78125 90.207031 82.78125 L 90.207031 248.96875 L 95.023438 248.96875 "/>
<path style=" stroke:none;fill-rule:nonzero;fill:rgb(30.979919%,29.798889%,29.798889%);fill-opacity:1;" d="M 202.015625 129.683594 L 217.9375 113.738281 C 190.992188 90.058594 143.089844 82.78125 90.207031 82.78125 C 139.410156 82.78125 184.53125 93.203125 202.015625 129.683594 "/>
<path style=" stroke:none;fill-rule:nonzero;fill:rgb(30.979919%,29.798889%,29.798889%);fill-opacity:1;" d="M 209.949219 230.46875 C 209.949219 230.46875 208.066406 231.277344 205.894531 231.019531 L 197.789062 232.277344 C 194.722656 242.378906 192.261719 248.96875 192.261719 248.96875 L 221.457031 248.96875 C 221.457031 248.96875 229.84375 228.738281 235.5625 204.824219 L 209.949219 230.46875 "/>
<path style=" stroke:none;fill-rule:nonzero;fill:rgb(30.979919%,29.798889%,29.798889%);fill-opacity:1;" d="M 155.949219 238.792969 L 151.59375 234.453125 L 147.261719 230.105469 L 155.066406 179.898438 C 154.894531 177.832031 155.648438 176.097656 155.648438 176.097656 L 178.667969 153.058594 C 173.109375 97.480469 133.796875 82.78125 90.207031 82.78125 C 118.539062 82.78125 143.894531 99.675781 144.195312 165.878906 C 144.355469 201.335938 126.992188 248.96875 126.992188 248.96875 L 157.011719 248.96875 C 157.011719 248.96875 159.023438 244.738281 161.832031 237.878906 L 155.949219 238.792969 "/>
<path style=" stroke:none;fill-rule:nonzero;fill:rgb(30.979919%,29.798889%,29.798889%);fill-opacity:1;" d="M 154.667969 234.949219 L 151.894531 232.160156 L 157.753906 194.445312 C 158.132812 194.8125 158.378906 195.070312 158.378906 195.070312 C 158.390625 195.070312 159.875 196.566406 163.023438 199.710938 C 164.195312 200.882812 165.550781 201.691406 166.875 202.152344 C 167.574219 202.402344 168.261719 202.550781 168.90625 202.648438 C 169.003906 203.304688 169.152344 203.984375 169.402344 204.695312 C 169.863281 206.007812 170.667969 207.375 171.839844 208.539062 C 174.992188 211.683594 177.96875 214.675781 181.121094 217.832031 C 182.28125 219.003906 183.648438 219.800781 184.960938 220.273438 C 185.667969 220.523438 186.347656 220.671875 187.011719 220.769531 C 187.101562 221.414062 187.25 222.105469 187.496094 222.804688 C 187.960938 224.128906 188.765625 225.496094 189.925781 226.660156 L 189.9375 226.667969 C 193.089844 229.8125 194.582031 231.308594 194.582031 231.308594 C 194.582031 231.308594 194.808594 231.535156 195.132812 231.859375 L 157.453125 237.726562 Z M 225.691406 115.707031 L 237.648438 127.667969 L 173.753906 191.644531 L 161.796875 179.671875 Z M 209.949219 227.886719 L 197.992188 215.914062 L 261.886719 151.9375 L 273.84375 163.910156 Z M 191.851562 209.753906 L 179.90625 197.804688 L 243.789062 133.828125 L 255.734375 145.789062 Z M 283.070312 160.832031 L 264.960938 142.710938 L 228.765625 106.46875 C 227.960938 105.652344 226.84375 105.1875 225.691406 105.1875 C 224.550781 105.1875 223.433594 105.652344 222.617188 106.46875 L 152.570312 176.59375 L 152.496094 176.710938 C 152.164062 177.066406 151.882812 177.453125 151.691406 177.894531 L 151.667969 177.917969 C 151.550781 178.242188 150.710938 180.082031 150.679688 182.871094 L 150.710938 183.171875 L 142.96875 233.011719 C 142.753906 234.378906 143.21875 235.777344 144.195312 236.757812 L 148.527344 241.097656 L 148.527344 241.109375 L 152.875 245.445312 C 153.851562 246.425781 155.25 246.878906 156.617188 246.664062 L 206.121094 238.964844 L 206.765625 239.007812 C 209.539062 238.988281 211.378906 238.148438 211.691406 238.027344 C 212.195312 237.8125 212.636719 237.511719 213.023438 237.125 L 283.070312 166.988281 C 283.875 166.171875 284.339844 165.050781 284.339844 163.910156 C 284.339844 162.757812 283.875 161.636719 283.070312 160.832031 "/>
<path style=" stroke:none;fill-rule:nonzero;fill:rgb(30.979919%,29.798889%,29.798889%);fill-opacity:1;" d="M 145.65625 215.3125 L 174.183594 243.875 L 140.582031 248.96875 Z M 145.65625 215.3125 "/>
</g>
</svg>
