<?xml version="1.0" encoding="UTF-8"?>
<svg xmlns="http://www.w3.org/2000/svg" xmlns:xlink="http://www.w3.org/1999/xlink" width="375pt" height="374.999991pt" viewBox="0 0 375 374.999991" version="1.2">
<defs>
<clipPath id="clip1">
  <path d="M 18 0 L 357.5625 0 L 357.5625 375 L 18 375 Z M 18 0 "/>
</clipPath>
<clipPath id="clip2">
  <path d="M 184 91 L 357.5625 91 L 357.5625 281 L 184 281 Z M 184 91 "/>
</clipPath>
</defs>
<g id="surface1">
<g clip-path="url(#clip1)" clip-rule="nonzero">
<path style=" stroke:none;fill-rule:nonzero;fill:rgb(0%,78.42865%,32.548523%);fill-opacity:1;" d="M 178.105469 3.429688 C 184.152344 0.0429688 191.597656 0.0429688 197.636719 3.429688 C 227.515625 20.164062 317.429688 70.53125 347.316406 87.261719 C 353.363281 90.640625 357.085938 96.894531 357.085938 103.667969 C 357.085938 137.132812 357.085938 237.859375 357.085938 271.324219 C 357.085938 278.09375 353.363281 284.351562 347.316406 287.738281 C 317.4375 304.46875 227.523438 354.835938 197.636719 371.570312 C 191.589844 374.957031 184.144531 374.957031 178.105469 371.570312 C 148.226562 354.835938 58.3125 304.46875 28.425781 287.738281 C 22.386719 284.351562 18.664062 278.105469 18.664062 271.332031 C 18.664062 237.867188 18.664062 137.140625 18.664062 103.675781 C 18.664062 96.90625 22.386719 90.648438 28.433594 87.261719 C 58.304688 70.53125 148.234375 20.164062 178.105469 3.429688 Z M 178.105469 3.429688 "/>
</g>
<path style=" stroke:none;fill-rule:nonzero;fill:rgb(41.178894%,94.119263%,68.238831%);fill-opacity:1;" d="M 21.371094 279.953125 C 19 276.789062 18.664062 273.785156 18.664062 269.742188 C 18.664062 236.472656 18.664062 136.324219 18.664062 103.046875 C 18.664062 96.308594 22.375 90.089844 28.40625 86.730469 C 58.179688 70.09375 147.789062 20.019531 177.5625 3.375 C 183.589844 0.0078125 191.757812 0.078125 197.789062 3.449219 C 227.558594 20.082031 316.867188 69.730469 346.640625 86.367188 C 349.046875 87.714844 350.878906 89.34375 352.519531 91.484375 Z M 21.371094 279.953125 "/>
<path style=" stroke:none;fill-rule:nonzero;fill:rgb(100%,100%,100%);fill-opacity:1;" d="M 187.875 63.09375 C 119.03125 63.09375 63.191406 118.808594 63.191406 187.5 C 63.191406 256.191406 119.03125 311.90625 187.875 311.90625 C 256.71875 311.90625 312.558594 256.191406 312.558594 187.5 C 312.558594 118.808594 256.71875 63.09375 187.875 63.09375 Z M 187.875 249.703125 C 153.5 249.703125 125.535156 221.800781 125.535156 187.5 C 125.535156 153.199219 153.5 125.296875 187.875 125.296875 C 222.253906 125.296875 250.214844 153.199219 250.214844 187.5 C 250.214844 221.800781 222.253906 249.703125 187.875 249.703125 Z M 187.875 249.703125 "/>
<g clip-path="url(#clip2)" clip-rule="nonzero">
<path style=" stroke:none;fill-rule:nonzero;fill:rgb(0%,90.19928%,46.269226%);fill-opacity:1;" d="M 352.5 91.574219 C 357.097656 95.863281 357.007812 102.335938 357.007812 107.425781 C 357.007812 141.148438 356.722656 237.066406 357.085938 270.789062 C 357.121094 274.308594 355.957031 278.015625 354.210938 280.804688 L 184.25 187.5 Z M 352.5 91.574219 "/>
</g>
<path style=" stroke:none;fill-rule:nonzero;fill:rgb(100%,100%,100%);fill-opacity:1;" d="M 276.933594 151.953125 L 285.839844 151.953125 L 285.839844 223.046875 L 276.933594 223.046875 Z M 303.652344 151.953125 L 312.558594 151.953125 L 312.558594 223.046875 L 303.652344 223.046875 Z M 303.652344 151.953125 "/>
<path style=" stroke:none;fill-rule:nonzero;fill:rgb(100%,100%,100%);fill-opacity:1;" d="M 259.121094 196.386719 L 330.371094 196.386719 L 330.371094 205.273438 L 259.121094 205.273438 Z M 259.121094 169.726562 L 330.371094 169.726562 L 330.371094 178.613281 L 259.121094 178.613281 Z M 259.121094 169.726562 "/>
</g>
</svg>
