<?xml version="1.0" encoding="UTF-8"?>
<svg xmlns="http://www.w3.org/2000/svg" xmlns:xlink="http://www.w3.org/1999/xlink" width="375pt" height="374.999991pt" viewBox="0 0 375 374.999991" version="1.2">
<defs>
<clipPath id="clip1">
  <path d="M 2.109375 95 L 372.328125 95 L 372.328125 284 L 2.109375 284 Z M 2.109375 95 "/>
</clipPath>
<clipPath id="clip2">
  <path d="M 2.109375 207 L 32 207 L 32 237 L 2.109375 237 Z M 2.109375 207 "/>
</clipPath>
</defs>
<g id="surface1">
<path style=" stroke:none;fill-rule:nonzero;fill:rgb(9.799194%,10.198975%,14.898682%);fill-opacity:1;" d="M 227.078125 146.039062 L 225.453125 146.039062 C 225.449219 146.367188 225.34375 146.730469 224.976562 147.226562 C 224.335938 148.09375 222.84375 149.175781 220.652344 150.140625 C 217.367188 151.605469 212.574219 152.886719 206.835938 153.773438 C 201.097656 154.667969 194.40625 155.183594 187.273438 155.183594 C 176.402344 155.183594 166.558594 153.984375 159.554688 152.085938 C 156.050781 151.140625 153.261719 150.007812 151.472656 148.863281 C 150.574219 148.289062 149.941406 147.71875 149.574219 147.226562 C 149.203125 146.730469 149.097656 146.367188 149.089844 146.039062 C 149.097656 145.710938 149.203125 145.347656 149.574219 144.851562 C 150.207031 143.984375 151.699219 142.90625 153.890625 141.941406 C 157.175781 140.476562 161.976562 139.195312 167.710938 138.304688 C 173.453125 137.410156 180.140625 136.894531 187.273438 136.894531 C 198.140625 136.890625 207.988281 138.09375 214.996094 139.992188 C 218.492188 140.9375 221.285156 142.070312 223.078125 143.214844 C 223.96875 143.789062 224.609375 144.359375 224.976562 144.851562 C 225.34375 145.347656 225.449219 145.710938 225.453125 146.039062 L 228.699219 146.039062 C 228.707031 144.875 228.253906 143.789062 227.5625 142.886719 C 226.339844 141.296875 224.4375 140.074219 221.972656 138.96875 C 218.277344 137.324219 213.265625 136.011719 207.335938 135.089844 C 201.40625 134.167969 194.566406 133.640625 187.273438 133.640625 C 176.164062 133.640625 166.101562 134.851562 158.703125 136.855469 C 155 137.859375 151.960938 139.050781 149.722656 140.476562 C 148.605469 141.195312 147.675781 141.976562 146.984375 142.886719 C 146.292969 143.789062 145.84375 144.875 145.84375 146.039062 C 145.84375 147.199219 146.292969 148.285156 146.984375 149.191406 C 148.203125 150.78125 150.109375 152.003906 152.570312 153.109375 C 156.273438 154.753906 161.277344 156.066406 167.210938 156.988281 C 173.144531 157.910156 179.980469 158.4375 187.273438 158.4375 C 198.386719 158.433594 208.441406 157.226562 215.84375 155.226562 C 219.546875 154.21875 222.582031 153.027344 224.824219 151.601562 C 225.941406 150.886719 226.871094 150.101562 227.5625 149.191406 C 228.253906 148.285156 228.707031 147.199219 228.699219 146.039062 L 227.078125 146.039062 "/>
<path style=" stroke:none;fill-rule:nonzero;fill:rgb(9.799194%,10.198975%,14.898682%);fill-opacity:1;" d="M 187.273438 156.8125 L 187.273438 155.183594 C 176.402344 155.183594 166.558594 153.984375 159.554688 152.085938 C 156.050781 151.140625 153.261719 150.007812 151.472656 148.863281 C 150.574219 148.289062 149.941406 147.71875 149.574219 147.226562 C 149.203125 146.730469 149.097656 146.367188 149.089844 146.039062 C 149.089844 145.609375 148.921875 145.191406 148.617188 144.890625 C 148.3125 144.585938 147.898438 144.410156 147.46875 144.410156 C 147.039062 144.410156 146.625 144.585938 146.320312 144.890625 C 146.019531 145.191406 145.84375 145.609375 145.84375 146.039062 L 145.84375 166.570312 C 145.84375 167.734375 146.292969 168.820312 146.984375 169.726562 C 148.203125 171.3125 150.109375 172.535156 152.570312 173.644531 C 156.273438 175.285156 161.277344 176.597656 167.210938 177.519531 C 173.144531 178.441406 179.980469 178.96875 187.273438 178.96875 C 198.386719 178.964844 208.441406 177.757812 215.84375 175.757812 C 219.546875 174.75 222.582031 173.558594 224.824219 172.136719 C 225.941406 171.417969 226.871094 170.636719 227.5625 169.726562 C 228.253906 168.820312 228.707031 167.734375 228.699219 166.570312 L 228.699219 146.039062 C 228.699219 145.609375 228.527344 145.191406 228.226562 144.890625 C 227.921875 144.585938 227.503906 144.410156 227.078125 144.410156 C 226.648438 144.410156 226.230469 144.585938 225.929688 144.890625 C 225.625 145.191406 225.453125 145.609375 225.453125 146.039062 C 225.449219 146.367188 225.34375 146.730469 224.976562 147.226562 C 224.335938 148.09375 222.84375 149.175781 220.652344 150.140625 C 217.367188 151.605469 212.574219 152.886719 206.835938 153.773438 C 201.097656 154.667969 194.40625 155.183594 187.273438 155.183594 L 187.273438 158.4375 C 198.386719 158.433594 208.441406 157.226562 215.84375 155.226562 C 219.546875 154.21875 222.582031 153.027344 224.824219 151.601562 C 225.941406 150.886719 226.871094 150.101562 227.5625 149.191406 C 228.253906 148.285156 228.707031 147.199219 228.699219 146.039062 C 228.699219 145.609375 228.527344 145.191406 228.226562 144.890625 C 227.921875 144.585938 227.503906 144.410156 227.078125 144.410156 C 226.648438 144.410156 226.230469 144.585938 225.929688 144.890625 C 225.625 145.191406 225.453125 145.609375 225.453125 146.039062 L 225.453125 166.570312 C 225.449219 166.902344 225.34375 167.261719 224.976562 167.761719 C 224.335938 168.625 222.847656 169.707031 220.652344 170.671875 C 217.367188 172.136719 212.574219 173.414062 206.835938 174.304688 C 201.097656 175.199219 194.40625 175.714844 187.273438 175.714844 C 176.402344 175.714844 166.558594 174.511719 159.554688 172.617188 C 156.050781 171.671875 153.261719 170.542969 151.472656 169.390625 C 150.574219 168.820312 149.941406 168.25 149.574219 167.761719 C 149.203125 167.261719 149.097656 166.902344 149.089844 166.570312 L 149.089844 146.039062 C 149.089844 145.609375 148.921875 145.191406 148.617188 144.890625 C 148.3125 144.585938 147.898438 144.410156 147.46875 144.410156 C 147.039062 144.410156 146.625 144.585938 146.320312 144.890625 C 146.019531 145.191406 145.84375 145.609375 145.84375 146.039062 C 145.84375 147.199219 146.292969 148.285156 146.984375 149.191406 C 148.203125 150.78125 150.109375 152.003906 152.570312 153.109375 C 156.273438 154.753906 161.277344 156.066406 167.210938 156.988281 C 173.144531 157.910156 179.980469 158.4375 187.273438 158.4375 L 187.273438 156.8125 "/>
<path style=" stroke:none;fill-rule:nonzero;fill:rgb(9.799194%,10.198975%,14.898682%);fill-opacity:1;" d="M 202.367188 167.496094 L 202.140625 165.5625 L 203.101562 165.449219 L 203.339844 167.375 Z M 171.664062 167.496094 L 170.691406 167.386719 L 170.933594 165.449219 L 171.886719 165.5625 Z M 199.449219 167.796875 L 199.269531 165.855469 L 200.230469 165.765625 L 200.417969 167.703125 Z M 174.589844 167.796875 L 173.613281 167.703125 L 173.796875 165.765625 L 174.761719 165.855469 L 174.589844 167.796875 "/>
<path style=" stroke:none;fill-rule:nonzero;fill:rgb(9.799194%,10.198975%,14.898682%);fill-opacity:1;" d="M 187.273438 168.351562 C 183.8125 168.351562 180.375 168.230469 177.054688 167.996094 L 177.195312 166.054688 C 183.621094 166.507812 190.5625 166.519531 197.015625 166.078125 L 197.148438 168.015625 C 193.9375 168.238281 190.613281 168.351562 187.273438 168.351562 "/>
<path style=" stroke:none;fill-rule:nonzero;fill:rgb(9.799194%,10.198975%,14.898682%);fill-opacity:1;" d="M 202.367188 192.839844 L 202.140625 190.90625 L 203.101562 190.792969 L 203.339844 192.722656 Z M 171.664062 192.839844 L 170.691406 192.726562 L 170.933594 190.792969 L 171.886719 190.90625 Z M 199.449219 193.136719 L 199.269531 191.199219 L 200.230469 191.113281 L 200.417969 193.042969 Z M 174.589844 193.136719 L 173.613281 193.042969 L 173.796875 191.113281 L 174.761719 191.199219 L 174.589844 193.136719 "/>
<path style=" stroke:none;fill-rule:nonzero;fill:rgb(9.799194%,10.198975%,14.898682%);fill-opacity:1;" d="M 187.273438 193.691406 C 183.8125 193.691406 180.375 193.570312 177.054688 193.335938 L 177.195312 191.398438 C 183.621094 191.851562 190.5625 191.863281 197.015625 191.417969 L 197.148438 193.359375 C 193.9375 193.578125 190.613281 193.691406 187.273438 193.691406 "/>
<path style=" stroke:none;fill-rule:nonzero;fill:rgb(9.799194%,10.198975%,14.898682%);fill-opacity:1;" d="M 202.367188 218.183594 L 202.140625 216.246094 L 203.101562 216.132812 L 203.339844 218.0625 Z M 171.664062 218.183594 L 170.691406 218.0625 L 170.933594 216.132812 L 171.886719 216.246094 Z M 199.449219 218.480469 L 199.269531 216.539062 L 200.230469 216.445312 L 200.417969 218.386719 Z M 174.589844 218.480469 L 173.613281 218.386719 L 173.796875 216.445312 L 174.761719 216.539062 L 174.589844 218.480469 "/>
<path style=" stroke:none;fill-rule:nonzero;fill:rgb(9.799194%,10.198975%,14.898682%);fill-opacity:1;" d="M 187.273438 219.035156 C 183.8125 219.035156 180.375 218.910156 177.054688 218.679688 L 177.195312 216.738281 C 183.621094 217.191406 190.5625 217.203125 197.015625 216.757812 L 197.148438 218.699219 C 193.9375 218.917969 190.613281 219.035156 187.273438 219.035156 "/>
<path style=" stroke:none;fill-rule:nonzero;fill:rgb(9.799194%,10.198975%,14.898682%);fill-opacity:1;" d="M 202.367188 243.523438 L 202.140625 241.589844 L 203.101562 241.472656 L 203.339844 243.40625 Z M 171.664062 243.523438 L 170.691406 243.40625 L 170.933594 241.472656 L 171.886719 241.589844 Z M 199.449219 243.816406 L 199.269531 241.886719 L 200.230469 241.789062 L 200.417969 243.726562 Z M 174.589844 243.816406 L 173.613281 243.726562 L 173.796875 241.789062 L 174.761719 241.886719 L 174.589844 243.816406 "/>
<path style=" stroke:none;fill-rule:nonzero;fill:rgb(9.799194%,10.198975%,14.898682%);fill-opacity:1;" d="M 187.273438 244.375 C 183.8125 244.375 180.375 244.253906 177.054688 244.019531 L 177.195312 242.078125 C 183.621094 242.539062 190.5625 242.546875 197.015625 242.097656 L 197.148438 244.039062 C 193.9375 244.265625 190.613281 244.375 187.273438 244.375 "/>
<path style=" stroke:none;fill-rule:nonzero;fill:rgb(9.799194%,10.198975%,14.898682%);fill-opacity:1;" d="M 187.273438 182.136719 L 187.273438 180.507812 C 176.402344 180.511719 166.558594 179.3125 159.554688 177.414062 C 156.050781 176.46875 153.261719 175.339844 151.472656 174.1875 C 150.574219 173.617188 149.941406 173.046875 149.574219 172.554688 C 149.203125 172.054688 149.097656 171.691406 149.089844 171.367188 C 149.089844 170.9375 148.921875 170.519531 148.617188 170.214844 C 148.3125 169.914062 147.898438 169.738281 147.46875 169.738281 C 147.039062 169.738281 146.625 169.914062 146.320312 170.214844 C 146.019531 170.519531 145.84375 170.9375 145.84375 171.367188 L 145.84375 191.902344 C 145.84375 193.0625 146.292969 194.148438 146.984375 195.050781 C 148.203125 196.644531 150.109375 197.863281 152.570312 198.972656 C 156.273438 200.617188 161.277344 201.925781 167.210938 202.851562 C 173.144531 203.777344 179.980469 204.300781 187.273438 204.300781 C 198.386719 204.296875 208.441406 203.085938 215.84375 201.085938 C 219.546875 200.082031 222.582031 198.894531 224.824219 197.464844 C 225.941406 196.746094 226.871094 195.964844 227.5625 195.050781 C 228.253906 194.148438 228.707031 193.0625 228.699219 191.902344 L 228.699219 171.367188 C 228.699219 170.9375 228.527344 170.519531 228.226562 170.214844 C 227.921875 169.914062 227.503906 169.738281 227.078125 169.738281 C 226.648438 169.738281 226.230469 169.914062 225.929688 170.214844 C 225.625 170.519531 225.453125 170.9375 225.453125 171.367188 C 225.449219 171.691406 225.34375 172.054688 224.976562 172.554688 C 224.335938 173.417969 222.84375 174.5 220.652344 175.464844 C 217.367188 176.929688 212.574219 178.214844 206.835938 179.101562 C 201.097656 179.996094 194.40625 180.507812 187.273438 180.507812 L 187.273438 183.761719 C 198.386719 183.761719 208.441406 182.550781 215.84375 180.550781 C 219.546875 179.546875 222.582031 178.359375 224.824219 176.929688 C 225.941406 176.210938 226.871094 175.429688 227.5625 174.515625 C 228.253906 173.613281 228.707031 172.527344 228.699219 171.367188 C 228.699219 170.9375 228.527344 170.519531 228.226562 170.214844 C 227.921875 169.914062 227.503906 169.738281 227.078125 169.738281 C 226.648438 169.738281 226.230469 169.914062 225.929688 170.214844 C 225.625 170.519531 225.453125 170.9375 225.453125 171.367188 L 225.453125 191.902344 C 225.449219 192.226562 225.34375 192.589844 224.976562 193.089844 C 224.335938 193.953125 222.84375 195.035156 220.652344 196 C 217.367188 197.464844 212.574219 198.75 206.835938 199.636719 C 201.097656 200.53125 194.40625 201.046875 187.273438 201.046875 C 176.402344 201.046875 166.558594 199.84375 159.554688 197.949219 C 156.050781 197.003906 153.261719 195.875 151.472656 194.726562 C 150.574219 194.152344 149.941406 193.578125 149.574219 193.089844 C 149.203125 192.589844 149.097656 192.226562 149.089844 191.902344 L 149.089844 171.367188 C 149.089844 170.9375 148.921875 170.519531 148.617188 170.214844 C 148.3125 169.914062 147.898438 169.738281 147.46875 169.738281 C 147.039062 169.738281 146.625 169.914062 146.320312 170.214844 C 146.019531 170.519531 145.84375 170.9375 145.84375 171.367188 C 145.84375 172.527344 146.292969 173.613281 146.984375 174.515625 C 148.203125 176.109375 150.109375 177.328125 152.570312 178.4375 C 156.273438 180.082031 161.277344 181.390625 167.210938 182.316406 C 173.144531 183.238281 179.980469 183.761719 187.273438 183.761719 L 187.273438 182.136719 "/>
<path style=" stroke:none;fill-rule:nonzero;fill:rgb(9.799194%,10.198975%,14.898682%);fill-opacity:1;" d="M 187.273438 207.464844 L 187.273438 205.835938 C 176.402344 205.84375 166.558594 204.640625 159.554688 202.742188 C 156.050781 201.796875 153.261719 200.667969 151.472656 199.519531 C 150.574219 198.949219 149.941406 198.375 149.574219 197.886719 C 149.203125 197.390625 149.097656 197.023438 149.089844 196.699219 C 149.089844 196.269531 148.921875 195.851562 148.617188 195.546875 C 148.3125 195.246094 147.898438 195.074219 147.46875 195.074219 C 147.039062 195.074219 146.621094 195.246094 146.320312 195.546875 C 146.019531 195.851562 145.84375 196.269531 145.84375 196.699219 L 145.84375 217.230469 C 145.84375 218.390625 146.292969 219.476562 146.984375 220.378906 C 148.203125 221.96875 150.109375 223.191406 152.570312 224.296875 C 156.273438 225.945312 161.277344 227.253906 167.210938 228.179688 C 173.144531 229.101562 179.980469 229.625 187.273438 229.625 C 198.386719 229.621094 208.441406 228.414062 215.84375 226.414062 C 219.546875 225.410156 222.582031 224.222656 224.824219 222.789062 C 225.941406 222.074219 226.871094 221.296875 227.5625 220.378906 C 228.253906 219.476562 228.707031 218.390625 228.699219 217.230469 L 228.699219 196.699219 C 228.699219 196.261719 228.53125 195.855469 228.226562 195.546875 C 227.917969 195.242188 227.507812 195.074219 227.078125 195.074219 C 226.648438 195.074219 226.230469 195.246094 225.929688 195.546875 C 225.625 195.851562 225.453125 196.269531 225.453125 196.699219 C 225.449219 197.023438 225.34375 197.390625 224.976562 197.886719 C 224.335938 198.75 222.847656 199.828125 220.652344 200.792969 C 217.367188 202.257812 212.574219 203.542969 206.835938 204.433594 C 201.097656 205.320312 194.40625 205.835938 187.273438 205.835938 L 187.273438 209.089844 C 198.386719 209.089844 208.441406 207.878906 215.84375 205.878906 C 219.546875 204.871094 222.582031 203.6875 224.824219 202.257812 C 225.941406 201.539062 226.871094 200.761719 227.5625 199.851562 C 228.253906 198.945312 228.707031 197.859375 228.699219 196.699219 C 228.699219 196.269531 228.527344 195.851562 228.226562 195.546875 C 227.921875 195.246094 227.503906 195.074219 227.078125 195.074219 C 226.648438 195.074219 226.230469 195.246094 225.925781 195.546875 C 225.625 195.851562 225.453125 196.269531 225.453125 196.699219 L 225.453125 217.230469 C 225.449219 217.554688 225.34375 217.921875 224.976562 218.417969 C 224.335938 219.285156 222.84375 220.363281 220.652344 221.328125 C 217.367188 222.792969 212.574219 224.074219 206.835938 224.96875 C 201.097656 225.859375 194.40625 226.371094 187.273438 226.371094 C 176.402344 226.371094 166.558594 225.175781 159.554688 223.277344 C 156.050781 222.332031 153.261719 221.203125 151.472656 220.050781 C 150.574219 219.484375 149.941406 218.90625 149.574219 218.417969 C 149.203125 217.921875 149.097656 217.554688 149.089844 217.230469 L 149.089844 196.699219 C 149.089844 196.261719 148.925781 195.855469 148.617188 195.546875 C 148.308594 195.242188 147.902344 195.074219 147.46875 195.074219 C 147.039062 195.074219 146.625 195.246094 146.320312 195.546875 C 146.019531 195.851562 145.84375 196.269531 145.84375 196.699219 C 145.84375 197.859375 146.292969 198.945312 146.984375 199.851562 C 148.203125 201.4375 150.109375 202.65625 152.570312 203.765625 C 156.273438 205.40625 161.277344 206.71875 167.210938 207.644531 C 173.144531 208.566406 179.980469 209.089844 187.273438 209.089844 L 187.273438 207.464844 "/>
<path style=" stroke:none;fill-rule:nonzero;fill:rgb(9.799194%,10.198975%,14.898682%);fill-opacity:1;" d="M 187.273438 232.796875 L 187.273438 231.171875 C 176.402344 231.171875 166.558594 229.972656 159.554688 228.070312 C 156.050781 227.125 153.261719 225.996094 151.472656 224.847656 C 150.574219 224.277344 149.941406 223.703125 149.574219 223.214844 C 149.203125 222.714844 149.097656 222.351562 149.089844 222.023438 C 149.089844 221.597656 148.921875 221.175781 148.617188 220.875 C 148.3125 220.570312 147.898438 220.398438 147.46875 220.398438 C 147.039062 220.398438 146.625 220.570312 146.320312 220.875 C 146.019531 221.175781 145.84375 221.597656 145.84375 222.023438 L 145.84375 242.558594 C 145.84375 243.71875 146.292969 244.808594 146.984375 245.710938 C 148.203125 247.300781 150.109375 248.519531 152.570312 249.625 C 156.273438 251.269531 161.277344 252.582031 167.210938 253.503906 C 173.144531 254.429688 179.980469 254.949219 187.273438 254.953125 C 198.386719 254.949219 208.441406 253.738281 215.84375 251.742188 C 219.546875 250.734375 222.582031 249.546875 224.824219 248.125 C 225.941406 247.402344 226.871094 246.625 227.5625 245.710938 C 228.253906 244.808594 228.707031 243.71875 228.699219 242.558594 L 228.699219 222.023438 C 228.699219 221.597656 228.527344 221.175781 228.226562 220.875 C 227.921875 220.570312 227.503906 220.398438 227.078125 220.398438 C 226.648438 220.398438 226.230469 220.570312 225.929688 220.875 C 225.625 221.175781 225.453125 221.597656 225.453125 222.023438 C 225.449219 222.351562 225.34375 222.714844 224.976562 223.214844 C 224.335938 224.078125 222.84375 225.15625 220.652344 226.121094 C 217.367188 227.59375 212.574219 228.871094 206.835938 229.761719 C 201.097656 230.652344 194.40625 231.171875 187.273438 231.171875 L 187.273438 234.421875 C 198.386719 234.417969 208.441406 233.210938 215.84375 231.210938 C 219.546875 230.207031 222.582031 229.015625 224.824219 227.589844 C 225.941406 226.867188 226.871094 226.089844 227.5625 225.179688 C 228.253906 224.273438 228.707031 223.183594 228.699219 222.023438 C 228.699219 221.597656 228.527344 221.175781 228.226562 220.875 C 227.921875 220.570312 227.503906 220.398438 227.078125 220.398438 C 226.648438 220.398438 226.230469 220.570312 225.929688 220.875 C 225.625 221.175781 225.453125 221.597656 225.453125 222.023438 L 225.453125 242.558594 C 225.449219 242.882812 225.34375 243.25 224.976562 243.75 C 224.335938 244.613281 222.847656 245.691406 220.652344 246.652344 C 217.367188 248.125 212.574219 249.402344 206.835938 250.292969 C 201.097656 251.183594 194.40625 251.703125 187.273438 251.699219 C 176.402344 251.703125 166.558594 250.5 159.554688 248.601562 C 156.050781 247.65625 153.261719 246.527344 151.472656 245.378906 C 150.574219 244.808594 149.941406 244.234375 149.574219 243.75 C 149.203125 243.25 149.097656 242.882812 149.089844 242.558594 L 149.089844 222.023438 C 149.089844 221.597656 148.921875 221.175781 148.617188 220.875 C 148.3125 220.570312 147.898438 220.398438 147.46875 220.398438 C 147.039062 220.398438 146.625 220.570312 146.320312 220.875 C 146.019531 221.175781 145.84375 221.597656 145.84375 222.023438 C 145.84375 223.183594 146.292969 224.273438 146.984375 225.179688 C 148.203125 226.765625 150.109375 227.992188 152.570312 229.097656 C 156.273438 230.738281 161.277344 232.050781 167.210938 232.976562 C 173.144531 233.898438 179.980469 234.421875 187.273438 234.421875 L 187.273438 232.796875 "/>
<g clip-path="url(#clip1)" clip-rule="nonzero">
<path style=" stroke:none;fill-rule:nonzero;fill:rgb(9.799194%,10.198975%,14.898682%);fill-opacity:1;" d="M 370.722656 189.722656 L 369.097656 189.722656 C 369.09375 202.03125 364.160156 213.800781 355.0625 224.636719 C 341.425781 240.890625 318.40625 254.902344 289.320312 264.792969 C 260.238281 274.6875 225.101562 280.484375 187.273438 280.480469 C 136.835938 280.484375 91.191406 270.175781 58.285156 253.597656 C 41.832031 245.316406 28.578125 235.46875 19.484375 224.636719 C 10.386719 213.800781 5.449219 202.03125 5.449219 189.722656 C 5.449219 177.414062 10.386719 165.648438 19.484375 154.808594 C 33.121094 138.558594 56.140625 124.539062 85.230469 114.652344 C 114.3125 104.753906 149.445312 98.957031 187.273438 98.960938 C 237.710938 98.953125 283.359375 109.269531 316.265625 125.84375 C 332.710938 134.128906 345.96875 143.976562 355.0625 154.808594 C 364.160156 165.648438 369.09375 177.414062 369.097656 189.722656 L 372.34375 189.722656 C 372.351562 176.519531 367.019531 163.980469 357.546875 152.714844 C 343.335938 135.804688 319.832031 121.605469 290.363281 111.574219 C 260.890625 101.546875 225.433594 95.710938 187.273438 95.710938 C 136.394531 95.714844 90.320312 106.082031 56.828125 122.941406 C 40.082031 131.375 26.472656 141.4375 17 152.714844 C 7.53125 163.980469 2.199219 176.519531 2.199219 189.722656 C 2.199219 202.929688 7.53125 215.464844 17 226.734375 C 31.210938 243.636719 54.71875 257.839844 84.183594 267.871094 C 113.65625 277.898438 149.117188 283.734375 187.273438 283.734375 C 238.15625 283.730469 284.230469 273.367188 317.722656 256.503906 C 334.46875 248.066406 348.074219 238.007812 357.546875 226.734375 C 367.019531 215.464844 372.351562 202.929688 372.34375 189.722656 L 370.722656 189.722656 "/>
</g>
<path style=" stroke:none;fill-rule:nonzero;fill:rgb(9.799194%,10.198975%,14.898682%);fill-opacity:1;" d="M 187.273438 373.445312 L 187.273438 371.820312 C 174.984375 371.820312 163.234375 366.878906 152.410156 357.765625 C 136.1875 344.109375 122.195312 321.050781 112.316406 291.921875 C 102.433594 262.792969 96.652344 227.605469 96.652344 189.722656 C 96.644531 139.210938 106.941406 93.492188 123.496094 60.539062 C 131.769531 44.0625 141.597656 30.785156 152.410156 21.679688 C 163.234375 12.566406 174.984375 7.625 187.273438 7.625 C 199.5625 7.625 211.3125 12.566406 222.136719 21.679688 C 238.363281 35.332031 252.355469 58.386719 262.234375 87.519531 C 272.113281 116.652344 277.898438 151.835938 277.898438 189.722656 C 277.902344 240.234375 267.601562 285.953125 251.050781 318.90625 C 242.78125 335.382812 232.949219 348.660156 222.136719 357.765625 C 211.3125 366.878906 199.5625 371.820312 187.273438 371.820312 L 187.273438 375.070312 C 200.460938 375.078125 212.976562 369.734375 224.226562 360.253906 C 241.113281 346.019531 255.285156 322.484375 265.304688 292.96875 C 275.316406 263.453125 281.144531 227.941406 281.144531 189.722656 C 281.140625 138.761719 270.789062 92.617188 253.953125 59.078125 C 245.53125 42.304688 235.484375 28.675781 224.226562 19.191406 C 212.976562 9.707031 200.460938 4.367188 187.273438 4.367188 C 174.089844 4.367188 161.570312 9.707031 150.320312 19.191406 C 133.4375 33.421875 119.261719 56.960938 109.242188 86.472656 C 99.234375 115.992188 93.402344 151.503906 93.402344 189.722656 C 93.40625 240.679688 103.757812 286.820312 120.597656 320.367188 C 129.015625 337.136719 139.0625 350.769531 150.320312 360.253906 C 161.570312 369.734375 174.089844 375.078125 187.273438 375.070312 L 187.273438 373.445312 "/>
<path style=" stroke:none;fill-rule:nonzero;fill:rgb(9.799194%,10.198975%,14.898682%);fill-opacity:1;" d="M 316.992188 319.636719 L 315.839844 318.484375 C 310.761719 323.570312 304.632812 327.324219 297.59375 329.816406 C 290.558594 332.3125 282.617188 333.539062 273.96875 333.539062 C 253.011719 333.550781 227.914062 326.3125 201.773438 312.710938 C 175.632812 299.121094 148.4375 279.1875 123.191406 253.898438 C 97.945312 228.613281 78.042969 201.378906 64.46875 175.195312 C 50.890625 149.015625 43.664062 123.878906 43.671875 102.890625 C 43.671875 94.230469 44.894531 86.277344 47.382812 79.230469 C 49.875 72.183594 53.625 66.042969 58.703125 60.957031 C 63.785156 55.867188 69.917969 52.117188 76.953125 49.621094 C 83.992188 47.128906 91.925781 45.898438 100.578125 45.898438 C 121.535156 45.894531 146.628906 53.132812 172.769531 66.730469 C 198.914062 80.324219 226.109375 100.257812 251.355469 125.542969 C 276.605469 150.828125 296.507812 178.0625 310.082031 204.246094 C 323.65625 230.425781 330.886719 255.554688 330.878906 276.546875 C 330.878906 285.207031 329.652344 293.160156 327.160156 300.207031 C 324.667969 307.253906 320.921875 313.394531 315.839844 318.484375 L 318.136719 320.785156 C 323.582031 315.335938 327.589844 308.75 330.222656 301.292969 C 332.855469 293.839844 334.125 285.515625 334.125 276.546875 C 334.117188 254.8125 326.703125 229.265625 312.960938 202.746094 C 299.214844 176.230469 279.121094 148.75 253.65625 123.246094 C 228.183594 97.738281 200.746094 77.609375 174.269531 63.84375 C 147.789062 50.078125 122.277344 42.65625 100.578125 42.648438 C 91.621094 42.648438 83.3125 43.917969 75.871094 46.554688 C 68.429688 49.195312 61.851562 53.203125 56.410156 58.65625 C 50.960938 64.105469 46.957031 70.695312 44.324219 78.148438 C 41.6875 85.601562 40.425781 93.921875 40.425781 102.890625 C 40.429688 124.625 47.84375 150.175781 61.589844 176.695312 C 75.335938 203.210938 95.429688 230.691406 120.894531 256.199219 C 146.363281 281.707031 173.804688 301.828125 200.277344 315.597656 C 226.753906 329.359375 252.269531 336.789062 273.96875 336.792969 C 282.921875 336.792969 291.230469 335.527344 298.675781 332.886719 C 306.121094 330.25 312.699219 326.234375 318.136719 320.785156 L 316.992188 319.636719 "/>
<path style=" stroke:none;fill-rule:nonzero;fill:rgb(9.799194%,10.198975%,14.898682%);fill-opacity:1;" d="M 57.558594 319.636719 L 58.703125 318.484375 C 53.625 313.398438 49.875 307.253906 47.382812 300.207031 C 44.898438 293.164062 43.671875 285.210938 43.671875 276.550781 C 43.664062 255.558594 50.890625 230.425781 64.46875 204.246094 C 78.042969 178.0625 97.945312 150.828125 123.191406 125.542969 C 148.441406 100.257812 175.632812 80.324219 201.777344 66.730469 C 227.917969 53.132812 253.011719 45.894531 273.96875 45.898438 C 282.617188 45.898438 290.558594 47.128906 297.589844 49.621094 C 304.628906 52.117188 310.761719 55.867188 315.839844 60.953125 C 320.921875 66.042969 324.667969 72.183594 327.160156 79.230469 C 329.652344 86.277344 330.878906 94.230469 330.878906 102.898438 C 330.882812 123.882812 323.65625 149.019531 310.078125 175.195312 C 296.507812 201.378906 276.605469 228.613281 251.355469 253.898438 C 226.113281 279.1875 198.914062 299.121094 172.769531 312.710938 C 146.628906 326.3125 121.535156 333.550781 100.578125 333.539062 C 91.925781 333.539062 83.984375 332.3125 76.953125 329.816406 C 69.917969 327.324219 63.785156 323.570312 58.703125 318.484375 L 57.558594 319.636719 L 56.410156 320.785156 C 61.851562 326.234375 68.425781 330.25 75.871094 332.882812 C 83.3125 335.523438 91.621094 336.792969 100.578125 336.792969 C 122.277344 336.789062 147.789062 329.359375 174.269531 315.597656 C 200.746094 301.828125 228.183594 281.707031 253.65625 256.199219 C 279.121094 230.691406 299.214844 203.210938 312.960938 176.699219 C 326.703125 150.175781 334.117188 124.625 334.125 102.898438 C 334.125 93.925781 332.855469 85.605469 330.222656 78.148438 C 327.589844 70.695312 323.582031 64.105469 318.136719 58.65625 C 312.695312 53.203125 306.121094 49.191406 298.675781 46.554688 C 291.230469 43.917969 282.921875 42.648438 273.96875 42.648438 C 252.269531 42.65625 226.761719 50.078125 200.28125 63.84375 C 173.808594 77.609375 146.363281 97.738281 120.894531 123.246094 C 95.429688 148.75 75.335938 176.230469 61.582031 202.746094 C 47.839844 229.265625 40.429688 254.820312 40.425781 276.550781 C 40.425781 285.515625 41.6875 293.839844 44.324219 301.296875 C 46.957031 308.75 50.964844 315.335938 56.410156 320.785156 L 57.558594 319.636719 "/>
<path style=" stroke:none;fill-rule:nonzero;fill:rgb(9.799194%,10.198975%,14.898682%);fill-opacity:1;" d="M 84.515625 117.558594 L 82.886719 117.558594 C 82.886719 120.75 81.601562 123.621094 79.515625 125.714844 C 77.429688 127.800781 74.558594 129.089844 71.371094 129.089844 C 68.191406 129.089844 65.324219 127.800781 63.238281 125.714844 C 61.152344 123.621094 59.867188 120.75 59.867188 117.558594 C 59.867188 114.367188 61.152344 111.496094 63.238281 109.410156 C 65.324219 107.320312 68.191406 106.035156 71.371094 106.035156 C 74.558594 106.035156 77.429688 107.320312 79.515625 109.410156 C 81.601562 111.496094 82.886719 114.367188 82.886719 117.558594 L 86.136719 117.558594 C 86.132812 109.394531 79.523438 102.78125 71.371094 102.78125 C 63.222656 102.78125 56.621094 109.398438 56.621094 117.558594 C 56.621094 125.722656 63.222656 132.339844 71.371094 132.339844 C 79.523438 132.339844 86.132812 125.726562 86.136719 117.558594 L 84.515625 117.558594 "/>
<path style=" stroke:none;fill-rule:nonzero;fill:rgb(9.799194%,10.198975%,14.898682%);fill-opacity:1;" d="M 173.738281 14.820312 L 172.117188 14.820312 C 172.117188 18.003906 170.832031 20.875 168.746094 22.96875 C 166.65625 25.054688 163.789062 26.34375 160.605469 26.34375 C 157.421875 26.34375 154.554688 25.054688 152.464844 22.96875 C 150.382812 20.875 149.097656 18.003906 149.089844 14.820312 C 149.097656 11.628906 150.382812 8.753906 152.464844 6.664062 C 154.554688 4.574219 157.421875 3.289062 160.605469 3.289062 C 163.789062 3.289062 166.65625 4.574219 168.746094 6.664062 C 170.832031 8.753906 172.117188 11.625 172.117188 14.820312 L 175.363281 14.820312 C 175.363281 6.65625 168.757812 0.0351562 160.605469 0.0351562 C 152.457031 0.0351562 145.847656 6.65625 145.84375 14.820312 C 145.847656 22.980469 152.457031 29.59375 160.605469 29.59375 C 168.757812 29.59375 175.363281 22.976562 175.363281 14.820312 L 173.738281 14.820312 "/>
<path style=" stroke:none;fill-rule:nonzero;fill:rgb(9.799194%,10.198975%,14.898682%);fill-opacity:1;" d="M 313.945312 117.558594 L 312.324219 117.558594 C 312.320312 120.75 311.039062 123.621094 308.949219 125.714844 C 306.859375 127.800781 303.992188 129.089844 300.808594 129.089844 C 297.628906 129.089844 294.757812 127.800781 292.667969 125.714844 C 290.585938 123.621094 289.300781 120.75 289.300781 117.558594 C 289.300781 114.367188 290.585938 111.496094 292.667969 109.410156 C 294.757812 107.320312 297.628906 106.035156 300.808594 106.035156 C 303.992188 106.035156 306.859375 107.320312 308.949219 109.410156 C 311.039062 111.496094 312.320312 114.367188 312.324219 117.558594 L 315.570312 117.558594 C 315.566406 109.398438 308.960938 102.78125 300.808594 102.78125 C 292.660156 102.78125 286.050781 109.398438 286.050781 117.558594 C 286.050781 125.722656 292.660156 132.339844 300.808594 132.339844 C 308.960938 132.339844 315.566406 125.722656 315.570312 117.558594 L 313.945312 117.558594 "/>
<path style=" stroke:none;fill-rule:nonzero;fill:rgb(9.799194%,10.198975%,14.898682%);fill-opacity:1;" d="M 100.660156 335.171875 L 99.035156 335.171875 C 99.035156 338.355469 97.75 341.230469 95.664062 343.324219 C 93.578125 345.410156 90.710938 346.699219 87.527344 346.699219 C 84.339844 346.699219 81.472656 345.410156 79.386719 343.324219 C 77.300781 341.230469 76.015625 338.355469 76.011719 335.171875 C 76.015625 331.976562 77.300781 329.105469 79.386719 327.015625 C 81.472656 324.925781 84.339844 323.640625 87.527344 323.640625 C 90.710938 323.640625 93.578125 324.925781 95.664062 327.015625 C 97.75 329.105469 99.035156 331.976562 99.035156 335.171875 L 102.28125 335.171875 C 102.28125 327.007812 95.671875 320.386719 87.527344 320.386719 C 79.371094 320.386719 72.769531 327.007812 72.765625 335.171875 C 72.769531 343.332031 79.371094 349.949219 87.527344 349.949219 C 95.671875 349.949219 102.28125 343.332031 102.28125 335.171875 L 100.660156 335.171875 "/>
<path style=" stroke:none;fill-rule:nonzero;fill:rgb(9.799194%,10.198975%,14.898682%);fill-opacity:1;" d="M 292.65625 335.171875 L 291.03125 335.171875 C 291.03125 338.355469 289.746094 341.230469 287.664062 343.324219 C 285.574219 345.410156 282.707031 346.699219 279.523438 346.699219 C 276.339844 346.699219 273.472656 345.410156 271.382812 343.324219 C 269.296875 341.230469 268.011719 338.355469 268.011719 335.171875 C 268.011719 331.976562 269.296875 329.105469 271.382812 327.015625 C 273.472656 324.925781 276.339844 323.640625 279.523438 323.640625 C 282.707031 323.640625 285.574219 324.925781 287.664062 327.015625 C 289.746094 329.105469 291.03125 331.976562 291.03125 335.171875 L 294.28125 335.171875 C 294.28125 327.007812 287.675781 320.386719 279.523438 320.386719 C 271.371094 320.386719 264.765625 327.007812 264.765625 335.171875 C 264.765625 343.332031 271.371094 349.949219 279.523438 349.949219 C 287.675781 349.949219 294.28125 343.332031 294.28125 335.171875 L 292.65625 335.171875 "/>
<path style=" stroke:none;fill-rule:nonzero;fill:rgb(9.799194%,10.198975%,14.898682%);fill-opacity:1;" d="M 261.070312 257.527344 L 259.445312 257.527344 C 259.445312 260.71875 258.160156 263.589844 256.074219 265.679688 C 253.988281 267.773438 251.121094 269.054688 247.9375 269.058594 C 244.753906 269.054688 241.886719 267.773438 239.796875 265.679688 C 237.710938 263.589844 236.425781 260.71875 236.425781 257.527344 C 236.425781 254.339844 237.710938 251.46875 239.796875 249.375 C 241.886719 247.289062 244.753906 246.003906 247.9375 246 C 251.121094 246.003906 253.988281 247.289062 256.074219 249.375 C 258.160156 251.46875 259.445312 254.339844 259.445312 257.527344 L 262.695312 257.527344 C 262.695312 249.363281 256.089844 242.753906 247.9375 242.75 C 239.785156 242.753906 233.179688 249.363281 233.175781 257.527344 C 233.179688 265.695312 239.785156 272.308594 247.9375 272.3125 C 256.089844 272.308594 262.695312 265.695312 262.695312 257.527344 L 261.070312 257.527344 "/>
<g clip-path="url(#clip2)" clip-rule="nonzero">
<path style=" stroke:none;fill-rule:nonzero;fill:rgb(9.799194%,10.198975%,14.898682%);fill-opacity:1;" d="M 30.09375 222.023438 L 28.472656 222.023438 C 28.472656 225.210938 27.183594 228.082031 25.097656 230.175781 C 23.011719 232.269531 20.140625 233.554688 16.960938 233.554688 C 13.773438 233.554688 10.90625 232.269531 8.816406 230.175781 C 6.730469 228.089844 5.449219 225.210938 5.449219 222.023438 C 5.449219 218.835938 6.730469 215.964844 8.816406 213.871094 C 10.90625 211.785156 13.773438 210.496094 16.960938 210.496094 C 20.144531 210.496094 23.011719 211.785156 25.097656 213.871094 C 27.183594 215.964844 28.472656 218.835938 28.472656 222.023438 L 31.71875 222.023438 C 31.71875 213.859375 25.109375 207.242188 16.960938 207.242188 C 8.804688 207.242188 2.203125 213.859375 2.199219 222.023438 C 2.203125 230.1875 8.804688 236.808594 16.960938 236.808594 C 25.109375 236.808594 31.71875 230.1875 31.71875 222.023438 L 30.09375 222.023438 "/>
</g>
</g>
</svg>
