<svg width="351" height="389" viewBox="0 0 351 389" fill="none" xmlns="http://www.w3.org/2000/svg">
<path d="M121.987 39.6201L125.538 100.211C125.538 100.211 121.241 154.797 120.94 158.284C120.634 161.77 115.231 220.157 115.231 220.157C115.231 220.157 89.2205 225.668 90.1652 226.955C91.1144 228.247 62.4233 239.726 62.4233 239.726C62.4233 239.726 51.9767 238.851 47.0312 238.536C42.0811 238.221 8.38433 233.864 1.72555 253.488C1.72555 253.488 -1.35379 262.12 5.74027 272.071C12.8297 282.018 17.6872 288.565 40.4002 299.785C63.1086 310.996 92.6749 325.809 100.894 325.133C109.114 324.461 109.331 318.21 109.331 318.21L148.557 321.702L146.255 327.096L136.318 329.097L128.997 382.626L136.8 378.135L143.912 365.1L159.832 328.99L165.014 325.763L167.853 331.454L220.289 325.133L223.827 319.961C223.827 319.961 187.13 315.733 179.85 315.423L191.098 308.977C191.098 308.977 195.363 312.288 198.063 310.986C200.762 309.681 209.912 301.304 209.912 301.304C209.912 301.304 258.547 258.124 264.007 250.682C269.466 243.246 287.965 222.741 265.882 218.055C265.882 218.055 233.987 227.4 221.428 226.534L199.813 240.097L201.563 216.911L199.813 220.157C199.813 220.157 195.048 212.017 188.454 216.092C181.855 220.157 169.436 227.113 169.436 227.113L168.635 191.082L157.36 126.846L160.434 103.624C160.434 103.624 173.261 109.514 176.915 110.232C180.568 110.945 207.731 85.926 208.19 84.1802C208.648 82.4299 212.982 52.0903 212.755 50.9511C212.528 49.8074 196.09 29.0531 192.668 28.8215C189.246 28.5946 145.783 28.8215 145.783 28.8215C145.783 28.8215 123.218 39.9303 121.987 39.6201Z" fill="white"/>
<path d="M281.251 202.237C281.483 201.801 311.568 201.491 311.568 201.491L319.611 194.846L312.35 173.786C312.35 173.786 311.804 171.068 316.8 170.096C321.801 169.128 336.272 167.591 343.009 169.133C349.747 170.67 347.881 173.962 347.881 173.962L347.746 183.094C347.746 183.094 348.117 187.109 348.52 188.961C348.923 190.822 348.983 198.778 348.983 198.778C348.983 198.778 350.465 208.076 345.149 212.373C339.828 216.675 342.495 220.227 342.495 220.227C342.495 220.227 330.886 223.181 330.321 222.741C329.761 222.292 320.514 220.199 320.514 220.199L318.06 210.461H309.442L280.195 214.994L281.251 202.237Z" fill="white"/>
<path d="M167.191 158.284C166.881 165.938 166.733 173.593 166.705 181.252C166.7 182.706 168.956 182.706 168.96 181.252C168.983 173.593 169.141 165.938 169.446 158.284C169.502 156.83 167.247 156.835 167.191 158.284Z" fill="white"/>
<path d="M112.24 189.17C112.925 187.891 110.98 186.748 110.29 188.03C99.9686 207.275 87.8642 229.558 93.745 252.016C93.8562 252.428 94.1155 252.66 94.4211 252.757C94.9027 251.905 95.3889 251.344 95.8149 250.983C90.3786 229.321 102.298 207.701 112.24 189.17Z" fill="white"/>
<path d="M168.959 181.25C168.954 182.704 166.699 182.704 166.704 181.25C166.732 173.591 166.88 165.937 167.19 158.283C167.246 156.833 169.501 156.829 169.445 158.283C169.139 165.937 168.982 173.591 168.959 181.25ZM248.323 198.717C233.532 196.054 223.915 186.974 208.032 160.857C192.154 134.736 185.152 131.356 177.975 126.568C170.802 121.78 158.058 121.84 158.058 121.84C158.058 121.84 156.322 132.476 154.9 140.825C153.474 149.174 151.423 168.155 151.011 175.647C150.599 183.135 153.266 208.145 153.849 213.025C154.433 217.911 156.822 238.193 156.822 238.193L151.011 244.75C151.011 244.75 162.721 231.701 169.436 228.052C169.436 228.052 169.802 196.027 170.885 190.322C170.885 190.322 184.865 212.854 188.042 215.605C188.042 215.605 190.51 213.049 194.01 215.651C197.511 218.253 197.993 219.43 197.993 219.43L158.971 246.982C158.971 246.982 150.566 250.436 142.472 248.199L103.205 231.131C103.205 231.131 105.918 225.482 107.858 224.569C109.803 223.662 113.869 224.505 118.578 226.237C123.292 227.968 144.014 237.605 151.011 244.75C145.329 236.808 125.538 228.885 125.538 228.885C125.538 228.885 132.243 193.211 134.762 175.638C137.286 158.065 135.665 128.883 135.665 128.883C128.571 131.161 110.539 122.993 110.539 122.993C98.2452 130.226 87.9699 145.826 77.1019 163.061C66.2385 180.296 58.4869 208.098 57.4126 213.688C56.3383 219.277 52.7265 239.184 66.4377 254.006C80.1488 268.833 91.5447 265.509 91.5447 265.509C91.6975 265.981 91.9522 266.347 92.2671 266.643C91.6605 265.606 91.8364 263.42 92.5495 258.859C93.008 255.937 93.7072 254.029 94.4203 252.756C94.1147 252.659 93.8554 252.427 93.7442 252.015C87.8634 229.557 99.9678 207.274 110.289 188.03C110.979 186.747 112.924 187.891 112.239 189.169C102.297 207.7 90.3778 229.32 95.8141 250.982C96.5921 250.329 97.1709 250.297 97.1709 250.297C97.1709 250.297 104.256 252.307 107.793 253.488C111.336 254.668 114.512 254.173 111.09 260.341C107.664 266.513 99.6436 267.416 95.6798 267.523C95.0408 267.541 94.499 267.541 94.036 267.504C95.5548 267.833 97.1709 267.523 97.1709 267.523V276.613C103.908 277.71 157.202 304.836 157.202 304.836C157.202 304.836 170.2 286.638 175.488 280.664C180.776 274.691 198.442 259.475 198.442 259.475L201.563 223.768C225.864 231.752 249.804 222.101 258.255 219.99C266.706 217.878 281.686 214.674 281.686 214.674L282.005 202.708C276.115 198.532 263.117 201.384 248.323 198.717Z" fill="#E63D4A"/>
<path d="M89.3407 99.1642C94.0731 110.569 102.436 120.196 113.452 125.961C126.376 132.731 140.865 130.217 154.109 125.748C154.41 125.647 154.604 125.466 154.734 125.248C154.947 124.938 155.016 124.521 154.78 124.095C148.39 112.426 145.95 97.9834 145.88 84.4945C146.019 84.1657 146.042 83.8045 145.88 83.5267C145.889 81.8504 145.926 80.1834 145.996 78.5488C146.033 77.8079 145.463 77.4513 144.889 77.4652C144.889 77.4513 144.889 77.4375 144.889 77.4375C125.089 68.5791 131.428 51.6636 137.04 48.8436C140.268 47.2229 142.94 50.3809 144.63 53.3538C145.014 54.9652 145.278 56.5674 145.496 57.938C145.542 58.2483 145.695 58.4474 145.885 58.5771C146.028 58.9568 146.357 59.2624 146.894 59.2531C163.124 59.0494 186.416 54.6966 195.488 40.1242C197.382 47.5979 202.563 53.1037 209.745 56.2108C207.314 70.6073 202.985 87.032 190.445 95.8209C183.652 100.586 174.863 102.998 166.709 100.803C165.227 100.401 163.861 99.919 162.587 99.3587C162.397 99.2012 162.171 99.104 161.944 99.0762C157.517 96.9878 154.215 93.839 151.196 89.3797C150.39 88.1851 148.436 89.3149 149.251 90.5189C152.428 95.2143 155.716 98.4603 160.448 100.78C159.221 103.66 158.526 106.606 158.077 109.602C157.878 109.903 157.799 110.287 157.924 110.657C157.471 114.13 157.304 117.663 156.994 121.243C156.869 122.688 159.128 122.678 159.253 121.243C159.489 118.488 159.624 115.742 159.892 113.028C172.372 126.179 194.228 126.647 211.065 125.383C212.149 125.304 212.422 124.007 211.875 123.415C203.54 96.0895 222.498 70.4823 221.368 43.2081C220.937 32.8032 217.543 21.8611 209.379 14.8967C203.471 9.85864 192.677 6.30235 185.171 9.71973C182.309 7.00157 179.114 4.67702 175.442 3.05631C169.533 0.440027 162.671 0.0140127 156.285 0.000120887C142.495 -0.0276626 132.123 4.73258 123.329 15.4385C104.071 38.8647 102.232 71.2603 89.0351 97.7518C88.7572 98.3121 88.9656 98.8447 89.3407 99.1642Z" fill="#100F0D"/>
<path d="M200.377 241.07C208.328 235.476 215.366 230.878 224.697 228.044C226.081 227.622 225.493 225.446 224.095 225.867C214.556 228.766 207.392 233.392 199.238 239.12C198.062 239.954 199.187 241.908 200.377 241.07Z" fill="#100F0D"/>
<path d="M159.263 328.018C159.013 328.17 158.869 328.374 158.791 328.592C158.777 328.624 158.758 328.652 158.744 328.689C154.813 339.238 150.386 349.592 145.39 359.682C143.079 364.359 140.648 368.975 138.11 373.532C137.661 374.347 137.129 375.389 136.531 376.532C133.489 373.773 134.888 368.077 135.434 364.706C136.092 360.649 136.786 356.598 137.513 352.551C138.967 344.456 140.56 336.394 142.269 328.351C142.283 328.282 142.287 328.217 142.287 328.152C143.482 328.073 144.681 328.092 145.904 328.208C146.117 328.231 146.288 328.184 146.436 328.12C146.811 328.05 147.168 327.823 147.344 327.393C154.035 311.084 163.407 296.067 174.928 282.911C177.049 290.524 180.397 297.706 185.125 304.087C186.283 305.647 187.686 307.37 189.278 308.828C179.378 315.39 169.348 321.748 159.263 328.018ZM181.768 316.548C191.353 317.173 200.915 318.043 210.445 319.229C213.015 319.548 215.576 319.891 218.136 320.252C202.073 326.726 184.296 329.12 167.232 325.693C172.057 322.665 176.859 319.609 181.643 316.511C181.689 316.525 181.721 316.548 181.768 316.548ZM111.077 317.298C111.628 316.066 112.119 314.848 112.582 313.751C116.12 305.402 118.5 296.682 119.908 287.741C131.993 293.469 143.889 299.678 155.841 305.425C152.938 310.31 150.284 315.358 147.9 320.549C135.564 320.076 123.32 318.817 111.077 317.298ZM263.136 217.763C261.687 217.786 261.682 220.046 263.136 220.018C266.688 219.954 269.49 219.495 272.37 222.213C276.889 226.469 274.801 230.873 272.555 235.494C269.554 241.666 265.572 247.297 261.043 252.442C252.389 262.282 242.072 270.483 232.394 279.262C223.832 287.477 214.802 295.191 206.12 303.267C203.656 305.559 200.128 310.028 196.558 310.037C194.9 310.042 193.367 309.356 191.973 308.333C191.825 308.097 191.608 307.916 191.353 307.847C188.982 305.883 187.047 303.003 185.643 300.952C181.467 294.835 178.554 288.056 176.72 280.901C185.81 270.858 196.173 261.948 207.597 254.465C208.81 253.669 207.68 251.719 206.458 252.516C186.329 265.699 169.492 283.17 157.022 303.499C124.163 287.704 91.8277 268.575 54.8016 265.102C53.3568 264.968 53.3661 267.223 54.8016 267.357C77.1164 269.455 97.741 277.359 117.801 286.75C116.699 293.904 114.999 300.929 112.531 307.74C111.36 310.977 110.095 314.251 108.526 317.335C108.41 317.455 108.34 317.613 108.294 317.784C108.118 318.127 107.956 318.479 107.766 318.817C106.84 320.479 105.743 322.331 104.029 323.299C101.362 324.813 97.7595 323.457 95.0784 322.655C80.8949 318.391 67.3041 312.366 54.4543 305.031C37.0757 296.673 17.817 290.371 7.46305 272.835C4.44853 267.723 1.31362 261.847 2.35088 255.743C3.65207 248.057 9.26435 244.709 16.1593 242.472C29.6158 238.106 43.5631 238.508 57.3252 241.055C58.7468 241.319 59.3534 239.147 57.9272 238.883C42.5398 236.031 26.9578 235.86 12.1492 241.504C1.98043 245.371 -2.60849 255.623 1.49885 265.796C5.58303 275.9 12.2094 284.472 21.1511 290.723C31.0096 297.613 42.5398 301.795 53.3198 306.976C61.1686 311.459 69.2721 315.446 77.6489 318.854C81.5062 320.428 85.419 321.873 89.3735 323.197C93.1799 324.471 97.6206 326.508 101.728 326.244C105.78 325.989 108.257 322.892 110.058 319.428C122.316 320.961 134.573 322.243 146.913 322.757C146.446 323.813 145.987 324.869 145.543 325.929C142.088 325.651 138.717 326.105 135.453 327.305C135.022 327.462 134.786 327.795 134.716 328.157C134.475 328.277 134.267 328.485 134.156 328.796C127.516 347.262 123.33 366.405 121.621 385.942C121.579 386.4 121.788 386.692 122.079 386.859C122.075 387.206 122.232 387.549 122.621 387.78C132.906 393.804 139.773 375.347 143.135 369.008C149.872 356.324 155.716 343.197 160.745 329.745C161.833 329.073 162.912 328.393 163.995 327.717C164.009 327.754 164.019 327.791 164.042 327.832C165.13 329.981 165.334 332.644 167.056 334.44C167.348 334.751 167.7 334.825 168.015 334.755C168.144 334.82 168.297 334.862 168.464 334.871C190.756 335.927 213.01 334.25 234.894 329.916C237.728 329.217 242.049 327.939 240.66 323.998C239.113 319.622 230.333 319.849 226.911 319.308C212.932 317.08 198.864 315.501 184.75 314.501C186.88 313.116 189.001 311.718 191.117 310.31C193.77 312.163 196.826 313.042 200.123 311.403C203.05 309.94 205.347 307.064 207.713 304.865C210.524 302.248 213.371 299.674 216.229 297.099C222.183 291.728 228.194 286.412 233.987 280.855C246.712 269.316 260.803 258.61 270.291 244.051C273.509 239.115 279.149 231.086 276.954 224.867C274.667 218.393 268.976 217.661 263.136 217.763Z" fill="#100F0D"/>
<path d="M322.539 121.92C336.944 128.037 312.708 151.023 329.573 157.395C330.934 157.909 331.517 155.732 330.174 155.223C315.815 149.8 339.538 126.712 323.682 119.975C322.363 119.41 321.21 121.355 322.539 121.92Z" fill="#100F0D"/>
<path d="M334.222 124.911C345.632 130.431 328.119 147.305 338.265 155.371C339.39 156.265 340.992 154.677 339.857 153.774C330.175 146.082 348.72 129.426 335.361 122.962C334.06 122.332 332.916 124.277 334.222 124.911Z" fill="#100F0D"/>
<path d="M316.481 159.673C317.44 160.766 319.028 159.168 318.074 158.08C315.296 154.894 313.712 151.028 313.708 146.777C313.708 143.221 315.263 140.572 316.514 137.349C317.912 133.732 318.408 129.81 315.05 127.162C313.921 126.273 312.314 127.856 313.453 128.755C318.338 132.607 311.485 141.595 311.452 146.777C311.425 151.657 313.309 156.043 316.481 159.673Z" fill="#100F0D"/>
<path d="M150.215 245.547C150.34 245.672 150.479 245.751 150.613 245.807C150.989 246.02 151.456 246.006 151.808 245.547C158.092 237.434 166.302 231.294 174.887 225.793C178.684 223.362 182.583 221.098 186.413 218.718C187.783 217.87 190.057 215.81 191.816 215.861C193.558 215.911 196.174 218.417 197.197 219.63C198.133 220.741 199.721 219.139 198.79 218.037C197.155 216.092 193.997 213.416 191.279 213.587C189.552 213.698 187.751 215.212 186.366 216.078C183.796 217.694 181.189 219.236 178.601 220.82C168.464 227.03 158.411 233.767 150.896 243.107C142.459 235.277 132.137 229.993 121.381 226.011C118.111 224.802 113.902 222.955 110.406 222.64C106.743 222.306 104.516 226.766 102.59 229.234C101.705 230.359 103.293 231.966 104.183 230.822C106.59 227.752 108.054 224.325 112.281 225.548C115.963 226.613 119.593 227.687 123.154 229.123C133.091 233.128 142.445 238.055 150.215 245.547Z" fill="#100F0D"/>
<path d="M93.9059 266.296C93.8133 266.296 93.7438 266.324 93.6604 266.342C93.6419 266.342 93.628 266.333 93.6049 266.338C92.0212 266.555 93.8271 258.067 93.9846 257.252C94.4245 254.988 95.6562 249.598 99.2727 251.802C99.3885 251.872 99.5042 251.913 99.6108 251.937C101.889 252.714 104.172 253.469 106.455 254.229C107.001 254.414 108.191 254.669 109.08 254.979C104.843 255.738 100.606 255.831 96.323 255.289C94.8922 255.104 94.9014 257.364 96.323 257.544C101.065 258.142 105.728 257.952 110.405 257.026C110.599 256.984 110.747 256.91 110.872 256.813C110.905 256.951 110.923 257.09 110.928 257.229C110.821 257.252 110.71 257.28 110.599 257.336C106.094 259.554 101.343 260.86 96.3416 261.253C94.9014 261.364 94.8922 263.619 96.3416 263.508C101.074 263.138 105.589 262.017 109.905 260.128C109.548 260.67 109.159 261.151 108.844 261.522C104.876 266.176 99.5644 266.453 93.9059 266.296ZM100.268 249.783C95.4062 246.968 92.563 252.738 91.8082 256.655C91.2664 259.475 88.1269 268.982 93.8642 268.542C93.8781 268.542 93.892 268.551 93.9059 268.551C101.444 268.755 108.617 267.435 112.493 260.16C113.655 257.984 114.322 255.275 111.859 253.761C108.622 251.77 103.889 250.992 100.268 249.783Z" fill="#100F0D"/>
<path d="M155.697 140.387C156.919 139.609 155.79 137.655 154.562 138.442C149.358 141.758 142.083 142.286 137.008 138.442C135.85 137.567 134.73 139.521 135.869 140.387C141.532 144.675 149.89 144.092 155.697 140.387Z" fill="#100F0D"/>
<path d="M317.815 171.007C323.585 169.326 330.045 169.715 335.981 169.886C338.579 169.859 341.607 169.65 344.085 170.558C345.099 170.928 346.456 171.331 346.571 172.521C346.701 173.859 343.455 173.531 342.307 173.619C336.416 174.063 330.503 174.202 324.604 174.077C322.075 174.026 319.556 173.97 317.047 173.605C316.773 173.568 314.278 173.401 313.995 173.054C313.004 171.836 316.482 171.396 317.815 171.007ZM347.071 207.987C345.548 210.418 342.492 210.876 339.885 211.187C335.074 204.662 336.949 196.285 338.954 189.029C340.061 188.455 341.214 188.006 342.422 187.696C346.506 188.645 348.308 190.696 347.826 193.854C348.178 195.896 347.84 198.304 347.849 200.388C347.849 202.611 348.289 206.037 347.071 207.987ZM348.303 210.089C351.216 206.649 350.104 200.745 350.091 196.656C350.086 193.78 350.688 190.025 348.919 187.571C349.28 182.87 349.308 178.152 349.646 173.447C351.67 167.974 338.241 167.608 335.981 167.636C330.837 167.478 325.66 167.367 320.561 168.178C317.815 168.613 312.967 169.113 311.393 171.97C311.175 172.368 311.069 172.725 311.045 173.049C310.981 173.193 310.944 173.355 310.953 173.549C311.37 181.62 312.615 189.511 314.727 197.313C314.741 197.373 314.764 197.42 314.782 197.471C313.569 198.406 312.379 199.383 311.203 200.374C301.548 200.633 291.893 200.888 282.239 201.147C280.784 201.184 280.784 203.44 282.239 203.398C291.879 203.143 301.525 202.884 311.166 202.629C311.513 202.74 311.916 202.699 312.263 202.402C316.732 198.591 321.501 195.234 326.539 192.252C324.687 196.924 321.145 200.564 316.389 202.643C315.87 202.865 315.732 203.301 315.829 203.708C315.833 203.768 315.815 203.824 315.824 203.884C316.088 205.667 316.375 207.44 316.699 209.205C304.827 209.181 293 211.298 281.391 213.585C279.965 213.863 280.571 216.039 281.988 215.762C293.449 213.502 305.086 211.427 316.801 211.455C316.931 211.455 317.028 211.418 317.13 211.39C318.098 216.113 319.371 220.763 321.159 225.277C321.145 225.62 321.316 225.953 321.747 226.139C329.281 229.371 336.68 229.876 344.288 226.764C344.506 226.75 344.696 226.653 344.853 226.509C345.182 226.282 345.279 225.949 345.215 225.62C346.057 220.79 346.835 215.942 347.289 211.057C347.65 210.77 347.998 210.46 348.303 210.089Z" fill="#100F0D"/>
</svg>
