<?xml version="1.0" encoding="UTF-8"?>
<svg xmlns="http://www.w3.org/2000/svg" xmlns:xlink="http://www.w3.org/1999/xlink" width="375pt" height="374.999991pt" viewBox="0 0 375 374.999991" version="1.2">
<g id="surface1">
<path style=" stroke:none;fill-rule:nonzero;fill:rgb(100%,97.648621%,86.669922%);fill-opacity:1;" d="M 304.6875 375 L 70.3125 375 C 31.476562 375 0 343.523438 0 304.6875 L 0 70.3125 C 0 31.476562 31.476562 0 70.3125 0 L 304.6875 0 C 343.523438 0 375 31.476562 375 70.3125 L 375 304.6875 C 375 343.523438 343.523438 375 304.6875 375 Z M 304.6875 375 "/>
<path style=" stroke:none;fill-rule:nonzero;fill:rgb(100%,90.589905%,46.669006%);fill-opacity:1;" d="M 126.84375 253.898438 L 171.199219 187.5 L 126.84375 121.089844 L 93.75 121.089844 L 137.859375 187.5 L 93.75 253.910156 Z M 126.84375 253.898438 "/>
<path style=" stroke:none;fill-rule:nonzero;fill:rgb(100%,90.589905%,46.669006%);fill-opacity:1;" d="M 281.179688 159.761719 L 207.796875 159.761719 L 222.46875 181.933594 L 281.179688 181.933594 Z M 281.179688 159.761719 "/>
<path style=" stroke:none;fill-rule:nonzero;fill:rgb(100%,82.348633%,0%);fill-opacity:1;" d="M 137.859375 121.089844 L 181.945312 187.5 L 137.859375 253.910156 L 171.199219 253.898438 L 198.527344 212.027344 L 226.148438 253.898438 L 259.171875 253.898438 L 171.210938 121.089844 Z M 137.859375 121.089844 "/>
<path style=" stroke:none;fill-rule:nonzero;fill:rgb(100%,90.589905%,46.669006%);fill-opacity:1;" d="M 281.25 192.972656 L 229.886719 192.972656 L 244.558594 215.132812 L 281.25 215.121094 Z M 281.25 192.972656 "/>
</g>
</svg>
