<?xml version="1.0" encoding="UTF-8"?>
<svg xmlns="http://www.w3.org/2000/svg" xmlns:xlink="http://www.w3.org/1999/xlink" width="375pt" height="374.999991pt" viewBox="0 0 375 374.999991" version="1.2">
<defs>
<clipPath id="clip1">
  <path d="M 54.546875 73 L 320.796875 73 L 320.796875 375 L 54.546875 375 Z M 54.546875 73 "/>
</clipPath>
</defs>
<g id="surface1">
<g clip-path="url(#clip1)" clip-rule="nonzero">
<path style=" stroke:none;fill-rule:nonzero;fill:rgb(89.408875%,30.198669%,14.898682%);fill-opacity:1;" d="M 321.078125 73.695312 L 296.8125 344.828125 L 187.730469 374.984375 L 78.953125 344.867188 L 54.714844 73.695312 L 321.074219 73.691406 L 321.082031 73.691406 Z M 321.078125 73.695312 "/>
</g>
<path style=" stroke:none;fill-rule:nonzero;fill:rgb(94.509888%,39.608765%,16.079712%);fill-opacity:1;" d="M 187.898438 351.933594 L 276.042969 327.566406 L 296.78125 95.871094 L 187.898438 95.867188 Z M 187.898438 351.933594 "/>
<path style=" stroke:none;fill-rule:nonzero;fill:rgb(92.158508%,92.158508%,92.158508%);fill-opacity:1;" d="M 140.726562 162.382812 L 187.898438 162.382812 L 187.898438 129.121094 L 104.28125 129.121094 L 105.078125 138.046875 L 113.277344 229.695312 L 187.898438 229.695312 L 187.898438 196.445312 L 143.773438 196.445312 Z M 140.726562 162.382812 "/>
<path style=" stroke:none;fill-rule:nonzero;fill:rgb(92.158508%,92.158508%,92.158508%);fill-opacity:1;" d="M 148.242188 246.328125 L 114.765625 246.328125 L 119.4375 298.550781 L 187.742188 317.464844 L 187.898438 317.421875 L 187.898438 282.816406 L 187.753906 282.859375 L 150.613281 272.851562 Z M 148.242188 246.328125 "/>
<path style=" stroke:none;fill-rule:nonzero;fill:rgb(0%,0%,0%);fill-opacity:1;" d="M 79.496094 0 L 96.445312 0 L 96.445312 16.699219 L 111.945312 16.699219 L 111.945312 0 L 128.894531 0 L 128.894531 50.566406 L 111.945312 50.566406 L 111.945312 33.632812 L 96.445312 33.632812 L 96.445312 50.566406 L 79.496094 50.566406 Z M 79.496094 0 "/>
<path style=" stroke:none;fill-rule:nonzero;fill:rgb(0%,0%,0%);fill-opacity:1;" d="M 151.175781 16.769531 L 136.257812 16.769531 L 136.257812 0 L 183.054688 0 L 183.054688 16.769531 L 168.121094 16.769531 L 168.121094 50.566406 L 151.179688 50.566406 L 151.179688 16.769531 Z M 151.175781 16.769531 "/>
<path style=" stroke:none;fill-rule:nonzero;fill:rgb(0%,0%,0%);fill-opacity:1;" d="M 190.476562 0 L 208.144531 0 L 219.015625 17.769531 L 229.871094 0 L 247.550781 0 L 247.550781 50.566406 L 230.675781 50.566406 L 230.675781 25.503906 L 219.015625 43.484375 L 218.722656 43.484375 L 207.058594 25.503906 L 207.058594 50.566406 L 190.476562 50.566406 Z M 190.476562 0 "/>
<path style=" stroke:none;fill-rule:nonzero;fill:rgb(0%,0%,0%);fill-opacity:1;" d="M 255.988281 0 L 272.933594 0 L 272.933594 33.851562 L 296.769531 33.851562 L 296.769531 50.566406 L 255.988281 50.566406 Z M 255.988281 0 "/>
<path style=" stroke:none;fill-rule:nonzero;fill:rgb(100%,100%,100%);fill-opacity:1;" d="M 187.785156 229.695312 L 228.847656 229.695312 L 224.976562 272.832031 L 187.785156 282.847656 L 187.785156 317.441406 L 256.144531 298.550781 L 256.644531 292.929688 L 264.484375 205.371094 L 265.300781 196.445312 L 187.785156 196.445312 Z M 187.785156 229.695312 "/>
<path style=" stroke:none;fill-rule:nonzero;fill:rgb(100%,100%,100%);fill-opacity:1;" d="M 187.785156 162.296875 L 187.785156 162.382812 L 268.328125 162.382812 L 268.996094 154.90625 L 270.519531 138.046875 L 271.3125 129.121094 L 187.785156 129.121094 Z M 187.785156 162.296875 "/>
</g>
</svg>
