<?xml version="1.0" encoding="UTF-8"?>
<svg xmlns="http://www.w3.org/2000/svg" xmlns:xlink="http://www.w3.org/1999/xlink" width="375pt" height="374.999991pt" viewBox="0 0 375 374.999991" version="1.2">
<g id="surface1">
<path style=" stroke:none;fill-rule:nonzero;fill:rgb(18.03894%,0.779724%,7.839966%);fill-opacity:1;" d="M 0 31.25 L 0 343.75 C 0 361.015625 13.984375 375 31.25 375 L 343.75 375 C 361.015625 375 375 361.015625 375 343.75 L 375 31.25 C 375 13.984375 361.015625 0 343.75 0 L 31.25 0 C 13.984375 0 0 13.984375 0 31.25 Z M 0 31.25 "/>
<path style=" stroke:none;fill-rule:nonzero;fill:rgb(100%,24.708557%,58.039856%);fill-opacity:1;" d="M 343.75 15.625 C 352.359375 15.625 359.375 22.640625 359.375 31.25 L 359.375 343.75 C 359.375 352.359375 352.359375 359.375 343.75 359.375 L 31.25 359.375 C 22.640625 359.375 15.625 352.359375 15.625 343.75 L 15.625 31.25 C 15.625 22.640625 22.640625 15.625 31.25 15.625 Z M 343.75 0 L 31.25 0 C 14 0 0 13.984375 0 31.25 L 0 343.75 C 0 361.015625 14 375 31.25 375 L 343.75 375 C 361 375 375 361.015625 375 343.75 L 375 31.25 C 375 13.984375 361 0 343.75 0 Z M 343.75 0 "/>
<path style=" stroke:none;fill-rule:nonzero;fill:rgb(100%,24.708557%,58.039856%);fill-opacity:1;" d="M 137.109375 253.40625 C 137.109375 254.96875 136.84375 255.46875 135.046875 255.46875 L 111.046875 255.46875 C 109.484375 255.46875 108.984375 254.6875 108.984375 253.40625 L 108.984375 85.65625 C 108.984375 84.09375 109.765625 83.59375 111.046875 83.59375 L 135.3125 83.59375 C 136.59375 83.59375 137.109375 84.109375 137.109375 85.40625 Z M 137.109375 253.40625 "/>
<path style=" stroke:none;fill-rule:nonzero;fill:rgb(100%,24.708557%,58.039856%);fill-opacity:1;" d="M 265.625 231.078125 L 265.625 84.90625 C 265.625 84.125 265.375 83.59375 264.0625 83.59375 L 238.671875 83.59375 C 237.890625 83.59375 237.109375 84.125 237.109375 85.15625 L 237.109375 126.625 C 234.015625 126.390625 232.203125 126.390625 228.859375 126.390625 C 189.421875 126.390625 164.765625 155.515625 164.765625 192.90625 L 164.71875 192.90625 C 164.71875 236.46875 189.46875 257.875 224.046875 257.875 C 237.453125 257.875 251.640625 255.03125 265.046875 248.578125 C 266.09375 248.0625 266.40625 247.796875 266.40625 246.765625 C 265.625 240.84375 265.625 235.453125 265.625 231.078125 Z M 237.140625 231.046875 C 234.046875 232.34375 229.90625 232.84375 226.046875 232.84375 C 208 232.84375 193.65625 221 193.65625 191.59375 C 193.65625 165.8125 207.75 150.34375 227.828125 150.34375 C 231.6875 150.34375 234.796875 150.875 237.109375 151.90625 L 237.140625 151.90625 Z M 237.140625 231.046875 "/>
</g>
</svg>
