<svg width="18" height="18" viewBox="0 0 18 18" fill="none" xmlns="http://www.w3.org/2000/svg">
<path d="M5.2485 0C2.35425 0 0 2.3565 0 5.2515V12.7515C0 15.6458 2.3565 18 5.2515 18H12.7515C15.6458 18 18 15.6435 18 12.7485V5.2485C18 2.35425 15.6435 0 12.7485 0H5.2485ZM14.25 3C14.664 3 15 3.336 15 3.75C15 4.164 14.664 4.5 14.25 4.5C13.836 4.5 13.5 4.164 13.5 3.75C13.5 3.336 13.836 3 14.25 3ZM9 4.5C11.4818 4.5 13.5 6.51825 13.5 9C13.5 11.4818 11.4818 13.5 9 13.5C6.51825 13.5 4.5 11.4818 4.5 9C4.5 6.51825 6.51825 4.5 9 4.5ZM9 6C8.90175 6 8.80369 6.00488 8.706 6.01444C8.60812 6.024 8.51119 6.03844 8.41481 6.05756C8.31844 6.07688 8.22319 6.10069 8.12906 6.12919C8.03512 6.15769 7.94269 6.19069 7.85194 6.22837C7.76119 6.26587 7.6725 6.30788 7.58588 6.35419C7.49925 6.4005 7.41506 6.45094 7.33331 6.5055C7.25156 6.56025 7.17281 6.61856 7.09688 6.681C7.02094 6.74325 6.94819 6.80925 6.87862 6.87862C6.80925 6.94819 6.74325 7.02094 6.681 7.09688C6.61856 7.17281 6.56025 7.25156 6.5055 7.33331C6.45094 7.41506 6.4005 7.49925 6.35419 7.58588C6.30788 7.6725 6.26587 7.76119 6.22837 7.85194C6.19069 7.94269 6.15769 8.03512 6.12919 8.12906C6.10069 8.22319 6.07688 8.31844 6.05756 8.41481C6.03844 8.51119 6.024 8.60812 6.01444 8.706C6.00488 8.80369 6 8.90175 6 9C6 9.09825 6.00488 9.19631 6.01444 9.294C6.024 9.39188 6.03844 9.48881 6.05756 9.58519C6.07688 9.68156 6.10069 9.77681 6.12919 9.87094C6.15769 9.96488 6.19069 10.0573 6.22837 10.1481C6.26587 10.2388 6.30788 10.3275 6.35419 10.4141C6.4005 10.5008 6.45094 10.5849 6.5055 10.6667C6.56025 10.7484 6.61856 10.8272 6.681 10.9031C6.74325 10.9791 6.80925 11.0518 6.87862 11.1214C6.94819 11.1908 7.02094 11.2568 7.09688 11.319C7.17281 11.3814 7.25156 11.4397 7.33331 11.4943C7.41506 11.5491 7.49925 11.5995 7.58588 11.6458C7.6725 11.6921 7.76119 11.7341 7.85194 11.7716C7.94269 11.8093 8.03512 11.8423 8.12906 11.8708C8.22319 11.8993 8.31844 11.9231 8.41481 11.9424C8.51119 11.9616 8.60812 11.976 8.706 11.9856C8.80369 11.9951 8.90175 12 9 12C9.09825 12 9.19631 11.9951 9.294 11.9856C9.39188 11.976 9.48881 11.9616 9.58519 11.9424C9.68156 11.9231 9.77681 11.8993 9.87094 11.8708C9.96488 11.8423 10.0573 11.8093 10.1481 11.7716C10.2388 11.7341 10.3275 11.6921 10.4141 11.6458C10.5008 11.5995 10.5849 11.5491 10.6667 11.4943C10.7484 11.4397 10.8272 11.3814 10.9031 11.319C10.9791 11.2568 11.0518 11.1908 11.1214 11.1214C11.1908 11.0518 11.2568 10.9791 11.319 10.9031C11.3814 10.8272 11.4397 10.7484 11.4943 10.6667C11.5491 10.5849 11.5995 10.5008 11.6458 10.4141C11.6921 10.3275 11.7341 10.2388 11.7716 10.1481C11.8093 10.0573 11.8423 9.96488 11.8708 9.87094C11.8993 9.77681 11.9231 9.68156 11.9424 9.58519C11.9616 9.48881 11.976 9.39188 11.9856 9.294C11.9951 9.19631 12 9.09825 12 9C12 8.90175 11.9951 8.80369 11.9856 8.706C11.976 8.60812 11.9616 8.51119 11.9424 8.41481C11.9231 8.31844 11.8993 8.22319 11.8708 8.12906C11.8423 8.03512 11.8093 7.94269 11.7716 7.85194C11.7341 7.76119 11.6921 7.6725 11.6458 7.58588C11.5995 7.49925 11.5491 7.41506 11.4943 7.33331C11.4397 7.25156 11.3814 7.17281 11.319 7.09688C11.2568 7.02094 11.1908 6.94819 11.1214 6.87862C11.0518 6.80925 10.9791 6.74325 10.9031 6.681C10.8272 6.61856 10.7484 6.56025 10.6667 6.5055C10.5849 6.45094 10.5008 6.4005 10.4141 6.35419C10.3275 6.30788 10.2388 6.26587 10.1481 6.22837C10.0573 6.19069 9.96488 6.15769 9.87094 6.12919C9.77681 6.10069 9.68156 6.07688 9.58519 6.05756C9.48881 6.03844 9.39188 6.024 9.294 6.01444C9.19631 6.00488 9.09825 6 9 6Z" fill="white"/>
</svg>
