<svg width="224" height="287" viewBox="0 0 224 287" fill="none" xmlns="http://www.w3.org/2000/svg">
<path d="M148.927 276.704H61.2305L69.963 229.34H140.191L148.927 276.704Z" fill="#9E1614"/>
<path d="M142.06 239.472H68.0947L67.5117 242.641C69.2367 244.094 71.1231 245.34 73.162 246.318C75.4162 247.397 77.8467 247.992 80.2742 248.542C82.8513 249.122 85.4552 249.582 88.0681 249.974C93.3776 250.766 98.726 251.254 104.059 251.834C114.592 252.982 125.291 254.497 134.909 259.212C139.444 261.436 143.701 264.348 147.304 267.903L142.06 239.472Z" fill="#AF1514"/>
<path d="M209.606 218.61V107.81C209.606 102.486 205.295 98.1689 199.98 98.1689H10.1743C4.85883 98.1689 0.547852 102.486 0.547852 107.81V218.61H209.606Z" fill="#FE1515"/>
<path d="M15.7768 98.1689H10.1743C4.85883 98.1689 0.547852 102.483 0.547852 107.81V218.61V212.601H11.4598V200.954C10.7423 199.483 10.0966 197.976 9.52856 196.434C5.12191 184.403 4.47617 171.345 4.55987 158.657C4.60173 152.43 4.7542 146.197 4.93955 139.975C5.10996 134.304 5.57633 128.633 6.54496 123.036C8.06666 114.223 10.9636 105.649 15.7768 98.1689Z" fill="#CE1917"/>
<path d="M201.594 239.337C201.591 239.337 201.591 239.337 201.588 239.337C201.591 239.337 201.591 239.337 201.594 239.337ZM201.427 239.364C201.427 239.364 201.427 239.364 201.424 239.364C201.427 239.364 201.427 239.364 201.427 239.364ZM201.346 239.373C201.346 239.376 201.343 239.376 201.34 239.376C201.343 239.376 201.346 239.376 201.346 239.373ZM201.182 239.397C201.179 239.397 201.173 239.397 201.17 239.397C201.173 239.397 201.179 239.397 201.182 239.397ZM201.011 239.415C201.008 239.415 201.005 239.415 201.002 239.418C201.005 239.415 201.008 239.415 201.011 239.415ZM200.928 239.427C200.925 239.427 200.922 239.427 200.919 239.427C200.922 239.427 200.925 239.427 200.928 239.427ZM200.76 239.439C200.757 239.439 200.751 239.442 200.745 239.442C200.751 239.442 200.757 239.439 200.76 239.439ZM200.676 239.445C200.673 239.445 200.67 239.448 200.667 239.448C200.67 239.448 200.673 239.445 200.676 239.445ZM200.59 239.451C200.584 239.451 200.578 239.454 200.575 239.454C200.578 239.454 200.584 239.451 200.59 239.451ZM200.509 239.457C200.506 239.457 200.497 239.457 200.491 239.457C200.497 239.457 200.506 239.457 200.509 239.457ZM200.413 239.46H200.41H200.413ZM200.339 239.466C200.33 239.466 200.324 239.466 200.315 239.466C200.324 239.466 200.33 239.466 200.339 239.466ZM200.252 239.469C200.249 239.469 200.243 239.469 200.237 239.469C200.243 239.469 200.249 239.469 200.252 239.469ZM200.159 239.472C200.156 239.472 200.147 239.472 200.141 239.472C200.147 239.472 200.153 239.472 200.159 239.472ZM200.082 239.472C200.076 239.472 200.07 239.472 200.058 239.472C200.07 239.472 200.076 239.472 200.082 239.472Z" fill="#AC8CBA"/>
<path d="M190.076 232.097H20.0789C15.3195 232.097 11.46 228.231 11.46 223.463V114.178C11.46 109.41 15.3195 105.544 20.0789 105.544H190.076C194.838 105.544 198.698 109.41 198.698 114.178V223.463C198.698 228.231 194.838 232.097 190.076 232.097Z" fill="#EBE8DF"/>
<path d="M196.046 206.682C184.817 208 173.454 208.861 162.147 209.044C146.057 209.301 129.868 208.38 114.042 205.343C98.7558 202.404 83.6704 197.399 70.3936 189.139C56.8837 180.735 45.7654 168.968 38.4081 154.822C30.5006 139.614 27.0417 122.597 26.4976 105.544H20.0789C15.3195 105.544 11.46 109.41 11.46 114.178V223.463C11.46 228.231 15.3195 232.097 20.0789 232.097H190.076C194.838 232.097 198.698 228.231 198.698 223.463V206.359C197.816 206.47 196.931 206.577 196.046 206.682Z" fill="#E3D9BF"/>
<path d="M0.547852 212.602V229.831C0.547852 235.155 4.85883 239.472 10.1743 239.472H199.98C205.295 239.472 209.606 235.155 209.606 229.831V212.602H0.547852Z" fill="#F23F3F"/>
<path d="M11.0861 212.602H0.547852V229.831C0.547852 235.155 4.85883 239.472 10.1743 239.472H93.8707C91.1771 239.221 88.4835 238.952 85.7928 238.659C69.1558 236.844 52.3185 234.539 36.1598 230.064C30.4975 228.5 24.8591 226.351 20.1236 222.793C16.4255 220.016 13.4808 216.503 11.0861 212.602Z" fill="#CE1917"/>
<path d="M109.973 226.037C109.973 228.745 107.781 230.94 105.079 230.94C102.373 230.94 100.182 228.745 100.182 226.037C100.182 223.331 102.373 221.134 105.079 221.134C107.781 221.134 109.973 223.331 109.973 226.037Z" fill="#752F90"/>
<path d="M154.302 282.701H55.8519C51.6277 282.701 48.2046 279.272 48.2046 275.039V271.042C48.2046 266.808 51.6277 263.379 55.8519 263.379H154.302C158.526 263.379 161.952 266.808 161.952 271.042V275.039C161.952 279.272 158.526 282.701 154.302 282.701Z" fill="#82D4C3"/>
<path d="M155.079 279.987C146.774 280.558 138.454 280.994 130.128 281.018C121.452 281.042 112.759 280.623 104.164 279.386C95.8406 278.187 87.5953 276.184 79.8523 272.847C74.2797 270.447 69.024 267.305 64.4081 263.379H55.8519C51.6277 263.379 48.2046 266.808 48.2046 271.042V275.039C48.2046 279.272 51.6277 282.701 55.8519 282.701H154.302C156.813 282.701 159.04 281.49 160.437 279.619C158.652 279.75 156.864 279.867 155.079 279.987Z" fill="#55C5B0"/>
<path d="M166.075 68.4168C165.549 66.9728 164.858 65.4571 163.988 64.055C164.766 60.5751 163.328 56.7933 160.858 54.303C158.745 52.1684 156.036 50.8769 153.175 50.1146C153.958 49.125 154.541 47.965 154.888 46.7453C155.797 43.5494 155.112 40.222 153.671 37.2952C152.721 35.3729 151.456 33.4476 149.928 31.8333C150.326 31.4117 150.691 30.9633 151.023 30.4939C154.024 26.2547 154.156 20.0961 151.39 15.7074C148.568 11.238 143.049 9.21706 137.946 10.0571C137.704 10.096 137.465 10.1438 137.223 10.2006C135.516 5.6445 131.587 1.77897 126.756 0.810349C122.75 0.0121299 118.613 1.3694 115.611 4.04209C114.98 3.43221 114.266 2.918 113.473 2.53235C111.157 1.40827 108.52 1.50991 106.322 2.87914L106.179 2.97481C103.527 2.057 100.376 2.52338 98.2834 4.47259C97.6137 5.09442 97.0875 5.80893 96.684 6.58622C95.5987 5.91656 94.4059 5.42328 93.1503 5.20205C90.9768 4.81639 88.6539 5.08246 86.7257 6.20655C84.8631 4.75959 82.5522 3.91354 80.0439 3.8089C75.2965 3.61159 70.7762 5.96439 68.0348 9.806C66.531 11.9137 65.5833 14.395 65.1737 16.9661C63.2036 17.1634 61.2395 17.7673 59.6281 18.9482C57.7536 20.3174 56.4412 22.2815 55.8492 24.5297C54.6504 29.0529 56.1183 34.1293 58.6744 37.9589C56.7371 38.8707 54.9763 40.1473 53.5562 41.7557C50.4052 45.3252 48.8955 50.282 49.5024 55.0055C49.891 58.0429 51.1735 60.9219 53.1586 63.203C52.5039 63.7172 51.8701 64.2613 51.2542 64.8143C49.2124 66.6499 47.3409 68.7187 45.7684 70.9729C44.2556 73.1433 43.0179 75.6845 42.9641 78.3781C42.9133 80.8385 43.9866 83.1375 45.7145 84.8535C46.8954 86.0254 48.2916 86.9074 49.8073 87.5142C49.1077 93.5383 51.9239 100.127 57.4367 103.102C58.8478 103.861 60.4233 104.37 62.0257 104.486C62.0078 108.546 63.4966 112.564 66.7044 115.234C68.4593 116.696 70.558 117.604 72.845 117.751C75.1291 117.9 77.4161 117.207 79.3653 116.038C80.3339 115.455 81.2278 114.764 82.047 113.993C82.9259 115.712 84.1277 117.264 85.5627 118.513C88.923 121.437 93.3356 122.462 97.6735 121.539C100.866 120.86 103.832 119.183 106.155 116.875C107.724 120.146 110.281 123.123 113.572 124.552C122.472 128.406 130.834 119.216 132.978 111.275C134.317 112.334 135.833 113.159 137.483 113.643C140.801 114.615 144.574 113.954 147.372 111.912C150.275 109.793 151.692 106.546 151.354 103.045C153.803 102.283 155.938 100.516 157.328 98.3664C159.393 95.1855 159.722 91.2124 158.452 87.6697C161.848 86.6503 164.548 83.8729 165.953 80.6681C167.663 76.7757 167.513 72.372 166.075 68.4168Z" fill="#9C481C"/>
<path d="M124.843 110.471C128.744 108.352 133.019 106.791 136.571 104.086C139.477 101.87 141.848 98.9944 143.444 95.7089C144.263 94.0258 144.855 92.235 145.25 90.4084C145.45 89.4876 145.543 88.5518 145.719 87.631C145.893 86.7132 146.203 85.8313 146.517 84.9584C147.109 83.3051 147.896 81.5532 147.833 79.7625C147.767 77.9358 146.401 76.746 144.855 76.0105C143.193 75.2243 141.286 74.9821 139.468 74.9253C137.525 74.8655 135.593 75.0389 133.677 75.3379C128.664 76.1241 123.761 77.4485 118.81 78.5457C113.958 79.619 109.028 80.3484 104.092 80.9134C94.2894 82.0405 84.331 82.3066 74.5312 80.9852C71.3234 80.5517 68.1215 79.9508 64.9376 79.3619C63.5744 79.1107 62.1992 78.8447 60.8718 78.4381L60.7642 78.4022C60.824 80.1571 61.3023 81.8731 61.8613 83.5323C62.519 85.4845 63.2007 87.5384 64.1932 89.3471C65.0482 90.8987 66.1932 92.2111 67.4967 93.3979C68.9287 94.7044 70.4683 95.9032 71.9631 97.1379C73.4968 98.4055 74.6448 100.038 75.7719 101.655C76.881 103.243 78.02 104.842 79.6075 105.984C80.9349 106.944 82.4267 107.631 83.9334 108.25C87.0097 109.512 90.4507 110.6 92.7527 113.141C94.0831 114.606 94.8364 116.451 95.3088 118.358C95.5898 119.485 95.7901 120.657 96.101 121.787C96.6242 121.733 97.1504 121.65 97.6736 121.539C100.866 120.86 103.832 119.183 106.155 116.875C107.725 120.143 110.281 123.123 113.572 124.549C114.502 124.953 115.432 125.213 116.344 125.348C116.669 124.693 116.941 124.011 117.172 123.321C117.728 121.629 117.94 119.892 118.263 118.152C118.547 116.603 118.992 115.108 119.991 113.865C121.234 112.322 123.139 111.398 124.843 110.471Z" fill="#893C1A"/>
<path d="M117.408 117.308C117.384 115.267 117.294 110.435 117.136 108.399C117.043 107.26 116.933 106.118 116.801 104.979C116.762 104.665 116.559 104.393 116.215 104.393C116.054 104.393 115.892 104.393 115.731 104.393C115.294 104.393 114.858 104.393 114.421 104.393C113.773 104.393 113.124 104.393 112.475 104.393C111.689 104.393 110.903 104.393 110.113 104.393C109.249 104.393 108.382 104.393 107.515 104.393C106.645 104.393 105.772 104.393 104.902 104.393C104.089 104.393 103.273 104.393 102.457 104.393C101.772 104.393 101.085 104.393 100.4 104.393C99.9039 104.393 99.4076 104.393 98.9143 104.393C98.6782 104.393 98.445 104.39 98.2118 104.393H98.1819C98.0384 104.393 97.865 104.459 97.7663 104.564C97.6557 104.686 97.6139 104.818 97.5959 104.979C97.3598 107.009 97.1923 109.042 97.0907 111.081C96.992 113.12 96.9621 117.954 96.998 119.993C97.0189 121.138 97.0638 122.283 97.1266 123.425C97.1415 123.697 97.3 123.912 97.5571 123.993C102.795 125.664 109.175 125.796 114.535 124.615C115.312 124.445 116.081 124.235 116.837 123.993C117.097 123.909 117.252 123.694 117.267 123.425C117.384 121.389 117.429 119.35 117.408 117.308Z" fill="#F2AC9B"/>
<path d="M98.3493 112.328C102.708 114.624 107.988 113.849 112.711 114.382C114.308 114.564 115.895 114.89 117.378 115.485C117.336 113.156 117.255 109.96 117.136 108.399C117.043 107.26 116.933 106.118 116.801 104.979C116.762 104.665 116.559 104.393 116.215 104.393H98.9143C98.6782 104.393 98.445 104.39 98.2118 104.393H98.1819C98.0384 104.393 97.865 104.459 97.7663 104.564C97.6557 104.686 97.6139 104.818 97.5959 104.979C97.3598 107.009 97.1923 109.042 97.0907 111.081C97.0847 111.213 97.0787 111.356 97.0728 111.509C97.4734 111.817 97.8979 112.092 98.3493 112.328Z" fill="#E48777"/>
<path d="M80.9709 88.0731L80.9559 88.0372L80.8991 87.9027C80.7795 87.6815 80.6629 87.4602 80.5434 87.239C80.2324 86.662 79.9245 86.088 79.6166 85.517C79.1891 84.7248 78.7646 83.9325 78.34 83.1403C77.8677 82.2673 77.3983 81.3973 76.929 80.5214C76.4895 79.7052 76.05 78.8861 75.6105 78.067C75.2727 77.4421 74.9379 76.8173 74.6001 76.1895C74.4506 75.9145 74.3041 75.6394 74.1546 75.3614L74.1427 75.2956L74.1098 75.1222C74.0291 74.7156 73.9304 74.309 73.8108 73.9114C73.5597 73.0684 73.2129 72.2403 72.7465 71.4958C72.319 70.8082 71.7899 70.1745 71.1561 69.6662C70.5253 69.161 69.8496 68.7753 69.1022 68.4734C67.6881 67.9024 66.1306 67.7798 64.6298 67.995C63.0902 68.2133 61.6761 68.8979 60.4653 69.8635C59.2755 70.8082 58.3158 72.0698 57.6551 73.4361C56.9316 74.9369 56.543 76.5572 56.4922 78.2224C56.4354 80.0072 56.7642 81.8099 57.3711 83.4811C57.9481 85.0805 58.7583 86.5962 59.7837 87.9535C60.7613 89.245 61.8884 90.384 63.1858 91.3586C64.4325 92.2944 65.8316 93.0328 67.3115 93.5201C68.7554 93.9925 70.2891 94.2077 71.8078 94.124C73.3534 94.0343 74.8602 93.6606 76.2742 93.0238C77.6106 92.417 78.8513 91.538 79.8318 90.4378C80.0949 90.1449 80.3401 89.834 80.5673 89.5141C80.8573 89.1045 81.1712 88.5903 80.9709 88.0731Z" fill="#F2AC9B"/>
<path d="M146.392 69.2211C146.021 72.8564 145.548 76.4888 144.945 80.0942C144.415 83.2661 143.758 86.4291 142.714 89.4755C142.499 90.0973 142.272 90.7132 142.024 91.3201C141.85 91.7476 141.671 92.1691 141.48 92.5877C140.607 94.492 139.548 96.3067 138.254 97.9719C136.376 100.384 134.051 102.417 131.509 104.104C128.855 105.867 125.949 107.243 122.947 108.304C121.222 108.914 119.455 109.386 117.686 109.835C115.987 110.268 114.301 110.737 112.597 111.123C110.869 111.512 109.099 111.79 107.327 111.796C105.548 111.805 103.769 111.521 102.032 111.159C98.5164 110.424 94.9857 109.506 91.6104 108.286C85.7777 106.169 80.1902 102.878 76.3396 97.9091C75.5623 96.9136 74.8777 95.8643 74.2708 94.779C73.7267 93.8074 73.2424 92.8059 72.8119 91.7835C71.2274 88.0256 70.3365 83.9538 69.6699 79.9387C67.9538 69.5739 67.1227 58.913 67.1138 48.4046C67.1138 43.9561 67.5144 39.4538 68.8477 35.1936C70.1751 30.9574 72.5967 28.0426 76.226 25.5104C79.0871 23.5163 82.2919 22.0455 85.5834 20.9214C90.295 19.31 95.2338 18.4161 100.179 17.8959C106.28 17.2561 112.493 17.1186 118.609 17.6866C123.139 18.1022 127.683 18.9184 131.955 20.5297C134.953 21.6598 137.811 23.1755 140.278 25.2413C141.988 26.6674 143.486 28.3774 144.61 30.3087C147.492 35.2594 147.073 41.5555 147.22 47.0115C147.417 54.4197 147.139 61.8458 146.392 69.2211Z" fill="#FFCCB9"/>
<path d="M111.554 109.368C105.213 109.341 98.8004 108.178 93.0544 105.428C90.2352 104.08 87.6044 102.316 85.3233 100.175C83.0094 98.0018 80.812 95.3201 79.5534 92.3844C78.1932 89.2064 77.9929 85.7206 77.6251 82.3244C77.2784 79.1375 76.7552 75.7264 74.6655 73.1643C74.3097 72.7279 74.3276 72.2645 74.6655 71.831C76.1453 69.9416 77.8464 67.224 76.5549 64.8174C76.2649 64.2793 76.519 63.6066 77.1169 63.4333C79.4787 62.7486 81.8943 62.2554 83.6312 60.3659C85.4818 58.354 87.0364 55.5138 86.845 52.7066C86.7912 51.9323 87.6672 51.6214 88.2591 51.8965C90.4445 52.9039 94.5522 51.747 94.5073 48.871C94.4984 48.291 95.1202 47.7619 95.6972 47.9622C98.319 48.874 100.253 51.445 103.108 51.7021C105.73 51.9413 108.349 50.4734 109.15 47.8994C109.351 47.2566 110.227 46.9397 110.72 47.4868C111.907 48.7933 113.144 50.1057 114.663 51.0235C116.026 51.8456 117.467 52.1655 119.049 52.1117C121.061 52.0429 124.556 51.7888 125.079 49.3404C125.261 48.4674 126.744 48.4166 126.888 49.3404C126.992 49.9921 127.336 50.5153 127.805 51.0504C128.376 51.7081 129.043 52.2761 129.796 52.7186C130.436 53.1012 131.139 53.3823 131.769 53.3464C131.898 53.3374 132.119 53.2597 132.227 53.1551C132.433 52.9607 132.529 52.7186 132.622 52.3389C132.834 51.4779 133.886 51.5138 134.338 52.1117C135.674 53.8756 137.049 55.6245 138.637 57.1701C140.965 59.4332 143.871 61.2299 146.954 62.2853C147.267 57.2 147.351 52.1027 147.22 47.0115C147.073 41.5555 147.492 35.2594 144.61 30.3087C143.486 28.3774 141.988 26.6674 140.278 25.2413C137.811 23.1755 134.953 21.6598 131.955 20.5297C127.683 18.9184 123.139 18.1022 118.609 17.6866C112.493 17.1186 106.28 17.2561 100.179 17.8959C95.2338 18.4161 90.295 19.31 85.5834 20.9214C82.2919 22.0455 79.0871 23.5163 76.226 25.5104C72.5967 28.0426 70.1751 30.9574 68.8477 35.1936C67.5144 39.4538 67.1138 43.9561 67.1138 48.4046C67.1227 58.913 67.9538 69.5739 69.6699 79.9387C70.3365 83.9538 71.2274 88.0256 72.8119 91.7835C73.2424 92.8059 73.7267 93.8074 74.2708 94.779C74.8777 95.8643 75.5623 96.9136 76.3396 97.9091C80.1902 102.878 85.7777 106.169 91.6104 108.286C94.9857 109.506 98.5164 110.424 102.032 111.159C103.769 111.521 105.548 111.805 107.327 111.796C109.099 111.79 110.869 111.512 112.597 111.123C114.301 110.737 115.987 110.268 117.686 109.835C119.455 109.386 121.222 108.914 122.947 108.304C123.228 108.205 123.506 108.104 123.784 107.996C119.787 108.953 115.665 109.389 111.554 109.368Z" fill="#E48777"/>
<path d="M133.423 88.0731L133.441 88.0372L133.495 87.9027C133.617 87.6815 133.734 87.4602 133.854 87.239C134.164 86.662 134.472 86.088 134.78 85.517C135.205 84.7248 135.632 83.9325 136.057 83.1403C136.526 82.2673 136.996 81.3973 137.465 80.5214C137.907 79.7052 138.347 78.8861 138.786 78.067C139.124 77.4421 139.459 76.8173 139.797 76.1895C139.943 75.9145 140.09 75.6394 140.242 75.3614L140.254 75.2956L140.287 75.1222C140.368 74.7156 140.464 74.309 140.586 73.9114C140.837 73.0684 141.184 72.2403 141.65 71.4958C142.078 70.8082 142.61 70.1745 143.241 69.6662C143.872 69.161 144.547 68.7753 145.292 68.4734C146.709 67.9024 148.266 67.7798 149.767 67.995C151.307 68.2133 152.718 68.8979 153.932 69.8635C155.118 70.8082 156.081 72.0698 156.742 73.4361C157.468 74.9369 157.854 76.5572 157.905 78.2224C157.962 80.0072 157.633 81.8099 157.026 83.4811C156.446 85.0805 155.639 86.5962 154.613 87.9535C153.636 89.245 152.509 90.384 151.211 91.3586C149.964 92.2944 148.568 93.0328 147.082 93.5201C145.644 93.9925 144.105 94.2077 142.589 94.124C141.04 94.0343 139.534 93.6606 138.123 93.0238C136.783 92.417 135.543 91.538 134.565 90.4378C134.302 90.1449 134.057 89.834 133.83 89.5141C133.54 89.1045 133.226 88.5903 133.423 88.0731Z" fill="#F2AC9B"/>
<path d="M93.8287 79.604C91.5626 78.456 88.869 78.4769 86.4773 79.1376C84.8929 79.5711 83.0752 80.2079 81.9092 81.4246C80.4593 82.9344 80.821 85.3201 82.4444 86.6146C85.3144 88.9136 90.3189 89.3052 93.5328 87.5413C96.4775 85.924 97.1023 81.2632 93.8287 79.604Z" fill="#F2AC9B"/>
<path d="M132.355 79.0926C128.858 78.2495 124.825 79.2241 122.78 82.2585C121.414 84.2855 122.801 86.3005 124.502 87.4634C128.056 89.8939 136.2 89.2273 137.402 84.2317C137.743 82.8086 136.977 81.6098 135.904 80.7697C134.882 79.9685 133.656 79.4035 132.355 79.0926Z" fill="#F2AC9B"/>
<path d="M86.5493 77.8999C86.2443 77.867 85.9424 77.8072 85.6434 77.7205C84.4566 77.3797 83.4252 76.6681 82.4625 75.9148C82.2353 75.7384 79.9602 73.7892 79.8735 73.8699C80.1396 73.6188 80.4655 73.4215 80.7405 73.1793C81.0185 72.9342 81.2816 72.6771 81.5417 72.414C81.745 72.2077 81.9423 71.9984 82.1426 71.7891C82.7854 71.1195 83.4341 70.4468 84.1875 69.9027C84.5582 69.6307 84.9558 69.3945 85.3774 69.2121C85.5926 69.1195 85.8138 69.0417 86.0381 68.976C86.2593 68.9162 86.2952 68.7547 86.4925 68.6591C86.618 68.5993 86.7585 68.5843 86.8991 68.5694C88.7586 68.4199 90.7168 69.0328 92.0083 70.384C92.2504 70.6382 92.4687 70.9192 92.6779 71.2002C92.9888 71.6217 93.2788 72.0552 93.5509 72.5007C93.6884 72.7309 93.8229 72.9611 93.9515 73.1943C94.0591 73.3946 94.1966 73.5231 94.08 73.7324C92.6989 76.2197 89.4282 78.2317 86.5493 77.8999Z" fill="white"/>
<path d="M92.2352 74.0493C91.7479 76.6174 89.2755 78.3065 86.7134 77.8162C84.1484 77.3289 82.4652 74.8535 82.9555 72.2855C83.4428 69.7174 85.9122 68.0343 88.4773 68.5186C91.0393 69.0059 92.7255 71.4813 92.2352 74.0493Z" fill="#95331D"/>
<path d="M84.6749 72.6143C86.8453 72.6562 86.9141 69.2839 84.7407 69.2451C82.5702 69.2002 82.5045 72.5695 84.6749 72.6143Z" fill="white"/>
<path d="M79.7 73.9773C81.3771 73.0416 82.3667 71.4123 83.7359 70.1208C86.011 67.9802 88.7255 69.1103 91.1142 70.1298C91.3982 70.2493 91.4371 69.6963 91.3175 69.5528C89.7958 67.7291 87.452 67.3614 85.2576 68.0998C84.0917 68.4945 83.2426 69.5916 82.4803 70.4855C81.5445 71.5857 80.4773 72.5842 79.5953 73.7232C79.5475 73.789 79.5804 74.0461 79.7 73.9773Z" fill="#95331D"/>
<path d="M130.613 77.8999C130.918 77.867 131.22 77.8072 131.516 77.7205C132.706 77.3797 133.734 76.6681 134.7 75.9148C134.924 75.7384 137.202 73.7892 137.289 73.8699C137.02 73.6188 136.697 73.4215 136.422 73.1793C136.144 72.9342 135.877 72.6771 135.617 72.414C135.417 72.2077 135.217 71.9984 135.019 71.7891C134.374 71.1195 133.725 70.4468 132.972 69.9027C132.601 69.6307 132.206 69.3945 131.785 69.2121C131.569 69.1195 131.348 69.0417 131.121 68.976C130.903 68.9162 130.867 68.7547 130.67 68.6591C130.544 68.5993 130.401 68.5843 130.263 68.5694C128.401 68.4199 126.442 69.0328 125.154 70.384C124.909 70.6382 124.69 70.9192 124.481 71.2002C124.173 71.6217 123.88 72.0552 123.611 72.5007C123.471 72.7309 123.336 72.9611 123.211 73.1943C123.103 73.3946 122.962 73.5231 123.079 73.7324C124.46 76.2197 127.734 78.2317 130.613 77.8999Z" fill="white"/>
<path d="M124.923 74.0493C125.411 76.6174 127.883 78.3065 130.448 77.8162C133.01 77.3289 134.693 74.8535 134.203 72.2855C133.719 69.7174 131.246 68.0343 128.684 68.5186C126.122 69.0059 124.436 71.4813 124.923 74.0493Z" fill="#95331D"/>
<path d="M132.487 72.6143C130.314 72.6562 130.248 69.2839 132.418 69.2451C134.589 69.2002 134.657 72.5695 132.487 72.6143Z" fill="white"/>
<path d="M137.56 73.72C136.684 72.596 135.614 71.6513 134.717 70.5391C134.099 69.7708 133.405 68.8919 132.52 68.4285C130.299 67.2715 127.527 67.5077 125.874 69.5077C125.746 69.6572 125.734 70.2641 126.06 70.1266C128.726 68.9995 130.84 68.2252 133.441 70.1296C134.977 71.2507 135.758 73.0145 137.468 73.9801C137.59 74.0489 137.608 73.7798 137.56 73.72Z" fill="#95331D"/>
<path d="M108.505 68.6142C108.624 71.0387 108.771 73.4633 108.944 75.8819C108.962 76.136 109.097 76.3124 109.336 76.3991C109.186 76.9611 109.037 77.5261 108.887 78.0882C108.253 77.8221 107.981 78.8565 108.603 79.1196C109.901 79.6667 112.741 78.7309 111.605 76.8236C110.95 75.7264 110.005 75.8251 109.907 74.4319C109.775 72.4947 109.665 70.5544 109.572 68.6142C109.539 67.9296 108.472 67.9266 108.505 68.6142Z" fill="#95331D"/>
<path d="M104.053 82.7699C105.405 89.0959 114.4 88.2229 114.717 81.8342C114.762 80.9164 113.342 80.9194 113.297 81.8342C113.055 86.6953 106.424 87.066 105.426 82.3933C105.234 81.4934 103.862 81.8761 104.053 82.7699Z" fill="#95331D"/>
<path d="M68.1571 84.1599C67.8851 82.9222 67.326 81.7353 66.5577 80.7278C65.7595 79.6815 64.7669 78.7906 63.61 78.1538C62.9732 77.804 62.2856 77.526 61.5771 77.3436C61.299 77.2689 60.9672 77.4333 60.8984 77.7293C60.8327 78.0193 60.9851 78.3302 61.2841 78.4109C61.5771 78.4857 61.8641 78.5753 62.1451 78.683L62.3454 78.7637L62.3514 78.7667L62.459 78.8145C62.5935 78.8743 62.728 78.9401 62.8626 79.0088C63.1287 79.1464 63.3887 79.3018 63.6369 79.4632C63.7624 79.547 63.888 79.6337 64.0076 79.7233L64.1003 79.7921L64.1062 79.7981L64.2767 79.9356C64.3604 80.0044 64.4411 80.0731 64.5218 80.1449C63.7206 81.3796 63.329 82.8953 63.4366 84.3632C63.4575 84.6502 63.6757 84.9282 63.9897 84.9162C64.2707 84.9013 64.5637 84.6711 64.5427 84.3632C64.5158 83.9984 64.5188 83.6337 64.5577 83.269L64.5696 83.1524L64.5756 83.1046C64.5906 83.0149 64.6055 82.9252 64.6234 82.8355C64.6563 82.6621 64.6952 82.4887 64.743 82.3213C64.7909 82.1509 64.8447 81.9835 64.9075 81.819L64.9613 81.6725L64.9762 81.6397C65.0031 81.5619 65.045 81.4842 65.0809 81.4125C65.1556 81.254 65.2363 81.1045 65.323 80.955C65.3978 81.0417 65.4725 81.1284 65.5442 81.2151L65.607 81.2929L65.616 81.3048L65.7505 81.4872C65.8372 81.6098 65.9239 81.7353 66.0046 81.8609C66.1661 82.112 66.3156 82.3721 66.4531 82.6442C66.5248 82.7877 66.5966 82.9371 66.6623 83.0866L66.6474 83.0567L66.6683 83.1016L66.6803 83.1315L66.7191 83.2271C66.749 83.3049 66.7789 83.3826 66.8058 83.4573C66.9224 83.7832 67.0181 84.115 67.0899 84.4529C67.1526 84.7369 67.4964 84.9282 67.7715 84.8415C68.0675 84.7428 68.2229 84.4648 68.1571 84.1599Z" fill="#C8777E"/>
<path d="M66.6685 83.1016L66.6655 83.0957L66.6626 83.0869L66.6802 83.131L66.6685 83.1016Z" fill="#F8A3A4"/>
<path d="M146.153 84.1599C146.425 82.9222 146.984 81.7353 147.752 80.7278C148.55 79.6815 149.543 78.7906 150.7 78.1538C151.337 77.804 152.024 77.526 152.73 77.3436C153.008 77.2689 153.343 77.4333 153.411 77.7293C153.474 78.0193 153.325 78.3302 153.023 78.4109C152.733 78.4857 152.446 78.5753 152.165 78.683L151.964 78.7637H151.961L151.958 78.7667L151.854 78.8145C151.716 78.8743 151.582 78.9401 151.447 79.0088C151.181 79.1464 150.924 79.3018 150.673 79.4632C150.547 79.547 150.422 79.6337 150.302 79.7233L150.207 79.7921L150.201 79.7981L150.03 79.9356C149.949 80.0044 149.869 80.0731 149.788 80.1449C150.589 81.3796 150.978 82.8953 150.873 84.3632C150.852 84.6502 150.631 84.9282 150.32 84.9162C150.036 84.9013 149.743 84.6711 149.767 84.3632C149.794 83.9984 149.791 83.6337 149.752 83.269L149.74 83.1524V83.1285L149.734 83.1046C149.719 83.0149 149.704 82.9252 149.686 82.8355C149.656 82.6621 149.612 82.4887 149.567 82.3213C149.519 82.1509 149.462 81.9835 149.402 81.819L149.346 81.6725L149.334 81.6397C149.307 81.5619 149.265 81.4842 149.229 81.4125C149.157 81.254 149.073 81.1045 148.987 80.955C148.912 81.0417 148.837 81.1284 148.766 81.2151L148.703 81.2929L148.694 81.3048L148.559 81.4872C148.47 81.6098 148.386 81.7353 148.305 81.8609C148.144 82.112 147.991 82.3721 147.857 82.6442C147.782 82.7877 147.713 82.9371 147.647 83.0866L147.662 83.0567L147.641 83.1016L147.627 83.1315L147.591 83.2271C147.561 83.3049 147.534 83.3826 147.504 83.4573C147.387 83.7832 147.292 84.115 147.22 84.4529C147.157 84.7369 146.813 84.9282 146.538 84.8415C146.242 84.7428 146.087 84.4648 146.153 84.1599Z" fill="#C8777E"/>
<path d="M147.641 83.1016L147.644 83.0957L147.647 83.0869L147.626 83.131L147.635 83.1163L147.641 83.1016Z" fill="#F8A3A4"/>
<path d="M143.686 197.07C142.17 189.208 141.163 181.261 140.188 173.312C139.22 165.384 138.682 146.995 137.312 139.12C136.544 134.699 135.635 130.298 134.511 125.951C134.451 125.724 134.248 125.5 134.015 125.455C131.031 124.848 128.06 124.208 125.094 123.53C123.611 123.192 122.128 122.845 120.648 122.492C119.913 122.313 119.172 122.133 118.433 121.951C118.012 121.846 117.557 121.673 117.121 121.649C116.612 121.622 116.098 121.649 115.59 121.649C114.448 121.649 113.306 121.649 112.164 121.649C109.192 121.649 106.218 121.649 103.243 121.649C101.306 121.649 99.3686 121.649 97.4313 121.649C96.9081 121.649 96.3969 121.843 95.8917 121.966C94.4148 122.331 92.938 122.687 91.4551 123.033C88.5164 123.721 85.5687 124.373 82.615 124.992C81.8705 125.15 81.1261 125.302 80.3817 125.455C80.1456 125.5 79.9423 125.724 79.8855 125.951C77.8794 133.709 76.567 141.626 75.4848 149.557C74.4115 157.464 73.1649 175.85 72.0737 183.758C71.4578 188.212 70.7642 192.655 69.9152 197.07C69.8375 197.471 70.0258 197.809 70.4115 197.949C72.8181 198.813 75.3652 199.151 77.9004 199.426C80.579 199.716 83.2607 199.97 85.9453 200.194C102.173 201.561 118.478 201.223 134.741 199.528C137.593 199.232 140.478 198.921 143.19 197.949C143.573 197.809 143.767 197.474 143.686 197.07Z" fill="#F7B7A7"/>
<path d="M85.6136 210.353L81.4013 204.84C77.2876 199.456 78.31 191.752 83.6853 187.629C89.0606 183.51 96.7528 184.535 100.866 189.919C104.612 194.822 104.095 201.654 99.9128 205.944L95.0756 210.918C92.663 213.4 88.6959 213.453 86.2175 211.035C86.0052 210.829 85.79 210.58 85.6136 210.353Z" fill="#D1989A"/>
<path d="M121.288 210.353L117.073 204.84C112.962 199.456 113.985 191.752 119.357 187.632C124.732 183.51 132.424 184.535 136.538 189.919C140.287 194.822 139.767 201.65 135.587 205.943L130.75 210.918C128.338 213.399 124.371 213.453 121.892 211.035C121.68 210.828 121.465 210.58 121.288 210.353Z" fill="#D1989A"/>
<path d="M138.864 212.805C138.798 206.27 138.625 199.737 138.341 193.208C138.299 192.269 138.257 191.328 138.212 190.389C138.194 190.003 137.901 189.674 137.501 189.674H84.6359C82.1934 189.674 79.739 189.603 77.2965 189.674H77.1919C76.7942 189.674 76.4983 190.003 76.4803 190.389C76.1216 197.854 75.9034 205.328 75.8286 212.805H138.864Z" fill="#3B509F"/>
<path d="M96.8363 206.132C102.23 206.431 107.644 206.449 113.007 207.152C117.432 207.729 121.755 208.751 125.653 210.984C126.613 211.534 127.53 212.144 128.409 212.805H138.864C138.798 206.27 138.625 199.737 138.341 193.208C138.299 192.269 138.257 191.328 138.212 190.389C138.194 190.003 137.901 189.674 137.501 189.674H84.6359C82.1934 189.674 79.7389 189.603 77.2964 189.674H77.1918C76.7942 189.674 76.4982 190.003 76.4803 190.389C76.3398 193.319 76.2202 196.252 76.1245 199.184C78.3428 201.172 80.9288 202.769 83.7689 203.872C87.9543 205.501 92.3878 205.887 96.8363 206.132Z" fill="#2C4890"/>
<path d="M143.686 197.07C142.17 189.208 141.59 180.326 140.619 172.379C139.65 164.448 138.682 146.995 137.312 139.12C136.544 134.699 135.635 130.298 134.511 125.951C134.451 125.724 134.248 125.5 134.015 125.455C131.031 124.848 128.06 124.208 125.094 123.53C123.611 123.192 122.128 122.845 120.648 122.492L120.508 122.456C120.472 122.54 120.436 122.624 120.4 122.708C119.802 124.029 119.1 125.297 118.227 126.456C117.432 127.515 116.517 128.486 115.497 129.332C114.505 130.158 113.417 130.866 112.254 131.419C111.127 131.954 109.931 132.34 108.699 132.543C107.482 132.747 106.239 132.762 105.016 132.579C103.727 132.385 102.478 131.966 101.324 131.365C100.056 130.705 98.8693 129.826 97.8947 128.776C96.8244 127.631 95.9694 126.28 95.3536 124.839C95.0068 124.023 94.7317 123.165 94.5643 122.292C93.5269 122.543 92.4925 122.791 91.4551 123.033C88.5164 123.721 85.5687 124.373 82.615 124.992C81.8705 125.15 81.1261 125.303 80.3817 125.455C80.1456 125.5 79.9423 125.724 79.8855 125.951C77.8794 133.709 76.567 141.626 75.4848 149.557C74.4115 157.464 72.7463 174.176 71.8016 182.616C71.3024 187.085 70.7642 192.655 69.9152 197.07C69.8375 197.471 70.0258 197.809 70.4115 197.949C72.8181 198.813 75.3652 199.151 77.9004 199.426C80.579 199.716 83.2607 199.97 85.9453 200.195C102.173 201.561 118.478 201.223 134.741 199.528C137.593 199.232 140.478 198.921 143.19 197.949C143.573 197.809 143.767 197.474 143.686 197.07Z" fill="#93DBEF"/>
<path d="M143.166 194.111C139.085 195.256 134.948 196.179 130.735 196.753C125.163 197.513 119.512 197.638 113.931 196.924C109.635 196.371 105.33 195.39 101.204 194.069C97.3147 192.825 93.4761 191.169 90.2175 188.67C87.0276 186.23 84.615 183.019 83.4102 179.163C81.6702 173.587 82.2831 167.677 83.6284 162.086C84.8512 157.013 86.6898 152.134 87.6255 146.986C88.9708 139.59 89.2638 131.344 86.7735 124.098C85.3893 124.403 84.0051 124.702 82.615 124.992C81.8705 125.15 81.1261 125.302 80.3817 125.455C80.1456 125.5 79.9423 125.724 79.8855 125.951C77.8794 133.709 76.567 141.626 75.4848 149.557C74.4115 157.464 72.7463 174.176 71.8016 182.616C71.3024 187.085 70.7642 192.655 69.9152 197.07C69.8375 197.471 70.0258 197.809 70.4115 197.949C72.8181 198.813 75.3652 199.151 77.9004 199.426C80.579 199.716 83.2607 199.97 85.9453 200.195C102.173 201.561 118.478 201.223 134.741 199.528C137.593 199.232 140.478 198.921 143.19 197.949C143.573 197.809 143.767 197.474 143.686 197.07C143.498 196.099 143.327 195.112 143.166 194.111Z" fill="#83D6EB"/>
<path d="M95.8051 133.025C100.275 137.479 107.5 138.098 113.151 135.757C118.592 133.503 121.71 128.528 123.746 123.219C122.714 122.98 121.683 122.737 120.649 122.492L120.508 122.456C120.472 122.54 120.436 122.624 120.4 122.708C119.803 124.029 119.1 125.297 118.227 126.456C117.432 127.515 116.517 128.486 115.498 129.332C114.505 130.158 113.417 130.866 112.254 131.419C111.127 131.954 109.931 132.34 108.699 132.543C107.482 132.747 106.239 132.762 105.016 132.579C103.728 132.385 102.478 131.966 101.324 131.365C100.056 130.705 98.8694 129.826 97.8948 128.776C96.8246 127.631 95.9696 126.28 95.3537 124.839C95.0069 124.023 94.7319 123.165 94.5644 122.292C93.5271 122.543 92.4927 122.791 91.4553 123.033L91.3477 123.057C91.9665 126.723 93.1085 130.34 95.8051 133.025Z" fill="#FAB62A"/>
<path d="M67.6041 203.722C66.465 193.301 66.6205 182.801 68.2797 172.442C69.909 162.266 72.5757 150.245 78.5699 141.694C81.8733 136.983 74.1632 132.543 70.8986 137.201C64.6892 146.062 61.894 158.194 59.9507 168.681C57.8132 180.233 57.4425 192.054 58.719 203.722C59.3349 209.364 68.2289 209.423 67.6041 203.722Z" fill="#F2AC9B"/>
<path d="M155.707 203.722C156.936 192.461 156.506 181.256 154.715 170.078C152.969 159.189 149.938 146.352 143.525 137.201C140.26 132.543 132.553 136.983 135.854 141.694C141.644 149.961 144.093 161.264 145.905 171.049C147.893 181.794 148.006 192.879 146.819 203.722C146.195 209.423 155.089 209.364 155.707 203.722Z" fill="#F2AC9B"/>
<path d="M85.6909 126.475C85.2455 125.787 84.6475 125.168 83.9121 124.794C83.09 124.376 82.1632 124.25 81.2514 124.361C80.3276 124.472 79.4546 124.759 78.5996 125.117C77.7865 125.461 76.9912 125.841 76.2199 126.268C70.459 129.473 66.0613 135.291 62.1778 140.49C61.6816 141.153 61.2002 141.829 60.7339 142.514C60.5067 142.848 60.2824 143.186 60.0612 143.527C59.7682 143.979 59.4663 144.442 59.6516 145.007C59.7892 145.428 60.127 145.79 60.396 146.137C60.6591 146.478 60.9252 146.819 61.2002 147.15C61.7055 147.76 62.2346 148.352 62.7817 148.923C63.8699 150.056 65.0359 151.112 66.2706 152.077C68.8177 154.071 71.616 155.692 74.6175 156.897C74.9792 157.04 75.341 157.178 75.7057 157.306C76.1242 157.459 76.5607 157.647 77.0062 157.692C77.2782 157.716 77.5592 157.653 77.7865 157.497C78.0346 157.327 78.196 157.079 78.3664 156.84C78.6116 156.502 78.8507 156.158 79.0839 155.814C80.0286 154.415 80.8926 152.962 81.6669 151.464C83.2514 148.415 84.4921 145.183 85.3471 141.856C86.1961 138.546 86.6745 135.129 86.7522 131.712C86.7911 129.928 86.6894 128.017 85.6909 126.475Z" fill="#A3E1F2"/>
<path d="M69.7206 147.611C67.9029 146.224 66.2018 144.708 64.713 142.971C63.9238 142.047 63.1853 141.079 62.4738 140.095C62.3752 140.227 62.2765 140.358 62.1778 140.49C61.6816 141.154 61.2002 141.829 60.7339 142.514C60.5067 142.849 60.2824 143.186 60.0612 143.527C59.7682 143.979 59.4663 144.442 59.6516 145.007C59.7892 145.429 60.127 145.79 60.396 146.137C60.6591 146.478 60.9252 146.819 61.2002 147.151C61.7055 147.761 62.2346 148.352 62.7817 148.923C63.8699 150.056 65.0359 151.112 66.2706 152.077C68.8177 154.072 71.616 155.692 74.6175 156.897C74.9792 157.04 75.341 157.178 75.7057 157.306C76.1243 157.459 76.5607 157.647 77.0062 157.692C77.2782 157.716 77.5593 157.653 77.7865 157.498C78.0346 157.327 78.196 157.079 78.3664 156.84C78.6116 156.502 78.8508 156.158 79.0839 155.814C79.646 154.983 80.1781 154.128 80.6834 153.261C76.6923 152.221 72.9762 150.089 69.7206 147.611Z" fill="#FAB62A"/>
<path d="M128.852 126.475C129.297 125.787 129.892 125.168 130.628 124.794C131.45 124.376 132.38 124.25 133.289 124.361C134.215 124.472 135.085 124.759 135.943 125.117C136.756 125.461 137.549 125.841 138.323 126.268C144.081 129.473 148.479 135.291 152.365 140.49C152.858 141.153 153.34 141.829 153.806 142.514C154.033 142.848 154.257 143.186 154.479 143.527C154.772 143.979 155.077 144.442 154.888 145.007C154.751 145.428 154.41 145.79 154.147 146.137C153.884 146.478 153.618 146.819 153.34 147.15C152.834 147.76 152.305 148.352 151.761 148.923C150.673 150.056 149.507 151.112 148.272 152.077C145.722 154.071 142.924 155.692 139.922 156.897C139.564 157.04 139.202 157.178 138.834 157.306C138.416 157.459 137.982 157.647 137.537 157.692C137.262 157.716 136.981 157.653 136.753 157.497C136.505 157.327 136.347 157.079 136.173 156.84C135.931 156.502 135.689 156.158 135.459 155.814C134.511 154.415 133.65 152.962 132.873 151.464C131.292 148.415 130.051 145.183 129.196 141.856C128.344 138.546 127.865 135.129 127.791 131.712C127.749 129.928 127.853 128.017 128.852 126.475Z" fill="#A3E1F2"/>
<path d="M153.806 142.514C153.354 141.85 152.891 141.201 152.412 140.559C149.71 144.352 146.371 147.605 142.382 150.059C139.865 151.608 137.085 152.953 134.188 153.82C134.595 154.496 135.016 155.16 135.459 155.814C135.689 156.158 135.931 156.502 136.173 156.84C136.346 157.079 136.505 157.327 136.753 157.498C136.98 157.653 137.261 157.716 137.536 157.692C137.982 157.647 138.415 157.459 138.834 157.306C139.202 157.178 139.563 157.04 139.922 156.897C142.924 155.692 145.722 154.072 148.272 152.077C149.507 151.112 150.673 150.056 151.761 148.923C152.305 148.352 152.834 147.76 153.339 147.151C153.617 146.819 153.883 146.478 154.146 146.137C154.41 145.79 154.75 145.429 154.888 145.007C155.076 144.442 154.771 143.979 154.478 143.527C154.257 143.186 154.033 142.849 153.806 142.514Z" fill="#FAB62A"/>
<path d="M146.392 69.221C146.021 72.8564 145.548 76.4857 144.945 80.0942C144.415 83.2661 143.758 86.4291 142.714 89.4755C142.499 90.0943 142.272 90.7102 142.024 91.32C141.046 87.9896 140.317 84.5726 139.791 81.1435C139.157 77.0388 138.876 72.1688 140.514 68.2046C139.429 67.4811 138.741 66.3361 138.478 65.0685C138.113 63.3585 138.311 61.5229 138.786 59.7829C138.335 59.5497 137.901 59.2657 137.512 58.9429C135.381 57.179 134.636 54.3329 134.544 51.6722C134.535 51.451 134.532 51.2267 134.532 51.0025C134.391 51.0354 134.245 51.0623 134.101 51.0832C131.56 51.4958 129.127 50.6826 127.36 48.8082C126.63 48.0369 126.032 47.1549 125.539 46.2102C123.952 47.8037 121.88 48.9188 119.614 49.0982C117.079 49.2955 114.627 48.2073 112.726 46.5929C111.554 45.6003 110.618 44.3926 109.88 43.0652C108.519 44.8141 106.806 46.2282 104.717 47.0503C102.486 47.9233 99.9184 47.8724 97.9812 46.3537C97.2129 45.7558 96.6329 44.9964 96.1844 44.1594C94.5641 46.2311 92.4803 47.8784 89.9751 48.6138C88.4235 49.0683 86.8151 49.0324 85.3233 48.557C85.5714 50.877 85.4997 53.2208 85.0991 55.5258C84.8689 56.8412 84.5131 58.2044 83.7209 59.3016C83.0153 60.2792 82.0317 60.9758 80.8748 61.3106C78.9405 61.8667 76.8448 61.4451 75.1288 60.4376C75.5892 62.4496 75.646 64.5513 75.2573 66.5872C74.8508 68.7098 73.8672 70.9759 71.927 72.115C72.3246 72.7906 72.6923 73.4872 73.0241 74.1957C75.1258 78.6293 76.1034 83.6069 75.7267 88.5098C75.5653 90.6115 75.2544 92.8746 74.2708 94.779C73.7267 93.8074 73.2424 92.8059 72.8119 91.7804C71.2274 88.0255 70.3365 83.9537 69.6698 79.9387C67.9538 69.5738 65.8312 58.7097 65.8252 48.2013C65.8222 43.7528 66.184 38.1862 67.5203 33.926C68.8447 29.6868 71.7595 25.6808 75.3919 23.1456C78.2499 21.1545 85.0572 18.0812 88.3457 16.9571C93.0603 15.3458 98.3489 15.6806 103.294 15.1604C109.398 14.5206 114.917 15.0946 121.034 15.6597C125.563 16.0782 129.318 17.1425 133.59 18.7539C136.592 19.8869 139.692 21.9796 142.161 24.0455C143.868 25.4745 145.423 27.4057 146.544 29.334C149.426 34.2848 148.592 44.7423 148.735 50.1953C148.936 57.6065 147.139 61.8457 146.392 69.221Z" fill="#9C481C"/>
<path d="M87.3893 58.1714C86.893 57.9083 86.2921 57.7767 85.745 57.9561C85.3026 58.0996 84.8661 58.282 84.4505 58.4942C84.1845 58.6288 83.9303 58.7872 83.6912 58.9636C83.3235 59.2327 82.9557 59.5107 82.6329 59.8366C82.301 60.1684 82.011 60.5511 81.736 60.9337C81.5805 61.1789 81.4968 61.4449 81.4849 61.726C81.4221 62.01 81.434 62.294 81.5207 62.578C81.5865 62.856 81.7151 63.0982 81.9034 63.3045C82.0529 63.5377 82.2532 63.72 82.5013 63.8546C82.9976 64.1176 83.5955 64.2492 84.1456 64.0728C84.316 63.9981 84.4834 63.9263 84.6538 63.8546C84.9468 63.6812 85.186 63.448 85.3683 63.164C85.5507 62.9517 85.748 62.7544 85.9633 62.572C86.1994 62.4076 86.4506 62.2581 86.7107 62.1326L86.8781 62.0758C87.4042 61.9024 87.8706 61.5795 88.1546 61.0922C88.3101 60.847 88.3938 60.5839 88.4057 60.2999C88.4685 60.0159 88.4566 59.7319 88.3669 59.4479C88.2025 58.9307 87.8826 58.4314 87.3893 58.1714Z" fill="#95331D"/>
<path d="M136.789 60.4138C136.768 59.8727 136.595 59.2688 136.167 58.9041C135.839 58.6231 135.495 58.348 135.124 58.1208C134.744 57.8906 134.332 57.7232 133.919 57.5558C133.259 57.2837 132.526 57.1731 131.815 57.1343C131.522 57.1223 131.247 57.1851 130.996 57.3166C130.729 57.4033 130.499 57.5498 130.308 57.7561C130.099 57.9534 129.952 58.1806 129.865 58.4467C129.734 58.7008 129.671 58.9758 129.683 59.2688C129.707 59.8219 129.886 60.3959 130.308 60.7786C130.451 60.8892 130.595 60.9998 130.738 61.1134C131.07 61.3047 131.432 61.4034 131.815 61.4064L131.898 61.4123C132.132 61.4572 132.359 61.52 132.583 61.5977C132.786 61.6993 132.984 61.8159 133.172 61.9415C133.36 62.1388 133.581 62.2823 133.839 62.366C134.093 62.4976 134.365 62.5603 134.661 62.5484C134.951 62.5603 135.226 62.4976 135.48 62.366C135.746 62.2793 135.973 62.1298 136.167 61.9236C136.541 61.517 136.816 60.9818 136.789 60.4138Z" fill="#95331D"/>
<path d="M175.131 258.33L120.143 286.244C119.62 286.51 118.977 286.298 118.711 285.775L83.1501 215.492C82.884 214.966 83.0933 214.324 83.6195 214.057L136.021 187.988C136.021 187.988 140.885 188.29 141.151 188.816L175.6 256.895C175.866 257.421 175.657 258.064 175.131 258.33Z" fill="#58C8D4"/>
<path d="M173.818 257.708L119.611 285.224C119.094 285.488 118.46 285.281 118.2 284.761L83.1412 215.478C82.8811 214.96 83.0874 214.327 83.6046 214.063L136.021 187.988C136.021 187.988 139.148 188.156 139.934 188.41L174.282 256.294C174.542 256.811 174.338 257.445 173.818 257.708Z" fill="white"/>
<path d="M169.322 255.58L117.787 281.739C117.297 281.987 116.696 281.789 116.448 281.299L83.1199 215.433C82.8688 214.939 83.0661 214.338 83.5564 214.087L135.091 187.928C135.584 187.677 136.185 187.875 136.433 188.368L169.761 254.234C170.009 254.728 169.815 255.329 169.322 255.58Z" fill="#58C8D4"/>
<path d="M163.318 257.52C160.305 259.421 156.939 260.856 153.581 262.037C147.124 264.309 139.979 265.511 133.282 263.538C129.784 262.506 126.588 260.632 123.862 258.225C121.141 255.828 118.935 252.901 117.013 249.84C115.096 246.79 113.467 243.573 111.841 240.363C109.805 236.333 107.763 232.303 105.724 228.27C104.699 226.249 103.691 224.216 102.636 222.207C101.634 220.311 100.597 218.434 99.5925 216.542C98.1127 213.758 96.6986 210.93 95.5835 207.982L83.5564 214.087C83.0661 214.338 82.8688 214.939 83.1199 215.432L116.448 281.299C116.696 281.789 117.297 281.987 117.787 281.738L169.322 255.58C169.815 255.328 170.009 254.728 169.761 254.234L169.196 253.113C167.316 254.686 165.399 256.207 163.318 257.52Z" fill="#43ADC1"/>
<path d="M94.0797 208.745L83.5564 214.088C83.0661 214.339 82.8688 214.94 83.1199 215.433L116.448 281.299C116.696 281.79 117.297 281.987 117.787 281.739L128.31 276.396L94.0797 208.745Z" fill="#6D3F87"/>
<path d="M125.162 275.804C120.478 273.777 116.499 270.414 113.476 266.318C111.467 263.598 109.733 260.644 107.984 257.756C106.053 254.563 104.193 251.331 102.397 248.064C100.603 244.796 98.872 241.496 97.2008 238.165C95.5865 234.942 94.1126 231.648 92.4504 228.449C89.8794 223.489 86.9017 218.649 84.827 213.444L83.5564 214.087C83.0661 214.338 82.8688 214.939 83.1199 215.432L116.448 281.299C116.696 281.789 117.297 281.986 117.787 281.738L127.665 276.725C126.819 276.462 125.982 276.157 125.162 275.804Z" fill="#53276C"/>
<path d="M149.8 230.736L118.442 246.653C117.698 247.032 116.792 246.733 116.412 245.989L107.916 229.196C107.539 228.452 107.835 227.543 108.58 227.167L139.94 211.247C140.682 210.87 141.591 211.166 141.967 211.911L150.464 228.706C150.84 229.448 150.544 230.359 149.8 230.736Z" fill="white"/>
<path d="M113.3 230.473L139.812 217.014L139.722 216.832L113.208 230.291" fill="#6D3F87"/>
<path d="M115.088 234.004L141.599 220.545L141.51 220.365L114.995 233.821" fill="#6D3F87"/>
<path d="M116.872 237.534L143.387 224.078L143.297 223.896L116.783 237.355" fill="#6D3F87"/>
<path d="M118.66 241.068L145.172 227.609L145.082 227.427L118.571 240.886" fill="#6D3F87"/>
<path d="M194.446 286.357H141.124C140.197 286.357 139.447 285.607 139.447 284.677V211.358C139.447 210.431 140.197 209.681 141.124 209.681H194.446C195.373 209.681 196.123 210.431 196.123 211.358V284.677C196.123 285.607 195.373 286.357 194.446 286.357Z" fill="#72C457"/>
<path d="M174.305 281.461C170.909 280.357 167.63 278.854 164.706 276.785C162.111 274.952 159.833 272.749 157.895 270.232C154.105 265.308 151.812 259.388 150.398 253.379C148.87 246.907 148.326 240.261 147.889 233.642C147.366 225.666 147.438 217.66 147.871 209.681H141.124C140.197 209.681 139.447 210.431 139.447 211.358V284.677C139.447 285.607 140.197 286.357 141.124 286.357H194.446C195.373 286.357 196.123 285.607 196.123 284.677V283.069C188.868 284.271 181.295 283.73 174.305 281.461Z" fill="#71AB5E"/>
<path d="M146.009 213.45C146.009 214.515 145.145 215.379 144.081 215.379C143.013 215.379 142.152 214.515 142.152 213.45C142.152 212.38 143.013 211.519 144.081 211.519C145.145 211.519 146.009 212.38 146.009 213.45Z" fill="white"/>
<path d="M143.788 214.279H138.813C138.356 214.279 137.985 213.908 137.985 213.451C137.985 212.99 138.356 212.62 138.813 212.62H143.788C144.248 212.62 144.619 212.99 144.619 213.451C144.619 213.908 144.248 214.279 143.788 214.279Z" fill="#B6BFD2"/>
<path d="M141.779 213.929C140.798 213.92 138.658 214.03 138.442 212.706C138.17 212.844 137.985 213.122 137.985 213.45C137.985 213.908 138.356 214.279 138.813 214.279H143.788C144.146 214.279 144.454 214.048 144.568 213.728C143.65 213.893 142.708 213.935 141.779 213.929Z" fill="#A0ACC6"/>
<path d="M146.009 219.212C146.009 220.279 145.145 221.143 144.081 221.143C143.013 221.143 142.152 220.279 142.152 219.212C142.152 218.144 143.013 217.28 144.081 217.28C145.145 217.28 146.009 218.144 146.009 219.212Z" fill="white"/>
<path d="M143.788 220.04H138.813C138.356 220.04 137.985 219.669 137.985 219.211C137.985 218.751 138.356 218.38 138.813 218.38H143.788C144.248 218.38 144.619 218.751 144.619 219.211C144.619 219.669 144.248 220.04 143.788 220.04Z" fill="#B6BFD2"/>
<path d="M141.779 219.69C140.798 219.681 138.658 219.791 138.442 218.467C138.17 218.607 137.985 218.885 137.985 219.211C137.985 219.669 138.356 220.039 138.813 220.039H143.788C144.146 220.039 144.454 219.812 144.568 219.489C143.65 219.654 142.708 219.696 141.779 219.69Z" fill="#A0ACC6"/>
<path d="M146.009 224.972C146.009 226.04 145.145 226.904 144.081 226.904C143.013 226.904 142.152 226.04 142.152 224.972C142.152 223.905 143.013 223.041 144.081 223.041C145.145 223.041 146.009 223.905 146.009 224.972Z" fill="white"/>
<path d="M143.788 225.803H138.813C138.356 225.803 137.985 225.43 137.985 224.972C137.985 224.515 138.356 224.144 138.813 224.144H143.788C144.248 224.144 144.619 224.515 144.619 224.972C144.619 225.43 144.248 225.803 143.788 225.803Z" fill="#B6BFD2"/>
<path d="M141.779 225.451C140.798 225.442 138.658 225.552 138.442 224.231C138.17 224.368 137.985 224.647 137.985 224.972C137.985 225.43 138.356 225.803 138.813 225.803H143.788C144.146 225.803 144.454 225.573 144.568 225.25C143.65 225.415 142.708 225.457 141.779 225.451Z" fill="#A0ACC6"/>
<path d="M146.009 230.733C146.009 231.8 145.145 232.664 144.081 232.664C143.013 232.664 142.152 231.8 142.152 230.733C142.152 229.666 143.013 228.802 144.081 228.802C145.145 228.802 146.009 229.666 146.009 230.733Z" fill="white"/>
<path d="M143.788 231.564H138.813C138.356 231.564 137.985 231.191 137.985 230.733C137.985 230.276 138.356 229.905 138.813 229.905H143.788C144.248 229.905 144.619 230.276 144.619 230.733C144.619 231.191 144.248 231.564 143.788 231.564Z" fill="#B6BFD2"/>
<path d="M141.779 231.211C140.798 231.205 138.658 231.313 138.442 229.992C138.17 230.129 137.985 230.41 137.985 230.733C137.985 231.191 138.356 231.564 138.813 231.564H143.788C144.146 231.564 144.454 231.334 144.568 231.011C143.65 231.179 142.708 231.217 141.779 231.211Z" fill="#A0ACC6"/>
<path d="M146.009 236.497C146.009 237.562 145.145 238.429 144.081 238.429C143.013 238.429 142.152 237.562 142.152 236.497C142.152 235.43 143.013 234.563 144.081 234.563C145.145 234.563 146.009 235.43 146.009 236.497Z" fill="white"/>
<path d="M143.788 237.325H138.813C138.356 237.325 137.985 236.955 137.985 236.497C137.985 236.037 138.356 235.663 138.813 235.663H143.788C144.248 235.663 144.619 236.037 144.619 236.497C144.619 236.955 144.248 237.325 143.788 237.325Z" fill="#B6BFD2"/>
<path d="M141.779 236.976C140.798 236.967 138.658 237.077 138.442 235.753C138.17 235.89 137.985 236.171 137.985 236.497C137.985 236.955 138.356 237.325 138.813 237.325H143.788C144.146 237.325 144.454 237.095 144.568 236.772C143.65 236.94 142.708 236.982 141.779 236.976Z" fill="#A0ACC6"/>
<path d="M146.009 242.258C146.009 243.322 145.145 244.189 144.081 244.189C143.013 244.189 142.152 243.322 142.152 242.258C142.152 241.191 143.013 240.324 144.081 240.324C145.145 240.324 146.009 241.191 146.009 242.258Z" fill="white"/>
<path d="M143.788 243.089H138.813C138.356 243.089 137.985 242.715 137.985 242.258C137.985 241.798 138.356 241.424 138.813 241.424H143.788C144.248 241.424 144.619 241.798 144.619 242.258C144.619 242.715 144.248 243.089 143.788 243.089Z" fill="#B6BFD2"/>
<path d="M141.779 242.736C140.798 242.727 138.658 242.838 138.442 241.517C138.17 241.651 137.985 241.932 137.985 242.258C137.985 242.715 138.356 243.089 138.813 243.089H143.788C144.146 243.089 144.454 242.856 144.568 242.536C143.65 242.7 142.708 242.742 141.779 242.736Z" fill="#A0ACC6"/>
<path d="M146.009 248.019C146.009 249.086 145.145 249.95 144.081 249.95C143.013 249.95 142.152 249.086 142.152 248.019C142.152 246.952 143.013 246.085 144.081 246.085C145.145 246.085 146.009 246.952 146.009 248.019Z" fill="white"/>
<path d="M143.788 248.85H138.813C138.356 248.85 137.985 248.479 137.985 248.019C137.985 247.562 138.356 247.188 138.813 247.188H143.788C144.248 247.188 144.619 247.562 144.619 248.019C144.619 248.479 144.248 248.85 143.788 248.85Z" fill="#B6BFD2"/>
<path d="M141.779 248.498C140.798 248.489 138.658 248.599 138.442 247.278C138.17 247.412 137.985 247.693 137.985 248.019C137.985 248.48 138.356 248.85 138.813 248.85H143.788C144.146 248.85 144.454 248.62 144.568 248.297C143.65 248.465 142.708 248.504 141.779 248.498Z" fill="#A0ACC6"/>
<path d="M146.009 253.78C146.009 254.847 145.145 255.711 144.081 255.711C143.013 255.711 142.152 254.847 142.152 253.78C142.152 252.713 143.013 251.849 144.081 251.849C145.145 251.849 146.009 252.713 146.009 253.78Z" fill="white"/>
<path d="M143.788 254.611H138.813C138.356 254.611 137.985 254.24 137.985 253.78C137.985 253.322 138.356 252.949 138.813 252.949H143.788C144.248 252.949 144.619 253.322 144.619 253.78C144.619 254.24 144.248 254.611 143.788 254.611Z" fill="#B6BFD2"/>
<path d="M141.779 254.258C140.798 254.252 138.658 254.363 138.442 253.039C138.17 253.173 137.985 253.457 137.985 253.78C137.985 254.24 138.356 254.611 138.813 254.611H143.788C144.146 254.611 144.454 254.381 144.568 254.061C143.65 254.222 142.708 254.264 141.779 254.258Z" fill="#A0ACC6"/>
<path d="M146.009 259.541C146.009 260.611 145.145 261.472 144.081 261.472C143.013 261.472 142.152 260.611 142.152 259.541C142.152 258.473 143.013 257.609 144.081 257.609C145.145 257.609 146.009 258.473 146.009 259.541Z" fill="white"/>
<path d="M143.788 260.372H138.813C138.356 260.372 137.985 260.001 137.985 259.541C137.985 259.084 138.356 258.71 138.813 258.71H143.788C144.248 258.71 144.619 259.084 144.619 259.541C144.619 260.001 144.248 260.372 143.788 260.372Z" fill="#B6BFD2"/>
<path d="M141.779 260.019C140.798 260.013 138.658 260.124 138.442 258.799C138.17 258.937 137.985 259.218 137.985 259.541C137.985 260.001 138.356 260.372 138.813 260.372H143.788C144.146 260.372 144.454 260.142 144.568 259.822C143.65 259.986 142.708 260.025 141.779 260.019Z" fill="#A0ACC6"/>
<path d="M146.009 265.305C146.009 266.372 145.145 267.236 144.081 267.236C143.013 267.236 142.152 266.372 142.152 265.305C142.152 264.238 143.013 263.374 144.081 263.374C145.145 263.374 146.009 264.238 146.009 265.305Z" fill="white"/>
<path d="M143.788 266.136H138.813C138.356 266.136 137.985 265.762 137.985 265.305C137.985 264.844 138.356 264.474 138.813 264.474H143.788C144.248 264.474 144.619 264.844 144.619 265.305C144.619 265.762 144.248 266.136 143.788 266.136Z" fill="#B6BFD2"/>
<path d="M141.779 265.78C140.798 265.774 138.658 265.885 138.442 264.561C138.17 264.698 137.985 264.979 137.985 265.305C137.985 265.762 138.356 266.136 138.813 266.136H143.788C144.146 266.136 144.454 265.903 144.568 265.583C143.65 265.747 142.708 265.789 141.779 265.78Z" fill="#A0ACC6"/>
<path d="M146.009 271.066C146.009 272.133 145.145 272.997 144.081 272.997C143.013 272.997 142.152 272.133 142.152 271.066C142.152 269.998 143.013 269.134 144.081 269.134C145.145 269.134 146.009 269.998 146.009 271.066Z" fill="white"/>
<path d="M143.788 271.897H138.813C138.356 271.897 137.985 271.523 137.985 271.065C137.985 270.605 138.356 270.234 138.813 270.234H143.788C144.248 270.234 144.619 270.605 144.619 271.065C144.619 271.523 144.248 271.897 143.788 271.897Z" fill="#B6BFD2"/>
<path d="M141.779 271.544C140.798 271.535 138.658 271.646 138.442 270.324C138.17 270.462 137.985 270.74 137.985 271.066C137.985 271.523 138.356 271.897 138.813 271.897H143.788C144.146 271.897 144.454 271.667 144.568 271.344C143.65 271.511 142.708 271.55 141.779 271.544Z" fill="#A0ACC6"/>
<path d="M146.009 276.827C146.009 277.894 145.145 278.761 144.081 278.761C143.013 278.761 142.152 277.894 142.152 276.827C142.152 275.762 143.013 274.896 144.081 274.896C145.145 274.896 146.009 275.762 146.009 276.827Z" fill="white"/>
<path d="M143.788 277.658H138.813C138.356 277.658 137.985 277.284 137.985 276.827C137.985 276.369 138.356 275.996 138.813 275.996H143.788C144.248 275.996 144.619 276.369 144.619 276.827C144.619 277.284 144.248 277.658 143.788 277.658Z" fill="#B6BFD2"/>
<path d="M141.779 277.305C140.798 277.299 138.658 277.407 138.442 276.085C138.17 276.223 137.985 276.501 137.985 276.827C137.985 277.284 138.356 277.658 138.813 277.658H143.788C144.146 277.658 144.454 277.425 144.568 277.105C143.65 277.272 142.708 277.311 141.779 277.305Z" fill="#A0ACC6"/>
<path d="M146.009 282.588C146.009 283.655 145.145 284.522 144.081 284.522C143.013 284.522 142.152 283.655 142.152 282.588C142.152 281.523 143.013 280.656 144.081 280.656C145.145 280.656 146.009 281.523 146.009 282.588Z" fill="white"/>
<path d="M143.788 283.419H138.813C138.356 283.419 137.985 283.048 137.985 282.587C137.985 282.13 138.356 281.756 138.813 281.756H143.788C144.248 281.756 144.619 282.13 144.619 282.587C144.619 283.048 144.248 283.419 143.788 283.419Z" fill="#B6BFD2"/>
<path d="M141.779 283.069C140.798 283.06 138.658 283.171 138.442 281.846C138.17 281.984 137.985 282.262 137.985 282.588C137.985 283.048 138.356 283.419 138.813 283.419H143.788C144.146 283.419 144.454 283.192 144.568 282.869C143.65 283.033 142.708 283.075 141.779 283.069Z" fill="#A0ACC6"/>
<path d="M219.579 286.154C216.605 286.991 213.538 285.167 212.844 282.151L198.724 220.679L203.4 219.364L223.254 279.227C224.228 282.163 222.557 285.32 219.579 286.154Z" fill="#8FA3BE"/>
<path d="M223.254 279.227L203.4 219.364L198.724 220.679L200.862 229.995C201.017 230.108 201.17 230.222 201.325 230.339C201.881 230.754 202.416 231.203 202.927 231.669C205.113 233.648 206.904 236.085 208.276 238.688C209.75 241.481 210.955 244.431 212.064 247.385C213.185 250.369 214.177 253.403 215.122 256.45C216.082 259.532 216.996 262.626 217.944 265.711C218.847 268.644 219.872 271.574 220.354 274.614C220.778 277.302 220.955 280.3 219.819 282.842C219.361 283.873 218.629 284.773 217.699 285.413C217.292 285.694 216.841 285.909 216.372 286.067C217.37 286.408 218.482 286.462 219.579 286.154C222.557 285.32 224.228 282.163 223.254 279.227Z" fill="#7995B9"/>
<path d="M219.284 201.37C222.65 213.394 215.649 225.875 203.645 229.248C191.642 232.62 179.182 225.606 175.812 213.582C172.446 201.558 179.451 189.08 191.451 185.707C203.457 182.335 215.918 189.346 219.284 201.37Z" fill="#637497"/>
<path d="M217.834 201.776C220.976 212.999 214.444 224.646 203.239 227.794C192.034 230.939 180.407 224.395 177.262 213.175C174.12 201.955 180.655 190.305 191.857 187.16C203.062 184.012 214.692 190.556 217.834 201.776Z" fill="#C5D1E4"/>
<path d="M217.472 213.376C216.145 216.542 213.968 219.28 211.28 221.394C208.659 223.457 205.457 224.913 202.165 225.46C199.101 225.965 195.953 225.735 192.99 224.787C190.048 223.845 187.337 222.27 185.026 220.219C182.772 218.219 180.891 215.735 179.651 212.981C178.353 210.102 177.728 207.008 177.866 203.848C178.006 200.697 178.972 197.624 180.604 194.933C176.876 199.988 175.438 206.655 177.262 213.176C180.404 224.395 192.034 230.94 203.239 227.795C211.412 225.499 217.104 218.673 218.36 210.793C218.118 211.669 217.825 212.533 217.472 213.376Z" fill="#A6BDE0"/>
<path d="M212.596 203.247C214.928 211.573 210.079 220.213 201.771 222.548C193.46 224.882 184.832 220.027 182.5 211.704C180.168 203.381 185.017 194.738 193.328 192.404C201.639 190.069 210.267 194.924 212.596 203.247Z" fill="#8A9CCF"/>
<path d="M200.333 218.377C200.312 218.204 200.258 218.03 200.201 217.863C199.526 215.887 198.381 214.153 197.379 212.338C195.681 209.25 194.536 205.193 194.53 201.645C194.527 200.308 194.841 198.879 194.479 197.564C194.031 195.937 191.992 196.018 190.689 196.365C189.146 196.772 187.881 197.806 186.925 199.056C184.987 201.582 183.941 205.112 184.123 208.29C184.345 212.132 186.452 215.803 189.568 218.027C191.083 219.113 192.853 219.854 194.713 220.06C196.022 220.204 199.352 220.228 200.204 218.96C200.279 218.847 200.327 218.715 200.339 218.575L200.333 218.377Z" fill="#A3BAE5"/>
<path d="M218.784 265.75L213.29 249.176L205.756 251.292L209.666 268.312L218.784 265.75Z" fill="#FAB7C1"/>
<path d="M205.938 251.639L205.983 251.69C206.124 251.798 206.312 251.884 206.458 251.962C206.548 252.013 206.644 252.061 206.739 252.106C206.781 252.124 207 252.198 206.775 252.121L206.913 252.171C207.14 252.252 207.37 252.315 207.609 252.363C208.435 252.524 209.245 252.641 210.046 252.925C210.826 253.197 211.577 253.547 212.27 253.995C213.714 254.931 214.889 256.192 215.846 257.621C216.025 257.89 216.198 258.165 216.363 258.446L213.29 249.176L205.756 251.292L205.813 251.538L205.938 251.639Z" fill="#F89FB7"/>
<path d="M206.384 195.839C206.201 195.704 206.013 195.564 205.804 195.483C205.576 195.396 205.28 195.456 205.164 195.686C205.107 195.8 205.11 195.932 205.137 196.063C205.089 196.234 205.089 196.425 205.137 196.595C205.254 197.008 205.624 197.271 205.98 197.468C206.18 197.579 206.387 197.684 206.587 197.794C206.796 197.905 207.038 198.081 207.283 197.991C207.556 197.887 207.654 197.582 207.582 197.319C207.52 197.11 207.385 196.915 207.26 196.739C207.014 196.395 206.721 196.09 206.384 195.839Z" fill="#F6FCFE"/>
<path d="M207.012 198.759L206.955 198.718L206.943 198.709L206.88 198.682L206.862 198.679L206.772 198.676L206.683 198.706L206.635 198.745L206.578 198.846L206.554 198.999L206.566 199.091L206.575 199.163L206.608 199.229L206.65 199.283L206.662 199.295L206.692 199.33L206.728 199.363L206.814 199.423L206.898 199.45L206.994 199.444L207.131 199.333L207.152 199.157L207.116 199.082L207.122 199.014L207.11 198.933L207.104 198.906L207.012 198.759Z" fill="#F6FCFE"/>
<path d="M208.817 199.008L208.748 198.945L208.694 198.924H208.572L208.515 198.948L208.428 199.038L208.398 199.095L208.375 199.178L208.378 199.271L208.422 199.352L208.488 199.412L208.545 199.433H208.665L208.721 199.409L208.805 199.322L208.838 199.265L208.865 199.178L208.859 199.086L208.817 199.008Z" fill="#F6FCFE"/>
<path d="M208.183 200.837C208.064 200.87 207.983 201.005 208.022 201.124C208.061 201.244 208.183 201.322 208.309 201.289C208.426 201.256 208.509 201.118 208.47 200.999C208.432 200.879 208.309 200.802 208.183 200.837Z" fill="#F6FCFE"/>
<path d="M184.267 201.104C184.105 201.083 183.989 201.199 183.884 201.304C183.732 201.45 183.6 201.621 183.49 201.8L183.421 201.917L183.367 201.982C183.265 202.186 183.188 202.401 183.143 202.625C183.095 202.873 183.047 203.181 183.244 203.385C183.415 203.555 183.693 203.552 183.887 203.426C184.085 203.298 184.171 203.071 184.225 202.852C184.285 202.607 184.345 202.365 184.404 202.12C184.431 202 184.461 201.878 184.491 201.758C184.518 201.648 184.557 201.534 184.545 201.423C184.527 201.262 184.437 201.124 184.267 201.104Z" fill="#F6FCFE"/>
<path d="M185.214 205.193C185.095 205.226 185.014 205.364 185.053 205.48C185.092 205.603 185.214 205.681 185.34 205.645C185.456 205.612 185.54 205.477 185.501 205.355C185.462 205.235 185.34 205.157 185.214 205.193Z" fill="#F6FCFE"/>
<path d="M183.878 204.323L183.791 204.299L183.699 204.305L183.642 204.326L183.558 204.413L183.534 204.47L183.537 204.592L183.549 204.637L183.594 204.718L183.663 204.778L183.743 204.805L183.839 204.799L183.896 204.775L183.977 204.688L184.001 204.634L183.998 204.512L183.986 204.467L183.941 204.386L183.878 204.323Z" fill="#F6FCFE"/>
<path d="M185.46 203.468C185.343 203.501 185.259 203.636 185.298 203.755C185.337 203.878 185.46 203.953 185.585 203.917C185.705 203.884 185.786 203.749 185.747 203.63C185.708 203.51 185.585 203.432 185.46 203.468Z" fill="#F6FCFE"/>
<path d="M206.991 216.975L206.865 216.832C206.743 216.763 206.602 216.799 206.489 216.862C206.291 216.966 206.1 217.083 205.906 217.196C205.598 217.376 205.284 217.579 205.054 217.857C204.802 218.162 204.608 218.611 204.775 219.005C204.874 219.226 205.071 219.361 205.317 219.382C205.514 219.394 205.714 219.319 205.891 219.232C206.285 219.038 206.65 218.757 206.949 218.434C207.098 218.276 207.224 218.099 207.293 217.89C207.364 217.684 207.347 217.457 207.254 217.262C207.197 217.14 207.104 217.038 206.991 216.975Z" fill="#F6FCFE"/>
<path d="M208.085 217.34C207.965 217.376 207.885 217.51 207.923 217.63C207.962 217.749 208.085 217.827 208.21 217.791C208.327 217.758 208.408 217.624 208.372 217.504C208.333 217.382 208.21 217.307 208.085 217.34Z" fill="#F6FCFE"/>
<path d="M206.966 215.268C206.85 215.301 206.766 215.435 206.805 215.558C206.844 215.675 206.966 215.752 207.092 215.716C207.209 215.684 207.292 215.549 207.253 215.43C207.215 215.31 207.092 215.232 206.966 215.268Z" fill="#F6FCFE"/>
<path d="M204.692 215.66C204.811 215.627 204.895 215.492 204.856 215.373C204.814 215.25 204.692 215.176 204.569 215.208C204.449 215.244 204.366 215.379 204.405 215.498C204.446 215.618 204.569 215.696 204.692 215.66Z" fill="#F6FCFE"/>
<path d="M208.563 212.625C208.446 212.658 208.363 212.793 208.404 212.912C208.443 213.032 208.563 213.11 208.691 213.077C208.808 213.041 208.892 212.906 208.853 212.787C208.811 212.667 208.691 212.593 208.563 212.625Z" fill="#F6FCFE"/>
<path d="M189.878 215.507L189.824 215.486H189.702L189.645 215.513L189.561 215.597L189.528 215.654L189.501 215.74L189.507 215.833L189.552 215.914L189.618 215.971L189.672 215.995H189.794L189.854 215.968L189.935 215.884L189.968 215.827L189.995 215.74L189.989 215.648L189.944 215.567L189.878 215.507Z" fill="#F6FCFE"/>
</svg>
