<?xml version="1.0" encoding="UTF-8"?>
<svg xmlns="http://www.w3.org/2000/svg" xmlns:xlink="http://www.w3.org/1999/xlink" width="375pt" height="374.999991pt" viewBox="0 0 375 374.999991" version="1.2">
<g id="surface1">
<path style=" stroke:none;fill-rule:nonzero;fill:rgb(3.138733%,40.779114%,67.449951%);fill-opacity:1;" d="M 82.03125 60.757812 C 60.609375 92.089844 63.277344 132.855469 79.597656 166.113281 L 80.800781 168.484375 L 81.609375 169.980469 C 81.761719 170.273438 81.933594 170.5625 82.089844 170.84375 C 82.375 171.371094 82.65625 171.878906 82.898438 172.398438 L 84.460938 175.125 L 85.355469 176.625 L 87.167969 179.507812 L 87.976562 180.722656 C 88.789062 182.019531 89.703125 183.308594 90.605469 184.582031 C 90.625 184.613281 90.652344 184.652344 90.679688 184.683594 C 90.820312 184.886719 90.976562 185.089844 91.082031 185.292969 C 91.863281 186.386719 92.707031 187.464844 93.515625 188.53125 L 94.417969 189.699219 L 96.625 192.464844 L 97.46875 193.492188 C 98.476562 194.707031 99.503906 195.898438 100.550781 197.074219 L 100.617188 197.140625 C 100.65625 197.191406 100.699219 197.222656 100.738281 197.273438 C 101.753906 198.417969 102.796875 199.539062 103.867188 200.636719 L 104.875 201.667969 L 107.375 204.164062 L 108.398438 205.152344 C 109.523438 206.226562 110.664062 207.285156 111.824219 208.324219 L 112.472656 208.890625 L 115.582031 211.566406 L 116.875 212.609375 L 119.46875 214.636719 L 120.855469 215.710938 L 124.820312 218.609375 C 124.921875 218.675781 125.011719 218.75 125.113281 218.820312 C 126.046875 219.46875 126.992188 220.09375 127.9375 220.722656 L 129.164062 221.554688 L 133.59375 224.308594 L 134.816406 225.011719 L 138.140625 226.90625 C 138.75 227.238281 139.371094 227.554688 139.980469 227.871094 L 142.355469 229.085938 L 142.902344 229.355469 L 143.875 229.832031 L 147.648438 231.609375 L 148.445312 232.011719 C 149.898438 232.660156 151.363281 233.277344 152.839844 233.871094 L 153.910156 234.300781 L 158.058594 235.867188 L 158.578125 236.054688 C 160.109375 236.59375 161.652344 237.105469 163.203125 237.59375 L 164.316406 237.933594 C 165.9375 238.417969 167.460938 239 169.089844 239.3125 C 272.6875 258.582031 302.789062 175.992188 302.789062 175.992188 C 277.511719 209.503906 232.652344 218.335938 190.148438 208.503906 C 188.539062 208.097656 186.976562 207.621094 185.402344 207.148438 L 184.21875 206.742188 C 182.6875 206.265625 181.160156 205.757812 179.652344 205.230469 L 179.023438 205 C 177.675781 204.515625 176.332031 204.007812 174.996094 203.480469 L 173.863281 203.027344 C 172.402344 202.441406 170.953125 201.828125 169.515625 201.1875 L 168.648438 200.800781 L 164.980469 199.054688 L 163.925781 198.539062 C 162.976562 198.058594 162.027344 197.570312 161.089844 197.066406 L 159.195312 196.054688 C 158.050781 195.425781 156.917969 194.78125 155.796875 194.113281 L 154.648438 193.464844 C 153.15625 192.574219 151.679688 191.640625 150.222656 190.710938 C 149.816406 190.445312 149.425781 190.167969 149.027344 189.898438 L 145.875 187.765625 L 144.859375 187.039062 L 141.878906 184.851562 L 140.558594 183.835938 L 137.871094 181.695312 L 136.667969 180.722656 L 133.324219 177.886719 C 133.210938 177.785156 133.082031 177.683594 132.917969 177.574219 C 131.726562 176.511719 130.554688 175.417969 129.398438 174.316406 L 128.410156 173.34375 L 125.878906 170.824219 L 124.890625 169.8125 C 123.835938 168.71875 122.800781 167.605469 121.789062 166.472656 C 121.738281 166.417969 121.683594 166.363281 121.632812 166.3125 C 120.5625 165.113281 119.511719 163.898438 118.488281 162.664062 L 117.664062 161.667969 L 115.394531 158.820312 L 114.5625 157.765625 L 111.945312 154.21875 C 88.347656 121.457031 79.910156 76.277344 98.726562 39.167969 M 148.535156 34.351562 C 133.042969 57.042969 133.882812 87.410156 145.96875 111.40625 C 147.992188 115.441406 150.277344 119.324219 152.820312 123.050781 C 155.140625 126.433594 157.714844 130.464844 160.796875 133.179688 C 161.914062 134.394531 163.082031 135.613281 164.273438 136.851562 C 164.574219 137.164062 164.878906 137.460938 165.1875 137.773438 C 166.347656 138.917969 167.53125 140.039062 168.742188 141.128906 C 168.789062 141.171875 168.835938 141.21875 168.886719 141.261719 C 170.25 142.472656 171.644531 143.644531 173.066406 144.785156 L 174.007812 145.53125 C 175.425781 146.644531 176.871094 147.71875 178.347656 148.757812 C 178.386719 148.789062 178.425781 148.820312 178.46875 148.851562 C 179.117188 149.308594 179.785156 149.742188 180.449219 150.179688 C 180.765625 150.390625 181.0625 150.613281 181.378906 150.8125 C 182.4375 151.503906 183.511719 152.171875 184.597656 152.816406 L 185.050781 153.085938 L 187.890625 154.707031 C 188.222656 154.894531 188.5625 155.0625 188.902344 155.242188 L 190.929688 156.285156 C 191.03125 156.339844 191.132812 156.378906 191.230469 156.425781 C 192.597656 157.117188 193.972656 157.765625 195.378906 158.394531 C 195.679688 158.527344 195.988281 158.648438 196.292969 158.777344 C 197.417969 159.265625 198.554688 159.734375 199.699219 160.183594 L 201.160156 160.726562 C 202.195312 161.113281 203.238281 161.480469 204.285156 161.832031 L 205.695312 162.292969 C 207.183594 162.765625 208.65625 163.355469 210.207031 163.621094 C 290.191406 177.105469 308.664062 114.425781 308.664062 114.425781 C 292.019531 138.820312 259.785156 150.46875 225.382812 141.382812 C 223.859375 140.976562 222.347656 140.53125 220.851562 140.042969 C 220.394531 139.902344 219.945312 139.753906 219.488281 139.640625 C 218.425781 139.289062 217.371094 138.917969 216.324219 138.527344 L 214.890625 137.984375 C 213.742188 137.582031 212.609375 137.074219 211.484375 136.589844 C 211.175781 136.453125 210.867188 136.332031 210.566406 136.191406 C 209.152344 135.574219 207.761719 134.917969 206.386719 134.21875 C 205.683594 133.867188 204.988281 133.496094 204.296875 133.132812 L 203.085938 132.5 C 202.195312 132.007812 201.3125 131.503906 200.4375 130.980469 L 199.804688 130.574219 C 198.726562 129.929688 197.660156 129.265625 196.601562 128.582031 C 196.277344 128.371094 195.960938 128.175781 195.636719 127.925781 L 193.5625 126.527344 C 192.09375 125.488281 190.652344 124.417969 189.238281 123.308594 L 188.265625 122.53125 C 173.210938 110.429688 161.273438 93.898438 155.597656 75.148438 C 149.648438 55.699219 150.933594 33.878906 161.277344 16.167969 M 204.453125 14.625 C 195.320312 28.304688 194.425781 45.292969 200.804688 60.398438 C 207.488281 76.433594 221.179688 89.015625 237.160156 94.976562 C 237.816406 95.226562 238.480469 95.449219 239.1875 95.675781 L 240.066406 95.960938 C 241.003906 96.261719 241.941406 96.609375 242.910156 96.796875 C 287.078125 105.480469 299.058594 73.730469 302.246094 69.058594 C 291.75 84.4375 274.113281 88.128906 252.476562 82.785156 C 250.773438 82.359375 248.886719 81.730469 247.207031 81.136719 C 245.085938 80.371094 243.015625 79.496094 240.988281 78.507812 C 237.128906 76.617188 233.496094 74.359375 230.089844 71.738281 C 210.6875 56.785156 198.65625 28.265625 211.289062 5.039062 "/>
<path style=" stroke:none;fill-rule:nonzero;fill:rgb(7.449341%,10.5896%,15.689087%);fill-opacity:1;" d="M 106.914062 305.019531 L 103.921875 315.621094 L 106.914062 305.023438 Z M 122.308594 328.027344 L 119.011719 328.007812 Z M 121.496094 343.855469 L 101.738281 343.929688 Z M 125.632812 328.054688 L 122.332031 328.03125 Z M 123.273438 342.511719 L 126.71875 329.394531 Z M 195.980469 282.105469 L 189.570312 312.226562 Z M 179.496094 282.105469 L 174.628906 304.605469 Z M 179.496094 282.105469 "/>
<path style=" stroke:none;fill-rule:nonzero;fill:rgb(7.449341%,10.5896%,15.689087%);fill-opacity:1;" d="M 194.84375 280.75 L 181.136719 280.75 C 180.375 280.75 179.621094 281.355469 179.457031 282.101562 L 169.726562 327.109375 C 169.5625 327.851562 168.808594 328.457031 168.050781 328.457031 L 158.347656 328.457031 C 148.746094 328.457031 149.855469 321.824219 151.859375 312.734375 L 151.921875 312.460938 L 153.085938 306.261719 L 153.585938 303.707031 L 158.015625 282.101562 C 158.167969 281.355469 157.671875 280.742188 156.910156 280.742188 L 142.835938 280.742188 C 142.4375 280.757812 142.085938 280.890625 141.773438 281.140625 C 141.464844 281.390625 141.261719 281.710938 141.167969 282.097656 L 134.828125 312.140625 C 131.339844 328.039062 132.265625 343.203125 151.210938 343.679688 L 151.757812 343.691406 L 181.488281 343.691406 C 182.253906 343.691406 183.003906 343.082031 183.164062 342.335938 L 195.988281 282.097656 C 196.148438 281.351562 195.648438 280.742188 194.890625 280.742188 Z M 249.535156 328.617188 C 250.296875 328.617188 250.75 329.222656 250.640625 329.96875 L 249.308594 336.472656 M 247.980469 342.980469 L 249.308594 336.472656 Z M 246.308594 344.351562 L 221.046875 344.472656 Z M 246.308594 344.351562 "/>
<path style=" stroke:none;fill-rule:nonzero;fill:rgb(7.449341%,10.5896%,15.689087%);fill-opacity:1;" d="M 212.863281 320.246094 C 212.851562 319.53125 213.664062 318.308594 214.425781 318.308594 L 212.714844 318.28125 C 211.902344 326.035156 212.863281 320.246094 212.863281 320.246094 Z M 222.296875 344.46875 L 222.03125 344.46875 Z M 249.535156 328.617188 C 250.296875 328.617188 250.75 329.222656 250.640625 329.96875 L 249.089844 337.53125 M 228.785156 344.488281 L 228.726562 344.488281 Z M 225.417969 344.464844 L 225.222656 344.464844 Z M 224.390625 344.46875 L 224.066406 344.46875 Z M 223.390625 344.46875 L 223.105469 344.46875 Z M 225.265625 344.464844 L 224.433594 344.464844 Z M 225.265625 344.464844 "/>
<path style=" stroke:none;fill-rule:nonzero;fill:rgb(7.449341%,10.5896%,15.689087%);fill-opacity:1;" d="M 228.730469 344.488281 L 225.421875 344.5 Z M 246.316406 344.386719 L 228.78125 344.492188 Z M 247.941406 342.980469 L 249.054688 337.535156 L 247.941406 342.984375 Z M 224.03125 344.46875 L 223.390625 344.46875 L 224.113281 344.46875 Z M 222.023438 344.46875 L 221.050781 344.46875 Z M 223.066406 344.46875 L 222.253906 344.46875 Z M 22.503906 320.40625 L 24.632812 310.972656 L 22.199219 321.753906 L 21.917969 323.105469 L 22.507812 320.398438 Z M 47.996094 280.59375 L 32.9375 280.59375 C 32.539062 280.609375 32.183594 280.742188 31.871094 280.992188 C 31.558594 281.242188 31.351562 281.558594 31.246094 281.945312 L 28.394531 294.503906 C 28.34375 294.671875 28.335938 294.835938 28.371094 295.007812 C 28.402344 295.175781 28.472656 295.328125 28.582031 295.460938 C 28.6875 295.59375 28.820312 295.695312 28.976562 295.765625 C 29.136719 295.835938 29.300781 295.867188 29.472656 295.855469 L 44.644531 295.855469 C 45.40625 295.855469 46.160156 295.246094 46.324219 294.503906 L 49.082031 281.914062 C 49.242188 281.171875 48.757812 280.566406 47.988281 280.566406 Z M 44.71875 301.535156 L 40.257812 321.949219 Z M 0.980469 369.1875 L 13.398438 369.285156 C 9.730469 369.285156 3.675781 369.214844 0.976562 369.183594 Z M 0.980469 369.1875 "/>
<path style=" stroke:none;fill-rule:nonzero;fill:rgb(7.449341%,10.5896%,15.689087%);fill-opacity:1;" d="M 26.722656 301.535156 L 24.589844 310.96875 Z M 43.632812 300.1875 L 28.453125 300.1875 C 28.054688 300.203125 27.699219 300.335938 27.386719 300.582031 C 27.074219 300.832031 26.867188 301.148438 26.761719 301.535156 L 22.503906 320.402344 L 21.914062 323.109375 L 17.859375 342.371094 C 17.65625 343.269531 17.414062 344.15625 17.128906 345.03125 C 17.128906 345.03125 14.289062 353.460938 9.527344 353.367188 L 4.804688 353.277344 C 4.40625 353.289062 4.050781 353.417969 3.738281 353.660156 C 3.421875 353.902344 3.210938 354.214844 3.101562 354.597656 L -0.0429688 367.820312 C -0.0898438 367.984375 -0.101562 368.152344 -0.0703125 368.320312 C -0.0390625 368.488281 0.0273438 368.640625 0.132812 368.777344 C 0.238281 368.910156 0.371094 369.015625 0.527344 369.085938 C 0.683594 369.160156 0.847656 369.191406 1.015625 369.183594 L 13.4375 369.285156 C 25.34375 369.285156 31.617188 362.691406 35.644531 343.726562 L 44.765625 301.585938 C 44.929688 300.84375 44.433594 300.234375 43.671875 300.234375 Z M 259.203125 343.699219 C 258.441406 343.699219 257.988281 343.089844 258.109375 342.34375 L 269.523438 288.914062 M 275.066406 342.339844 L 279.691406 319.535156 Z M 275.066406 342.339844 "/>
<path style=" stroke:none;fill-rule:nonzero;fill:rgb(7.449341%,10.5896%,15.689087%);fill-opacity:1;" d="M 258.277344 343.023438 C 258.183594 342.648438 258.234375 341.738281 258.398438 340.996094 L 263.816406 315.628906 L 258.105469 342.34375 C 257.941406 343.089844 258.4375 343.699219 259.199219 343.699219 L 260.585938 343.699219 C 259.824219 343.699219 258.363281 343.394531 258.277344 343.023438 Z M 274.171875 343.394531 C 273.757812 343.558594 272.792969 343.699219 272.03125 343.699219 L 273.417969 343.699219 C 273.816406 343.683594 274.167969 343.550781 274.476562 343.296875 C 274.785156 343.046875 274.984375 342.726562 275.078125 342.339844 L 275.355469 340.988281 C 275.207031 341.734375 274.542969 343.226562 274.140625 343.394531 Z M 277.375 330.9375 L 279.414062 320.871094 Z M 322.417969 292.492188 L 323.046875 295.085938 C 323.222656 295.828125 322.738281 296.429688 321.980469 296.433594 "/>
<path style=" stroke:none;fill-rule:nonzero;fill:rgb(7.449341%,10.5896%,15.689087%);fill-opacity:1;" d="M 275.34375 340.988281 L 277.371094 330.9375 Z M 321.796875 289.785156 L 322.417969 292.441406 Z M 279.414062 320.871094 L 279.972656 318.183594 L 282.152344 307.992188 L 279.6875 319.53125 L 279.414062 320.867188 Z M 269.710938 288.035156 L 269.238281 290.261719 L 263.820312 315.628906 L 269.527344 288.914062 L 269.710938 288.039062 Z M 269.710938 288.035156 "/>
<path style=" stroke:none;fill-rule:nonzero;fill:rgb(7.449341%,10.5896%,15.689087%);fill-opacity:1;" d="M 323.050781 295.085938 L 322.421875 292.492188 L 321.488281 288.4375 C 320.257812 283.65625 316.640625 280.890625 308.78125 280.890625 L 272.609375 280.867188 C 272.210938 280.878906 271.859375 281.011719 271.546875 281.261719 C 271.238281 281.511719 271.035156 281.832031 270.941406 282.21875 L 270.378906 284.863281 L 269.570312 288.863281 L 258.441406 340.945312 C 258.28125 341.691406 258.226562 342.566406 258.320312 342.972656 C 258.414062 343.378906 259.875 343.648438 260.632812 343.648438 L 272.066406 343.648438 C 272.828125 343.648438 273.789062 343.511719 274.207031 343.347656 C 274.625 343.179688 275.238281 341.726562 275.425781 340.9375 L 279.761719 319.488281 L 284.40625 297.75 C 284.570312 297.007812 285.320312 296.40625 286.078125 296.402344 L 322.058594 296.386719 C 322.816406 296.386719 323.296875 295.777344 323.125 295.035156 Z M 369.371094 271.609375 L 366.601562 271.621094 L 355.085938 271.621094 C 354.191406 271.675781 353.46875 272.058594 352.921875 272.765625 L 327.453125 310.046875 C 327.023438 310.671875 326.535156 310.582031 326.359375 309.84375 L 324.484375 301.628906 C 324.382812 301.242188 324.175781 300.925781 323.863281 300.675781 C 323.550781 300.425781 323.195312 300.296875 322.796875 300.28125 L 306.425781 300.28125 C 305.664062 300.28125 305.207031 300.875 305.417969 301.609375 L 312.71875 327.292969 C 312.929688 328.019531 312.941406 329.222656 312.757812 329.964844 L 309.515625 342.394531 C 309.457031 342.554688 309.445312 342.722656 309.472656 342.890625 C 309.5 343.058594 309.566406 343.210938 309.671875 343.347656 C 309.777344 343.480469 309.910156 343.585938 310.066406 343.652344 C 310.222656 343.722656 310.386719 343.75 310.558594 343.734375 L 326.777344 343.734375 C 327.539062 343.734375 328.316406 343.128906 328.503906 342.398438 L 331.75 329.96875 C 332.003906 329.089844 332.398438 328.273438 332.925781 327.523438 L 374.308594 272.683594 C 374.769531 272.078125 374.519531 271.582031 373.757812 271.589844 L 369.421875 271.617188 Z M 239.300781 303.773438 C 239.207031 304.582031 238.441406 305.191406 237.679688 305.191406 L 216.917969 305.191406 C 216.199219 305.191406 215.835938 304.703125 215.945312 304.097656 L 215.960938 303.988281 L 216.054688 303.636719 C 218.082031 298.367188 222.078125 294.910156 229.664062 294.910156 C 238.207031 294.910156 239.875 299.085938 239.292969 303.773438 Z M 233.210938 279.832031 C 206.570312 279.832031 200.257812 295.992188 196.714844 312.300781 C 193.171875 328.929688 193.480469 344.476562 221.046875 344.476562 L 225.417969 344.476562 L 228.785156 344.464844 L 246.324219 344.359375 C 246.722656 344.339844 247.070312 344.207031 247.375 343.953125 C 247.683594 343.703125 247.882812 343.386719 247.976562 343 L 250.640625 329.984375 C 250.792969 329.242188 250.296875 328.632812 249.535156 328.632812 L 224.75 328.632812 C 214.894531 328.632812 211.964844 326.015625 213.042969 318.320312 L 252.660156 318.320312 C 253.308594 318.308594 253.894531 317.914062 254.128906 317.296875 C 254.167969 317.1875 254.207031 317.070312 254.226562 316.953125 C 260.105469 294.789062 258.417969 279.847656 233.21875 279.847656 Z M 107.289062 303.683594 L 106.914062 305.007812 C 106.914062 305.011719 103.921875 315.609375 103.921875 315.609375 L 100.929688 326.203125 C 100.800781 326.582031 100.578125 326.894531 100.253906 327.140625 C 99.933594 327.382812 99.570312 327.511719 99.167969 327.53125 L 83.332031 327.53125 C 71.320312 327.53125 68.394531 318.140625 71.320312 304.296875 C 74.238281 290.132812 79.976562 281.328125 91.796875 280.4375 C 107.953125 279.21875 111.179688 290.574219 107.289062 303.679688 Z M 118.148438 326.71875 C 118.148438 326.71875 125.609375 308.605469 127.3125 298.140625 C 129.621094 284.132812 122.605469 263.816406 95.5 263.816406 C 68.546875 263.816406 56.84375 283.210938 52.378906 304.339844 C 47.917969 325.574219 53.765625 344.195312 80.558594 344.050781 L 121.460938 343.902344 C 121.859375 343.882812 122.222656 343.75 122.539062 343.503906 C 122.855469 343.253906 123.074219 342.941406 123.191406 342.554688 L 126.636719 329.433594 C 126.695312 329.273438 126.710938 329.109375 126.683594 328.9375 C 126.65625 328.769531 126.589844 328.617188 126.484375 328.484375 C 126.378906 328.347656 126.25 328.246094 126.09375 328.175781 C 125.9375 328.105469 125.773438 328.078125 125.605469 328.089844 L 119.007812 328.050781 C 118.355469 328.046875 117.992188 327.628906 118.066406 327.078125 C 118.082031 326.976562 118.105469 326.875 118.148438 326.769531 Z M 118.148438 326.71875 "/>
<path style=" stroke:none;fill-rule:nonzero;fill:rgb(7.449341%,10.5896%,15.689087%);fill-opacity:1;" d="M 251.574219 314.601562 C 251.574219 315.101562 251.167969 315.507812 250.664062 315.507812 C 250.160156 315.507812 249.757812 315.101562 249.757812 314.601562 C 249.757812 314.097656 250.160156 313.691406 250.664062 313.691406 C 251.167969 313.691406 251.574219 314.097656 251.574219 314.601562 Z M 251.574219 314.601562 "/>
</g>
</svg>
