<svg width="83" height="66" viewBox="0 0 83 66" fill="none" xmlns="http://www.w3.org/2000/svg">
<path d="M80.4375 53.625H49.1829C49.0875 56.1786 47.2867 57.75 44.9625 57.75H37.125C34.7157 57.75 32.8685 55.498 32.9007 53.625H2.0625C0.928125 53.625 0 54.5531 0 55.6875V57.75C0 62.2875 3.7125 66 8.25 66H74.25C78.7875 66 82.5 62.2875 82.5 57.75V55.6875C82.5 54.5531 81.5719 53.625 80.4375 53.625ZM74.25 6.1875C74.25 2.78437 71.4656 0 68.0625 0H14.4375C11.0344 0 8.25 2.78437 8.25 6.1875V49.5H74.25V6.1875ZM66 41.25H16.5V8.25H66V41.25Z" fill="white"/>
</svg>
