<svg width="66" height="66" viewBox="0 0 66 66" fill="none" xmlns="http://www.w3.org/2000/svg">
<path d="M14.1093 31.4566L31.4575 14.111L25.7701 8.42367L17.8192 16.3746C17.7244 16.4696 17.6117 16.545 17.4878 16.5964C17.3638 16.6478 17.2309 16.6743 17.0967 16.6743C16.9624 16.6743 16.8295 16.6478 16.7056 16.5964C16.5816 16.545 16.469 16.4696 16.3741 16.3746L14.9291 14.9296C14.5295 14.53 14.5295 13.8829 14.9291 13.4845L22.88 5.53359L18.5436 1.1959C16.9465 -0.40125 14.3581 -0.40125 12.7609 1.1959L1.19673 12.7601C-0.399133 14.3572 -0.400422 16.9457 1.19673 18.5428L14.1093 31.4566ZM64.1855 16.4004C66.6038 13.9821 66.6025 10.0621 64.1855 7.64379L58.3525 1.81078C55.9342 -0.6075 52.0129 -0.6075 49.5933 1.81078L43.661 7.74176L58.2532 22.3339L64.1855 16.4004ZM40.7439 10.6602L2.45872 48.9402L0.0404373 62.7899C-0.285695 64.6577 1.3411 66.2845 3.21024 65.9558L17.0612 63.5272L55.3361 25.2511L40.7439 10.6602ZM64.8016 47.4539L60.4652 43.1175L52.5143 51.0684C52.1147 51.468 51.4676 51.468 51.0693 51.0684L49.6242 49.6234C49.2259 49.2238 49.2259 48.5767 49.6242 48.1784L57.5752 40.2274L51.8852 34.5375L34.537 51.8831L47.4547 64.7995C49.0519 66.3967 51.6403 66.3967 53.2375 64.7995L64.8016 53.2366C66.3988 51.6395 66.3988 49.0511 64.8016 47.4539Z" fill="white"/>
</svg>
