<?xml version="1.0" encoding="UTF-8"?>
<svg xmlns="http://www.w3.org/2000/svg" xmlns:xlink="http://www.w3.org/1999/xlink" width="375pt" height="374.999991pt" viewBox="0 0 375 374.999991" version="1.2">
<g id="surface1">
<path style=" stroke:none;fill-rule:nonzero;fill:rgb(0%,11.369324%,14.509583%);fill-opacity:1;" d="M 0 31.25 L 0 343.75 C 0 361.015625 13.984375 375 31.25 375 L 343.75 375 C 361.015625 375 375 361.015625 375 343.75 L 375 31.25 C 375 13.984375 361.015625 0 343.75 0 L 31.25 0 C 13.984375 0 0 13.984375 0 31.25 Z M 0 31.25 "/>
<path style=" stroke:none;fill-rule:nonzero;fill:rgb(0%,78.42865%,99.609375%);fill-opacity:1;" d="M 343.75 15.625 C 352.359375 15.625 359.375 22.640625 359.375 31.25 L 359.375 343.75 C 359.375 352.359375 352.359375 359.375 343.75 359.375 L 31.25 359.375 C 22.640625 359.375 15.625 352.359375 15.625 343.75 L 15.625 31.25 C 15.625 22.640625 22.640625 15.625 31.25 15.625 Z M 343.75 0 L 31.25 0 C 14 0 0 13.984375 0 31.25 L 0 343.75 C 0 361.015625 14 375 31.25 375 L 343.75 375 C 361 375 375 361.015625 375 343.75 L 375 31.25 C 375 13.984375 361 0 343.75 0 Z M 343.75 0 "/>
<path style=" stroke:none;fill-rule:nonzero;fill:rgb(0%,78.42865%,99.609375%);fill-opacity:1;" d="M 243.046875 257.84375 C 229.359375 257.84375 217.734375 254.984375 211.015625 251.125 C 210 250.609375 209.765625 249.84375 209.765625 248.546875 L 209.765625 225.625 C 209.765625 224.0625 210.515625 223.546875 211.546875 224.3125 C 221.296875 230.765625 232.671875 233.59375 242.984375 233.59375 C 255.359375 233.59375 260.515625 228.4375 260.515625 221.46875 C 260.515625 215.796875 256.921875 210.890625 241.1875 202.640625 C 219 192.015625 209.71875 181.234375 209.71875 163.15625 C 209.71875 143.046875 225.4375 126.28125 252.765625 126.28125 C 266.203125 126.28125 275.640625 128.34375 280.796875 130.65625 C 282.078125 131.4375 282.359375 132.71875 282.359375 133.75 L 282.359375 155.15625 C 282.359375 156.453125 281.578125 157.234375 280.015625 156.71875 C 273.078125 152.59375 262.828125 150 252.78125 150 L 252.84375 150.0625 C 240.46875 150.0625 236.34375 156.25 236.34375 161.40625 C 236.34375 167.078125 239.15625 170.9375 255.671875 179.453125 C 280.171875 191.328125 287.890625 202.65625 287.890625 219.40625 C 287.890625 244.40625 268.828125 257.84375 243.046875 257.84375 Z M 243.046875 257.84375 "/>
<path style=" stroke:none;fill-rule:nonzero;fill:rgb(0%,78.42865%,99.609375%);fill-opacity:1;" d="M 134.40625 83.03125 C 118.9375 83.03125 104.1875 83.296875 94.125 83.8125 C 92.8125 83.8125 90.625 84.578125 90.625 85.625 L 90.640625 85.625 L 90.640625 253.71875 C 90.640625 255.015625 91.140625 255.484375 92.4375 255.484375 L 116.5625 255.484375 C 117.84375 255.484375 118.359375 254.96875 118.359375 253.671875 L 118.359375 193.640625 C 122.5 193.640625 124.53125 193.90625 130.46875 193.90625 C 165.78125 193.90625 194.5625 176.875 194.5625 137.1875 C 194.5625 106.78125 177.71875 83.03125 134.40625 83.03125 Z M 131.015625 168.875 C 124.8125 168.875 121.96875 168.875 118.375 168.625 L 118.375 108.296875 C 121.21875 108.03125 127.140625 107.78125 133.328125 107.78125 C 154.203125 107.78125 166.484375 117.84375 166.484375 137.6875 C 166.484375 162.4375 149.296875 168.875 131.015625 168.875 Z M 131.015625 168.875 "/>
</g>
</svg>
