<?xml version="1.0" encoding="UTF-8"?>
<svg xmlns="http://www.w3.org/2000/svg" xmlns:xlink="http://www.w3.org/1999/xlink" width="375pt" height="374.999991pt" viewBox="0 0 375 374.999991" version="1.2">
<defs>
<clipPath id="clip1">
  <path d="M 0 87.65625 L 375 87.65625 L 375 286.96875 L 0 286.96875 Z M 0 87.65625 "/>
</clipPath>
</defs>
<g id="surface1">
<path style=" stroke:none;fill-rule:nonzero;fill:rgb(86.268616%,83.529663%,94.898987%);fill-opacity:1;" d="M 187.5 280.742188 C 87.71875 280.742188 6.535156 238.835938 6.535156 187.3125 C 6.535156 135.789062 87.71875 93.882812 187.5 93.882812 C 287.28125 93.882812 368.464844 135.789062 368.464844 187.3125 C 368.464844 238.835938 287.28125 280.742188 187.5 280.742188 Z M 187.5 280.742188 "/>
<g clip-path="url(#clip1)" clip-rule="nonzero">
<path style=" stroke:none;fill-rule:nonzero;fill:rgb(54.508972%,45.878601%,63.139343%);fill-opacity:1;" d="M 187.5 100.113281 C 282.214844 100.113281 362.226562 140.050781 362.226562 187.3125 C 362.226562 234.574219 282.214844 274.511719 187.5 274.511719 C 92.785156 274.511719 12.773438 234.574219 12.773438 187.3125 C 12.773438 140.050781 92.785156 100.113281 187.5 100.113281 M 187.5 87.65625 C 84.113281 87.65625 0.292969 132.277344 0.292969 187.3125 C 0.292969 242.347656 84.113281 286.96875 187.5 286.96875 C 290.886719 286.96875 374.707031 242.347656 374.707031 187.3125 C 374.707031 132.277344 290.886719 87.65625 187.5 87.65625 Z M 187.5 87.65625 "/>
</g>
<path style=" stroke:none;fill-rule:nonzero;fill:rgb(21.179199%,25.099182%,30.198669%);fill-opacity:1;" d="M 117.820312 162.398438 C 125.285156 162.398438 131.75 164.925781 135.09375 169.164062 C 137.492188 172.203125 138.152344 176.078125 137.054688 180.710938 C 133.710938 194.773438 127.792969 199.769531 101.246094 199.769531 L 82.414062 199.769531 L 89.441406 162.398438 L 117.820312 162.398438 M 117.820312 149.941406 L 79.082031 149.941406 L 62.695312 237.140625 L 75.175781 237.140625 L 80.117188 212.226562 L 101.246094 212.226562 C 128.691406 212.226562 143.617188 207.03125 149.199219 183.589844 C 154.003906 163.445312 138.066406 149.941406 117.820312 149.941406 Z M 280.066406 162.398438 C 287.53125 162.398438 293.996094 164.925781 297.339844 169.164062 C 299.738281 172.203125 300.398438 176.078125 299.300781 180.710938 C 295.957031 194.773438 290.039062 199.769531 263.492188 199.769531 L 244.660156 199.769531 L 251.6875 162.398438 L 280.066406 162.398438 M 280.066406 149.941406 L 241.328125 149.941406 L 224.941406 237.140625 L 237.421875 237.140625 L 242.363281 212.226562 L 263.492188 212.226562 C 290.9375 212.226562 305.863281 207.03125 311.445312 183.589844 C 316.25 163.445312 300.3125 149.941406 280.066406 149.941406 Z M 280.066406 149.941406 "/>
<path style=" stroke:none;fill-rule:nonzero;fill:rgb(21.179199%,25.099182%,30.198669%);fill-opacity:1;" d="M 220.597656 155.222656 C 216.492188 151.460938 209.242188 149.941406 198.421875 149.941406 L 175.355469 149.941406 L 180.984375 125.027344 L 168.292969 125.027344 L 150.058594 212.226562 L 162.738281 212.226562 L 173.234375 162.398438 L 198.433594 162.398438 C 209.789062 162.398438 212.085938 164.328125 212.113281 164.328125 C 212.347656 164.703125 212.835938 166.746094 212.011719 170.957031 L 203.574219 212.226562 L 216.628906 212.226562 L 224.242188 173.347656 C 225.878906 165.039062 224.640625 158.933594 220.597656 155.222656 Z M 220.597656 155.222656 "/>
</g>
</svg>
