<?xml version="1.0" encoding="UTF-8"?>
<svg xmlns="http://www.w3.org/2000/svg" xmlns:xlink="http://www.w3.org/1999/xlink" width="375pt" height="374.999991pt" viewBox="0 0 375 374.999991" version="1.2">
<g id="surface1">
<path style=" stroke:none;fill-rule:nonzero;fill:rgb(14.898682%,7.058716%,0%);fill-opacity:1;" d="M 0 31.25 L 0 343.75 C 0 361.015625 13.984375 375 31.25 375 L 343.75 375 C 361.015625 375 375 361.015625 375 343.75 L 375 31.25 C 375 13.984375 361.015625 0 343.75 0 L 31.25 0 C 13.984375 0 0 13.984375 0 31.25 Z M 0 31.25 "/>
<path style=" stroke:none;fill-rule:nonzero;fill:rgb(91.758728%,46.669006%,99.609375%);fill-opacity:1;" d="M 343.75 15.625 C 352.359375 15.625 359.375 22.640625 359.375 31.25 L 359.375 343.75 C 359.375 352.359375 352.359375 359.375 343.75 359.375 L 31.25 359.375 C 22.640625 359.375 15.625 352.359375 15.625 343.75 L 15.625 31.25 C 15.625 22.640625 22.640625 15.625 31.25 15.625 Z M 343.75 0 L 31.25 0 C 14 0 0 13.984375 0 31.25 L 0 343.75 C 0 361.015625 14 375 31.25 375 L 343.75 375 C 361 375 375 361.015625 375 343.75 L 375 31.25 C 375 13.984375 361 0 343.75 0 Z M 343.75 0 "/>
<path style=" stroke:none;fill-rule:nonzero;fill:rgb(91.758728%,46.669006%,99.609375%);fill-opacity:1;" d="M 140.15625 83 C 124.6875 83 110 83.265625 99.953125 83.78125 C 98.65625 83.78125 98.390625 84.5625 98.390625 85.59375 L 98.390625 253.65625 C 98.390625 254.953125 98.90625 255.46875 100.203125 255.46875 L 124.328125 255.46875 C 125.609375 255.46875 126.125 254.953125 126.125 253.65625 L 126.125 193.609375 C 130.25 193.609375 132.3125 193.875 138.25 193.875 C 173.5625 193.875 202.296875 176.84375 202.296875 137.15625 C 202.296875 106.734375 183.46875 83 140.15625 83 Z M 138.765625 168.859375 C 132.578125 168.859375 129.734375 168.859375 126.125 168.609375 L 126.125 108.28125 C 128.96875 108.015625 134.890625 107.765625 141.078125 107.765625 C 161.96875 107.765625 174.1875 117.828125 174.1875 137.671875 C 174.1875 162.421875 157.0625 168.859375 138.765625 168.859375 Z M 138.765625 168.859375 "/>
<path style=" stroke:none;fill-rule:nonzero;fill:rgb(91.758728%,46.669006%,99.609375%);fill-opacity:1;" d="M 285.5 150.5625 C 285.5 151.84375 285.09375 152.109375 283.796875 152.109375 C 282.125 152 280.1875 151.9375 278.21875 151.9375 C 269.90625 151.9375 261.875 153.109375 254.25 155.234375 L 254.25 253.65625 C 254.25 254.953125 253.71875 255.46875 252.4375 255.46875 L 227.90625 255.46875 C 226.625 255.46875 226.109375 254.953125 226.109375 253.65625 L 226.125 154.421875 C 226.125 152.625 226.125 147.984375 225.359375 139.21875 C 225.359375 137.921875 225.53125 137.65625 226.5625 137.15625 C 243.5 130.453125 263.109375 126.484375 283.640625 126.328125 L 283.703125 126.328125 C 284.984375 126.328125 285.5 126.578125 285.5 127.875 Z M 285.5 150.5625 "/>
</g>
</svg>
