<svg width="517" height="519" viewBox="0 0 517 519" fill="none" xmlns="http://www.w3.org/2000/svg">
<path d="M458.137 499.988C458.137 510.387 357.559 518.809 233.492 518.809C109.426 518.809 8.85156 510.387 8.85156 499.988C8.85156 489.586 109.426 481.164 233.492 481.164C357.559 481.164 458.137 489.586 458.137 499.988Z" fill="#495B92"/>
<path d="M503.172 451.824C503.172 455.352 500.32 458.203 496.801 458.203H174.551C171.035 458.203 168.18 455.352 168.18 451.824V232.504C168.18 228.988 171.035 226.133 174.551 226.133H496.801C500.32 226.133 503.172 228.988 503.172 232.504V451.824Z" fill="#1B181D"/>
<path d="M489.562 441.547C489.562 442.699 488.629 443.629 487.48 443.629H183.875C182.723 443.629 181.793 442.699 181.793 441.547V242.789C181.793 241.641 182.723 240.707 183.875 240.707H487.48C488.629 240.707 489.562 241.641 489.562 242.789V441.547Z" fill="white"/>
<path d="M294.125 485.535H377.23V458.203H294.125V485.535Z" fill="#1B181D"/>
<path d="M389.891 499.836H281.465V485.535H389.891V499.836Z" fill="#2A2732"/>
<path d="M196.871 443.758H474.484V256.133H196.871V443.758Z" fill="#15151E"/>
<path d="M213.621 443.758H214.949V256.133H213.621V443.758Z" fill="white"/>
<path d="M196.871 256.055H474.484V240.582H196.871V256.055Z" fill="#333650"/>
<path d="M441.449 248.316C441.449 251.219 439.098 253.574 436.195 253.574C433.297 253.574 430.949 251.219 430.949 248.316C430.949 245.418 433.297 243.066 436.195 243.066C439.098 243.066 441.449 245.418 441.449 248.316Z" fill="#ED3947"/>
<path d="M455.277 248.316C455.277 251.219 452.93 253.574 450.027 253.574C447.129 253.574 444.777 251.219 444.777 248.316C444.777 245.418 447.129 243.066 450.027 243.066C452.93 243.066 455.277 245.418 455.277 248.316Z" fill="#80CC28"/>
<path d="M468.984 248.316C468.984 251.219 466.625 253.574 463.73 253.574C460.828 253.574 458.477 251.219 458.477 248.316C458.477 245.418 460.828 243.066 463.73 243.066C466.625 243.066 468.984 245.418 468.984 248.316Z" fill="#EBB72E"/>
<path d="M200.965 263.312H210.184V260.492H200.965V263.312Z" fill="white"/>
<path d="M200.965 272.543H210.184V269.723H200.965V272.543Z" fill="white"/>
<path d="M200.965 281.773H210.184V278.953H200.965V281.773Z" fill="white"/>
<path d="M200.965 290.996H210.184V288.184H200.965V290.996Z" fill="white"/>
<path d="M200.965 300.227H210.184V297.406H200.965V300.227Z" fill="white"/>
<path d="M200.965 309.453H210.184V306.633H200.965V309.453Z" fill="white"/>
<path d="M200.965 318.684H210.184V315.863H200.965V318.684Z" fill="white"/>
<path d="M200.965 327.906H210.184V325.086H200.965V327.906Z" fill="white"/>
<path d="M200.965 337.133H210.184V334.312H200.965V337.133Z" fill="white"/>
<path d="M200.965 346.363H210.184V343.543H200.965V346.363Z" fill="white"/>
<path d="M200.965 355.586H210.184V352.766H200.965V355.586Z" fill="white"/>
<path d="M200.965 364.812H210.184V361.996H200.965V364.812Z" fill="white"/>
<path d="M200.965 374.043H210.184V371.223H200.965V374.043Z" fill="white"/>
<path d="M200.965 383.266H210.184V380.445H200.965V383.266Z" fill="white"/>
<path d="M200.965 392.496H210.184V389.676H200.965V392.496Z" fill="white"/>
<path d="M200.965 401.723H210.184V398.902H200.965V401.723Z" fill="white"/>
<path d="M200.965 410.953H210.184V408.133H200.965V410.953Z" fill="white"/>
<path d="M200.965 420.176H210.184V417.355H200.965V420.176Z" fill="white"/>
<path d="M200.965 429.402H210.184V426.586H200.965V429.402Z" fill="white"/>
<path d="M200.965 438.629H210.184V435.812H200.965V438.629Z" fill="white"/>
<path d="M219.922 263.312H255.773V260.492H219.922V263.312Z" fill="#ED3947"/>
<path d="M257.195 366.227H293.051V363.406H257.195V366.227Z" fill="#ED3947"/>
<path d="M257.195 355.586H270.77V352.766H257.195V355.586Z" fill="#ED3947"/>
<path d="M219.922 272.543H233.492V269.723H219.922V272.543Z" fill="#3BBEC5"/>
<path d="M219.922 281.773H240.023V278.953H219.922V281.773Z" fill="#3BBEC5"/>
<path d="M243.48 290.996H283.816V288.184H243.48V290.996Z" fill="white"/>
<path d="M362.566 290.996H304.172V288.184H362.566V290.996Z" fill="white"/>
<path d="M298.027 290.996H287.656V288.184H298.027V290.996Z" fill="white"/>
<path d="M252.312 308.043H292.652V305.223H252.312V308.043Z" fill="white"/>
<path d="M371.402 308.043H313.012V305.223H371.402V308.043Z" fill="white"/>
<path d="M306.867 308.043H296.492V305.223H306.867V308.043Z" fill="white"/>
<path d="M252.312 298.82H278.051V295.992H252.312V298.82Z" fill="white"/>
<path d="M282.664 296V298.82H292.652V296H282.664Z" fill="white"/>
<path d="M333.367 298.82H313.012V296H333.367V298.82Z" fill="white"/>
<path d="M306.867 298.82H296.492V296H306.867V298.82Z" fill="white"/>
<path d="M285.23 397.816H310.969V394.996H285.23V397.816Z" fill="white"/>
<path d="M315.574 397.816H325.562V394.996H315.574V397.816Z" fill="white"/>
<path d="M345.922 397.816H366.285V394.996H345.922V397.816Z" fill="white"/>
<path d="M329.406 397.816H339.777V394.996H329.406V397.816Z" fill="white"/>
<path d="M243.48 281.773H250.391V278.953H243.48V281.773Z" fill="#00ADEF"/>
<path d="M257.457 374.043H271.023V371.223H257.457V374.043Z" fill="#3BBEC5"/>
<path d="M257.457 383.266H277.559V380.445H257.457V383.266Z" fill="#3BBEC5"/>
<path d="M281.016 383.266H287.926V380.445H281.016V383.266Z" fill="#00ADEF"/>
<path d="M257.457 423.383H271.023V420.562H257.457V423.383Z" fill="#3BBEC5"/>
<path d="M257.457 432.605H277.559V429.785H257.457V432.605Z" fill="#3BBEC5"/>
<path d="M281.016 432.605H287.926V429.785H281.016V432.605Z" fill="#00ADEF"/>
<path d="M219.922 327.906H240.023V325.086H219.922V327.906Z" fill="#3BBEC5"/>
<path d="M243.48 327.906H250.391V325.086H243.48V327.906Z" fill="#00ADEF"/>
<path d="M270.113 263.312H260.891V260.492H270.113V263.312Z" fill="#80CC28"/>
<path d="M243.48 339.953H282.664V337.137H243.48V339.953Z" fill="#80CC28"/>
<path d="M252.312 318.684H311.477V315.863H252.312V318.684Z" fill="white"/>
<path d="M360.262 318.684H314.934V315.863H360.262V318.684Z" fill="white"/>
<path d="M285.23 408.133H319.543V405.312H285.23V408.133Z" fill="white"/>
<path d="M323.129 408.133H371.277V405.312H323.129V408.133Z" fill="white"/>
<path d="M285.23 417.355H300.082V414.535H285.23V417.355Z" fill="white"/>
<path d="M304.434 417.355H319.543V414.535H304.434V417.355Z" fill="white"/>
<path d="M362.566 417.355H371.277V414.535H362.566V417.355Z" fill="white"/>
<path d="M323.129 417.355H359.242V414.535H323.129V417.355Z" fill="white"/>
<path d="M496.824 458.203H496.828H496.824ZM496.844 458.203C496.848 458.203 496.848 458.203 496.855 458.203C496.848 458.203 496.848 458.203 496.844 458.203ZM496.863 458.203C496.871 458.203 496.871 458.203 496.875 458.203C496.871 458.203 496.871 458.203 496.863 458.203ZM496.887 458.203C496.891 458.203 496.895 458.203 496.895 458.203C496.895 458.203 496.891 458.203 496.887 458.203ZM496.906 458.203C496.91 458.203 496.918 458.203 496.918 458.203C496.918 458.203 496.91 458.203 496.906 458.203ZM496.934 458.203H496.938H496.934ZM496.953 458.203H496.957H496.953ZM496.973 458.203C496.973 458.203 496.98 458.203 496.984 458.203C496.98 458.203 496.973 458.203 496.973 458.203ZM496.996 458.203C497 458.203 497 458.199 497.004 458.199C497 458.199 497 458.203 496.996 458.203ZM497.02 458.199C497.02 458.199 497.02 458.199 497.027 458.199C497.02 458.199 497.02 458.199 497.02 458.199ZM497.09 458.199H497.094H497.09ZM497.137 458.195C497.137 458.195 497.137 458.195 497.141 458.195C497.137 458.195 497.137 458.195 497.137 458.195ZM497.156 458.195H497.16H497.156ZM497.176 458.195H497.18H497.176ZM497.195 458.195H497.203H497.195ZM497.219 458.195C497.223 458.195 497.223 458.188 497.223 458.188C497.223 458.188 497.223 458.195 497.219 458.195ZM497.266 458.188H497.27C497.27 458.188 497.27 458.188 497.266 458.188ZM498.188 458.055C498.195 458.055 498.195 458.055 498.195 458.055C498.195 458.055 498.195 458.055 498.188 458.055ZM498.355 458.012C498.359 458.012 498.359 458.012 498.363 458.012C498.359 458.012 498.359 458.012 498.355 458.012ZM498.379 458.008C498.379 458.008 498.379 458.008 498.387 458.008C498.379 458.008 498.379 458.008 498.379 458.008ZM498.395 458C498.402 458 498.402 458 498.406 458C498.402 458 498.402 458 498.395 458ZM498.418 457.996C498.418 457.996 498.422 457.996 498.426 457.996C498.422 457.996 498.418 457.996 498.418 457.996ZM498.438 457.992C498.438 457.992 498.441 457.992 498.449 457.992C498.441 457.992 498.438 457.992 498.438 457.992ZM498.453 457.984C498.457 457.984 498.465 457.984 498.469 457.98C498.465 457.984 498.457 457.984 498.453 457.984ZM498.473 457.98C498.48 457.98 498.484 457.98 498.488 457.977C498.484 457.98 498.48 457.98 498.473 457.98ZM498.488 457.977C498.496 457.977 498.5 457.977 498.504 457.969C498.5 457.977 498.496 457.977 498.488 457.977ZM498.512 457.969C499.719 457.637 500.789 456.953 501.594 456.027C500.789 456.953 499.719 457.637 498.512 457.969Z" fill="#7F8FD0"/>
<path d="M496.801 458.203H242.219L237.742 443.758H474.484V443.629H483.566L501.594 456.027C500.789 456.953 499.719 457.637 498.512 457.969C498.504 457.969 498.504 457.969 498.504 457.969C498.5 457.977 498.496 457.977 498.488 457.977C498.484 457.98 498.48 457.98 498.473 457.98C498.469 457.98 498.469 457.98 498.469 457.98C498.465 457.984 498.457 457.984 498.453 457.984L498.449 457.992C498.441 457.992 498.438 457.992 498.438 457.992C498.434 457.992 498.426 457.996 498.426 457.996C498.422 457.996 498.418 457.996 498.418 457.996C498.41 457.996 498.406 458 498.406 458C498.402 458 498.402 458 498.395 458C498.391 458 498.391 458.008 498.387 458.008C498.379 458.008 498.379 458.008 498.379 458.008C498.375 458.008 498.371 458.012 498.363 458.012C498.359 458.012 498.359 458.012 498.355 458.012C498.348 458.012 498.344 458.016 498.34 458.016C498.312 458.027 498.281 458.031 498.258 458.039C498.246 458.039 498.242 458.043 498.234 458.043C498.227 458.043 498.219 458.043 498.215 458.047C498.203 458.047 498.199 458.047 498.195 458.055C498.195 458.055 498.195 458.055 498.188 458.055C497.953 458.105 497.711 458.141 497.461 458.168C497.453 458.172 497.438 458.172 497.422 458.172C497.414 458.172 497.406 458.172 497.398 458.18C497.352 458.18 497.313 458.184 497.27 458.188H497.266C497.258 458.188 497.254 458.188 497.242 458.188C497.238 458.188 497.227 458.188 497.223 458.188C497.223 458.188 497.223 458.195 497.219 458.195C497.211 458.195 497.207 458.195 497.203 458.195H497.195C497.191 458.195 497.187 458.195 497.18 458.195H497.176C497.172 458.195 497.164 458.195 497.16 458.195H497.156C497.148 458.195 497.145 458.195 497.141 458.195C497.137 458.195 497.137 458.195 497.137 458.195C497.129 458.199 497.125 458.199 497.113 458.199C497.105 458.199 497.098 458.199 497.094 458.199H497.09C497.078 458.199 497.062 458.199 497.047 458.199C497.043 458.199 497.031 458.199 497.027 458.199C497.02 458.199 497.02 458.199 497.02 458.199C497.016 458.199 497.012 458.199 497.004 458.199C497 458.199 497 458.203 496.996 458.203C496.996 458.203 496.988 458.203 496.984 458.203C496.98 458.203 496.973 458.203 496.973 458.203C496.969 458.203 496.965 458.203 496.957 458.203H496.953C496.949 458.203 496.941 458.203 496.938 458.203H496.934C496.926 458.203 496.922 458.203 496.918 458.203C496.918 458.203 496.91 458.203 496.906 458.203C496.906 458.203 496.902 458.203 496.895 458.203C496.895 458.203 496.891 458.203 496.887 458.203C496.887 458.203 496.879 458.203 496.875 458.203C496.871 458.203 496.871 458.203 496.863 458.203C496.859 458.203 496.855 458.203 496.855 458.203C496.848 458.203 496.848 458.203 496.844 458.203C496.84 458.203 496.832 458.203 496.828 458.203H496.824C496.816 458.203 496.809 458.203 496.801 458.203ZM194.934 458.203H174.551C171.035 458.203 168.18 455.352 168.18 451.824V437.023H181.793V441.547C181.793 442.699 182.723 443.629 183.875 443.629H190.617L194.934 458.203ZM181.793 383.477L168.18 380.188V338.945C170.719 337.527 173.633 335.91 176.988 334.066C176.988 334.066 179.262 333.238 181.793 330.812V383.477Z" fill="#352F38"/>
<path d="M483.566 443.629H474.484V437.387L483.566 443.629ZM190.617 443.629H183.875C182.723 443.629 181.793 442.699 181.793 441.547V437.023H188.66L190.617 443.629ZM196.871 387.117L181.793 383.477V330.812C184.652 328.074 187.844 323.289 188.426 315.363L190.184 301.055C191.02 301.422 191.902 301.68 192.836 301.801C193.254 301.859 193.668 301.883 194.082 301.883C195.027 301.883 195.961 301.742 196.871 301.473V387.117ZM210.953 256.133H203.398C203.406 256.105 203.406 256.082 203.41 256.055H210.836L210.953 256.133Z" fill="white"/>
<path d="M474.484 443.758H237.742L235.527 436.598L230.047 413.102C226.637 400.285 219.547 394.57 214.949 392.133V258.883L219.922 262.301V263.312H221.391L230.707 269.723H219.922V272.543H233.492V271.633L244.129 278.953H243.48V281.773H248.227L257.543 288.184H243.48V290.996H261.645L268.91 295.992H252.312V298.82H273.012L282.328 305.223H252.312V308.043H286.426L297.793 315.863H252.312V318.684H301.895L474.484 437.387V443.758ZM281.016 429.785V432.605H287.926V429.785H281.016ZM257.457 429.785V432.605H277.559V429.785H257.457ZM257.457 420.562V423.383H271.023V420.562H257.457ZM362.566 414.535V417.355H371.277V414.535H362.566ZM323.129 414.535V417.355H359.234V414.535H323.129ZM304.434 414.535V417.355H319.543V414.535H304.434ZM285.23 414.535V417.355H300.082V414.535H285.23ZM323.129 405.312V408.133H371.277V405.312H323.129ZM285.23 405.312V408.133H319.543V405.312H285.23ZM345.922 394.996V397.816H366.285V394.996H345.922ZM329.406 394.996V397.816H339.777V394.996H329.406ZM315.574 394.996V397.816H325.562V394.996H315.574ZM285.23 394.996V397.816H310.969V394.996H285.23ZM281.016 380.445V383.266H287.926V380.445H281.016ZM257.457 380.445V383.266H277.559V380.445H257.457ZM257.457 371.223V374.043H271.023V371.223H257.457ZM257.195 363.406V366.227H293.051V363.406H257.195ZM257.195 352.773V355.586H270.773V352.773H257.195ZM243.48 337.133V339.953H282.664V337.133H243.48ZM243.48 325.086V327.906H250.391V325.086H243.48ZM219.922 325.086V327.906H240.023V325.086H219.922ZM219.922 278.953V281.773H240.023V278.953H219.922ZM213.621 391.48C211.816 390.676 210.645 390.441 210.645 390.441L210.184 390.332V389.676H207.484L196.871 387.117V301.473C198.328 301.043 199.715 300.277 200.965 299.25V300.227H210.184V297.406H202.824C204.305 295.656 205.48 293.469 206.207 290.996H210.184V288.184H206.82C206.832 288.105 206.84 288.031 206.852 287.957C207.133 285.809 207.063 283.715 206.691 281.773H210.184V278.953H205.895C204.867 276.219 203.191 273.969 201.059 272.543H210.184V269.723H201.551C201.836 268.152 202.207 265.977 202.57 263.312H210.184V260.492H202.934C203.098 259.129 203.254 257.672 203.398 256.133H210.953L213.621 257.973V391.48ZM200.965 380.445V383.266H210.184V380.445H200.965ZM200.965 371.223V374.043H210.184V371.223H200.965ZM200.965 361.996V364.812H210.184V361.996H200.965ZM200.965 352.773V355.586H210.184V352.773H200.965ZM200.965 343.543V346.363H210.184V343.543H200.965ZM200.965 334.316V337.133H210.184V334.316H200.965ZM200.965 325.086V327.906H210.184V325.086H200.965ZM200.965 315.863V318.684H210.184V315.863H200.965ZM200.965 306.633V309.453H210.184V306.633H200.965Z" fill="#2F2D3B"/>
<path d="M214.949 392.133C214.477 391.883 214.035 391.668 213.621 391.48V257.973L214.949 258.883V392.133Z" fill="white"/>
<path d="M210.836 256.055H203.41C203.551 254.52 203.684 252.898 203.793 251.211L210.836 256.055Z" fill="#4E4D67"/>
<path d="M210.184 263.312H202.57C202.695 262.422 202.812 261.484 202.934 260.492H210.184V263.312Z" fill="white"/>
<path d="M210.184 272.543H201.059C201.043 272.527 201.023 272.516 201 272.504C201.031 272.383 201.246 271.398 201.551 269.723H210.184V272.543Z" fill="white"/>
<path d="M210.184 281.773H206.691C206.5 280.785 206.234 279.844 205.895 278.953H210.184V281.773Z" fill="white"/>
<path d="M210.184 290.996H206.207C206.473 290.094 206.68 289.152 206.82 288.184H210.184V290.996Z" fill="white"/>
<path d="M210.184 300.227H200.965V299.25C201.625 298.707 202.246 298.094 202.824 297.406H210.184V300.227Z" fill="white"/>
<path d="M200.965 309.453H210.184V306.633H200.965V309.453Z" fill="white"/>
<path d="M200.965 318.684H210.184V315.863H200.965V318.684Z" fill="white"/>
<path d="M200.965 327.906H210.184V325.086H200.965V327.906Z" fill="white"/>
<path d="M200.965 337.133H210.184V334.312H200.965V337.133Z" fill="white"/>
<path d="M200.965 346.363H210.184V343.543H200.965V346.363Z" fill="white"/>
<path d="M200.965 355.586H210.184V352.766H200.965V355.586Z" fill="white"/>
<path d="M200.965 364.812H210.184V361.996H200.965V364.812Z" fill="white"/>
<path d="M200.965 374.043H210.184V371.223H200.965V374.043Z" fill="white"/>
<path d="M200.965 383.266H210.184V380.445H200.965V383.266Z" fill="white"/>
<path d="M210.184 390.332L207.484 389.676H210.184V390.332Z" fill="white"/>
<path d="M221.391 263.312H219.922V262.301L221.391 263.312Z" fill="#F05D5E"/>
<path d="M257.195 366.227H293.051V363.406H257.195V366.227Z" fill="#F05D5E"/>
<path d="M257.195 355.586H270.77V352.766H257.195V355.586Z" fill="#F05D5E"/>
<path d="M233.492 272.543H219.922V269.723H230.707L233.492 271.633V272.543Z" fill="#62CBCD"/>
<path d="M219.922 281.773H240.023V278.953H219.922V281.773Z" fill="#62CBCD"/>
<path d="M261.645 290.996H243.48V288.184H257.543L261.645 290.996Z" fill="white"/>
<path d="M286.426 308.043H252.312V305.223H282.328L286.426 308.043Z" fill="white"/>
<path d="M273.012 298.82H252.312V295.992H268.91L273.012 298.82Z" fill="white"/>
<path d="M285.23 397.816H310.969V394.996H285.23V397.816Z" fill="white"/>
<path d="M315.574 397.816H325.562V394.996H315.574V397.816Z" fill="white"/>
<path d="M345.922 397.816H366.285V394.996H345.922V397.816Z" fill="white"/>
<path d="M329.406 397.816H339.777V394.996H329.406V397.816Z" fill="white"/>
<path d="M248.227 281.773H243.48V278.953H244.129L248.227 281.773Z" fill="#33BDF2"/>
<path d="M257.457 374.043H271.023V371.223H257.457V374.043Z" fill="#62CBCD"/>
<path d="M257.457 383.266H277.559V380.445H257.457V383.266Z" fill="#62CBCD"/>
<path d="M281.016 383.266H287.926V380.445H281.016V383.266Z" fill="#33BDF2"/>
<path d="M257.457 423.383H271.023V420.562H257.457V423.383Z" fill="#62CBCD"/>
<path d="M257.457 432.605H277.559V429.785H257.457V432.605Z" fill="#62CBCD"/>
<path d="M281.016 432.605H287.926V429.785H281.016V432.605Z" fill="#33BDF2"/>
<path d="M219.922 327.906H240.023V325.086H219.922V327.906Z" fill="#62CBCD"/>
<path d="M243.48 327.906H250.391V325.086H243.48V327.906Z" fill="#33BDF2"/>
<path d="M243.48 339.953H282.664V337.137H243.48V339.953Z" fill="#99D64B"/>
<path d="M301.895 318.684H252.312V315.863H297.793L301.895 318.684Z" fill="white"/>
<path d="M285.23 408.133H319.543V405.312H285.23V408.133Z" fill="white"/>
<path d="M323.129 408.133H371.277V405.312H323.129V408.133Z" fill="white"/>
<path d="M285.23 417.355H300.082V414.535H285.23V417.355Z" fill="white"/>
<path d="M304.434 417.355H319.543V414.535H304.434V417.355Z" fill="white"/>
<path d="M362.566 417.355H371.277V414.535H362.566V417.355Z" fill="white"/>
<path d="M196.871 270.949C196.461 270.895 196.051 270.871 195.652 270.871C195.437 270.871 195.227 270.879 195.012 270.895C195.148 270.875 195.383 270.855 195.688 270.855C196.004 270.855 196.402 270.879 196.871 270.949Z" fill="white"/>
<path d="M197.152 270.988C197.066 270.977 196.984 270.961 196.902 270.953C196.891 270.953 196.883 270.953 196.871 270.949C196.957 270.957 197.051 270.973 197.152 270.988Z" fill="#2F2D3B"/>
<path d="M323.129 417.355H359.242V414.535H323.129V417.355Z" fill="white"/>
<path d="M237.891 499.836L215.223 435.246L191.758 442.828L212.473 499.836H237.891Z" fill="#F9AD85"/>
<path d="M233.555 430.234L247.469 475.164L204.359 490L188.66 437.023L233.555 430.234Z" fill="#82D06A"/>
<path d="M70.2344 499.836L87.7266 437.023H59.9492L43.832 499.836H70.2344Z" fill="#F9AD85"/>
<path d="M50.3555 430.234L36.4375 475.164L79.5508 490L95.2461 437.023L50.3555 430.234Z" fill="#82D06A"/>
<path d="M79.5508 490L67.1875 485.582C76.0273 460.914 77.1563 455.406 82.5508 437.023H95.2461L79.5508 490Z" fill="#57C150"/>
<path d="M125.285 383.625H151.273V332.035H125.285V383.625Z" fill="#F9AD85"/>
<path d="M125.285 359.742V349.281C126.484 350.07 131.094 352.824 136.949 352.824C137.332 352.824 137.723 352.813 138.117 352.789C138.516 352.813 138.906 352.824 139.289 352.824C142.234 352.824 144.863 352.129 146.902 351.332C145.758 352.332 144.559 353.25 143.309 354.082C137.738 357.789 131.5 359.332 125.285 359.742Z" fill="#CE8E6D"/>
<path d="M142.906 184.23C141.258 184.047 139.68 183.934 138.117 183.836C136.555 183.934 134.981 184.047 133.332 184.23C133.332 184.23 78.2657 183.836 80.8243 258.383L88.1368 315.363C89.2344 330.297 99.5743 334.066 99.5743 334.066C127.227 349.285 124.977 349.07 124.977 349.07C124.977 349.07 130.707 353.262 138.117 352.789C145.535 353.262 151.266 349.07 151.266 349.07C151.266 349.07 149.332 349.285 176.988 334.066C176.988 334.066 187.324 330.297 188.426 315.363L195.418 258.383C201.25 181.195 142.906 184.23 142.906 184.23Z" fill="#F9AD85"/>
<path d="M196.902 270.953C190.277 270.074 184.004 276.277 182.883 284.797C181.758 293.312 186.215 300.93 192.836 301.801C199.449 302.672 205.73 296.48 206.851 287.957C207.973 279.441 203.519 271.824 196.902 270.953Z" fill="#F9AD85"/>
<path d="M93.6835 284.797C92.5585 276.277 86.2811 270.074 79.664 270.953C73.0429 271.824 68.5897 279.441 69.7108 287.957C70.8319 296.48 77.1132 302.672 83.7304 301.801C90.3475 300.93 94.8046 293.312 93.6835 284.797Z" fill="#F9AD85"/>
<path d="M146.672 298.051C145.883 298.348 145.094 298.664 144.297 298.945C143.516 299.25 142.668 299.41 141.832 299.637C141.004 299.883 140.141 299.941 139.281 300.082C138.855 300.16 138.406 300.133 137.973 300.156C137.531 300.156 137.09 300.207 136.645 300.156L135.293 300C134.848 299.93 134.402 299.773 133.949 299.66C133.492 299.566 133.078 299.309 132.637 299.125C132.184 298.953 131.805 298.621 131.395 298.355C131.012 298.055 130.66 297.691 130.328 297.328C130.027 296.93 129.715 296.535 129.496 296.082C129.238 295.652 129.066 295.18 128.914 294.699C128.766 294.203 128.664 293.77 128.629 293.133L128.621 293.027L128.656 292.863C129.215 290.234 129.715 287.59 130.336 284.973C130.918 282.344 131.535 279.727 132.207 277.117C132.516 275.812 132.879 274.516 133.227 273.219C133.566 271.914 133.938 270.621 134.316 269.328C135.066 266.734 135.859 264.152 136.773 261.602C136.539 264.305 136.187 266.98 135.793 269.645C135.594 270.977 135.391 272.312 135.16 273.637C134.93 274.961 134.723 276.293 134.465 277.617C133.984 280.262 133.457 282.898 132.895 285.527C132.367 288.168 131.723 290.777 131.137 293.402L131.168 293.133C131.168 293.336 131.211 293.734 131.293 294.047C131.375 294.367 131.469 294.699 131.629 295C131.754 295.32 131.957 295.59 132.145 295.875C132.355 296.133 132.578 296.398 132.84 296.629C133.125 296.824 133.348 297.109 133.68 297.262C134 297.422 134.281 297.66 134.648 297.766C135.004 297.883 135.34 298.051 135.715 298.148L136.852 298.402C137.23 298.496 137.633 298.496 138.027 298.555C138.422 298.586 138.824 298.668 139.227 298.645C140.039 298.605 140.867 298.711 141.676 298.602C142.492 298.508 143.324 298.512 144.16 298.379C144.996 298.254 145.828 298.156 146.672 298.051Z" fill="#F7916E"/>
<path d="M118.285 310.398C119.66 320.137 127.414 327.59 136.773 327.59C146.133 327.59 153.879 320.137 155.254 310.398H118.285Z" fill="white"/>
<path d="M168.18 267.406C168.18 270.598 166.063 273.195 163.445 273.195C160.828 273.195 158.707 270.598 158.707 267.406C158.707 264.199 160.828 261.602 163.445 261.602C166.063 261.602 168.18 264.199 168.18 267.406Z" fill="#2D120A"/>
<path d="M150.609 246.422C150.609 246.422 148.223 246.883 148.305 249.418C148.305 249.418 148.004 254.824 150.937 255.016C150.937 255.016 171.894 248.481 181.238 256.274C181.238 256.274 185.328 238.93 150.609 246.422Z" fill="#351F17"/>
<path d="M108.379 267.406C108.379 270.598 110.5 273.195 113.117 273.195C115.73 273.195 117.855 270.598 117.855 267.406C117.855 264.199 115.73 261.602 113.117 261.602C110.5 261.602 108.379 264.199 108.379 267.406Z" fill="#2D120A"/>
<path d="M125.953 246.422C125.953 246.422 128.34 246.883 128.25 249.418C128.25 249.418 128.558 254.824 125.625 255.016C125.625 255.016 104.668 248.481 95.3202 256.274C95.3202 256.274 91.2343 238.93 125.953 246.422Z" fill="#351F17"/>
<path d="M103.894 215.586C103.894 215.586 137.504 211.656 139.66 221.239C139.66 221.239 136.254 213.121 171.926 215.207C171.926 215.207 181.387 215.75 182.707 224.559C182.707 224.559 186.562 234.789 191.758 276.071H193.246L194.867 270.91C194.867 270.91 197.613 270.391 201 272.516C201 272.516 222.832 175.524 151.273 166.86C151.273 166.86 102.902 161.656 98.3905 186.504C98.3905 186.504 67.1874 189.781 77.1444 271.66C77.1444 271.66 79.5819 270.11 82.4413 271.008C82.4413 271.008 84.6483 272.219 85.414 276.071H87.7265C89.8163 232.785 93.9491 224.746 93.9491 224.746C93.9491 224.746 95.3124 217.281 103.894 215.586Z" fill="#351F17"/>
<path d="M180.152 285.817C178.805 287.922 176.379 289.145 174.258 290.012C171.754 291.035 168.906 291.36 166.145 291.414V291.391C163.383 291.344 160.527 291.012 158.031 289.988C155.902 289.121 153.48 287.906 152.137 285.805C152.137 285.805 146.301 277.285 146.566 268.707C146.438 266.102 149 264.102 151.285 263.063C155.371 261.192 160.918 260.684 166.145 260.75V260.774C171.367 260.703 176.914 261.215 181 263.082C183.281 264.129 185.852 266.121 185.715 268.723C185.988 277.301 180.152 285.817 180.152 285.817ZM183.672 260.824C178.852 258.621 172.301 258.028 166.145 258.117V258.098C159.988 258.012 153.434 258.602 148.617 260.805C146.172 262.051 142.301 264.922 143.789 271.52C145.039 277.07 147.051 288.223 154.809 292C157.668 293.391 160.871 293.582 163.98 293.887C164.703 293.957 165.422 294.004 166.145 294.035V294.055C166.867 294.02 167.586 293.977 168.305 293.906C171.418 293.606 174.621 293.414 177.48 292.02C185.238 288.238 187.246 277.094 188.5 271.539C189.984 264.942 186.117 262.067 183.672 260.824Z" fill="#231F20"/>
<path d="M125.52 285.817C124.172 287.922 121.754 289.145 119.621 290.012C117.121 291.035 114.273 291.36 111.512 291.414V291.391C108.75 291.344 105.895 291.012 103.398 289.988C101.273 289.121 98.8516 287.906 97.5 285.805C97.5 285.805 91.6719 277.285 91.9336 268.707C91.8047 266.102 94.3672 264.102 96.6523 263.063C100.742 261.192 106.285 260.684 111.512 260.75V260.774C116.734 260.703 122.281 261.215 126.367 263.082C128.648 264.129 131.219 266.121 131.09 268.723C131.348 277.301 125.52 285.817 125.52 285.817ZM129.039 260.824C124.219 258.621 117.668 258.028 111.512 258.117V258.098C105.355 258.012 98.8008 258.602 93.9844 260.805C91.5391 262.051 87.668 264.922 89.1563 271.52C90.4102 277.07 92.4141 288.223 100.176 292C103.035 293.391 106.238 293.582 109.352 293.887C110.07 293.957 110.789 294.004 111.512 294.035V294.055C112.234 294.02 112.957 293.977 113.676 293.906C116.785 293.606 119.988 293.414 122.848 292.02C130.605 288.238 132.609 277.094 133.867 271.539C135.352 264.942 131.484 262.067 129.039 260.824Z" fill="#231F20"/>
<path d="M187.711 271.617L201.531 269.84L202.797 261.602L179.395 259.371L186.512 265.492L187.711 271.617Z" fill="#231F20"/>
<path d="M89.3555 271.848L76.8633 269.258L76.0898 261.602L97.6758 259.598L90.5586 265.723L89.3555 271.848Z" fill="#231F20"/>
<path d="M133.555 272.945C133.555 272.945 138.051 266.941 144.105 272.945L144.953 263.832C144.953 263.832 140.285 261.957 131.355 263.832L133.555 272.945Z" fill="#231F20"/>
<path d="M111.512 291.414V291.391C108.75 291.344 105.894 291.012 103.398 289.988C101.273 289.121 98.8515 287.906 97.4999 285.805C97.4999 285.805 92.5351 278.547 91.9765 270.688C91.9296 270.039 91.914 269.383 91.9335 268.723C91.8046 266.121 94.3671 264.129 96.6523 263.082C100.508 261.316 105.668 260.766 110.625 260.766C110.922 260.766 111.215 260.766 111.512 260.773C111.805 260.766 112.098 260.766 112.398 260.766C117.355 260.766 122.516 261.316 126.367 263.082C128.594 264.098 131.086 266.023 131.094 268.527C131.094 268.59 131.09 268.645 131.09 268.707C131.09 268.715 131.09 268.715 131.09 268.719V268.723C131.094 268.91 131.094 269.098 131.101 269.285C131.094 277.664 125.519 285.805 125.519 285.805C124.172 287.906 121.754 289.121 119.621 289.988C117.121 291.012 114.273 291.344 111.512 291.391V291.414ZM113.117 261.602C110.5 261.602 108.379 264.199 108.379 267.406C108.379 270.598 110.5 273.195 113.117 273.195C115.73 273.195 117.855 270.598 117.855 267.406C117.855 264.199 115.73 261.602 113.117 261.602Z" fill="#D8BDA1"/>
<path d="M113.117 273.195C110.5 273.195 108.379 270.598 108.379 267.406C108.379 264.199 110.5 261.602 113.117 261.602C115.73 261.602 117.855 264.199 117.855 267.406C117.855 270.598 115.73 273.195 113.117 273.195Z" fill="#513A2C"/>
<path d="M111.512 291.414C108.75 291.359 105.902 291.035 103.398 290.012C101.273 289.145 98.8516 287.922 97.5039 285.816C97.5039 285.816 92.5273 278.551 91.9766 270.688C92.5352 278.547 97.5 285.805 97.5 285.805C98.8516 287.906 101.273 289.121 103.398 289.988C105.895 291.012 108.75 291.344 111.512 291.391V291.414ZM131.102 269.285C131.094 269.098 131.094 268.91 131.09 268.723V268.719C131.094 268.906 131.102 269.098 131.102 269.285ZM131.094 268.527C131.086 266.023 128.594 264.098 126.367 263.082C122.516 261.316 117.355 260.766 112.398 260.766C112.098 260.766 111.805 260.766 111.512 260.773V260.75C111.805 260.75 112.098 260.746 112.398 260.746C117.355 260.746 122.516 261.301 126.367 263.062C128.598 264.082 131.102 266.008 131.094 268.527Z" fill="#575D60"/>
<path d="M166.145 291.414V291.391C163.383 291.344 160.527 291.012 158.031 289.988C155.902 289.121 153.48 287.906 152.137 285.805C152.137 285.805 146.562 277.664 146.555 269.285C146.555 269.094 146.563 268.902 146.566 268.707C146.563 268.641 146.562 268.574 146.562 268.512C146.566 266.004 149.059 264.074 151.285 263.062C155.141 261.301 160.301 260.746 165.258 260.746C165.551 260.746 165.848 260.75 166.145 260.75V260.773C166.434 260.766 166.73 260.766 167.031 260.766C171.988 260.766 177.141 261.316 181 263.082C183.23 264.102 185.727 266.027 185.723 268.543C185.723 268.605 185.723 268.668 185.715 268.723C185.727 268.918 185.727 269.109 185.727 269.301C185.727 277.68 180.152 285.816 180.152 285.816C178.805 287.922 176.379 289.145 174.258 290.012C171.754 291.035 168.906 291.359 166.145 291.414ZM163.445 261.602C160.828 261.602 158.707 264.199 158.707 267.406C158.707 270.598 160.828 273.195 163.445 273.195C166.063 273.195 168.18 270.598 168.18 267.406C168.18 264.199 166.063 261.602 163.445 261.602Z" fill="#D8BDA1"/>
<path d="M163.445 273.195C160.828 273.195 158.707 270.598 158.707 267.406C158.707 264.199 160.828 261.602 163.445 261.602C166.063 261.602 168.18 264.199 168.18 267.406C168.18 270.598 166.063 273.195 163.445 273.195Z" fill="#513A2C"/>
<path d="M230.047 437.023V413.102C225.109 397.113 213.109 391.703 213.109 391.703L151.273 376.105H125.285L75.3359 389.953C75.3359 389.953 60.9687 394.742 59.3711 411.785V437.023H230.047Z" fill="#F9AD85"/>
<path d="M230.047 413.102C224.758 393.234 210.645 390.441 210.645 390.441L157.809 377.684C154.055 384.711 146.633 389.582 138.246 389.582H137.094C128.895 389.582 121.633 384.934 117.797 378.176L75.3359 389.953C75.3359 389.953 59.3711 393.941 54.7891 412.297L48.668 437.023H235.625L230.047 413.102Z" fill="#82D06A"/>
<path d="M204.359 490L208.395 488.609L204.359 490Z" fill="#375957"/>
<path d="M208.395 488.609L216.711 485.75C216.711 485.75 216.711 485.75 216.719 485.754L208.395 488.609Z" fill="#AC9F4F"/>
<path d="M204.359 490L188.66 437.023H201.82C207.691 456.902 207.598 460.289 216.711 485.75L208.395 488.609L204.359 490Z" fill="#57C150"/>
<path d="M203.438 499.836L201.82 437.023L83.4922 436.914L80.2578 499.836H203.438Z" fill="#82D06A"/>
<path d="M402.098 58.1562V56.1289L412.242 51.8125V54.0586L404.379 57.1406L412.242 60.2266V62.4648L402.098 58.1562Z" fill="#1A2523"/>
<path d="M420.113 64.5391V57.9648C420.113 56.3633 419.578 55.8711 418.301 55.8711C416.906 55.8711 416.125 57.0352 416.125 58.457V64.5391H413.324V50.0469H416.125V55.3086C416.535 54.3594 417.828 53.6484 419.25 53.6484C421.43 53.6484 422.934 54.918 422.934 57.0352V64.5391H420.113Z" fill="#1A2523"/>
<path d="M430.07 57.5547H432.684V60.5703C432.684 62.8164 431.391 64.8203 428.391 64.8203C425.285 64.8203 424.062 62.8359 424.062 60.5508V51.0586H426.816V53.9258H432.684V55.9102H426.816V60.2695C426.816 61.6055 427.297 62.3828 428.438 62.3828C429.559 62.3828 430.07 61.6289 430.07 60.3125V57.5547Z" fill="#1A2523"/>
<path d="M446.129 64.5391V58.1133C446.129 56.8398 445.461 55.9336 444.469 55.9336C443.438 55.9336 442.684 56.9023 442.684 58.1953V64.5391H439.883V58.1562C439.883 56.4531 439.43 56.0195 438.199 56.0195C437.078 56.0195 436.496 56.7109 436.496 58.0898V64.5391H433.695V53.9258H436.328V55.4805C437.039 54.0781 438.027 53.6484 439.43 53.6484C440.871 53.6484 441.563 54.0977 442.383 55.3281C442.965 54.168 443.91 53.6484 445.25 53.6484C447.383 53.6484 448.867 55.1992 448.867 57.1836V64.5391H446.129Z" fill="#1A2523"/>
<path d="M449.992 64.5391V50.0469H452.793V64.5391H449.992Z" fill="#1A2523"/>
<path d="M453.828 62.4648V60.2266L461.695 57.1406L453.828 54.0586V51.8125L463.98 56.1289V58.1562L453.828 62.4648Z" fill="#1A2523"/>
<path d="M152.488 136.551V134.527L162.641 130.215V132.453L154.773 135.539L162.641 138.625V140.867L152.488 136.551Z" fill="#1A2523"/>
<path d="M170.508 142.938V136.359C170.508 134.766 169.969 134.266 168.699 134.266C167.297 134.266 166.523 135.434 166.523 136.859V142.938H163.719V128.445H166.523V133.707C166.934 132.762 168.227 132.047 169.648 132.047C171.824 132.047 173.332 133.32 173.332 135.434V142.938H170.508Z" fill="#1A2523"/>
<path d="M180.469 135.949H183.074V138.973C183.074 141.211 181.781 143.223 178.789 143.223C175.684 143.223 174.453 141.238 174.453 138.945V129.457H177.215V132.328H183.074V134.312H177.215V138.664C177.215 140.008 177.688 140.781 178.828 140.781C179.949 140.781 180.469 140.027 180.469 138.707V135.949Z" fill="#1A2523"/>
<path d="M196.527 142.938V136.512C196.527 135.238 195.859 134.332 194.867 134.332C193.836 134.332 193.078 135.305 193.078 136.598V142.938H190.273V136.551C190.273 134.848 189.82 134.418 188.594 134.418C187.477 134.418 186.891 135.109 186.891 136.488V142.938H184.094V132.328H186.719V133.883C187.43 132.48 188.422 132.047 189.82 132.047C191.266 132.047 191.957 132.5 192.777 133.727C193.355 132.563 194.305 132.047 195.641 132.047C197.773 132.047 199.262 133.602 199.262 135.586V142.938H196.527Z" fill="#1A2523"/>
<path d="M200.391 142.938V128.445H203.188V142.938H200.391Z" fill="#1A2523"/>
<path d="M204.336 137.309L204.637 128.613H213.449V130.988H207.133L207.008 134.828C207.758 134.031 208.793 133.816 209.852 133.816C212.176 133.816 213.988 135.449 213.988 138.324C213.988 141.41 211.965 143.434 209.051 143.434C206.445 143.434 204.395 141.711 204.289 139.254H207.09C207.199 140.438 207.93 141.148 209.051 141.148C210.605 141.148 211.184 140.07 211.184 138.453C211.184 136.961 210.543 136.078 209.223 136.078C208.211 136.078 207.609 136.512 207.219 137.309H204.336Z" fill="#1A2523"/>
<path d="M214.68 140.867V138.625L222.547 135.539L214.68 132.453V130.215L224.832 134.527V136.551L214.68 140.867Z" fill="#1A2523"/>
<path d="M9.30469 58.1562V56.1289L19.457 51.8125V54.0586L11.5898 57.1406L19.457 60.2266V62.4648L9.30469 58.1562Z" fill="#1A2523"/>
<path d="M26.918 57.1406C26.7891 56.1719 26.2266 55.7383 25.0234 55.7383C23.8789 55.7383 23.2734 55.9805 23.2734 56.6445C23.2734 57.2266 23.8789 57.5313 25 57.832C28.707 58.8477 29.9102 59.0391 29.9102 61.5195C29.9102 63.418 28.2969 64.8203 25.2148 64.8203C22.1797 64.8203 20.2148 63.375 20.168 61.1328H23.0625C23.0625 62.125 23.9414 62.707 25.1953 62.707C26.2461 62.707 27.1367 62.3828 27.1367 61.6914C27.1367 60.9141 26.5742 60.6602 25.4336 60.3984C21.3164 59.4922 20.5586 58.4375 20.5586 56.6445C20.5586 55.0508 21.7891 53.6484 25.1055 53.6484C28.1484 53.6484 29.4805 54.9648 29.6094 57.1406H26.918Z" fill="#1A2523"/>
<path d="M40.1523 60.6992C39.8516 63.1562 37.8477 64.8203 35.2852 64.8203C32.3906 64.8203 30.4102 62.9023 30.4102 59.1055C30.4102 55.3086 32.3906 53.6484 35.3672 53.6484C38.1289 53.6484 40 55.2188 40.1719 57.7227H37.3477C37.1992 56.625 36.4063 55.9805 35.3477 55.9805C34.1641 55.9805 33.1914 56.7305 33.1914 59.0391C33.1914 61.3516 34.1641 62.4648 35.2617 62.4648C36.3594 62.4648 37.2188 61.8437 37.3281 60.6992H40.1523Z" fill="#1A2523"/>
<path d="M40.8672 64.5391V53.9258H43.4961V55.1992C44.4219 53.7773 45.4961 53.6484 46.6406 53.6484H47.0078V56.5195C46.75 56.4727 46.4883 56.4531 46.2305 56.4531C44.5078 56.4531 43.6641 57.3125 43.6641 59.0195V64.5391H40.8672Z" fill="#1A2523"/>
<path d="M47.7188 64.5391V53.9258H50.5234V64.5391H47.7188ZM47.7188 52.6562V50.0469H50.5234V52.6562H47.7188Z" fill="#1A2523"/>
<path d="M59.1211 59.1484C59.1211 57.25 58.1289 55.9336 56.7305 55.9336C55.3945 55.9336 54.3594 57.1836 54.3594 58.9766C54.3594 61.2813 55.1563 62.4258 56.707 62.4258C58.3438 62.4258 59.1211 61.3242 59.1211 59.1484ZM51.7109 69.5625V53.9258H54.4023L54.4258 55.2188C55.0898 54.1445 56.0859 53.6484 57.3789 53.6484C60.0469 53.6484 61.9648 55.7617 61.9648 59.3398C61.9648 62.5547 60.3516 64.8203 57.6133 64.8203C56.2969 64.8203 55.2656 64.2812 54.4648 63.1562V69.5625H51.7109Z" fill="#1A2523"/>
<path d="M68.8867 57.5547H71.4961V60.5703C71.4961 62.8164 70.2031 64.8203 67.207 64.8203C64.1055 64.8203 62.875 62.8359 62.875 60.5508V51.0586H65.6289V53.9258H71.4961V55.9102H65.6289V60.2695C65.6289 61.6055 66.1094 62.3828 67.25 62.3828C68.3711 62.3828 68.8867 61.6289 68.8867 60.3125V57.5547Z" fill="#1A2523"/>
<path d="M72.4453 62.4648V60.2266L80.3125 57.1406L72.4453 54.0586V51.8125L82.5977 56.1289V58.1562L72.4453 62.4648Z" fill="#1A2523"/>
<path d="M287.352 162.84V160.812L297.504 156.504V158.742L289.637 161.828L297.504 164.914V167.156L287.352 162.84Z" fill="#1A2523"/>
<path d="M305.973 164.18C305.973 161.867 305.18 160.727 303.629 160.727C301.988 160.727 301.211 161.828 301.211 164.008C301.211 165.906 302.199 167.219 303.605 167.219C304.941 167.219 305.973 165.965 305.973 164.18ZM305.934 169.223L305.91 167.93C305.242 169.012 304.25 169.504 302.957 169.504C300.285 169.504 298.363 167.391 298.363 163.812C298.363 160.598 299.984 158.336 302.719 158.336C304.031 158.336 305.07 158.871 305.863 159.992V154.73H308.625V169.223H305.934Z" fill="#1A2523"/>
<path d="M309.816 169.223V158.613H312.613V169.223H309.816ZM309.816 157.34V154.73H312.613V157.34H309.816Z" fill="#1A2523"/>
<path d="M317.098 169.223L313.309 158.613H316.434L318.648 165.625L320.891 158.613H323.844L320.027 169.223H317.098Z" fill="#1A2523"/>
<path d="M324.43 167.156V164.914L332.293 161.828L324.43 158.742V156.504L334.578 160.812V162.84L324.43 167.156Z" fill="#1A2523"/>
<path d="M261.031 23.3125H259.039V26.6875H213.816V76.0742H282.809V21.3164H259.039V23.3125H261.031V25.3086H278.824V72.0859H217.801V30.6797H263.023V23.3125H261.031V25.3086V23.3125Z" fill="#1A2523"/>
<path d="M215.809 68.1289H211.086V18.5117H273.879V23.3125H277.863V14.5234H207.102V72.1172H215.809V68.1289Z" fill="#1A2523"/>
<path d="M474.133 107.125L475.449 105.629C473.934 104.289 472.465 102.91 470.988 101.5L470.41 100.949H413.09V190.402H482.621V111.977L481.953 111.387C479.789 109.457 477.613 107.547 475.449 105.629L474.133 107.125L472.809 108.617C474.977 110.543 477.152 112.449 479.305 114.367L480.629 112.875H478.637V186.41H417.074V104.941H469.609V102.945L468.242 104.391C469.727 105.809 471.234 107.227 472.809 108.617L474.133 107.125Z" fill="#1A2523"/>
<path d="M469.609 102.945H467.617V115.27C467.617 115.797 467.832 116.309 468.203 116.684C468.574 117.055 469.086 117.266 469.609 117.266H480.629C481.152 117.266 481.668 117.055 482.043 116.684C482.41 116.309 482.621 115.797 482.621 115.27V112.875C482.621 112.317 482.379 111.77 481.965 111.395L470.945 101.461C470.363 100.934 469.523 100.801 468.801 101.121C468.086 101.438 467.617 102.156 467.617 102.945H469.609L468.277 104.426L478.637 113.766V115.27H480.629V113.277H471.605V102.945H469.609L468.277 104.426L469.609 102.945Z" fill="#1A2523"/>
<path d="M426.926 129.898H469.609V125.91H426.926V129.898Z" fill="#1A2523"/>
<path d="M426.926 142.312H469.609V138.324H426.926V142.312Z" fill="#1A2523"/>
<path d="M426.926 154.723H469.609V150.73H426.926V154.723Z" fill="#1A2523"/>
<path d="M426.926 167.137H469.609V163.145H426.926V167.137Z" fill="#1A2523"/>
<path d="M57.2969 124.207H55.3008C55.3008 129.297 53.2461 133.887 49.9141 137.227C46.5781 140.563 41.9883 142.617 36.9023 142.617C31.8164 142.617 27.2266 140.563 23.8906 137.227C20.5586 133.887 18.5039 129.297 18.5039 124.207C18.5039 119.109 20.5586 114.523 23.8906 111.184C27.2266 107.848 31.8164 105.793 36.9023 105.785C41.9883 105.793 46.5781 107.848 49.9141 111.184C53.2461 114.523 55.3008 119.109 55.3008 124.207H59.2891C59.2891 111.828 49.2656 101.801 36.9023 101.797C24.5391 101.801 14.5156 111.828 14.5156 124.207C14.5156 136.578 24.5391 146.609 36.9023 146.609C49.2656 146.609 59.2891 136.578 59.2891 124.207H57.2969Z" fill="#1A2523"/>
<path d="M46.0234 116.41C47.9648 118.684 48.8086 121.297 48.8125 123.926C48.8203 127.035 47.5859 130.148 45.4727 132.438C43.3555 134.73 40.4375 136.203 36.9023 136.211V140.199C41.5937 140.203 45.6289 138.172 48.4062 135.141C51.1914 132.105 52.7969 128.074 52.8008 123.926C52.8047 120.422 51.6289 116.82 49.0547 113.812L46.0234 116.41Z" fill="#1A2523"/>
<path d="M36.9023 112.195C38.7266 112.195 40.5469 112.617 42.1758 113.418L43.9297 109.84C41.7461 108.762 39.332 108.211 36.9023 108.207V112.195Z" fill="#1A2523"/>
<path d="M64.5195 124.207H62.5273C62.5273 131.289 59.6602 137.687 55.0234 142.34C50.375 146.98 43.9883 149.848 36.9023 149.848C29.8164 149.848 23.4297 146.98 18.7852 142.34C14.1445 137.687 11.2773 131.289 11.2773 124.207C11.2773 117.113 14.1445 110.715 18.7852 106.066C23.4297 101.422 29.8164 98.5547 36.9023 98.5547C43.9883 98.5547 50.375 101.422 55.0234 106.066C59.6602 110.715 62.5273 117.113 62.5273 124.207H66.5117C66.5117 107.84 53.2578 94.5664 36.9023 94.5664C20.5469 94.5664 7.29297 107.84 7.29297 124.207C7.29297 140.57 20.5469 153.84 36.9023 153.84C53.2578 153.84 66.5117 140.57 66.5117 124.207H64.5195Z" fill="#1A2523"/>
<path d="M39.8164 161.418V159.422H35.9844V153.672H37.8203V161.418H39.8164V159.422V161.418H41.8086V149.684H32V163.41H41.8086V161.418H39.8164Z" fill="#1A2523"/>
<path d="M43.8633 194.785V192.789H31.9375V163.41H41.8711V194.785H43.8633V192.789V194.785H45.8555V159.422H27.9492V196.777H45.8555V194.785H43.8633Z" fill="#1A2523"/>
<path d="M109.207 59.8477C109.207 59.4375 109.062 59.0937 108.777 58.8047C108.484 58.5195 108.137 58.375 107.734 58.375C107.328 58.375 106.988 58.5195 106.699 58.8047C106.422 59.0937 106.273 59.4375 106.273 59.8477V69.1094C106.273 69.5156 106.422 69.8633 106.699 70.1523C106.988 70.4414 107.328 70.5859 107.734 70.5859C108.137 70.5859 108.484 70.4414 108.777 70.1523C109.062 69.8633 109.207 69.5156 109.207 69.1094V59.8477ZM111.855 69.1523C111.855 70.2773 111.461 71.2344 110.668 72.0195C109.879 72.8047 108.922 73.1914 107.816 73.1914C106.691 73.1914 105.734 72.8047 104.945 72.0117C104.156 71.2227 103.762 70.2695 103.762 69.1523V59.9023C103.762 58.7734 104.156 57.8164 104.953 57.0273C105.746 56.2383 106.699 55.8438 107.816 55.8438C108.941 55.8438 109.898 56.2383 110.684 57.0352C111.465 57.8281 111.855 58.7852 111.855 59.9023V69.1523Z" fill="#1A2523"/>
<path d="M117.543 73.0156V59.9688H115.367V58.1875C115.98 58.1094 116.566 57.8789 117.117 57.4844C117.672 57.0977 118.074 56.625 118.316 56.0586H120.102V73.0156H117.543Z" fill="#1A2523"/>
<path d="M129.059 59.8477C129.059 59.4375 128.914 59.0937 128.625 58.8047C128.34 58.5195 127.992 58.375 127.586 58.375C127.18 58.375 126.832 58.5195 126.555 58.8047C126.27 59.0937 126.129 59.4375 126.129 59.8477V69.1094C126.129 69.5156 126.27 69.8633 126.555 70.1523C126.832 70.4414 127.18 70.5859 127.586 70.5859C127.992 70.5859 128.34 70.4414 128.625 70.1523C128.914 69.8633 129.059 69.5156 129.059 69.1094V59.8477ZM131.707 69.1523C131.707 70.2773 131.309 71.2344 130.52 72.0195C129.727 72.8047 128.773 73.1914 127.664 73.1914C126.539 73.1914 125.582 72.8047 124.793 72.0117C124.004 71.2227 123.609 70.2695 123.609 69.1523V59.9023C123.609 58.7734 124.012 57.8164 124.801 57.0273C125.594 56.2383 126.547 55.8438 127.664 55.8438C128.789 55.8438 129.746 56.2383 130.527 57.0352C131.312 57.8281 131.707 58.7852 131.707 59.9023V69.1523Z" fill="#1A2523"/>
<path d="M137.395 73.0156V59.9688H135.223V58.1875C135.832 58.1094 136.414 57.8789 136.969 57.4844C137.527 57.0977 137.922 56.625 138.164 56.0586H139.949V73.0156H137.395Z" fill="#1A2523"/>
<path d="M105.938 92.707V78.9414H103.762V77.0586C104.375 76.9805 104.957 76.7344 105.512 76.3242C106.066 75.9102 106.469 75.4063 106.707 74.8203H108.492V92.707H105.938Z" fill="#1A2523"/>
<path d="M117.449 78.8125C117.449 78.3867 117.305 78.0195 117.02 77.7109C116.727 77.4102 116.387 77.2617 115.977 77.2617C115.57 77.2617 115.227 77.4102 114.941 77.7109C114.664 78.0195 114.516 78.3867 114.516 78.8125V88.582C114.516 89.0156 114.664 89.3789 114.941 89.6836C115.227 89.9844 115.57 90.1367 115.977 90.1367C116.387 90.1367 116.727 89.9844 117.02 89.6836C117.305 89.3789 117.449 89.0156 117.449 88.582V78.8125ZM120.102 88.625C120.102 89.8125 119.703 90.8203 118.91 91.6523C118.121 92.4805 117.164 92.8945 116.059 92.8945C114.934 92.8945 113.977 92.4727 113.188 91.6445C112.398 90.8125 112.004 89.8047 112.004 88.625V78.8711C112.004 77.6797 112.398 76.668 113.195 75.8359C113.988 75.0039 114.941 74.5898 116.059 74.5898C117.184 74.5898 118.141 75.0039 118.926 75.8398C119.707 76.6836 120.102 77.6914 120.102 78.8711V88.625Z" fill="#1A2523"/>
<path d="M125.789 92.707V78.9414H123.609V77.0586C124.223 76.9805 124.809 76.7344 125.359 76.3242C125.914 75.9102 126.316 75.4063 126.559 74.8203H128.344V92.707H125.789Z" fill="#1A2523"/>
<path d="M137.301 78.8125C137.301 78.3867 137.156 78.0195 136.867 77.7109C136.582 77.4102 136.234 77.2617 135.828 77.2617C135.422 77.2617 135.074 77.4102 134.797 77.7109C134.512 78.0195 134.371 78.3867 134.371 78.8125V88.582C134.371 89.0156 134.512 89.3789 134.797 89.6836C135.074 89.9844 135.422 90.1367 135.828 90.1367C136.234 90.1367 136.582 89.9844 136.867 89.6836C137.156 89.3789 137.301 89.0156 137.301 88.582V78.8125ZM139.949 88.625C139.949 89.8125 139.551 90.8203 138.762 91.6523C137.965 92.4805 137.016 92.8945 135.906 92.8945C134.781 92.8945 133.824 92.4727 133.035 91.6445C132.246 90.8125 131.852 89.8047 131.852 88.625V78.8711C131.852 77.6797 132.254 76.668 133.043 75.8359C133.836 75.0039 134.789 74.5898 135.906 74.5898C137.031 74.5898 137.988 75.0039 138.77 75.8398C139.555 76.6836 139.949 77.6914 139.949 78.8711V88.625Z" fill="#1A2523"/>
<path d="M109.207 99.6797C109.207 99.2461 109.062 98.8828 108.777 98.5781C108.484 98.2773 108.137 98.125 107.734 98.125C107.328 98.125 106.988 98.2773 106.699 98.5781C106.422 98.8828 106.273 99.2461 106.273 99.6797V109.449C106.273 109.875 106.422 110.242 106.699 110.543C106.988 110.852 107.328 111 107.734 111C108.137 111 108.484 110.852 108.777 110.543C109.062 110.242 109.207 109.875 109.207 109.449V99.6797ZM111.855 109.488C111.855 110.68 111.461 111.687 110.668 112.512C109.879 113.344 108.922 113.754 107.816 113.754C106.691 113.754 105.734 113.34 104.945 112.508C104.156 111.676 103.762 110.668 103.762 109.488V99.7344C103.762 98.5469 104.156 97.5312 104.953 96.7031C105.746 95.8711 106.699 95.4492 107.816 95.4492C108.941 95.4492 109.898 95.8711 110.684 96.707C111.465 97.543 111.855 98.5547 111.855 99.7344V109.488Z" fill="#1A2523"/>
<path d="M117.543 113.574V99.8008H115.367V97.9219C115.98 97.8438 116.566 97.6016 117.117 97.1836C117.672 96.7734 118.074 96.2695 118.316 95.6836H120.102V113.574H117.543Z" fill="#1A2523"/>
<path d="M130.816 99.6797C130.816 99.2461 130.668 98.8828 130.383 98.5781C130.094 98.2773 129.746 98.125 129.34 98.125C128.937 98.125 128.594 98.2773 128.309 98.5781C128.023 98.8828 127.883 99.2461 127.883 99.6797V109.449C127.883 109.875 128.023 110.242 128.309 110.543C128.594 110.852 128.937 111 129.34 111C129.746 111 130.094 110.852 130.383 110.543C130.668 110.242 130.816 109.875 130.816 109.449V99.6797ZM133.461 109.488C133.461 110.68 133.066 111.687 132.273 112.512C131.48 113.344 130.527 113.754 129.422 113.754C128.297 113.754 127.336 113.34 126.555 112.508C125.766 111.676 125.371 110.668 125.371 109.488V99.7344C125.371 98.5469 125.766 97.5312 126.559 96.7031C127.352 95.8711 128.309 95.4492 129.422 95.4492C130.551 95.4492 131.504 95.8711 132.289 96.707C133.074 97.543 133.461 98.5547 133.461 99.7344V109.488Z" fill="#1A2523"/>
<path d="M137.707 113.574V99.8008H135.527V97.9219C136.141 97.8438 136.727 97.6016 137.281 97.1836C137.832 96.7734 138.23 96.2695 138.477 95.6836H140.262V113.574H137.707Z" fill="#1A2523"/>
<path d="M359.516 98.5195V96.5234C356.277 96.5234 353.359 95.2148 351.234 93.0898C349.109 90.9609 347.801 88.043 347.801 84.8008C347.801 81.5547 349.109 78.6367 351.234 76.5078C353.359 74.3867 356.277 73.0781 359.516 73.0781C362.762 73.0781 365.676 74.3867 367.801 76.5078C369.93 78.6367 371.23 81.5547 371.234 84.8008C371.23 88.043 369.93 90.9609 367.801 93.0898C365.676 95.2148 362.762 96.5234 359.516 96.5234V100.516C368.188 100.516 375.215 93.4805 375.223 84.8008C375.215 76.1172 368.188 69.0898 359.516 69.0898C350.844 69.0898 343.816 76.1172 343.816 84.8008C343.816 93.4805 350.844 100.516 359.516 100.516V98.5195ZM386.07 86.8281L388.059 86.9766C388.109 86.2734 388.145 85.5508 388.145 84.8008C388.145 84.0469 388.109 83.3281 388.059 82.6211L387.969 81.4844L386.945 80.9805C385.57 80.3086 384.664 79.6484 384.18 79.0977C383.937 78.8242 383.789 78.5859 383.703 78.3594C383.613 78.1367 383.574 77.9258 383.574 77.6562C383.566 77.3125 383.652 76.8555 383.891 76.2617C384.125 75.6758 384.512 74.9688 385.066 74.1641L385.727 73.2031L385.207 72.1523C384.602 70.9219 383.906 69.7344 383.137 68.6133L382.473 67.6406L381.309 67.75C380.816 67.7969 380.367 67.8164 379.961 67.8164C379.152 67.8164 378.523 67.7266 378.086 67.5898C377.754 67.4844 377.531 67.3633 377.359 67.2344C377.109 67.0391 376.941 66.8203 376.77 66.3711C376.602 65.9297 376.484 65.2578 376.488 64.3398C376.488 63.9375 376.508 63.4844 376.555 62.9961L376.66 61.8281L375.699 61.168C374.566 60.3906 373.383 59.6992 372.156 59.0898L371.105 58.5703L370.145 59.2305C369.34 59.7852 368.629 60.1758 368.051 60.4102C367.457 60.6484 367 60.7305 366.652 60.7305C366.387 60.7266 366.176 60.6836 365.953 60.5977C365.625 60.4609 365.234 60.2031 364.785 59.6758C364.332 59.1523 363.84 58.3789 363.336 57.3516L362.832 56.3281L361.695 56.2383C360.992 56.1875 360.27 56.1523 359.516 56.1523C358.77 56.1523 358.047 56.1875 357.34 56.2383L356.203 56.3281L355.703 57.3516C355.031 58.7266 354.367 59.6367 353.824 60.1172C353.547 60.3633 353.305 60.5078 353.086 60.5977C352.863 60.6836 352.648 60.7266 352.379 60.7305C352.031 60.7305 351.574 60.6484 350.988 60.4102C350.402 60.1758 349.695 59.7852 348.891 59.2305L347.934 58.5703L346.883 59.0898C345.648 59.6992 344.465 60.3945 343.34 61.168L342.371 61.8281L342.48 62.9922C342.527 63.4844 342.551 63.9375 342.551 64.3398C342.551 65.1523 342.457 65.7812 342.32 66.2188C342.219 66.5508 342.098 66.7734 341.969 66.9453C341.77 67.1953 341.555 67.3633 341.105 67.5352C340.664 67.7031 339.984 67.8203 339.07 67.8164C338.668 67.8164 338.223 67.7969 337.727 67.75L336.559 67.6406L335.902 68.6133C335.129 69.7383 334.434 70.9219 333.824 72.1523L333.312 73.2031L333.969 74.1641C334.523 74.9688 334.91 75.6758 335.148 76.2617C335.383 76.8555 335.465 77.3125 335.465 77.6562C335.465 77.9258 335.422 78.1367 335.336 78.3594C335.199 78.6953 334.941 79.0781 334.41 79.5312C333.891 79.9805 333.117 80.4805 332.09 80.9805L331.07 81.4844L330.98 82.6211C330.93 83.3281 330.891 84.0469 330.891 84.8008C330.891 85.5508 330.93 86.2734 330.98 86.9766L331.07 88.1172L332.09 88.6211C333.465 89.2891 334.375 89.9531 334.859 90.5C335.102 90.7734 335.242 91.0156 335.336 91.2383C335.422 91.4609 335.465 91.6719 335.465 91.9453C335.465 92.2852 335.383 92.7422 335.148 93.3359C334.91 93.9219 334.523 94.6289 333.969 95.4336L333.312 96.3945L333.824 97.4453C334.434 98.6797 335.129 99.8633 335.902 100.992L336.559 101.957L337.727 101.848C338.223 101.801 338.668 101.781 339.07 101.781C339.887 101.781 340.508 101.871 340.949 102.012C341.277 102.113 341.508 102.234 341.672 102.363C341.922 102.563 342.098 102.777 342.27 103.227C342.43 103.668 342.551 104.344 342.551 105.258C342.551 105.66 342.527 106.113 342.48 106.605L342.371 107.77L343.34 108.434C344.465 109.211 345.648 109.898 346.883 110.512L347.934 111.027L348.891 110.367C349.695 109.812 350.402 109.426 350.988 109.188C351.582 108.953 352.031 108.871 352.379 108.871C352.648 108.871 352.863 108.914 353.086 109C353.414 109.137 353.797 109.395 354.254 109.922C354.703 110.445 355.199 111.219 355.703 112.25L356.203 113.27L357.336 113.359C358.043 113.418 358.77 113.453 359.516 113.453C360.27 113.453 360.992 113.418 361.703 113.359L362.832 113.27L363.336 112.25C364.004 110.871 364.664 109.961 365.215 109.48C365.488 109.234 365.73 109.094 365.953 109C366.176 108.914 366.387 108.871 366.652 108.871C367 108.871 367.457 108.953 368.043 109.188C368.629 109.426 369.34 109.812 370.145 110.367L371.105 111.027L372.156 110.512C373.383 109.898 374.566 109.211 375.699 108.434L376.66 107.77L376.555 106.605C376.508 106.113 376.488 105.66 376.488 105.258C376.488 104.445 376.578 103.816 376.715 103.383C376.816 103.055 376.941 102.824 377.07 102.656C377.266 102.41 377.484 102.234 377.93 102.062C378.371 101.895 379.047 101.781 379.961 101.781C380.367 101.781 380.812 101.801 381.305 101.848L382.473 101.957L383.137 100.992C383.906 99.8633 384.602 98.6797 385.207 97.4453L385.727 96.3945L385.066 95.4336C384.512 94.6289 384.125 93.9219 383.891 93.3359C383.652 92.7422 383.566 92.2852 383.574 91.9453C383.574 91.6719 383.613 91.4609 383.703 91.2383C383.836 90.9102 384.098 90.5273 384.621 90.0703C385.141 89.6172 385.914 89.125 386.945 88.6211L387.969 88.1172L388.059 86.9766L386.07 86.8281L385.191 85.0352C383.547 85.8477 382.207 86.7227 381.199 87.8516C380.699 88.4102 380.289 89.0508 380.008 89.7461C379.727 90.4414 379.582 91.1953 379.586 91.9453C379.586 92.9219 379.816 93.8828 380.195 94.8203C380.574 95.7734 381.109 96.7109 381.777 97.6875L383.422 96.5625L381.633 95.6836C381.113 96.7422 380.512 97.7617 379.848 98.7383L381.492 99.8633L381.672 97.875C381.078 97.8242 380.512 97.793 379.961 97.793C378.867 97.793 377.852 97.9062 376.91 98.1992C376.199 98.4141 375.527 98.7422 374.941 99.1953C374.055 99.8633 373.398 100.809 373.027 101.848C372.648 102.895 372.504 104.027 372.504 105.258C372.504 105.809 372.527 106.379 372.586 106.973L374.566 106.789L373.441 105.148C372.473 105.812 371.453 106.41 370.391 106.934L371.273 108.723L372.398 107.074C371.418 106.406 370.477 105.871 369.535 105.492C368.59 105.109 367.633 104.883 366.652 104.883C365.906 104.883 365.152 105.023 364.461 105.305C363.414 105.723 362.52 106.441 361.762 107.32C361.004 108.203 360.363 109.258 359.754 110.492L361.547 111.371L361.391 109.383C360.758 109.434 360.133 109.465 359.516 109.465C358.898 109.465 358.281 109.434 357.648 109.383L357.492 111.371L359.281 110.492C358.473 108.848 357.598 107.512 356.469 106.5C355.902 106 355.27 105.582 354.574 105.305C353.879 105.023 353.129 104.883 352.379 104.883C351.402 104.883 350.445 105.109 349.5 105.492C348.555 105.871 347.613 106.406 346.641 107.074L347.766 108.723L348.645 106.934C347.582 106.41 346.566 105.812 345.598 105.148L344.465 106.789L346.453 106.973C346.504 106.379 346.535 105.809 346.535 105.258C346.535 104.16 346.422 103.148 346.129 102.203C345.914 101.492 345.586 100.824 345.133 100.234C344.465 99.3438 343.52 98.6914 342.48 98.3164C341.437 97.9375 340.309 97.793 339.07 97.793C338.527 97.793 337.957 97.8242 337.359 97.875L337.547 99.8633L339.188 98.7383C338.523 97.7656 337.926 96.7422 337.402 95.6836L335.617 96.5625L337.262 97.6875C337.93 96.7109 338.465 95.7734 338.844 94.8203C339.223 93.8828 339.449 92.9219 339.449 91.9453C339.449 91.1953 339.312 90.4414 339.031 89.7461C338.609 88.6992 337.895 87.8047 337.016 87.0508C336.133 86.293 335.082 85.6445 333.844 85.0352L332.969 86.8281L334.957 86.6758C334.91 86.043 334.875 85.4141 334.875 84.8008C334.875 84.1836 334.91 83.5586 334.957 82.9219L332.969 82.7773L333.844 84.5625C335.492 83.7539 336.824 82.875 337.836 81.7461C338.336 81.1875 338.75 80.5469 339.031 79.8516C339.312 79.1563 339.449 78.4062 339.449 77.6562C339.449 76.6836 339.223 75.7187 338.844 74.7773C338.465 73.832 337.93 72.8867 337.254 71.9102L335.617 73.0352L337.402 73.918C337.926 72.8555 338.523 71.8359 339.188 70.8672L337.547 69.7383L337.359 71.7227C337.957 71.7734 338.527 71.8047 339.07 71.8047C340.172 71.8047 341.184 71.6914 342.129 71.4023C342.836 71.1836 343.504 70.8555 344.09 70.4023C344.977 69.7344 345.637 68.7891 346.012 67.75C346.391 66.707 346.535 65.5742 346.535 64.3398C346.535 63.7969 346.504 63.2266 346.453 62.6289L344.465 62.8086L345.598 64.457C346.566 63.7852 347.582 63.1875 348.645 62.668L347.766 60.8789L346.641 62.5234C347.613 63.1953 348.555 63.7305 349.5 64.1094C350.445 64.4922 351.402 64.7148 352.379 64.7227C353.129 64.7227 353.879 64.5742 354.574 64.2969C355.625 63.875 356.516 63.1641 357.27 62.2812C358.027 61.4023 358.676 60.3437 359.281 59.1055L357.492 58.2266L357.641 60.2188C358.281 60.1719 358.898 60.1406 359.516 60.1406C360.133 60.1406 360.758 60.1719 361.395 60.2188L361.547 58.2266L359.754 59.1055C360.566 60.7539 361.438 62.0859 362.566 63.1016C363.129 63.6055 363.762 64.0156 364.461 64.2969C365.152 64.5742 365.906 64.7227 366.652 64.7227C367.633 64.7148 368.59 64.4922 369.535 64.1094C370.477 63.7305 371.422 63.1953 372.398 62.5234L371.273 60.8789L370.391 62.668C371.453 63.1875 372.473 63.7852 373.441 64.457L374.566 62.8086L372.586 62.6289C372.527 63.2188 372.504 63.793 372.504 64.3398C372.504 65.4375 372.617 66.4492 372.906 67.3945C373.125 68.1094 373.453 68.7773 373.898 69.3633C374.566 70.2539 375.52 70.9062 376.555 71.2812C377.598 71.6602 378.73 71.8047 379.961 71.8047C380.512 71.8047 381.078 71.7813 381.672 71.7227L381.492 69.7383L379.848 70.8672C380.512 71.8359 381.113 72.8555 381.633 73.918L383.422 73.0352L381.777 71.9102C381.109 72.8906 380.574 73.832 380.195 74.7773C379.816 75.7187 379.586 76.6836 379.586 77.6562C379.582 78.4062 379.727 79.1563 380.008 79.8516C380.426 80.9023 381.145 81.793 382.02 82.5508C382.898 83.3125 383.957 83.957 385.191 84.5625L386.07 82.7695L384.082 82.9219C384.129 83.5586 384.16 84.1836 384.16 84.8008C384.16 85.4141 384.129 86.043 384.082 86.6758L386.07 86.8281L385.191 85.0352L386.07 86.8281Z" fill="#1A2523"/>
<path d="M499.785 211.727C505.324 211.727 510.863 211.727 516.402 211.727V207.738C510.863 207.738 505.324 207.738 499.785 207.738V211.727Z" fill="#1A2523"/>
<path d="M449.945 211.727C461.633 211.727 473.328 211.727 485.02 211.727V207.738C473.328 207.738 461.633 207.738 449.945 207.738V211.727Z" fill="#1A2523"/>
<path d="M421.559 211.727C426.324 211.727 431.09 211.727 435.859 211.727V207.738C431.09 207.738 426.324 207.738 421.559 207.738V211.727Z" fill="#1A2523"/>
<path d="M285.27 4.75H354.797V0.757812H285.27V4.75Z" fill="#1A2523"/>
<path d="M359.344 4.75H373.742V0.757812H359.344V4.75Z" fill="#1A2523"/>
<path d="M8.69922 25.3086H48.457V21.3164H8.69922V25.3086Z" fill="#1A2523"/>
<path d="M51.0547 25.3086H59.2891V21.3164H51.0547V25.3086Z" fill="#1A2523"/>
<path d="M24.8984 223.77H73.6719V219.777H24.8984V223.77Z" fill="#1A2523"/>
<path d="M11.6094 223.77H21.707V219.777H11.6094V223.77Z" fill="#1A2523"/>
<path d="M248.316 106.957H246.324C246.316 108.27 245.793 109.438 244.938 110.297C244.074 111.156 242.906 111.684 241.602 111.684C240.293 111.684 239.125 111.156 238.262 110.297C237.406 109.438 236.875 108.27 236.875 106.957C236.875 105.645 237.406 104.477 238.262 103.617C239.125 102.758 240.293 102.234 241.602 102.234C242.906 102.234 244.074 102.758 244.938 103.617C245.793 104.477 246.316 105.645 246.324 106.957H250.309C250.305 102.145 246.41 98.2461 241.602 98.2461C236.789 98.2461 232.895 102.145 232.891 106.957C232.895 111.77 236.789 115.672 241.602 115.672C246.41 115.672 250.305 111.77 250.309 106.957H248.316Z" fill="#1A2523"/>
<path d="M115.207 9.47656H113.215C113.215 10.7852 112.691 11.9531 111.836 12.8164C110.973 13.6719 109.805 14.1953 108.492 14.1953C107.184 14.1953 106.016 13.6719 105.152 12.8164C104.297 11.9531 103.773 10.7852 103.773 9.47656C103.773 8.16016 104.297 6.99219 105.152 6.12891C106.016 5.27344 107.184 4.75 108.492 4.75C109.805 4.75 110.973 5.27344 111.836 6.12891C112.691 6.99219 113.215 8.16016 113.215 9.47656H117.199C117.199 4.66016 113.305 0.757812 108.492 0.757812C103.684 0.757812 99.7891 4.66016 99.7891 9.47656C99.7891 14.2852 103.684 18.1875 108.492 18.1875C113.305 18.1875 117.199 14.2852 117.199 9.47656H115.207Z" fill="#1A2523"/>
<path d="M15.5234 311.316H13.5312C13.5312 312.625 13.0078 313.793 12.1523 314.656C11.2891 315.516 10.1211 316.039 8.8125 316.039C7.5 316.039 6.33203 315.516 5.47266 314.656C4.61328 313.793 4.08984 312.625 4.08984 311.316C4.08984 310.004 4.61328 308.832 5.47266 307.973C6.33203 307.113 7.5 306.59 8.8125 306.59C10.1211 306.59 11.2891 307.113 12.1523 307.973C13.0078 308.832 13.5312 310.004 13.5312 311.316H17.5156C17.5156 306.5 13.625 302.602 8.8125 302.602C4.00391 302.602 0.105469 306.5 0.105469 311.316C0.105469 316.125 4.00391 320.027 8.8125 320.027C13.6211 320.027 17.5156 316.125 17.5156 311.316H15.5234Z" fill="#1A2523"/>
<path d="M251.129 188.406H249.137C249.137 189.719 248.605 190.891 247.75 191.746C246.887 192.609 245.727 193.133 244.414 193.133C243.105 193.133 241.937 192.609 241.074 191.746C240.219 190.891 239.695 189.719 239.691 188.406C239.691 187.098 240.219 185.93 241.074 185.066C241.937 184.207 243.105 183.684 244.414 183.68C245.723 183.684 246.887 184.207 247.75 185.066C248.605 185.93 249.137 187.098 249.137 188.406H253.121C253.121 183.598 249.223 179.695 244.414 179.691C239.602 179.695 235.707 183.598 235.703 188.406C235.707 193.223 239.602 197.121 244.414 197.121C249.223 197.121 253.121 193.223 253.121 188.406H251.129Z" fill="#1A2523"/>
<path d="M465.621 23.3164H463.625C463.625 24.625 463.102 25.7969 462.246 26.6562C461.383 27.5156 460.219 28.0391 458.902 28.0391C457.598 28.0391 456.43 27.5156 455.566 26.6562C454.711 25.7969 454.188 24.625 454.188 23.3164C454.188 22.0039 454.711 20.8359 455.566 19.9727C456.43 19.1172 457.598 18.5898 458.902 18.5898C460.219 18.5898 461.383 19.1172 462.246 19.9727C463.102 20.8359 463.625 22.0039 463.625 23.3164H467.613C467.613 18.5039 463.715 14.6016 458.902 14.6016C454.098 14.6016 450.199 18.5039 450.195 23.3164C450.199 28.1289 454.098 32.0273 458.902 32.0273C463.715 32.0273 467.613 28.1289 467.613 23.3164H465.621Z" fill="#1A2523"/>
</svg>
