<svg width="241" height="244" viewBox="0 0 241 244" fill="none" xmlns="http://www.w3.org/2000/svg">
<g filter="url(#filter0_d)">
<path d="M121.006 3.09762C111.601 3.12712 105.081 3.95558 97.2024 5.3175C73.9318 9.37129 69.6937 17.8845 69.6937 33.5736V57.5522H124.121V69.6545H41.3171C25.3773 69.6545 11.4238 77.1697 7.0037 95.1819C2.00837 115.856 1.78466 128.804 7.0037 150.394C10.9641 166.493 19.6912 178.566 35.6384 178.566H57.6036V147.682C57.6036 129.736 73.8483 112.009 92.4603 112.009H136.221C151.48 112.009 166.459 100.743 166.459 85.5255V33.5736C166.459 18.8162 155.821 7.78075 140.951 5.30521C141.32 5.27079 130.331 3.06075 121.006 3.09762ZM90.8648 27.2999C95.8307 27.2999 99.9361 31.3955 99.9361 36.3884C99.9361 41.428 95.8307 45.4522 90.8648 45.4522C85.8031 45.4522 81.7936 41.4353 81.7936 36.3884C81.7936 31.4152 85.8031 27.2999 90.8648 27.2999Z" fill="#0277BD"/>
<path d="M115.145 233.021C124.549 232.991 131.068 232.163 138.947 230.801C162.22 226.747 166.458 218.234 166.458 202.545V178.566H112.031V166.464H194.84C210.78 166.464 224.733 158.949 229.153 140.936C234.148 120.262 234.372 107.314 229.153 85.7247C225.185 69.6251 216.458 57.5522 200.511 57.5522H178.548V88.4363C178.548 106.382 162.304 124.109 143.689 124.109H99.9309C84.672 124.109 69.6934 135.376 69.6934 150.593V202.545C69.6934 217.302 80.3306 228.338 95.201 230.813C94.8323 230.848 105.821 233.058 115.145 233.021ZM145.292 208.818C140.326 208.818 136.221 204.723 136.221 199.73C136.221 194.69 140.326 190.666 145.292 190.666C150.354 190.666 154.363 194.683 154.363 199.73C154.363 204.703 150.349 208.818 145.292 208.818Z" fill="#FFC107"/>
</g>
<defs>
<filter id="filter0_d" x="0" y="0" width="244" height="246" filterUnits="userSpaceOnUse" color-interpolation-filters="sRGB">
<feFlood flood-opacity="0" result="BackgroundImageFix"/>
<feColorMatrix in="SourceAlpha" type="matrix" values="0 0 0 0 0 0 0 0 0 0 0 0 0 0 0 0 0 0 127 0"/>
<feOffset dx="4" dy="6"/>
<feGaussianBlur stdDeviation="2"/>
<feColorMatrix type="matrix" values="0 0 0 0 0 0 0 0 0 0 0 0 0 0 0 0 0 0 0.25 0"/>
<feBlend mode="normal" in2="BackgroundImageFix" result="effect1_dropShadow"/>
<feBlend mode="normal" in="SourceGraphic" in2="effect1_dropShadow" result="shape"/>
</filter>
</defs>
</svg>
