<?xml version="1.0" encoding="UTF-8"?>
<svg xmlns="http://www.w3.org/2000/svg" xmlns:xlink="http://www.w3.org/1999/xlink" width="375pt" height="374.999991pt" viewBox="0 0 375 374.999991" version="1.2">
<defs>
<clipPath id="clip1">
  <path d="M 292.105469 177.28125 L 375 177.28125 L 375 260.0625 L 292.105469 260.0625 Z M 292.105469 177.28125 "/>
</clipPath>
<clipPath id="clip2">
  <path d="M 230 115.3125 L 357 115.3125 L 357 242 L 230 242 Z M 230 115.3125 "/>
</clipPath>
</defs>
<g id="surface1">
<g clip-path="url(#clip1)" clip-rule="nonzero">
<path style=" stroke:none;fill-rule:nonzero;fill:rgb(28.62854%,28.62854%,29.019165%);fill-opacity:1;" d="M 344.003906 219.265625 L 358.265625 204.929688 L 292.8125 177.757812 L 319.839844 243.558594 L 334.105469 229.21875 L 365.101562 260.378906 L 375 250.425781 L 344.003906 219.265625 "/>
</g>
<path style=" stroke:none;fill-rule:nonzero;fill:rgb(28.62854%,28.62854%,29.019165%);fill-opacity:1;" d="M 293.8125 164.257812 C 300.789062 164.257812 306.632812 169.246094 307.996094 175.863281 L 313.660156 178.21875 C 313.34375 167.46875 304.582031 158.847656 293.8125 158.847656 C 282.839844 158.847656 273.945312 167.785156 273.945312 178.816406 C 273.945312 189.667969 282.558594 198.492188 293.289062 198.773438 L 290.949219 193.085938 C 284.332031 191.75 279.324219 185.863281 279.324219 178.816406 C 279.324219 170.789062 285.824219 164.257812 293.8125 164.257812 "/>
<path style=" stroke:none;fill-rule:nonzero;fill:rgb(28.62854%,28.62854%,29.019165%);fill-opacity:1;" d="M 332.453125 186.015625 C 332.878906 183.679688 333.117188 181.277344 333.117188 178.816406 C 333.117188 156.996094 315.515625 139.308594 293.8125 139.308594 C 272.101562 139.308594 254.507812 156.996094 254.507812 178.816406 C 254.507812 200.636719 272.101562 218.324219 293.8125 218.324219 C 296.285156 218.324219 298.699219 218.085938 301.039062 217.644531 L 298.9375 212.523438 C 297.261719 212.777344 295.550781 212.910156 293.8125 212.910156 C 275.105469 212.910156 259.890625 197.617188 259.890625 178.816406 C 259.890625 160.015625 275.105469 144.71875 293.8125 144.71875 C 312.515625 144.71875 327.734375 160.015625 327.734375 178.816406 C 327.734375 180.546875 327.601562 182.242188 327.351562 183.898438 L 332.453125 186.015625 "/>
<path style=" stroke:none;fill-rule:nonzero;fill:rgb(28.62854%,28.62854%,29.019165%);fill-opacity:1;" d="M 45.023438 153.949219 C 45.023438 147.949219 51.84375 144.867188 56.785156 144.867188 C 68.722656 144.867188 78.617188 152.066406 78.617188 164.75 L 109.480469 164.75 L 109.480469 121.722656 L 80.148438 121.722656 L 78.445312 136.125 C 71.625 123.265625 57.128906 118.640625 42.804688 118.640625 C 26.09375 118.640625 2.21875 130.125 2.21875 155.492188 C 2.21875 199.207031 67.699219 193.550781 67.699219 206.917969 C 67.699219 214.121094 59.171875 215.492188 53.207031 215.492188 C 46.046875 215.148438 31.722656 212.746094 31.722656 198.347656 L 0 198.347656 L 0 241.546875 L 29.84375 241.546875 L 31.722656 228.347656 C 38.199219 236.0625 50.136719 244.117188 67.359375 244.117188 C 87.652344 244.117188 112.550781 234.519531 112.550781 207.777344 C 112.550781 167.496094 45.023438 171.609375 45.023438 153.949219 "/>
<path style=" stroke:none;fill-rule:nonzero;fill:rgb(28.62854%,28.62854%,29.019165%);fill-opacity:1;" d="M 121.078125 144.351562 L 131.824219 144.351562 L 131.824219 218.746094 L 121.078125 218.746094 L 121.078125 241.546875 L 223.910156 241.546875 L 223.910156 202.804688 L 194.410156 202.804688 L 194.410156 218.746094 L 167.121094 218.746094 L 167.121094 190.804688 L 199.523438 190.804688 L 199.523438 168.007812 L 167.121094 168.007812 L 167.121094 144.351562 L 194.410156 144.351562 L 194.410156 159.609375 L 223.910156 159.609375 L 223.910156 121.722656 L 121.078125 121.722656 L 121.078125 144.351562 "/>
<g clip-path="url(#clip2)" clip-rule="nonzero">
<path style=" stroke:none;fill-rule:nonzero;fill:rgb(28.62854%,28.62854%,29.019165%);fill-opacity:1;" d="M 293.636719 228.089844 C 266.371094 228.089844 244.265625 205.871094 244.265625 178.464844 C 244.265625 151.058594 266.371094 128.839844 293.636719 128.839844 C 320.902344 128.839844 343.003906 151.058594 343.003906 178.464844 C 343.003906 182.683594 342.476562 186.777344 341.492188 190.683594 L 353.957031 195.859375 C 355.535156 190.332031 356.390625 184.503906 356.390625 178.464844 C 356.390625 143.625 328.292969 115.382812 293.636719 115.382812 C 258.976562 115.382812 230.882812 143.625 230.882812 178.464844 C 230.882812 213.300781 258.976562 241.546875 293.636719 241.546875 C 299.582031 241.546875 305.332031 240.695312 310.78125 239.144531 L 305.636719 226.605469 C 301.792969 227.570312 297.777344 228.089844 293.636719 228.089844 "/>
</g>
</g>
</svg>
