<?xml version="1.0" encoding="UTF-8"?>
<svg xmlns="http://www.w3.org/2000/svg" xmlns:xlink="http://www.w3.org/1999/xlink" width="375pt" height="374.999991pt" viewBox="0 0 375 374.999991" version="1.2">
<defs>
<clipPath id="clip1">
  <path d="M 17.8125 1 L 355 1 L 355 374 L 17.8125 374 Z M 17.8125 1 "/>
</clipPath>
<clipPath id="clip2">
  <path d="M 17.8125 170 L 214 170 L 214 374 L 17.8125 374 Z M 17.8125 170 "/>
</clipPath>
</defs>
<g id="surface1">
<g clip-path="url(#clip1)" clip-rule="nonzero">
<path style=" stroke:none;fill-rule:nonzero;fill:rgb(1.179504%,60.778809%,89.7995%);fill-opacity:1;" d="M 46.414062 373.105469 C 43.871094 373.105469 41.3125 372.761719 38.796875 372.0625 C 31.398438 370.019531 25.253906 365.175781 21.480469 358.441406 C 19.0625 354.101562 17.792969 349.179688 17.8125 344.203125 L 17.8125 30.917969 C 17.625 15.171875 30.265625 2.097656 45.996094 1.90625 C 51.222656 1.789062 56.085938 3.160156 60.453125 5.660156 L 341.648438 165.441406 C 353.722656 172.386719 357.9375 187.898438 351.101562 200.023438 C 348.867188 203.992188 345.609375 207.277344 341.683594 209.53125 C 341.675781 209.542969 341.65625 209.550781 341.640625 209.558594 L 60.425781 369.355469 C 56.085938 371.832031 51.277344 373.105469 46.414062 373.105469 Z M 46.414062 373.105469 "/>
</g>
<g clip-path="url(#clip2)" clip-rule="nonzero">
<path style=" stroke:none;fill-rule:nonzero;fill:rgb(0.779724%,46.669006%,74.119568%);fill-opacity:1;" d="M 17.8125 170.707031 L 17.8125 344.214844 C 17.792969 349.1875 19.0625 354.101562 21.488281 358.441406 C 25.253906 365.175781 31.398438 370.019531 38.804688 372.0625 C 41.320312 372.761719 43.878906 373.105469 46.421875 373.105469 C 51.285156 373.105469 56.09375 371.832031 60.433594 369.355469 L 213.933594 282.136719 Z M 17.8125 170.707031 "/>
</g>
<path style=" stroke:none;fill-rule:nonzero;fill:rgb(16.079712%,71.369934%,96.469116%);fill-opacity:1;" d="M 62.101562 119.308594 L 62.101562 368.402344 L 324.847656 219.105469 L 104.75 94.046875 C 100.371094 91.546875 95.519531 90.175781 90.292969 90.292969 C 74.554688 90.488281 61.914062 103.558594 62.101562 119.308594 Z M 62.101562 119.308594 "/>
<path style=" stroke:none;fill-rule:nonzero;fill:rgb(1.179504%,60.778809%,89.7995%);fill-opacity:1;" d="M 62.101562 195.871094 L 62.101562 368.402344 L 94.339844 350.082031 L 213.925781 282.136719 Z M 62.101562 195.871094 "/>
<path style=" stroke:none;fill-rule:nonzero;fill:rgb(16.079712%,71.369934%,96.469116%);fill-opacity:1;" d="M 201.542969 258.210938 C 200.230469 258.210938 198.910156 258.035156 197.601562 257.691406 C 193.554688 256.601562 190.070312 253.828125 188.042969 250.097656 C 186.742188 247.703125 186.058594 244.964844 186.105469 242.207031 L 186.105469 132.667969 C 186.015625 124.078125 192.828125 116.921875 201.285156 116.796875 C 204.183594 116.761719 206.964844 117.53125 209.417969 119.050781 L 303.066406 174.914062 C 309.78125 179.007812 312.066406 187.613281 308.328125 194.550781 C 307.078125 196.859375 305.273438 198.769531 303.082031 200.078125 C 303.082031 200.078125 303.074219 200.078125 303.066406 200.085938 L 209.308594 256.019531 C 206.953125 257.460938 204.277344 258.210938 201.542969 258.210938 Z M 201.542969 258.210938 "/>
<path style=" stroke:none;fill-rule:nonzero;fill:rgb(50.588989%,83.139038%,98.039246%);fill-opacity:1;" d="M 197.601562 257.691406 C 198.902344 258.035156 200.230469 258.210938 201.542969 258.210938 C 204.277344 258.210938 206.953125 257.460938 209.308594 256.019531 L 297.363281 203.488281 L 186.105469 140.269531 L 186.105469 242.207031 C 186.066406 244.964844 186.742188 247.695312 188.042969 250.097656 C 190.070312 253.835938 193.5625 256.601562 197.601562 257.691406 Z M 197.601562 257.691406 "/>
</g>
</svg>
