<?xml version="1.0" encoding="UTF-8"?>
<svg xmlns="http://www.w3.org/2000/svg" xmlns:xlink="http://www.w3.org/1999/xlink" width="375pt" height="374.999991pt" viewBox="0 0 375 374.999991" version="1.2">
<defs>
<clipPath id="clip1">
  <path d="M 1 211 L 156 211 L 156 286.226562 L 1 286.226562 Z M 1 211 "/>
</clipPath>
</defs>
<g id="surface1">
<g clip-path="url(#clip1)" clip-rule="nonzero">
<path style=" stroke:none;fill-rule:nonzero;fill:rgb(0%,38.038635%,54.119873%);fill-opacity:1;" d="M 1.367188 269.378906 L 13.632812 269.378906 L 13.632812 220.859375 L 32.617188 263.171875 C 34.855469 268.273438 37.925781 270.105469 43.9375 270.105469 C 49.949219 270.105469 52.898438 268.292969 55.140625 263.171875 L 74.128906 220.859375 L 74.128906 269.394531 L 86.394531 269.394531 L 86.394531 220.941406 C 86.394531 216.214844 84.503906 213.929688 80.617188 212.746094 C 71.300781 209.832031 65.046875 212.355469 62.21875 218.65625 L 43.589844 260.414062 L 25.542969 218.636719 C 22.832031 212.335938 16.464844 209.816406 7.148438 212.730469 C 3.253906 213.910156 1.367188 216.199219 1.367188 220.921875 Z M 96.589844 229.875 L 108.851562 229.875 L 108.851562 256.613281 C 108.734375 258.070312 109.316406 261.480469 116.035156 261.582031 C 119.460938 261.636719 142.488281 261.582031 142.703125 261.582031 L 142.703125 229.742188 L 154.992188 229.742188 C 155.042969 229.742188 154.976562 273.15625 154.980469 273.34375 C 155.046875 284.050781 141.722656 286.375 135.582031 286.558594 L 96.855469 286.558594 L 96.855469 278.285156 L 135.648438 278.285156 C 143.542969 277.445312 142.613281 273.519531 142.613281 272.195312 L 142.613281 268.96875 L 116.546875 268.96875 C 104.417969 268.859375 96.695312 263.554688 96.601562 257.453125 C 96.589844 256.90625 96.863281 230.136719 96.59375 229.871094 Z M 96.589844 229.875 "/>
</g>
<path style=" stroke:none;fill-rule:nonzero;fill:rgb(89.408875%,55.688477%,0%);fill-opacity:1;" d="M 164.445312 269.378906 L 199.703125 269.378906 C 203.832031 269.378906 207.84375 268.511719 211.027344 267.011719 C 216.335938 264.570312 218.929688 261.261719 218.929688 256.929688 L 218.929688 247.949219 C 218.929688 244.402344 215.980469 241.09375 210.203125 238.886719 C 207.136719 237.703125 203.363281 237.074219 199.710938 237.074219 L 184.851562 237.074219 C 179.898438 237.074219 177.539062 235.578125 176.949219 232.269531 C 176.832031 231.875 176.832031 231.539062 176.832031 231.164062 L 176.832031 225.574219 C 176.832031 225.257812 176.832031 224.941406 176.949219 224.546875 C 177.539062 222.027344 178.835938 221.316406 183.199219 220.90625 C 183.554688 220.90625 184.023438 220.824219 184.378906 220.824219 L 219.40625 220.824219 L 219.40625 212.632812 L 184.96875 212.632812 C 180.015625 212.632812 177.421875 212.949219 175.0625 213.65625 C 167.742188 215.941406 164.558594 219.585938 164.558594 225.886719 L 164.558594 233.058594 C 164.558594 238.574219 170.808594 243.300781 181.300781 244.402344 C 182.484375 244.480469 183.660156 244.558594 184.839844 244.558594 L 197.574219 244.558594 C 198.046875 244.558594 198.519531 244.558594 198.875 244.640625 C 202.761719 244.957031 204.417969 245.664062 205.59375 247.082031 C 206.324219 247.808594 206.539062 248.5 206.539062 249.265625 L 206.539062 256.4375 C 206.539062 257.304688 205.953125 258.40625 204.773438 259.351562 C 203.710938 260.296875 201.941406 260.925781 199.582031 261.085938 C 199.109375 261.085938 198.757812 261.164062 198.285156 261.164062 L 164.441406 261.164062 L 164.441406 269.355469 Z M 295.433594 255.117188 C 295.433594 263.546875 301.683594 268.273438 314.304688 269.21875 C 315.480469 269.3125 316.660156 269.363281 317.839844 269.378906 L 349.800781 269.378906 L 349.800781 261.183594 L 317.605469 261.183594 C 310.410156 261.183594 307.699219 259.371094 307.699219 255.039062 L 307.699219 212.648438 L 295.433594 212.648438 Z M 226.753906 255.542969 L 226.753906 226.335938 C 226.753906 218.914062 231.953125 214.414062 242.234375 212.992188 C 243.332031 212.835938 244.433594 212.753906 245.542969 212.753906 L 268.820312 212.753906 C 269.96875 212.753906 271.113281 212.835938 272.25 212.992188 C 282.53125 214.414062 287.730469 218.910156 287.730469 226.335938 L 287.730469 255.542969 C 287.730469 261.566406 285.523438 264.785156 280.433594 266.886719 L 292.511719 277.816406 L 278.273438 277.816406 L 268.5 268.976562 L 258.660156 269.597656 L 245.542969 269.597656 C 243.296875 269.597656 240.933594 269.28125 238.332031 268.570312 C 230.519531 266.441406 226.753906 262.335938 226.753906 255.542969 Z M 239.992188 254.816406 C 239.992188 255.210938 240.109375 255.605469 240.226562 256.078125 C 240.953125 259.476562 244.125 261.371094 248.953125 261.371094 L 260.09375 261.371094 L 249.863281 252.109375 L 264.101562 252.109375 L 273.007812 260.183594 C 274.652344 259.308594 275.734375 257.964844 276.097656 256.238281 C 276.214844 255.84375 276.214844 255.449219 276.214844 255.054688 L 276.214844 227.046875 C 276.214844 226.730469 276.214844 226.320312 276.097656 225.941406 C 275.371094 222.785156 272.199219 220.96875 267.472656 220.96875 L 248.984375 220.96875 C 243.53125 220.96875 240.007812 223.335938 240.007812 227.046875 L 240.007812 254.835938 Z M 239.992188 254.816406 "/>
<path style=" stroke:none;fill-rule:nonzero;fill:rgb(0%,38.038635%,54.119873%);fill-opacity:1;" d="M 360.582031 199.054688 C 353.042969 198.851562 347.285156 199.554688 342.359375 201.632812 C 340.960938 202.226562 338.730469 202.242188 338.503906 204 C 339.269531 204.804688 339.394531 206.011719 340 207.003906 C 341.175781 208.910156 343.164062 211.46875 344.933594 212.804688 C 346.867188 214.265625 348.859375 215.832031 350.9375 217.101562 C 354.625 219.359375 358.746094 220.644531 362.296875 222.902344 C 364.390625 224.234375 366.472656 225.910156 368.515625 227.414062 C 369.523438 228.15625 370.203125 229.3125 371.511719 229.777344 L 371.511719 229.5625 C 370.824219 228.679688 370.644531 227.472656 370.015625 226.554688 L 367.226562 223.761719 C 364.5 220.121094 361.042969 216.957031 357.367188 214.308594 C 354.433594 212.199219 347.871094 209.351562 346.648438 205.929688 L 346.433594 205.714844 C 348.511719 205.476562 350.945312 204.726562 352.867188 204.210938 C 356.089844 203.347656 358.972656 203.570312 362.300781 202.707031 L 366.804688 201.417969 L 366.804688 200.558594 C 365.121094 198.828125 363.921875 196.539062 362.085938 194.972656 C 357.289062 190.875 352.046875 186.785156 346.65625 183.371094 C 343.664062 181.476562 339.964844 180.25 336.792969 178.644531 C 335.726562 178.105469 333.851562 177.824219 333.148438 176.925781 C 331.484375 174.796875 330.578125 172.097656 329.292969 169.636719 C 326.601562 164.445312 323.957031 158.773438 321.574219 153.3125 C 319.945312 149.585938 318.882812 145.910156 316.859375 142.570312 C 307.125 126.53125 296.644531 116.851562 280.417969 107.339844 C 276.964844 105.316406 272.804688 104.515625 268.410156 103.472656 L 261.335938 103.042969 C 259.898438 102.441406 258.398438 100.671875 257.046875 99.816406 C 251.671875 96.410156 237.878906 89.011719 233.898438 98.726562 C 231.382812 104.867188 237.652344 110.863281 239.898438 113.980469 C 241.472656 116.164062 243.492188 118.609375 244.613281 121.066406 C 245.355469 122.683594 245.484375 124.300781 246.117188 126.011719 C 247.671875 130.199219 249.027344 134.796875 251.046875 138.683594 C 252.0625 140.652344 253.1875 142.726562 254.476562 144.484375 C 255.265625 145.566406 256.621094 146.039062 256.832031 147.710938 C 255.507812 149.566406 255.433594 152.445312 254.6875 154.800781 C 251.335938 165.386719 252.601562 178.542969 257.472656 186.378906 C 258.96875 188.785156 262.492188 193.941406 267.335938 191.964844 C 271.570312 190.234375 270.605469 184.878906 271.835938 180.148438 C 272.109375 179.074219 271.941406 178.292969 272.480469 177.574219 L 272.480469 177.789062 L 276.339844 185.519531 C 279.195312 190.128906 284.265625 194.945312 288.558594 198.199219 C 290.785156 199.882812 292.558594 202.796875 295.417969 203.785156 L 295.417969 203.570312 L 295.203125 203.570312 C 294.644531 202.695312 293.773438 202.335938 293.058594 201.636719 C 291.382812 199.988281 289.515625 197.941406 288.128906 196.050781 C 284.21875 190.738281 280.769531 184.921875 277.625 178.867188 C 276.125 175.976562 274.816406 172.785156 273.554688 169.84375 C 273.066406 168.707031 273.070312 166.996094 272.054688 166.40625 C 270.667969 168.5625 268.625 170.304688 267.550781 172.851562 C 265.835938 176.921875 265.613281 181.882812 264.980469 187.03125 C 264.601562 187.164062 264.769531 187.070312 264.550781 187.246094 C 261.566406 186.523438 260.515625 183.445312 259.40625 180.800781 C 256.601562 174.113281 256.082031 163.355469 258.546875 155.664062 C 259.183594 153.675781 262.074219 147.40625 260.90625 145.570312 C 260.347656 143.734375 258.507812 142.652344 257.476562 141.269531 C 256.203125 139.539062 254.925781 137.253906 254.046875 135.253906 C 251.75 130.046875 250.675781 124.199219 248.257812 118.929688 C 247.101562 116.410156 245.148438 113.863281 243.542969 111.640625 C 241.765625 109.164062 239.773438 107.335938 238.398438 104.355469 C 237.910156 103.289062 237.242188 101.585938 237.96875 100.488281 C 238.042969 100.164062 238.191406 99.886719 238.425781 99.65625 C 238.660156 99.421875 238.9375 99.269531 239.257812 99.199219 C 240.5 98.238281 243.964844 99.515625 245.257812 100.058594 C 248.695312 101.488281 251.566406 102.851562 254.480469 104.785156 C 255.878906 105.695312 257.289062 107.511719 258.980469 108.007812 L 260.90625 108.007812 C 263.921875 108.707031 267.304688 108.226562 270.121094 109.085938 C 275.105469 110.601562 279.570312 112.964844 283.628906 115.527344 C 295.984375 123.347656 306.085938 134.476562 312.996094 147.769531 C 314.109375 149.90625 314.589844 151.949219 315.566406 154.214844 C 317.542969 158.769531 320.03125 163.492188 322 167.964844 C 323.960938 172.425781 325.871094 176.925781 328.644531 180.636719 C 330.101562 182.585938 335.734375 183.636719 338.292969 184.71875 C 340.085938 185.476562 343.023438 186.269531 344.722656 187.296875 C 347.96875 189.257812 351.113281 191.59375 354.15625 193.746094 C 355.675781 194.820312 360.355469 197.175781 360.585938 199.113281 Z M 360.582031 199.054688 "/>
<path style=" stroke:none;fill-rule:evenodd;fill:rgb(0%,38.038635%,54.119873%);fill-opacity:1;" d="M 264.769531 117.207031 C 263.199219 117.179688 262.085938 117.378906 260.910156 117.636719 L 260.910156 117.851562 L 261.125 117.851562 C 261.875 119.398438 263.199219 120.390625 264.125 121.71875 L 266.269531 126.230469 L 266.484375 126.015625 C 267.8125 125.078125 268.421875 123.578125 268.410156 121.289062 C 267.878906 120.726562 267.800781 120.023438 267.339844 119.355469 C 266.726562 118.460938 265.519531 117.957031 264.765625 117.203125 Z M 264.769531 117.207031 "/>
<path style=" stroke:none;fill-rule:evenodd;fill:rgb(89.408875%,55.688477%,0%);fill-opacity:1;" d="M 355.566406 260.949219 C 355.566406 266.359375 359.832031 270.007812 364.601562 270.007812 C 369.375 270.007812 373.640625 266.359375 373.640625 260.949219 C 373.640625 255.539062 369.375 251.894531 364.601562 251.894531 C 359.832031 251.894531 355.566406 255.539062 355.566406 260.949219 Z M 371.613281 260.949219 C 371.613281 265.054688 368.484375 268.125 364.597656 268.125 C 360.671875 268.125 357.582031 265.054688 357.582031 260.949219 C 357.582031 256.84375 360.667969 253.777344 364.597656 253.777344 C 368.480469 253.777344 371.613281 256.84375 371.613281 260.949219 Z M 367.035156 266.121094 L 369.058594 266.121094 L 366.09375 261.582031 C 367.683594 261.410156 368.886719 260.636719 368.886719 258.753906 C 368.886719 256.652344 367.5625 255.785156 365.007812 255.785156 L 360.984375 255.785156 L 360.984375 266.121094 L 362.71875 266.121094 L 362.71875 261.652344 L 364.332031 261.652344 L 367.03125 266.121094 Z M 362.71875 260.199219 L 362.71875 257.230469 L 364.71875 257.230469 C 365.753906 257.230469 367.007812 257.425781 367.007812 258.632812 C 367.007812 260.082031 365.875 260.203125 364.574219 260.203125 L 362.71875 260.203125 Z M 362.71875 260.199219 "/>
</g>
</svg>
