<svg width="28" height="28" viewBox="0 0 28 28" fill="none" xmlns="http://www.w3.org/2000/svg">
<path fill-rule="evenodd" clip-rule="evenodd" d="M3.29909 0.893775C3.60529 0.58803 3.97298 0.350852 4.37778 0.197957C4.78258 0.0450626 5.21526 -0.0200567 5.64713 0.00691469C6.079 0.0338861 6.50021 0.152332 6.88285 0.354404C7.26548 0.556475 7.6008 0.837558 7.86659 1.17902L11.0078 5.21452C11.5836 5.95477 11.7866 6.91902 11.5591 7.82902L10.6018 11.6615C10.5523 11.86 10.555 12.068 10.6096 12.2651C10.6642 12.4623 10.7688 12.642 10.9133 12.7868L15.2131 17.0865C15.3581 17.2313 15.538 17.3361 15.7356 17.3907C15.9331 17.4453 16.1413 17.4478 16.3401 17.398L20.1708 16.4408C20.6199 16.3285 21.0886 16.3198 21.5416 16.4153C21.9945 16.5108 22.4198 16.708 22.7853 16.992L26.8208 20.1315C28.2716 21.2603 28.4046 23.404 27.1061 24.7008L25.2966 26.5103C24.0016 27.8053 22.0661 28.374 20.2618 27.7388C15.6439 26.1139 11.4511 23.4702 7.99434 20.0038C4.52809 16.5476 1.8844 12.3553 0.259336 7.73802C-0.374164 5.93552 0.194586 3.99827 1.48959 2.70327L3.29909 0.893775Z" fill="white"/>
</svg>
