<svg width="66" height="66" viewBox="0 0 66 66" fill="none" xmlns="http://www.w3.org/2000/svg">
<path d="M64.5945 51.0082L49.4996 35.9133C46.5219 32.9355 42.0746 32.3555 38.491 34.1215L24.7496 20.3801V12.375L8.24961 0L-0.000390723 8.25L12.3746 24.75H20.3797L34.1211 38.4914C32.368 42.075 32.9352 46.5223 35.9129 49.5L51.0078 64.5949C52.8898 66.477 55.932 66.477 57.8012 64.5949L64.5945 57.8016C66.4637 55.9195 66.4637 52.8773 64.5945 51.0082ZM42.7578 29.0039C46.4059 29.0039 49.8348 30.4219 52.4129 33L54.9137 35.5008C56.9504 34.6113 58.884 33.3738 60.5598 31.698C65.3422 26.9156 66.9664 20.1867 65.4453 14.0766C65.1617 12.9164 63.7051 12.5168 62.8543 13.3676L53.2637 22.9582L44.5109 21.5016L43.0543 12.7488L52.6449 3.1582C53.4957 2.30742 53.0832 0.850781 51.9102 0.554297C45.8 -0.953906 39.0711 0.670313 34.3016 5.43984C30.6277 9.11367 28.9004 13.9605 28.9906 18.7945L39.5738 29.3777C40.618 29.1328 41.7008 29.0039 42.7578 29.0039ZM29.3645 39.5742L22.0555 32.2652L2.41016 51.9234C-0.8125 55.1461 -0.8125 60.3668 2.41016 63.5895C5.63281 66.8121 10.8535 66.8121 14.0762 63.5895L30.009 47.6566C29.0293 45.0914 28.7328 42.2941 29.3645 39.5742ZM8.24961 60.8438C6.54805 60.8438 5.15586 59.4516 5.15586 57.75C5.15586 56.0355 6.53516 54.6562 8.24961 54.6562C9.96406 54.6562 11.3434 56.0355 11.3434 57.75C11.3434 59.4516 9.96406 60.8438 8.24961 60.8438Z" fill="white"/>
</svg>
