<svg width="175" height="138" viewBox="0 0 175 138" fill="none" xmlns="http://www.w3.org/2000/svg">
<mask id="mask0" mask-type="alpha" maskUnits="userSpaceOnUse" x="0" y="0" width="175" height="138">
<path d="M73.5 0.5L0 137.5L175 73L73.5 0.5Z" fill="#C4C4C4"/>
</mask>
<g mask="url(#mask0)">
<line x1="-38" y1="5.5" x2="212" y2="5.5" stroke="#383838"/>
<line x1="-38" y1="15.5" x2="212" y2="15.5" stroke="#383838"/>
<line x1="-38" y1="25.5" x2="212" y2="25.5" stroke="#383838"/>
<line x1="-38" y1="35.5" x2="212" y2="35.5" stroke="#383838"/>
<line x1="-38" y1="45.5" x2="212" y2="45.5" stroke="#383838"/>
<line x1="-38" y1="55.5" x2="212" y2="55.5" stroke="#383838"/>
<line x1="-38" y1="65.5" x2="212" y2="65.5" stroke="#383838"/>
<line x1="-38" y1="75.5" x2="212" y2="75.5" stroke="#383838"/>
<line x1="-38" y1="85.5" x2="212" y2="85.5" stroke="#383838"/>
<line x1="-38" y1="95.5" x2="212" y2="95.5" stroke="#383838"/>
<line x1="-38" y1="105.5" x2="212" y2="105.5" stroke="#383838"/>
<line x1="-38" y1="115.5" x2="212" y2="115.5" stroke="#383838"/>
<line x1="-38" y1="125.5" x2="212" y2="125.5" stroke="#383838"/>
<line x1="-38" y1="135.5" x2="212" y2="135.5" stroke="#383838"/>
</g>
</svg>
