<svg width="116" height="187" viewBox="0 0 116 187" fill="none" xmlns="http://www.w3.org/2000/svg">
<mask id="mask0" mask-type="alpha" maskUnits="userSpaceOnUse" x="0" y="0" width="116" height="187">
<path d="M116 0L0 67.5L116 187V0Z" fill="#C4C4C4"/>
</mask>
<g mask="url(#mask0)">
<line x1="-61" y1="7.5" x2="189" y2="7.5" stroke="#383838"/>
<line x1="-61" y1="17.5" x2="189" y2="17.5" stroke="#383838"/>
<line x1="-61" y1="27.5" x2="189" y2="27.5" stroke="#383838"/>
<line x1="-61" y1="37.5" x2="189" y2="37.5" stroke="#383838"/>
<line x1="-61" y1="47.5" x2="189" y2="47.5" stroke="#383838"/>
<line x1="-61" y1="57.5" x2="189" y2="57.5" stroke="#383838"/>
<line x1="-61" y1="67.5" x2="189" y2="67.5" stroke="#383838"/>
<line x1="-61" y1="77.5" x2="189" y2="77.5" stroke="#383838"/>
<line x1="-61" y1="87.5" x2="189" y2="87.5" stroke="#383838"/>
<line x1="-61" y1="97.5" x2="189" y2="97.5" stroke="#383838"/>
<line x1="-61" y1="107.5" x2="189" y2="107.5" stroke="#383838"/>
<line x1="-61" y1="117.5" x2="189" y2="117.5" stroke="#383838"/>
<line x1="-61" y1="127.5" x2="189" y2="127.5" stroke="#383838"/>
<line x1="-61" y1="137.5" x2="189" y2="137.5" stroke="#383838"/>
<line x1="-61" y1="147.5" x2="189" y2="147.5" stroke="#383838"/>
<line x1="-61" y1="157.5" x2="189" y2="157.5" stroke="#383838"/>
<line x1="-61" y1="167.5" x2="189" y2="167.5" stroke="#383838"/>
<line x1="-61" y1="177.5" x2="189" y2="177.5" stroke="#383838"/>
</g>
</svg>
