<svg width="21" height="18" viewBox="0 0 21 18" fill="none" xmlns="http://www.w3.org/2000/svg">
<path d="M18.8309 5.1042C18.8436 5.28882 18.8436 5.47323 18.8436 5.65895C18.8436 11.3294 14.5193 17.8687 6.61262 17.8687V17.8654C4.27681 17.8691 1.98978 17.2015 0.0234375 15.9419C0.362937 15.9826 0.704406 16.003 1.04675 16.0039C2.98247 16.0056 4.86262 15.3572 6.38556 14.1633C4.54587 14.1285 2.93303 12.9313 2.36931 11.183C3.01375 11.3073 3.67766 11.2817 4.31006 11.1091C2.30434 10.7044 0.861687 8.94545 0.861687 6.90276C0.861687 6.88395 0.861687 6.86623 0.861687 6.84829C1.45909 7.18057 2.12847 7.36498 2.81272 7.38554C0.924031 6.12576 0.341937 3.61757 1.48272 1.65604C3.66497 4.33704 6.88497 5.96695 10.3419 6.13932C9.99537 4.64876 10.4687 3.0871 11.5857 2.03929C13.3171 0.414414 16.0401 0.497539 17.6678 2.22545C18.6303 2.03579 19.553 1.68316 20.3974 1.18376C20.0765 2.17732 19.4051 3.02104 18.5078 3.55698C19.3598 3.45657 20.1924 3.22885 20.9766 2.88126C20.3991 3.74466 19.672 4.49695 18.8309 5.1042Z" fill="white"/>
</svg>
