<?xml version="1.0" encoding="UTF-8"?>
<svg xmlns="http://www.w3.org/2000/svg" xmlns:xlink="http://www.w3.org/1999/xlink" width="375pt" height="374.999991pt" viewBox="0 0 375 374.999991" version="1.2">
<defs>
<clipPath id="clip1">
  <path d="M 4.089844 0 L 370.78125 0 L 370.78125 375 L 4.089844 375 Z M 4.089844 0 "/>
</clipPath>
</defs>
<g id="surface1">
<g clip-path="url(#clip1)" clip-rule="nonzero">
<path style=" stroke:none;fill-rule:nonzero;fill:rgb(13.328552%,17.248535%,21.569824%);fill-opacity:1;" d="M 243.0625 187.484375 L 308.675781 74.144531 L 340.390625 187.484375 L 308.675781 300.785156 Z M 211.089844 205.886719 L 276.703125 319.199219 L 162.425781 289.921875 L 79.851562 205.886719 Z M 276.691406 55.726562 L 211.089844 169.058594 L 79.851562 169.058594 L 162.425781 85.027344 Z M 370.359375 148.917969 L 330.328125 -0.0546875 L 180.917969 39.867188 L 158.808594 78.765625 L 113.929688 78.445312 L 4.570312 187.488281 L 113.929688 296.515625 L 113.933594 296.515625 L 158.796875 296.1875 L 180.933594 335.085938 L 330.328125 375.003906 L 370.359375 226.0625 L 347.636719 187.488281 Z M 370.359375 148.917969 "/>
</g>
</g>
</svg>
