<svg width="22" height="14" viewBox="0 0 22 14" fill="none" xmlns="http://www.w3.org/2000/svg">
<path d="M8.05921 6.76366C7.63365 7.01253 7.04607 6.50699 5.79963 4.20158C5.15544 3.02045 5.08784 2.25068 4.66984 1.71489C4.57084 1.60351 4.45694 1.51024 4.32815 1.43553C4.19936 1.3606 4.06232 1.30789 3.91657 1.27741H0.903714C0.903714 1.27741 0.391526 1.23203 0.28611 1.37549C0.180693 1.51872 0.28611 1.9452 0.28611 1.9452C0.28611 1.9452 2.64355 7.79353 5.31746 10.7443C7.74273 13.4459 10.5221 13.3139 10.5221 13.3139C10.5221 13.3139 12.1414 13.3893 12.3598 12.9931C12.4159 12.9058 12.4588 12.8125 12.4881 12.7131C12.5176 12.6136 12.5325 12.5121 12.533 12.4083C12.533 12.4083 12.5066 10.6123 13.2863 10.352C14.0659 10.0916 15.0564 12.0801 16.1071 12.8496C16.928 13.4006 17.1576 13.3139 17.5343 13.3139H20.3513C20.3513 13.3139 21.8275 13.1592 21.127 11.9327C21.0706 11.831 20.7202 11.0273 19.0331 9.36699C17.2669 7.62762 17.5041 7.91064 19.6319 4.90328C20.9274 3.07339 21.4471 1.95643 21.2814 1.47724C21.1836 1.20178 20.1704 1.27741 20.1704 1.27741H16.9882C16.9218 1.27512 16.8558 1.28107 16.7907 1.29482C16.7256 1.30857 16.663 1.32989 16.6032 1.35899C16.5432 1.38787 16.4875 1.42339 16.4359 1.46578C16.3846 1.50818 16.339 1.55607 16.2991 1.60924C15.9451 2.23189 15.7982 3.02801 15.1279 4.22793C13.7155 6.77099 13.1506 6.90322 12.921 6.74464C12.3824 6.36743 12.5181 5.2656 12.5181 4.4807C12.5181 2.01693 12.8719 0.990491 11.8327 0.70747C11.5854 0.643303 11.3345 0.604345 11.0794 0.590595C10.6765 0.560345 10.2698 0.552782 9.86298 0.560345C8.92157 0.560345 8.18709 0.594262 7.72394 0.835803C7.34742 1.02074 7.08365 1.43966 7.2569 1.46601C7.34742 1.47747 7.43588 1.49787 7.52227 1.52674C7.60867 1.55585 7.69163 1.59297 7.77069 1.63812C7.84975 1.68349 7.92378 1.7362 7.99253 1.79601C8.0615 1.85605 8.12384 1.92205 8.17953 1.99424C8.50357 2.46587 8.49211 3.50353 8.49211 3.50353C8.49211 3.50353 8.68048 6.40501 8.05921 6.76366Z" fill="white"/>
</svg>
