<svg width="129" height="125" viewBox="0 0 129 125" fill="none" xmlns="http://www.w3.org/2000/svg">
<path d="M7.0618 123.858L7.16102 117.559C7.27062 110.602 12.9994 105.05 19.9567 105.16V105.16C26.914 105.27 32.6428 99.7185 32.7524 92.7613V92.7613C32.862 85.804 38.5908 80.2529 45.5481 80.3625V80.3625C52.5053 80.4721 58.2342 74.9209 58.3438 67.9637V67.9637C58.4534 61.0064 64.1822 55.4553 71.1395 55.5649V55.5649C78.0967 55.6745 83.8255 50.1233 83.9351 43.1661V43.1661C84.0447 36.2088 89.7736 30.6577 96.7308 30.7673V30.7673C103.688 30.8769 109.417 25.3257 109.527 18.3685V18.3685C109.636 11.4112 115.365 5.86007 122.322 5.96966L126.521 6.03581" stroke="#383838" stroke-width="2"/>
</svg>
