<svg width="37" height="37" viewBox="0 0 37 37" fill="none" xmlns="http://www.w3.org/2000/svg">
<path d="M31.4523 5.37899C29.756 3.66699 27.736 2.30971 25.5099 1.38624C23.2838 0.462766 20.8962 -0.00842738 18.4861 0.000114077C8.38744 0.000114077 0.15725 8.22799 0.148 18.329C0.148 21.5642 0.994375 24.7115 2.59231 27.4981L0 37.0001L9.72175 34.4517C12.4112 35.9154 15.4242 36.6825 18.4861 36.6833H18.4954C28.5964 36.6833 36.8242 28.4554 36.8335 18.3452C36.8358 15.9357 36.3613 13.5495 35.4374 11.3241C34.5134 9.09881 33.1583 7.07829 31.45 5.37899H31.4523ZM18.4861 33.5799C15.7551 33.5808 13.0742 32.8459 10.7254 31.4524L10.1704 31.1194L4.403 32.6318L5.94312 27.0055L5.58238 26.4251C4.05568 23.9977 3.24825 21.1873 3.25369 18.3197C3.25369 9.93461 10.0918 3.09424 18.4954 3.09424C20.4974 3.09065 22.4803 3.48337 24.3299 4.24978C26.1794 5.01618 27.8589 6.1411 29.2716 7.55968C30.6893 8.97273 31.8131 10.6525 32.5783 12.502C33.3435 14.3516 33.735 16.3343 33.7301 18.3359C33.7209 26.7511 26.8828 33.5799 18.4861 33.5799ZM26.8458 22.1701C26.3903 21.9411 24.1402 20.8334 23.717 20.6762C23.2961 20.5259 22.9886 20.4472 22.6879 20.9051C22.3804 21.3607 21.5016 22.399 21.238 22.6973C20.9744 23.0049 20.7015 23.0396 20.2436 22.8129C19.7881 22.5817 18.3104 22.1007 16.5621 20.5351C15.1978 19.3211 14.2843 17.8179 14.0114 17.3624C13.7478 16.9045 13.986 16.6594 14.2149 16.4304C14.4161 16.2269 14.6705 15.8939 14.8994 15.6303C15.1307 15.3667 15.207 15.1724 15.3573 14.8672C15.5076 14.5573 15.4359 14.2937 15.3226 14.0647C15.207 13.8358 14.2936 11.5765 13.9074 10.6654C13.5374 9.7658 13.1604 9.89068 12.8783 9.87911C12.6147 9.86293 12.3071 9.86293 11.9996 9.86293C11.7673 9.8687 11.5387 9.92242 11.3282 10.0207C11.1177 10.119 10.9298 10.2597 10.7762 10.4341C10.3554 10.892 9.17831 11.9997 9.17831 14.259C9.17831 16.5183 10.8202 18.6897 11.0514 18.9973C11.2781 19.3049 14.2751 23.9276 18.8746 25.9163C19.9615 26.3904 20.8171 26.6702 21.4854 26.8829C22.5839 27.2344 23.5759 27.1812 24.3668 27.0679C25.2456 26.9338 27.0748 25.9579 27.4609 24.8872C27.8402 23.8142 27.8402 22.8985 27.7246 22.7066C27.6112 22.5123 27.3037 22.399 26.8458 22.1701Z" fill="white"/>
</svg>
