<svg width="20" height="20" viewBox="0 0 20 20" fill="none" xmlns="http://www.w3.org/2000/svg">
<path d="M9.99188 0.0078125C4.48021 0.0078125 0 4.48802 0 9.99969C0 11.692 0.418958 13.352 1.24083 14.8184L0.386875 17.9451C0.241875 18.4447 0.386667 18.9603 0.757292 19.3309C1.12792 19.7016 1.64396 19.8468 2.14354 19.7178L5.39896 18.8634C6.81708 19.6049 8.39646 19.9916 10.0079 19.9916C15.5196 19.9916 20 15.5114 20 9.99969C20 7.32448 18.9685 4.82635 17.0829 2.94073C15.1813 1.0551 12.6673 0.0078125 9.99188 0.0078125ZM9.99188 0.974687C12.4094 0.974687 14.6817 1.90948 16.3738 3.61781C18.0821 5.32615 19.0331 7.59844 19.0169 9.99969C19.0169 14.9795 14.9719 19.0247 9.99188 19.0247C8.49312 19.0247 6.99417 18.6378 5.67271 17.9286C5.60833 17.8964 5.52792 17.8645 5.44729 17.8645C5.39896 17.8645 5.36667 17.8645 5.31833 17.8805L1.88542 18.783C1.64375 18.8474 1.48271 18.7184 1.41833 18.6539C1.35396 18.5895 1.22479 18.4284 1.28938 18.1868L2.19167 14.8666C2.22396 14.7376 2.20813 14.6089 2.14354 14.4961C1.37 13.1424 0.966875 11.5791 0.966875 9.99969C0.966875 5.0199 5.01208 0.974687 9.99188 0.974687ZM9.99188 2.4251C5.81792 2.4251 2.4175 5.80948 2.4175 9.99969C2.4175 11.3374 2.77208 12.6428 3.43292 13.787C3.69062 14.2382 3.755 14.7699 3.62604 15.2695L3.15875 16.9618L4.96396 16.4945C5.125 16.4461 5.28625 16.4301 5.44729 16.4301C5.76958 16.4301 6.09188 16.5107 6.36583 16.6718C7.47792 17.252 8.71875 17.5743 9.99188 17.5743C14.166 17.5743 17.5665 14.1736 17.5665 9.99969C17.5665 7.96906 16.7767 6.06719 15.3423 4.63302C13.9242 3.21469 12.0225 2.4251 9.99188 2.4251ZM6.62354 5.5999H7.075C7.25229 5.5999 7.42938 5.61594 7.60667 6.00281C7.81625 6.4701 8.28354 7.64677 8.33187 7.75948C8.39625 7.8724 8.42875 8.0174 8.34833 8.17844C8.26771 8.33969 8.23542 8.43635 8.10646 8.58135C7.99375 8.72635 7.84854 8.88781 7.75167 9.00052C7.63896 9.11344 7.51 9.2424 7.65521 9.48406C7.80021 9.72594 8.2675 10.4993 8.97646 11.1278C9.87896 11.9336 10.6527 12.1916 10.8944 12.3045C11.136 12.4172 11.2652 12.4011 11.4102 12.2399C11.5554 12.0786 12.0065 11.5468 12.1677 11.3051C12.3288 11.0632 12.49 11.1118 12.6996 11.1924C12.9252 11.273 14.0854 11.8528 14.3273 11.9657C14.569 12.0784 14.73 12.1432 14.7783 12.2399C14.8427 12.3689 14.8429 12.8361 14.6496 13.4001C14.4563 13.948 13.4892 14.4959 13.0379 14.5282C12.6027 14.5605 12.1998 14.7218 10.1852 13.932C7.76771 12.9811 6.23688 10.4993 6.12417 10.338C6.01125 10.177 5.15708 9.04906 5.15708 7.8726C5.15708 6.69594 5.76938 6.13177 5.995 5.8901C6.22063 5.64844 6.4625 5.5999 6.62354 5.5999Z" fill="white"/>
</svg>
