<?xml version="1.0" encoding="UTF-8"?>
<svg xmlns="http://www.w3.org/2000/svg" xmlns:xlink="http://www.w3.org/1999/xlink" width="375pt" height="374.999991pt" viewBox="0 0 375 374.999991" version="1.2">
<g id="surface1">
<path style=" stroke:none;fill-rule:nonzero;fill:rgb(86.669922%,28.239441%,7.839966%);fill-opacity:1;" d="M 375 187.5 C 375 291.046875 291.046875 375 187.5 375 C 83.953125 375 0 291.046875 0 187.5 C 0 83.953125 83.953125 0 187.5 0 C 291.046875 0 375 83.953125 375 187.5 Z M 375 187.5 "/>
<path style=" stroke:none;fill-rule:nonzero;fill:rgb(100%,100%,100%);fill-opacity:1;" d="M 60 162.46875 C 46.171875 162.46875 34.957031 173.671875 34.957031 187.511719 C 34.957031 201.351562 46.160156 212.542969 60 212.542969 C 73.839844 212.542969 85.042969 201.328125 85.042969 187.5 C 85.042969 173.671875 73.828125 162.46875 60 162.46875 Z M 238.734375 276.257812 C 226.757812 283.289062 222.65625 298.476562 229.570312 310.441406 C 236.484375 322.40625 251.777344 326.519531 263.753906 319.605469 C 275.730469 312.691406 279.832031 297.398438 272.917969 285.421875 C 266.003906 273.445312 250.699219 269.367188 238.734375 276.257812 Z M 114.375 187.5 C 114.371094 184.578125 114.546875 181.664062 114.894531 178.761719 C 115.242188 175.859375 115.761719 172.988281 116.457031 170.144531 C 117.148438 167.304688 118.007812 164.515625 119.035156 161.78125 C 120.066406 159.042969 121.253906 156.378906 122.601562 153.785156 C 123.949219 151.191406 125.449219 148.6875 127.097656 146.273438 C 128.746094 143.859375 130.53125 141.550781 132.457031 139.351562 C 134.386719 137.152344 136.4375 135.074219 138.609375 133.125 C 140.785156 131.171875 143.070312 129.355469 145.464844 127.675781 L 127.171875 97.03125 C 124.421875 98.867188 121.757812 100.824219 119.1875 102.902344 C 116.613281 104.980469 114.140625 107.171875 111.765625 109.472656 C 109.394531 111.777344 107.128906 114.183594 104.976562 116.691406 C 102.820312 119.203125 100.785156 121.804688 98.867188 124.5 C 96.953125 127.195312 95.160156 129.96875 93.496094 132.828125 C 91.832031 135.6875 90.300781 138.613281 88.902344 141.609375 C 87.503906 144.605469 86.246094 147.660156 85.125 150.773438 C 84.003906 153.886719 83.027344 157.042969 82.195312 160.242188 C 90.117188 166.6875 95.15625 176.484375 95.15625 187.5 C 95.15625 198.515625 90.09375 208.3125 82.195312 214.757812 C 88.957031 240.972656 105.257812 263.34375 127.171875 277.980469 L 145.476562 247.324219 C 143.082031 245.644531 140.796875 243.828125 138.621094 241.875 C 136.449219 239.925781 134.398438 237.847656 132.46875 235.648438 C 130.542969 233.449219 128.757812 231.140625 127.109375 228.726562 C 125.460938 226.3125 123.960938 223.808594 122.613281 221.214844 C 121.265625 218.621094 120.078125 215.957031 119.046875 213.21875 C 118.019531 210.484375 117.160156 207.695312 116.46875 204.855469 C 115.773438 202.011719 115.253906 199.140625 114.90625 196.238281 C 114.558594 193.335938 114.382812 190.421875 114.386719 187.5 Z M 187.5 114.375 C 189.757812 114.375 192.015625 114.480469 194.261719 114.6875 C 196.511719 114.898438 198.75 115.210938 200.96875 115.628906 C 203.191406 116.042969 205.386719 116.5625 207.558594 117.179688 C 209.730469 117.800781 211.871094 118.519531 213.976562 119.339844 C 216.082031 120.15625 218.144531 121.070312 220.167969 122.082031 C 222.1875 123.089844 224.160156 124.191406 226.078125 125.382812 C 227.996094 126.574219 229.859375 127.851562 231.65625 129.21875 C 233.457031 130.582031 235.191406 132.027344 236.859375 133.550781 C 238.527344 135.078125 240.117188 136.675781 241.636719 138.347656 C 243.15625 140.023438 244.59375 141.761719 245.953125 143.566406 C 247.308594 145.375 248.578125 147.238281 249.765625 149.164062 C 250.949219 151.085938 252.042969 153.0625 253.042969 155.085938 C 254.042969 157.113281 254.949219 159.179688 255.761719 161.289062 C 256.570312 163.398438 257.28125 165.539062 257.890625 167.714844 C 258.503906 169.890625 259.011719 172.089844 259.421875 174.308594 C 259.828125 176.53125 260.132812 178.769531 260.332031 181.019531 L 296.003906 180.492188 C 295.792969 177.191406 295.433594 173.90625 294.921875 170.636719 C 294.410156 167.367188 293.753906 164.128906 292.945312 160.921875 C 292.136719 157.714844 291.183594 154.550781 290.089844 151.429688 C 288.992188 148.308594 287.753906 145.242188 286.375 142.234375 C 285 139.226562 283.484375 136.289062 281.839844 133.417969 C 280.191406 130.550781 278.417969 127.761719 276.515625 125.054688 C 274.613281 122.347656 272.59375 119.734375 270.453125 117.210938 C 268.308594 114.691406 266.058594 112.273438 263.695312 109.957031 C 254.179688 113.554688 243.1875 113.003906 233.695312 107.519531 C 231.433594 106.21875 229.34375 104.683594 227.425781 102.917969 C 225.507812 101.148438 223.808594 99.191406 222.328125 97.046875 C 220.847656 94.898438 219.621094 92.613281 218.648438 90.195312 C 217.679688 87.773438 216.988281 85.273438 216.574219 82.699219 C 207.421875 80.15625 197.578125 78.75 187.5 78.75 C 170.191406 78.75 153.832031 82.816406 139.300781 90 L 156.691406 121.171875 C 166.066406 116.8125 176.496094 114.375 187.488281 114.375 Z M 187.5 260.625 C 176.484375 260.625 166.054688 258.164062 156.703125 253.828125 L 139.3125 285 C 153.84375 292.195312 170.203125 296.25 187.511719 296.25 C 197.375 296.246094 207.058594 294.925781 216.5625 292.289062 C 218.203125 282.234375 224.179688 272.976562 233.671875 267.46875 C 243.164062 261.960938 254.179688 261.445312 263.671875 265.042969 C 266.035156 262.726562 268.285156 260.308594 270.429688 257.789062 C 272.570312 255.265625 274.589844 252.652344 276.492188 249.945312 C 278.394531 247.238281 280.167969 244.449219 281.816406 241.582031 C 283.460938 238.710938 284.976562 235.773438 286.351562 232.765625 C 287.730469 229.757812 288.96875 226.691406 290.066406 223.570312 C 291.160156 220.449219 292.113281 217.285156 292.921875 214.078125 C 293.730469 210.871094 294.386719 207.632812 294.898438 204.363281 C 295.410156 201.09375 295.769531 197.808594 295.980469 194.507812 L 260.296875 193.980469 C 260.097656 196.230469 259.792969 198.464844 259.386719 200.6875 C 258.976562 202.910156 258.46875 205.105469 257.859375 207.28125 C 257.246094 209.457031 256.535156 211.597656 255.726562 213.707031 C 254.917969 215.8125 254.011719 217.882812 253.011719 219.90625 C 252.011719 221.929688 250.917969 223.90625 249.734375 225.828125 C 248.550781 227.75 247.28125 229.617188 245.925781 231.421875 C 244.566406 233.226562 243.128906 234.96875 241.613281 236.640625 C 240.09375 238.3125 238.503906 239.910156 236.835938 241.4375 C 235.171875 242.960938 233.4375 244.40625 231.640625 245.769531 C 229.839844 247.136719 227.980469 248.414062 226.0625 249.605469 C 224.144531 250.796875 222.175781 251.898438 220.152344 252.910156 C 218.132812 253.917969 216.070312 254.832031 213.964844 255.652344 C 211.859375 256.46875 209.722656 257.191406 207.550781 257.8125 C 205.378906 258.429688 203.183594 258.949219 200.964844 259.367188 C 198.746094 259.785156 196.511719 260.097656 194.261719 260.308594 C 192.011719 260.519531 189.757812 260.625 187.5 260.625 Z M 238.734375 98.753906 C 250.710938 105.785156 266.015625 101.566406 272.917969 89.613281 C 279.820312 77.660156 275.730469 62.332031 263.777344 55.417969 C 251.824219 48.503906 236.496094 52.605469 229.582031 64.59375 C 222.667969 76.582031 226.769531 91.863281 238.746094 98.777344 Z M 238.734375 98.753906 "/>
</g>
</svg>
