<?xml version="1.0" encoding="UTF-8"?>
<svg xmlns="http://www.w3.org/2000/svg" xmlns:xlink="http://www.w3.org/1999/xlink" width="375pt" height="374.999991pt" viewBox="0 0 375 374.999991" version="1.2">
<defs>
<clipPath id="clip1">
  <path d="M 105 3.046875 L 135 3.046875 L 135 39 L 105 39 Z M 105 3.046875 "/>
</clipPath>
<clipPath id="clip2">
  <path d="M 240 3.046875 L 270 3.046875 L 270 39 L 240 39 Z M 240 3.046875 "/>
</clipPath>
<clipPath id="clip3">
  <path d="M 123 3.046875 L 252 3.046875 L 252 16 L 123 16 Z M 123 3.046875 "/>
</clipPath>
<clipPath id="clip4">
  <path d="M 257 278 L 375 278 L 375 372.046875 L 257 372.046875 Z M 257 278 "/>
</clipPath>
<clipPath id="clip5">
  <path d="M 129 278 L 246 278 L 246 372.046875 L 129 372.046875 Z M 129 278 "/>
</clipPath>
<clipPath id="clip6">
  <path d="M 0 278 L 118 278 L 118 372.046875 L 0 372.046875 Z M 0 278 "/>
</clipPath>
</defs>
<g id="surface1">
<path style=" stroke:none;fill-rule:nonzero;fill:rgb(100%,100%,100%);fill-opacity:1;" d="M 6.378906 284.402344 L 111.496094 284.402344 L 111.496094 366.292969 L 6.378906 366.292969 Z M 6.378906 284.402344 "/>
<path style=" stroke:none;fill-rule:nonzero;fill:rgb(100%,100%,100%);fill-opacity:1;" d="M 135 284.402344 L 240.117188 284.402344 L 240.117188 366.292969 L 135 366.292969 Z M 135 284.402344 "/>
<path style=" stroke:none;fill-rule:nonzero;fill:rgb(84.309387%,91.369629%,100%);fill-opacity:1;" d="M 240 272.820312 L 240 284.402344 L 134.882812 284.402344 L 134.882812 272.644531 C 134.882812 269.425781 137.511719 266.851562 140.730469 266.851562 L 234.09375 266.851562 C 237.3125 266.851562 239.941406 269.484375 240.007812 272.703125 L 240.007812 272.820312 Z M 240 272.820312 "/>
<path style=" stroke:none;fill-rule:nonzero;fill:rgb(84.309387%,91.369629%,100%);fill-opacity:1;" d="M 12.226562 266.851562 L 105.476562 266.851562 C 108.691406 266.851562 111.386719 269.484375 111.445312 272.703125 L 111.386719 272.703125 L 111.386719 284.402344 L 6.261719 284.402344 L 6.261719 272.644531 C 6.261719 269.425781 8.894531 266.851562 12.109375 266.851562 Z M 12.226562 266.851562 "/>
<path style=" stroke:none;fill-rule:nonzero;fill:rgb(84.309387%,91.369629%,100%);fill-opacity:1;" d="M 368.621094 272.820312 L 368.621094 284.402344 L 263.503906 284.402344 L 263.503906 272.644531 C 263.503906 269.425781 266.132812 266.851562 269.347656 266.851562 L 362.714844 266.851562 C 365.929688 266.851562 368.5625 269.484375 368.625 272.703125 L 368.625 272.820312 Z M 368.621094 272.820312 "/>
<path style=" stroke:none;fill-rule:nonzero;fill:rgb(100%,100%,100%);fill-opacity:1;" d="M 263.621094 284.402344 L 368.738281 284.402344 L 368.738281 366.292969 L 263.621094 366.292969 Z M 263.621094 284.402344 "/>
<path style=" stroke:none;fill-rule:nonzero;fill:rgb(36.079407%,61.959839%,100%);fill-opacity:1;" d="M 245.964844 9.480469 L 263.503906 32.878906 L 111.496094 32.878906 L 129.035156 9.480469 Z M 245.964844 9.480469 "/>
<path style=" stroke:none;fill-rule:nonzero;fill:rgb(58.039856%,75.689697%,100%);fill-opacity:1;" d="M 111.496094 79.671875 L 263.503906 79.671875 L 263.503906 126.46875 L 111.496094 126.46875 Z M 111.496094 79.671875 "/>
<path style=" stroke:none;fill-rule:nonzero;fill:rgb(58.039856%,75.689697%,100%);fill-opacity:1;" d="M 111.496094 32.878906 L 263.503906 32.878906 L 263.503906 79.671875 L 111.496094 79.671875 Z M 111.496094 32.878906 "/>
<path style=" stroke:none;fill-rule:nonzero;fill:rgb(58.039856%,75.689697%,100%);fill-opacity:1;" d="M 111.496094 126.46875 L 263.503906 126.46875 L 263.503906 173.261719 L 111.496094 173.261719 Z M 111.496094 126.46875 "/>
<path style=" stroke:none;fill-rule:nonzero;fill:rgb(6.669617%,43.528748%,100%);fill-opacity:1;" d="M 246.140625 62.125 C 242.90625 62.125 240.261719 59.511719 240.261719 56.277344 C 240.261719 53.042969 242.847656 50.425781 246.074219 50.425781 L 246.140625 50.425781 C 249.367188 50.425781 251.984375 53.042969 251.984375 56.277344 C 251.984375 59.511719 249.367188 62.125 246.140625 62.125 Z M 246.140625 62.125 "/>
<path style=" stroke:none;fill-rule:nonzero;fill:rgb(6.669617%,43.528748%,100%);fill-opacity:1;" d="M 263.503906 85.523438 L 111.496094 85.523438 C 108.265625 85.523438 105.652344 82.90625 105.652344 79.671875 L 105.652344 32.878906 C 105.652344 29.644531 108.265625 27.027344 111.496094 27.027344 L 263.503906 27.027344 C 266.734375 27.027344 269.347656 29.644531 269.347656 32.878906 L 269.347656 79.671875 C 269.347656 82.90625 266.734375 85.523438 263.503906 85.523438 Z M 117.34375 73.824219 L 257.65625 73.824219 L 257.65625 38.726562 L 117.34375 38.726562 Z M 117.34375 73.824219 "/>
<path style=" stroke:none;fill-rule:nonzero;fill:rgb(6.669617%,43.528748%,100%);fill-opacity:1;" d="M 134.882812 67.976562 C 133.386719 67.976562 131.890625 67.402344 130.75 66.261719 C 128.464844 63.972656 128.464844 60.277344 130.75 57.988281 L 142.441406 46.292969 C 144.726562 44.003906 148.421875 44.003906 150.707031 46.292969 C 152.996094 48.578125 152.996094 52.273438 150.707031 54.5625 L 139.015625 66.261719 C 137.875 67.402344 136.378906 67.976562 134.882812 67.976562 Z M 134.882812 67.976562 "/>
<path style=" stroke:none;fill-rule:nonzero;fill:rgb(6.669617%,43.528748%,100%);fill-opacity:1;" d="M 164.113281 67.976562 C 162.617188 67.976562 161.121094 67.402344 159.980469 66.261719 C 157.695312 63.972656 157.695312 60.277344 159.980469 57.988281 L 171.675781 46.292969 C 173.960938 44.003906 177.65625 44.003906 179.941406 46.292969 C 182.226562 48.578125 182.226562 52.273438 179.941406 54.5625 L 168.246094 66.261719 C 167.109375 67.402344 165.609375 67.976562 164.113281 67.976562 Z M 164.113281 67.976562 "/>
<path style=" stroke:none;fill-rule:nonzero;fill:rgb(6.669617%,43.528748%,100%);fill-opacity:1;" d="M 193.347656 67.976562 C 191.851562 67.976562 190.351562 67.402344 189.214844 66.261719 C 186.925781 63.972656 186.925781 60.277344 189.214844 57.988281 L 200.90625 46.292969 C 203.191406 44.003906 206.886719 44.003906 209.171875 46.292969 C 211.457031 48.578125 211.457031 52.273438 209.171875 54.5625 L 197.480469 66.261719 C 196.339844 67.402344 194.84375 67.976562 193.347656 67.976562 Z M 193.347656 67.976562 "/>
<path style=" stroke:none;fill-rule:nonzero;fill:rgb(6.669617%,43.528748%,100%);fill-opacity:1;" d="M 246.140625 108.921875 C 242.90625 108.921875 240.261719 106.304688 240.261719 103.070312 C 240.261719 99.835938 242.847656 97.222656 246.074219 97.222656 L 246.140625 97.222656 C 249.367188 97.222656 251.984375 99.835938 251.984375 103.070312 C 251.984375 106.304688 249.367188 108.921875 246.140625 108.921875 Z M 246.140625 108.921875 "/>
<path style=" stroke:none;fill-rule:nonzero;fill:rgb(6.669617%,43.528748%,100%);fill-opacity:1;" d="M 263.503906 132.316406 L 111.496094 132.316406 C 108.265625 132.316406 105.652344 129.703125 105.652344 126.46875 L 105.652344 79.671875 C 105.652344 76.4375 108.265625 73.824219 111.496094 73.824219 L 263.503906 73.824219 C 266.734375 73.824219 269.347656 76.4375 269.347656 79.671875 L 269.347656 126.46875 C 269.347656 129.703125 266.734375 132.316406 263.503906 132.316406 Z M 117.34375 120.617188 L 257.65625 120.617188 L 257.65625 85.523438 L 117.34375 85.523438 Z M 117.34375 120.617188 "/>
<path style=" stroke:none;fill-rule:nonzero;fill:rgb(6.669617%,43.528748%,100%);fill-opacity:1;" d="M 134.882812 114.769531 C 133.386719 114.769531 131.890625 114.195312 130.75 113.054688 C 128.464844 110.769531 128.464844 107.070312 130.75 104.785156 L 142.441406 93.085938 C 144.726562 90.796875 148.421875 90.796875 150.707031 93.085938 C 152.996094 95.371094 152.996094 99.070312 150.707031 101.355469 L 139.015625 113.054688 C 137.875 114.195312 136.378906 114.769531 134.882812 114.769531 Z M 134.882812 114.769531 "/>
<path style=" stroke:none;fill-rule:nonzero;fill:rgb(6.669617%,43.528748%,100%);fill-opacity:1;" d="M 164.113281 114.769531 C 162.617188 114.769531 161.121094 114.195312 159.980469 113.054688 C 157.695312 110.769531 157.695312 107.070312 159.980469 104.785156 L 171.675781 93.085938 C 173.960938 90.796875 177.65625 90.796875 179.941406 93.085938 C 182.226562 95.371094 182.226562 99.070312 179.941406 101.355469 L 168.246094 113.054688 C 167.109375 114.195312 165.609375 114.769531 164.113281 114.769531 Z M 164.113281 114.769531 "/>
<path style=" stroke:none;fill-rule:nonzero;fill:rgb(6.669617%,43.528748%,100%);fill-opacity:1;" d="M 193.347656 114.769531 C 191.851562 114.769531 190.351562 114.195312 189.214844 113.054688 C 186.925781 110.769531 186.925781 107.070312 189.214844 104.785156 L 200.90625 93.085938 C 203.191406 90.796875 206.886719 90.796875 209.171875 93.085938 C 211.457031 95.371094 211.457031 99.070312 209.171875 101.355469 L 197.480469 113.054688 C 196.339844 114.195312 194.84375 114.769531 193.347656 114.769531 Z M 193.347656 114.769531 "/>
<path style=" stroke:none;fill-rule:nonzero;fill:rgb(6.669617%,43.528748%,100%);fill-opacity:1;" d="M 246.140625 155.714844 C 242.90625 155.714844 240.261719 153.101562 240.261719 149.867188 C 240.261719 146.628906 242.847656 144.015625 246.074219 144.015625 L 246.140625 144.015625 C 249.367188 144.015625 251.984375 146.628906 251.984375 149.867188 C 251.984375 153.101562 249.367188 155.714844 246.140625 155.714844 Z M 246.140625 155.714844 "/>
<path style=" stroke:none;fill-rule:nonzero;fill:rgb(6.669617%,43.528748%,100%);fill-opacity:1;" d="M 263.503906 179.113281 L 111.496094 179.113281 C 108.265625 179.113281 105.652344 176.496094 105.652344 173.261719 L 105.652344 126.46875 C 105.652344 123.234375 108.265625 120.617188 111.496094 120.617188 L 263.503906 120.617188 C 266.734375 120.617188 269.347656 123.234375 269.347656 126.46875 L 269.347656 173.261719 C 269.347656 176.496094 266.734375 179.113281 263.503906 179.113281 Z M 117.34375 167.414062 L 257.65625 167.414062 L 257.65625 132.316406 L 117.34375 132.316406 Z M 117.34375 167.414062 "/>
<path style=" stroke:none;fill-rule:nonzero;fill:rgb(6.669617%,43.528748%,100%);fill-opacity:1;" d="M 134.882812 161.5625 C 133.386719 161.5625 131.890625 160.992188 130.75 159.851562 C 128.464844 157.5625 128.464844 153.867188 130.75 151.578125 L 142.441406 139.878906 C 144.726562 137.59375 148.421875 137.59375 150.707031 139.878906 C 152.996094 142.167969 152.996094 145.863281 150.707031 148.152344 L 139.015625 159.851562 C 137.875 160.992188 136.378906 161.5625 134.882812 161.5625 Z M 134.882812 161.5625 "/>
<path style=" stroke:none;fill-rule:nonzero;fill:rgb(6.669617%,43.528748%,100%);fill-opacity:1;" d="M 164.113281 161.5625 C 162.617188 161.5625 161.121094 160.992188 159.980469 159.851562 C 157.695312 157.5625 157.695312 153.867188 159.980469 151.578125 L 171.675781 139.878906 C 173.960938 137.59375 177.65625 137.59375 179.941406 139.878906 C 182.226562 142.167969 182.226562 145.863281 179.941406 148.152344 L 168.246094 159.851562 C 167.109375 160.992188 165.609375 161.5625 164.113281 161.5625 Z M 164.113281 161.5625 "/>
<path style=" stroke:none;fill-rule:nonzero;fill:rgb(6.669617%,43.528748%,100%);fill-opacity:1;" d="M 193.347656 161.5625 C 191.851562 161.5625 190.351562 160.992188 189.214844 159.851562 C 186.925781 157.5625 186.925781 153.867188 189.214844 151.578125 L 200.90625 139.878906 C 203.191406 137.59375 206.886719 137.59375 209.171875 139.878906 C 211.457031 142.167969 211.457031 145.863281 209.171875 148.152344 L 197.480469 159.851562 C 196.339844 160.992188 194.84375 161.5625 193.347656 161.5625 Z M 193.347656 161.5625 "/>
<g clip-path="url(#clip1)" clip-rule="nonzero">
<path style=" stroke:none;fill-rule:nonzero;fill:rgb(6.669617%,43.528748%,100%);fill-opacity:1;" d="M 111.492188 38.726562 C 110.269531 38.726562 109.042969 38.347656 107.988281 37.558594 C 105.40625 35.621094 104.878906 31.953125 106.820312 29.375 L 124.359375 5.976562 C 126.292969 3.386719 129.964844 2.871094 132.539062 4.808594 C 135.121094 6.742188 135.648438 10.410156 133.707031 12.992188 L 116.167969 36.386719 C 115.027344 37.921875 113.273438 38.726562 111.492188 38.726562 Z M 111.492188 38.726562 "/>
</g>
<g clip-path="url(#clip2)" clip-rule="nonzero">
<path style=" stroke:none;fill-rule:nonzero;fill:rgb(6.669617%,43.528748%,100%);fill-opacity:1;" d="M 263.507812 38.726562 C 261.726562 38.726562 259.976562 37.921875 258.824219 36.386719 L 241.285156 12.992188 C 239.34375 10.410156 239.871094 6.742188 242.457031 4.808594 C 245.035156 2.867188 248.699219 3.378906 250.636719 5.976562 L 268.175781 29.375 C 270.113281 31.953125 269.589844 35.621094 267.003906 37.558594 C 265.957031 38.347656 264.730469 38.726562 263.507812 38.726562 Z M 263.507812 38.726562 "/>
</g>
<g clip-path="url(#clip3)" clip-rule="nonzero">
<path style=" stroke:none;fill-rule:nonzero;fill:rgb(6.669617%,43.528748%,100%);fill-opacity:1;" d="M 245.964844 15.332031 L 129.035156 15.332031 C 125.804688 15.332031 123.191406 12.714844 123.191406 9.480469 C 123.191406 6.246094 125.804688 3.632812 129.035156 3.632812 L 245.964844 3.632812 C 249.195312 3.632812 251.808594 6.246094 251.808594 9.480469 C 251.808594 12.714844 249.195312 15.332031 245.964844 15.332031 Z M 245.964844 15.332031 "/>
</g>
<g clip-path="url(#clip4)" clip-rule="nonzero">
<path style=" stroke:none;fill-rule:nonzero;fill:rgb(6.669617%,43.528748%,100%);fill-opacity:1;" d="M 368.730469 372.140625 L 263.601562 372.140625 C 260.371094 372.140625 257.757812 369.527344 257.757812 366.292969 L 257.757812 284.390625 C 257.757812 281.152344 260.371094 278.539062 263.601562 278.539062 L 368.730469 278.539062 C 371.964844 278.539062 374.578125 281.152344 374.578125 284.390625 L 374.578125 366.292969 C 374.578125 369.527344 371.964844 372.140625 368.730469 372.140625 Z M 269.449219 360.441406 L 362.886719 360.441406 L 362.886719 290.238281 L 269.449219 290.238281 Z M 269.449219 360.441406 "/>
</g>
<path style=" stroke:none;fill-rule:nonzero;fill:rgb(6.669617%,43.528748%,100%);fill-opacity:1;" d="M 263.496094 278.535156 C 260.265625 278.535156 257.664062 275.902344 257.664062 272.667969 C 257.664062 266.230469 262.894531 261.003906 269.324219 261.003906 C 272.558594 261.003906 275.171875 263.617188 275.171875 266.851562 C 275.171875 270.085938 272.558594 272.703125 269.324219 272.703125 C 269.324219 275.9375 266.722656 278.535156 263.496094 278.535156 Z M 263.496094 278.535156 "/>
<path style=" stroke:none;fill-rule:nonzero;fill:rgb(6.669617%,43.528748%,100%);fill-opacity:1;" d="M 263.496094 296.097656 C 260.265625 296.097656 257.652344 293.484375 257.652344 290.25 L 257.652344 272.691406 C 257.652344 269.457031 260.265625 266.839844 263.496094 266.839844 C 266.730469 266.839844 269.34375 269.457031 269.34375 272.691406 L 269.34375 290.25 C 269.34375 293.484375 266.730469 296.097656 263.496094 296.097656 Z M 263.496094 296.097656 "/>
<path style=" stroke:none;fill-rule:nonzero;fill:rgb(6.669617%,43.528748%,100%);fill-opacity:1;" d="M 368.636719 278.644531 C 365.40625 278.644531 362.792969 276.03125 362.792969 272.796875 C 362.792969 272.75 362.75 272.703125 362.6875 272.703125 C 359.453125 272.703125 356.839844 270.085938 356.839844 266.851562 C 356.839844 263.617188 359.453125 261.003906 362.6875 261.003906 C 369.1875 261.003906 374.484375 266.289062 374.484375 272.796875 C 374.484375 276.023438 371.871094 278.644531 368.636719 278.644531 Z M 368.636719 278.644531 "/>
<path style=" stroke:none;fill-rule:nonzero;fill:rgb(6.669617%,43.528748%,100%);fill-opacity:1;" d="M 368.625 296.097656 C 365.394531 296.097656 362.78125 293.484375 362.78125 290.25 L 362.78125 272.691406 C 362.78125 269.457031 365.394531 266.839844 368.625 266.839844 C 371.859375 266.839844 374.472656 269.457031 374.472656 272.691406 L 374.472656 290.25 C 374.472656 293.484375 371.859375 296.097656 368.625 296.097656 Z M 368.625 296.097656 "/>
<path style=" stroke:none;fill-rule:nonzero;fill:rgb(6.669617%,43.528748%,100%);fill-opacity:1;" d="M 362.691406 272.703125 L 269.4375 272.703125 C 266.203125 272.703125 263.589844 270.085938 263.589844 266.851562 C 263.589844 263.617188 266.203125 261.003906 269.4375 261.003906 L 362.691406 261.003906 C 365.925781 261.003906 368.539062 263.617188 368.539062 266.851562 C 368.539062 270.085938 365.925781 272.703125 362.691406 272.703125 Z M 362.691406 272.703125 "/>
<path style=" stroke:none;fill-rule:nonzero;fill:rgb(6.669617%,43.528748%,100%);fill-opacity:1;" d="M 345.335938 313.648438 L 286.871094 313.648438 C 283.636719 313.648438 281.023438 311.03125 281.023438 307.796875 C 281.023438 304.5625 283.636719 301.949219 286.871094 301.949219 L 345.335938 301.949219 C 348.566406 301.949219 351.179688 304.5625 351.179688 307.796875 C 351.179688 311.03125 348.566406 313.648438 345.335938 313.648438 Z M 345.335938 313.648438 "/>
<path style=" stroke:none;fill-rule:nonzero;fill:rgb(6.669617%,43.528748%,100%);fill-opacity:1;" d="M 345.335938 331.195312 L 286.871094 331.195312 C 283.636719 331.195312 281.023438 328.582031 281.023438 325.347656 C 281.023438 322.109375 283.636719 319.496094 286.871094 319.496094 L 345.335938 319.496094 C 348.566406 319.496094 351.179688 322.109375 351.179688 325.347656 C 351.179688 328.582031 348.566406 331.195312 345.335938 331.195312 Z M 345.335938 331.195312 "/>
<path style=" stroke:none;fill-rule:nonzero;fill:rgb(6.669617%,43.528748%,100%);fill-opacity:1;" d="M 327.777344 348.742188 L 304.425781 348.742188 C 301.195312 348.742188 298.582031 346.128906 298.582031 342.894531 C 298.582031 339.660156 301.195312 337.042969 304.425781 337.042969 L 327.777344 337.042969 C 331.011719 337.042969 333.625 339.660156 333.625 342.894531 C 333.625 346.128906 331.011719 348.742188 327.777344 348.742188 Z M 327.777344 348.742188 "/>
<g clip-path="url(#clip5)" clip-rule="nonzero">
<path style=" stroke:none;fill-rule:nonzero;fill:rgb(6.669617%,43.528748%,100%);fill-opacity:1;" d="M 240.113281 372.140625 L 134.980469 372.140625 C 131.75 372.140625 129.136719 369.527344 129.136719 366.292969 L 129.136719 284.390625 C 129.136719 281.152344 131.75 278.539062 134.980469 278.539062 L 240.113281 278.539062 C 243.34375 278.539062 245.957031 281.152344 245.957031 284.390625 L 245.957031 366.292969 C 245.957031 369.527344 243.34375 372.140625 240.113281 372.140625 Z M 140.828125 360.441406 L 234.265625 360.441406 L 234.265625 290.238281 L 140.828125 290.238281 Z M 140.828125 360.441406 "/>
</g>
<path style=" stroke:none;fill-rule:nonzero;fill:rgb(6.669617%,43.528748%,100%);fill-opacity:1;" d="M 134.875 278.535156 C 131.644531 278.535156 129.042969 275.902344 129.042969 272.667969 C 129.042969 266.230469 134.273438 261.003906 140.707031 261.003906 C 143.9375 261.003906 146.550781 263.617188 146.550781 266.851562 C 146.550781 270.085938 143.9375 272.703125 140.707031 272.703125 C 140.707031 275.9375 138.105469 278.535156 134.875 278.535156 Z M 134.875 278.535156 "/>
<path style=" stroke:none;fill-rule:nonzero;fill:rgb(6.669617%,43.528748%,100%);fill-opacity:1;" d="M 134.875 296.097656 C 131.644531 296.097656 129.03125 293.484375 129.03125 290.25 L 129.03125 272.691406 C 129.03125 269.457031 131.644531 266.839844 134.875 266.839844 C 138.109375 266.839844 140.722656 269.457031 140.722656 272.691406 L 140.722656 290.25 C 140.722656 293.484375 138.109375 296.097656 134.875 296.097656 Z M 134.875 296.097656 "/>
<path style=" stroke:none;fill-rule:nonzero;fill:rgb(6.669617%,43.528748%,100%);fill-opacity:1;" d="M 240.019531 278.644531 C 236.785156 278.644531 234.171875 276.03125 234.171875 272.796875 C 234.171875 272.75 234.128906 272.703125 234.066406 272.703125 C 230.832031 272.703125 228.21875 270.085938 228.21875 266.851562 C 228.21875 263.617188 230.832031 261.003906 234.066406 261.003906 C 240.566406 261.003906 245.863281 266.289062 245.863281 272.796875 C 245.863281 276.023438 243.25 278.644531 240.019531 278.644531 Z M 240.019531 278.644531 "/>
<path style=" stroke:none;fill-rule:nonzero;fill:rgb(6.669617%,43.528748%,100%);fill-opacity:1;" d="M 240.007812 296.097656 C 236.773438 296.097656 234.160156 293.484375 234.160156 290.25 L 234.160156 272.691406 C 234.160156 269.457031 236.773438 266.839844 240.007812 266.839844 C 243.238281 266.839844 245.851562 269.457031 245.851562 272.691406 L 245.851562 290.25 C 245.851562 293.484375 243.238281 296.097656 240.007812 296.097656 Z M 240.007812 296.097656 "/>
<path style=" stroke:none;fill-rule:nonzero;fill:rgb(6.669617%,43.528748%,100%);fill-opacity:1;" d="M 234.070312 272.703125 L 140.816406 272.703125 C 137.582031 272.703125 134.96875 270.085938 134.96875 266.851562 C 134.96875 263.617188 137.582031 261.003906 140.816406 261.003906 L 234.070312 261.003906 C 237.304688 261.003906 239.917969 263.617188 239.917969 266.851562 C 239.917969 270.085938 237.304688 272.703125 234.070312 272.703125 Z M 234.070312 272.703125 "/>
<path style=" stroke:none;fill-rule:nonzero;fill:rgb(6.669617%,43.528748%,100%);fill-opacity:1;" d="M 216.714844 313.648438 L 158.25 313.648438 C 155.015625 313.648438 152.402344 311.03125 152.402344 307.796875 C 152.402344 304.5625 155.015625 301.949219 158.25 301.949219 L 216.714844 301.949219 C 219.949219 301.949219 222.5625 304.5625 222.5625 307.796875 C 222.5625 311.03125 219.949219 313.648438 216.714844 313.648438 Z M 216.714844 313.648438 "/>
<path style=" stroke:none;fill-rule:nonzero;fill:rgb(6.669617%,43.528748%,100%);fill-opacity:1;" d="M 216.714844 331.195312 L 158.25 331.195312 C 155.015625 331.195312 152.402344 328.582031 152.402344 325.347656 C 152.402344 322.109375 155.015625 319.496094 158.25 319.496094 L 216.714844 319.496094 C 219.949219 319.496094 222.5625 322.109375 222.5625 325.347656 C 222.5625 328.582031 219.949219 331.195312 216.714844 331.195312 Z M 216.714844 331.195312 "/>
<path style=" stroke:none;fill-rule:nonzero;fill:rgb(6.669617%,43.528748%,100%);fill-opacity:1;" d="M 199.15625 348.742188 L 175.808594 348.742188 C 172.574219 348.742188 169.960938 346.128906 169.960938 342.894531 C 169.960938 339.660156 172.574219 337.042969 175.808594 337.042969 L 199.15625 337.042969 C 202.390625 337.042969 205.003906 339.660156 205.003906 342.894531 C 205.003906 346.128906 202.390625 348.742188 199.15625 348.742188 Z M 199.15625 348.742188 "/>
<g clip-path="url(#clip6)" clip-rule="nonzero">
<path style=" stroke:none;fill-rule:nonzero;fill:rgb(6.669617%,43.528748%,100%);fill-opacity:1;" d="M 111.503906 372.140625 L 6.375 372.140625 C 3.140625 372.140625 0.527344 369.527344 0.527344 366.292969 L 0.527344 284.390625 C 0.527344 281.152344 3.140625 278.539062 6.375 278.539062 L 111.503906 278.539062 C 114.734375 278.539062 117.347656 281.152344 117.347656 284.390625 L 117.347656 366.292969 C 117.347656 369.527344 114.734375 372.140625 111.503906 372.140625 Z M 12.21875 360.441406 L 105.65625 360.441406 L 105.65625 290.238281 L 12.21875 290.238281 Z M 12.21875 360.441406 "/>
</g>
<path style=" stroke:none;fill-rule:nonzero;fill:rgb(6.669617%,43.528748%,100%);fill-opacity:1;" d="M 6.269531 278.535156 C 3.035156 278.535156 0.433594 275.902344 0.433594 272.667969 C 0.433594 266.230469 5.667969 261.003906 12.097656 261.003906 C 15.332031 261.003906 17.945312 263.617188 17.945312 266.851562 C 17.945312 270.085938 15.332031 272.703125 12.097656 272.703125 C 12.097656 275.9375 9.496094 278.535156 6.269531 278.535156 Z M 6.269531 278.535156 "/>
<path style=" stroke:none;fill-rule:nonzero;fill:rgb(6.669617%,43.528748%,100%);fill-opacity:1;" d="M 6.269531 296.097656 C 3.035156 296.097656 0.421875 293.484375 0.421875 290.25 L 0.421875 272.691406 C 0.421875 269.457031 3.035156 266.839844 6.269531 266.839844 C 9.5 266.839844 12.113281 269.457031 12.113281 272.691406 L 12.113281 290.25 C 12.113281 293.484375 9.5 296.097656 6.269531 296.097656 Z M 6.269531 296.097656 "/>
<path style=" stroke:none;fill-rule:nonzero;fill:rgb(6.669617%,43.528748%,100%);fill-opacity:1;" d="M 111.410156 278.644531 C 108.175781 278.644531 105.5625 276.03125 105.5625 272.796875 C 105.5625 272.75 105.523438 272.703125 105.457031 272.703125 C 102.226562 272.703125 99.613281 270.085938 99.613281 266.851562 C 99.613281 263.617188 102.226562 261.003906 105.457031 261.003906 C 111.960938 261.003906 117.253906 266.289062 117.253906 272.796875 C 117.253906 276.023438 114.640625 278.644531 111.410156 278.644531 Z M 111.410156 278.644531 "/>
<path style=" stroke:none;fill-rule:nonzero;fill:rgb(6.669617%,43.528748%,100%);fill-opacity:1;" d="M 111.398438 296.097656 C 108.164062 296.097656 105.550781 293.484375 105.550781 290.25 L 105.550781 272.691406 C 105.550781 269.457031 108.164062 266.839844 111.398438 266.839844 C 114.628906 266.839844 117.242188 269.457031 117.242188 272.691406 L 117.242188 290.25 C 117.242188 293.484375 114.628906 296.097656 111.398438 296.097656 Z M 111.398438 296.097656 "/>
<path style=" stroke:none;fill-rule:nonzero;fill:rgb(6.669617%,43.528748%,100%);fill-opacity:1;" d="M 105.464844 272.703125 L 12.207031 272.703125 C 8.976562 272.703125 6.363281 270.085938 6.363281 266.851562 C 6.363281 263.617188 8.976562 261.003906 12.207031 261.003906 L 105.464844 261.003906 C 108.695312 261.003906 111.308594 263.617188 111.308594 266.851562 C 111.308594 270.085938 108.695312 272.703125 105.464844 272.703125 Z M 105.464844 272.703125 "/>
<path style=" stroke:none;fill-rule:nonzero;fill:rgb(6.669617%,43.528748%,100%);fill-opacity:1;" d="M 88.105469 313.648438 L 29.640625 313.648438 C 26.410156 313.648438 23.796875 311.03125 23.796875 307.796875 C 23.796875 304.5625 26.410156 301.949219 29.640625 301.949219 L 88.105469 301.949219 C 91.339844 301.949219 93.953125 304.5625 93.953125 307.796875 C 93.953125 311.03125 91.339844 313.648438 88.105469 313.648438 Z M 88.105469 313.648438 "/>
<path style=" stroke:none;fill-rule:nonzero;fill:rgb(6.669617%,43.528748%,100%);fill-opacity:1;" d="M 88.105469 331.195312 L 29.640625 331.195312 C 26.410156 331.195312 23.796875 328.582031 23.796875 325.347656 C 23.796875 322.109375 26.410156 319.496094 29.640625 319.496094 L 88.105469 319.496094 C 91.339844 319.496094 93.953125 322.109375 93.953125 325.347656 C 93.953125 328.582031 91.339844 331.195312 88.105469 331.195312 Z M 88.105469 331.195312 "/>
<path style=" stroke:none;fill-rule:nonzero;fill:rgb(6.669617%,43.528748%,100%);fill-opacity:1;" d="M 70.550781 348.742188 L 47.199219 348.742188 C 43.964844 348.742188 41.351562 346.128906 41.351562 342.894531 C 41.351562 339.660156 43.964844 337.042969 47.199219 337.042969 L 70.550781 337.042969 C 73.78125 337.042969 76.394531 339.660156 76.394531 342.894531 C 76.394531 346.128906 73.78125 348.742188 70.550781 348.742188 Z M 70.550781 348.742188 "/>
<path style=" stroke:none;fill-rule:nonzero;fill:rgb(6.669617%,43.528748%,100%);fill-opacity:1;" d="M 187.5 255.152344 C 184.265625 255.152344 181.652344 252.539062 181.652344 249.304688 L 181.652344 190.800781 C 181.652344 187.566406 184.265625 184.949219 187.5 184.949219 C 190.734375 184.949219 193.347656 187.566406 193.347656 190.800781 L 193.347656 249.304688 C 193.347656 252.539062 190.734375 255.152344 187.5 255.152344 Z M 187.5 255.152344 "/>
<path style=" stroke:none;fill-rule:nonzero;fill:rgb(6.669617%,43.528748%,100%);fill-opacity:1;" d="M 216.730469 225.90625 C 213.5 225.90625 210.886719 223.292969 210.886719 220.058594 L 210.886719 190.800781 C 210.886719 187.566406 213.5 184.949219 216.730469 184.949219 C 219.964844 184.949219 222.578125 187.566406 222.578125 190.800781 L 222.578125 220.058594 C 222.578125 223.292969 219.964844 225.90625 216.730469 225.90625 Z M 216.730469 225.90625 "/>
<path style=" stroke:none;fill-rule:nonzero;fill:rgb(6.669617%,43.528748%,100%);fill-opacity:1;" d="M 316.113281 225.90625 L 216.730469 225.90625 C 213.5 225.90625 210.886719 223.292969 210.886719 220.058594 C 210.886719 216.824219 213.5 214.207031 216.730469 214.207031 L 316.113281 214.207031 C 319.347656 214.207031 321.960938 216.824219 321.960938 220.058594 C 321.960938 223.292969 319.347656 225.90625 316.113281 225.90625 Z M 316.113281 225.90625 "/>
<path style=" stroke:none;fill-rule:nonzero;fill:rgb(6.669617%,43.528748%,100%);fill-opacity:1;" d="M 316.113281 255.152344 C 312.882812 255.152344 310.269531 252.539062 310.269531 249.304688 L 310.269531 220.058594 C 310.269531 216.824219 312.882812 214.207031 316.113281 214.207031 C 319.347656 214.207031 321.960938 216.824219 321.960938 220.058594 L 321.960938 249.304688 C 321.960938 252.539062 319.347656 255.152344 316.113281 255.152344 Z M 316.113281 255.152344 "/>
<path style=" stroke:none;fill-rule:nonzero;fill:rgb(6.669617%,43.528748%,100%);fill-opacity:1;" d="M 158.269531 225.90625 C 155.035156 225.90625 152.421875 223.292969 152.421875 220.058594 L 152.421875 190.800781 C 152.421875 187.566406 155.035156 184.949219 158.269531 184.949219 C 161.5 184.949219 164.113281 187.566406 164.113281 190.800781 L 164.113281 220.058594 C 164.113281 223.292969 161.5 225.90625 158.269531 225.90625 Z M 158.269531 225.90625 "/>
<path style=" stroke:none;fill-rule:nonzero;fill:rgb(6.669617%,43.528748%,100%);fill-opacity:1;" d="M 158.269531 225.90625 L 58.886719 225.90625 C 55.652344 225.90625 53.039062 223.292969 53.039062 220.058594 C 53.039062 216.824219 55.652344 214.207031 58.886719 214.207031 L 158.269531 214.207031 C 161.5 214.207031 164.113281 216.824219 164.113281 220.058594 C 164.113281 223.292969 161.5 225.90625 158.269531 225.90625 Z M 158.269531 225.90625 "/>
<path style=" stroke:none;fill-rule:nonzero;fill:rgb(6.669617%,43.528748%,100%);fill-opacity:1;" d="M 58.886719 255.152344 C 55.652344 255.152344 53.039062 252.539062 53.039062 249.304688 L 53.039062 220.058594 C 53.039062 216.824219 55.652344 214.207031 58.886719 214.207031 C 62.117188 214.207031 64.730469 216.824219 64.730469 220.058594 L 64.730469 249.304688 C 64.730469 252.539062 62.117188 255.152344 58.886719 255.152344 Z M 58.886719 255.152344 "/>
</g>
</svg>
