<?xml version="1.0" encoding="UTF-8"?>
<svg xmlns="http://www.w3.org/2000/svg" xmlns:xlink="http://www.w3.org/1999/xlink" width="375pt" height="374.999991pt" viewBox="0 0 375 374.999991" version="1.2">
<defs>
<clipPath id="clip1">
  <path d="M 93 18.75 L 235 18.75 L 235 104 L 93 104 Z M 93 18.75 "/>
</clipPath>
<clipPath id="clip2">
  <path d="M 93 272 L 235 272 L 235 356.25 L 93 356.25 Z M 93 272 "/>
</clipPath>
<clipPath id="clip3">
  <path d="M 234 18.75 L 375 18.75 L 375 104 L 234 104 Z M 234 18.75 "/>
</clipPath>
<clipPath id="clip4">
  <path d="M 234 272 L 375 272 L 375 356.25 L 234 356.25 Z M 234 272 "/>
</clipPath>
</defs>
<g id="surface1">
<g clip-path="url(#clip1)" clip-rule="nonzero">
<path style=" stroke:none;fill-rule:nonzero;fill:rgb(8.628845%,56.858826%,32.939148%);fill-opacity:1;" d="M 234.375 18.75 L 110.101562 18.75 C 101.070312 18.75 93.75 26.070312 93.75 35.101562 L 93.75 103.152344 L 234.375 103.152344 Z M 234.375 18.75 "/>
</g>
<g clip-path="url(#clip2)" clip-rule="nonzero">
<path style=" stroke:none;fill-rule:nonzero;fill:rgb(9.408569%,28.239441%,16.468811%);fill-opacity:1;" d="M 93.75 272.382812 L 93.75 339.898438 C 93.75 348.929688 101.070312 356.25 110.089844 356.25 L 234.375 356.25 L 234.375 272.382812 Z M 93.75 272.382812 "/>
</g>
<path style=" stroke:none;fill-rule:nonzero;fill:rgb(4.708862%,50.19989%,27.059937%);fill-opacity:1;" d="M 93.75 103.152344 L 234.375 103.152344 L 234.375 187.546875 L 93.75 187.546875 Z M 93.75 103.152344 "/>
<path style=" stroke:none;fill-rule:nonzero;fill:rgb(9.01947%,27.839661%,16.468811%);fill-opacity:1;" d="M 93.75 187.546875 L 234.375 187.546875 L 234.375 272.390625 L 93.75 272.390625 Z M 93.75 187.546875 "/>
<g clip-path="url(#clip3)" clip-rule="nonzero">
<path style=" stroke:none;fill-rule:nonzero;fill:rgb(16.079712%,76.078796%,49.798584%);fill-opacity:1;" d="M 358.648438 18.75 L 234.375 18.75 L 234.375 103.152344 L 375 103.152344 L 375 35.101562 C 375 26.070312 367.679688 18.75 358.648438 18.75 Z M 358.648438 18.75 "/>
</g>
<g clip-path="url(#clip4)" clip-rule="nonzero">
<path style=" stroke:none;fill-rule:nonzero;fill:rgb(15.289307%,39.99939%,24.708557%);fill-opacity:1;" d="M 234.375 272.382812 L 234.375 356.25 L 358.660156 356.25 C 367.679688 356.25 375 348.929688 375 339.910156 L 375 272.390625 L 234.375 272.390625 Z M 234.375 272.382812 "/>
</g>
<path style=" stroke:none;fill-rule:nonzero;fill:rgb(9.799194%,67.449951%,39.608765%);fill-opacity:1;" d="M 234.375 103.152344 L 375 103.152344 L 375 187.546875 L 234.375 187.546875 Z M 234.375 103.152344 "/>
<path style=" stroke:none;fill-rule:nonzero;fill:rgb(7.058716%,58.81958%,32.159424%);fill-opacity:1;" d="M 234.375 187.546875 L 375 187.546875 L 375 272.390625 L 234.375 272.390625 Z M 234.375 187.546875 "/>
<path style=" stroke:none;fill-rule:nonzero;fill:rgb(4.708862%,44.709778%,21.958923%);fill-opacity:1;" d="M 171.742188 281.25 L 15.757812 281.25 C 7.058594 281.25 0 274.191406 0 265.492188 L 0 109.507812 C 0 100.808594 7.058594 93.75 15.757812 93.75 L 171.742188 93.75 C 180.441406 93.75 187.5 100.808594 187.5 109.507812 L 187.5 265.492188 C 187.5 274.191406 180.441406 281.25 171.742188 281.25 Z M 171.742188 281.25 "/>
<path style=" stroke:none;fill-rule:nonzero;fill:rgb(100%,100%,100%);fill-opacity:1;" d="M 54.441406 140.625 L 76.808594 140.625 L 94.960938 175.820312 L 114.140625 140.625 L 135.039062 140.625 L 106.246094 187.5 L 135.695312 234.375 L 113.652344 234.375 L 93.871094 197.53125 L 74.175781 234.375 L 51.804688 234.375 L 81.742188 187.332031 Z M 54.441406 140.625 "/>
</g>
</svg>
