<?xml version="1.0" encoding="UTF-8"?>
<svg xmlns="http://www.w3.org/2000/svg" xmlns:xlink="http://www.w3.org/1999/xlink" width="375pt" height="374.999991pt" viewBox="0 0 375 374.999991" version="1.2">
<defs>
<clipPath id="clip1">
  <path d="M 69 12.34375 L 306 12.34375 L 306 168 L 69 168 Z M 69 12.34375 "/>
</clipPath>
</defs>
<g id="surface1">
<path style=" stroke:none;fill-rule:nonzero;fill:rgb(89.408875%,93.328857%,96.469116%);fill-opacity:1;" d="M 295.320312 136.492188 C 295.320312 136.492188 276.730469 150.707031 229.40625 159.097656 C 218.191406 161.078125 203.652344 161.136719 188 160.113281 C 187.421875 159.445312 186.839844 158.804688 186.226562 158.164062 C 183.691406 155.339844 180.949219 152.6875 178.066406 150.210938 C 161.777344 136.199219 140.652344 127.722656 117.574219 127.722656 C 103.148438 127.722656 89.484375 131.042969 77.273438 136.929688 L 84.792969 113.1875 L 289.492188 111.035156 L 295.320312 136.492188 "/>
<path style=" stroke:none;fill-rule:nonzero;fill:rgb(55.288696%,85.099792%,86.669922%);fill-opacity:1;" d="M 187.507812 221.347656 C 187.507812 260.085938 156.125 291.632812 117.574219 291.632812 C 79.023438 291.632812 47.640625 260.085938 47.640625 221.347656 C 47.640625 182.605469 79.023438 151.085938 117.574219 151.085938 C 156.125 151.085938 187.507812 182.605469 187.507812 221.347656 "/>
<path style=" stroke:none;fill-rule:nonzero;fill:rgb(89.408875%,93.328857%,96.469116%);fill-opacity:1;" d="M 138.457031 221.101562 C 138.457031 232.363281 129.324219 241.492188 118.058594 241.492188 C 106.796875 241.492188 97.664062 232.363281 97.664062 221.101562 C 97.664062 209.839844 106.796875 200.710938 118.058594 200.710938 C 129.324219 200.710938 138.457031 209.839844 138.457031 221.101562 "/>
<path style=" stroke:none;fill-rule:nonzero;fill:rgb(83.529663%,47.839355%,25.489807%);fill-opacity:1;" d="M 168.082031 306.546875 L 214.734375 360.375 L 281.769531 360.359375 L 203.535156 276.449219 L 168.082031 306.546875 "/>
<path style=" stroke:none;fill-rule:nonzero;fill:rgb(83.529663%,47.839355%,25.489807%);fill-opacity:1;" d="M 281.917969 106.488281 C 181.566406 148.523438 106.386719 115.253906 92.429688 108.207031 L 116.699219 33.984375 C 118.914062 27.867188 124.1875 24.050781 130.394531 24.050781 C 138.234375 24.050781 146.246094 30.636719 152.191406 35.148438 C 162.683594 43.042969 176.84375 49.65625 190.246094 48.054688 C 204.671875 46.308594 216.414062 37.773438 228.476562 30.375 C 233.023438 27.574219 237.191406 24.167969 242.84375 24.167969 C 249.023438 24.167969 254.320312 27.925781 256.597656 33.722656 L 281.917969 106.488281 "/>
<path style=" stroke:none;fill-rule:nonzero;fill:rgb(83.529663%,47.839355%,25.489807%);fill-opacity:1;" d="M 47.671875 159.472656 C 41.464844 166.554688 36.304688 174.5625 32.429688 183.300781 C 31.671875 184.960938 30.972656 186.621094 30.363281 188.339844 C 30.070312 188.984375 29.835938 189.652344 29.605469 190.320312 C 17.597656 183.652344 9.644531 178.175781 8.304688 175.464844 C 2.972656 164.777344 10.722656 163.816406 10.722656 163.816406 L 44.726562 157.988281 C 44.726562 157.988281 45.628906 158.511719 47.671875 159.472656 "/>
<path style=" stroke:none;fill-rule:nonzero;fill:rgb(83.529663%,47.839355%,25.489807%);fill-opacity:1;" d="M 323.5 209.460938 C 284.949219 232.734375 252.691406 235.445312 209.476562 237.046875 C 209.566406 236.492188 209.652344 235.910156 209.738281 235.355469 C 209.738281 235.300781 209.769531 235.238281 209.738281 235.210938 C 209.917969 234.25 210.03125 233.289062 210.148438 232.296875 C 210.382812 230.347656 210.554688 228.394531 210.644531 226.441406 C 210.761719 224.753906 210.816406 223.035156 210.816406 221.34375 C 210.816406 210.917969 209.097656 200.898438 205.925781 191.515625 C 266.066406 186.683594 310.851562 157.027344 310.851562 157.027344 L 367.207031 165.273438 C 367.207031 165.273438 370.121094 181.292969 323.5 209.460938 "/>
<path style=" stroke:none;fill-rule:nonzero;fill:rgb(17.248535%,23.919678%,32.548523%);fill-opacity:1;" d="M 282.152344 352.078125 L 207.582031 270.109375 C 206.535156 268.941406 205.078125 268.273438 203.535156 268.214844 C 201.988281 268.15625 200.476562 268.710938 199.339844 269.757812 L 197.0625 271.855469 L 187.972656 262.738281 C 195.082031 250.5625 199.164062 236.433594 199.164062 221.34375 C 199.164062 176.136719 162.566406 139.375 117.574219 139.375 C 72.582031 139.375 35.984375 176.136719 35.984375 221.34375 C 35.984375 266.554688 72.582031 303.34375 117.574219 303.34375 C 132.582031 303.34375 146.652344 299.238281 158.746094 292.101562 L 166.671875 300.054688 L 163.148438 303.316406 C 160.816406 305.5 160.640625 309.167969 162.800781 311.558594 L 206.507812 359.972656 C 208.632812 362.332031 212.390625 362.503906 214.722656 360.378906 C 217.113281 358.195312 217.289062 354.496094 215.128906 352.105469 L 175.300781 307.976562 L 202.921875 282.34375 L 273.523438 360 C 275.710938 362.390625 279.382812 362.535156 281.773438 360.351562 C 284.132812 358.164062 284.304688 354.464844 282.152344 352.078125 M 117.574219 291.632812 C 79.023438 291.632812 47.640625 260.085938 47.640625 221.34375 C 47.640625 182.601562 79.023438 151.085938 117.574219 151.085938 C 156.125 151.085938 187.507812 182.601562 187.507812 221.34375 C 187.507812 260.085938 156.125 291.632812 117.574219 291.632812 M 175.238281 292.101562 L 168.507812 285.34375 C 173.203125 281.554688 177.484375 277.246094 181.242188 272.523438 L 188.496094 279.808594 L 175.238281 292.101562 "/>
<path style=" stroke:none;fill-rule:nonzero;fill:rgb(17.248535%,23.919678%,32.548523%);fill-opacity:1;" d="M 117.574219 195.003906 C 115.28125 195.003906 113.066406 195.335938 110.945312 195.890625 C 114.261719 198.535156 116.589844 202.363281 117.316406 206.742188 C 117.402344 206.742188 117.484375 206.714844 117.574219 206.714844 C 125.605469 206.714844 132.144531 213.28125 132.144531 221.355469 C 132.144531 229.425781 125.605469 235.996094 117.574219 235.996094 C 111.4375 235.996094 106.199219 232.148438 104.054688 226.738281 C 102.78125 227.039062 101.457031 227.210938 100.089844 227.210938 C 97.019531 227.210938 94.140625 226.410156 91.632812 225.015625 C 93.414062 237.8125 104.355469 247.707031 117.574219 247.707031 C 132.035156 247.707031 143.800781 235.886719 143.800781 221.355469 C 143.800781 206.824219 132.035156 195.003906 117.574219 195.003906 "/>
<path style=" stroke:none;fill-rule:nonzero;fill:rgb(17.248535%,23.919678%,32.548523%);fill-opacity:1;" d="M 100.089844 215.5 C 103.308594 215.5 105.917969 212.875 105.917969 209.644531 C 105.917969 206.410156 103.308594 203.789062 100.089844 203.789062 C 96.871094 203.789062 94.261719 206.410156 94.261719 209.644531 C 94.261719 212.875 96.871094 215.5 100.089844 215.5 "/>
<path style=" stroke:none;fill-rule:nonzero;fill:rgb(17.248535%,23.919678%,32.548523%);fill-opacity:1;" d="M 246.410156 88.945312 C 247.273438 91.992188 250.566406 93.839844 253.613281 92.964844 C 256.707031 92.074219 258.5 88.832031 257.617188 85.726562 L 251.882812 65.5625 C 251 62.453125 247.773438 60.644531 244.679688 61.539062 C 241.582031 62.429688 239.792969 65.667969 240.675781 68.777344 C 240.675781 68.777344 246.40625 88.929688 246.410156 88.945312 "/>
<path style=" stroke:none;fill-rule:nonzero;fill:rgb(17.248535%,23.919678%,32.548523%);fill-opacity:1;" d="M 210.777344 311.132812 C 208.628906 308.726562 204.941406 308.527344 202.550781 310.695312 C 200.15625 312.859375 199.960938 316.5625 202.113281 318.964844 L 215.226562 333.605469 C 217.351562 335.972656 221.101562 336.175781 223.457031 334.039062 C 225.851562 331.878906 226.046875 328.171875 223.890625 325.769531 L 210.777344 311.132812 "/>
<path style=" stroke:none;fill-rule:nonzero;fill:rgb(17.248535%,23.919678%,32.548523%);fill-opacity:1;" d="M 321.855469 236.609375 C 300.292969 247.417969 278.519531 253.359375 266.179688 256.148438 C 266.640625 254.265625 266.179688 252.191406 264.738281 250.6875 C 262.515625 248.359375 258.824219 248.277344 256.5 250.515625 L 244.664062 261.925781 C 243.183594 263.351562 242.558594 265.460938 243.023438 267.464844 C 243.484375 269.476562 244.960938 271.09375 246.914062 271.726562 L 262.320312 276.703125 C 265.359375 277.679688 268.679688 275.953125 269.648438 272.921875 C 270.253906 271.035156 269.847656 269.070312 268.746094 267.601562 C 281.691406 264.691406 304.253906 258.523438 327.0625 247.09375 C 329.941406 245.648438 331.113281 242.132812 329.675781 239.238281 C 328.238281 236.339844 324.738281 235.171875 321.855469 236.609375 "/>
<path style=" stroke:none;fill-rule:nonzero;fill:rgb(17.248535%,23.919678%,32.548523%);fill-opacity:1;" d="M 373.265625 166.332031 C 371.671875 161.996094 367.601562 158.941406 362.371094 158.171875 L 315.605469 151.246094 C 314.136719 151.019531 312.648438 151.378906 311.433594 152.226562 C 284.488281 171.046875 245.800781 182.707031 203.523438 185.066406 C 205.085938 188.78125 206.390625 192.621094 207.46875 196.558594 C 249.613281 193.714844 288.328125 181.925781 316.160156 163.164062 L 360.675781 169.757812 C 361.824219 169.925781 362.242188 171.21875 361.304688 172.300781 C 337.429688 199.753906 282.546875 227.429688 210.144531 232.304688 C 209.679688 236.335938 208.964844 240.292969 208 244.152344 C 285.207031 239.566406 344.285156 209.675781 370.078125 180.003906 C 373.75 175.785156 374.910156 170.804688 373.265625 166.332031 "/>
<path style=" stroke:none;fill-rule:nonzero;fill:rgb(85.488892%,57.649231%,38.819885%);fill-opacity:1;" d="M 130.394531 24.050781 C 124.1875 24.050781 118.914062 27.867188 116.699219 33.984375 L 94.074219 103.175781 C 94.574219 103.417969 95.117188 103.675781 95.710938 103.949219 L 116.699219 39.808594 C 118.914062 33.695312 124.1875 29.878906 130.394531 29.878906 C 138.234375 29.878906 146.246094 36.460938 152.191406 40.976562 C 161.613281 48.066406 173.996094 54.121094 186.132812 54.121094 C 187.507812 54.121094 188.882812 54.042969 190.246094 53.882812 C 204.671875 52.132812 216.414062 43.597656 228.476562 36.199219 C 233.023438 33.402344 237.191406 29.996094 242.84375 29.996094 C 249.023438 29.996094 254.320312 33.753906 256.597656 39.546875 L 278.367188 102.113281 C 278.957031 101.875 279.546875 101.632812 280.140625 101.390625 L 281.917969 106.488281 L 256.597656 33.722656 C 254.320312 27.925781 249.023438 24.167969 242.84375 24.167969 C 237.191406 24.167969 233.023438 27.574219 228.476562 30.375 C 216.414062 37.773438 204.671875 46.308594 190.246094 48.054688 C 188.882812 48.21875 187.507812 48.296875 186.132812 48.296875 C 173.996094 48.296875 161.613281 42.242188 152.191406 35.148438 C 146.246094 30.636719 138.234375 24.050781 130.394531 24.050781 "/>
<path style=" stroke:none;fill-rule:nonzero;fill:rgb(97.648621%,95.689392%,94.119263%);fill-opacity:1;" d="M 92.667969 108.328125 C 92.925781 108.460938 93.207031 108.601562 93.507812 108.746094 C 93.207031 108.597656 92.929688 108.460938 92.667969 108.328125 M 281.917969 106.488281 C 281.523438 106.652344 281.128906 106.820312 280.738281 106.980469 C 281.132812 106.824219 281.53125 106.660156 281.917969 106.488281 "/>
<path style=" stroke:none;fill-rule:nonzero;fill:rgb(67.059326%,38.42926%,21.958923%);fill-opacity:1;" d="M 278.367188 102.113281 C 242.351562 116.65625 209.683594 121.542969 182.046875 121.542969 C 138.757812 121.542969 107.8125 109.5625 95.710938 103.949219 L 94.058594 108.992188 C 93.871094 108.914062 93.683594 108.828125 93.507812 108.742188 C 103.652344 113.707031 135.804688 127.363281 182.046875 127.363281 C 210.292969 127.363281 243.796875 122.265625 280.738281 106.980469 C 280.535156 107.058594 280.335938 107.140625 280.140625 107.21875 L 278.367188 102.113281 "/>
<path style=" stroke:none;fill-rule:nonzero;fill:rgb(77.249146%,69.799805%,64.309692%);fill-opacity:1;" d="M 94.058594 103.167969 L 92.429688 108.207031 L 94.074219 103.175781 C 94.070312 103.171875 94.0625 103.167969 94.058594 103.167969 "/>
<path style=" stroke:none;fill-rule:nonzero;fill:rgb(67.059326%,38.42926%,21.958923%);fill-opacity:1;" d="M 92.429688 108.207031 C 92.503906 108.246094 92.585938 108.285156 92.667969 108.328125 C 92.585938 108.285156 92.503906 108.246094 92.429688 108.207031 "/>
<path style=" stroke:none;fill-rule:nonzero;fill:rgb(68.238831%,44.309998%,29.019165%);fill-opacity:1;" d="M 280.140625 101.390625 C 279.546875 101.632812 278.953125 101.875 278.363281 102.113281 L 280.140625 107.21875 C 280.335938 107.136719 280.535156 107.058594 280.738281 106.980469 C 281.128906 106.820312 281.523438 106.652344 281.917969 106.488281 L 280.140625 101.390625 "/>
<path style=" stroke:none;fill-rule:nonzero;fill:rgb(68.238831%,44.309998%,29.019165%);fill-opacity:1;" d="M 94.074219 103.175781 L 92.429688 108.207031 C 92.503906 108.246094 92.585938 108.285156 92.667969 108.328125 C 92.929688 108.457031 93.210938 108.597656 93.507812 108.742188 C 93.683594 108.828125 93.871094 108.910156 94.058594 108.992188 L 95.710938 103.949219 C 95.117188 103.671875 94.574219 103.414062 94.074219 103.175781 "/>
<path style=" stroke:none;fill-rule:nonzero;fill:rgb(66.268921%,88.62915%,89.7995%);fill-opacity:1;" d="M 117.574219 151.085938 C 79.988281 151.085938 49.21875 181.042969 47.699219 218.445312 C 47.738281 219.417969 47.796875 220.382812 47.875 221.34375 C 50.824219 185.316406 80.964844 156.914062 117.574219 156.914062 C 154.183594 156.914062 184.320312 185.316406 187.269531 221.34375 C 187.347656 220.382812 187.410156 219.417969 187.449219 218.445312 C 185.929688 181.042969 155.15625 151.085938 117.574219 151.085938 "/>
<path style=" stroke:none;fill-rule:nonzero;fill:rgb(66.268921%,88.62915%,89.7995%);fill-opacity:1;" d="M 47.695312 218.542969 C 47.660156 219.472656 47.640625 220.40625 47.640625 221.34375 C 47.640625 220.390625 47.667969 219.46875 47.695312 218.542969 "/>
<path style=" stroke:none;fill-rule:nonzero;fill:rgb(66.268921%,88.62915%,89.7995%);fill-opacity:1;" d="M 187.453125 218.546875 C 187.480469 219.46875 187.507812 220.394531 187.507812 221.34375 C 187.507812 220.40625 187.492188 219.476562 187.453125 218.546875 "/>
<path style=" stroke:none;fill-rule:nonzero;fill:rgb(37.249756%,47.059631%,53.329468%);fill-opacity:1;" d="M 187.453125 224.144531 C 187.449219 224.179688 187.449219 224.210938 187.449219 224.246094 C 187.449219 224.25 187.449219 224.253906 187.449219 224.257812 C 187.449219 224.21875 187.449219 224.183594 187.453125 224.144531 "/>
<path style=" stroke:none;fill-rule:nonzero;fill:rgb(37.249756%,47.059631%,53.329468%);fill-opacity:1;" d="M 47.695312 224.148438 C 47.695312 224.1875 47.699219 224.222656 47.699219 224.257812 C 47.699219 224.253906 47.699219 224.25 47.699219 224.246094 C 47.699219 224.210938 47.695312 224.183594 47.695312 224.148438 "/>
<path style=" stroke:none;fill-rule:nonzero;fill:rgb(15.289307%,24.308777%,29.40979%);fill-opacity:1;" d="M 47.699219 218.433594 C 47.695312 218.46875 47.695312 218.507812 47.695312 218.542969 C 47.695312 218.511719 47.699219 218.480469 47.699219 218.445312 C 47.699219 218.441406 47.699219 218.4375 47.699219 218.433594 M 187.449219 218.433594 C 187.449219 218.4375 187.449219 218.441406 187.449219 218.445312 C 187.449219 218.480469 187.449219 218.515625 187.453125 218.550781 C 187.449219 218.511719 187.449219 218.472656 187.449219 218.433594 "/>
<path style=" stroke:none;fill-rule:nonzero;fill:rgb(40.779114%,71.759033%,71.759033%);fill-opacity:1;" d="M 187.273438 221.34375 C 184.320312 257.375 154.183594 285.808594 117.574219 285.808594 C 80.964844 285.808594 50.828125 257.375 47.878906 221.34375 C 47.796875 222.308594 47.738281 223.273438 47.699219 224.242188 C 49.21875 261.648438 79.992188 291.632812 117.574219 291.632812 C 155.15625 291.632812 185.929688 261.648438 187.449219 224.242188 C 187.410156 223.273438 187.351562 222.308594 187.273438 221.34375 "/>
<path style=" stroke:none;fill-rule:nonzero;fill:rgb(40.779114%,71.759033%,71.759033%);fill-opacity:1;" d="M 187.507812 221.34375 C 187.507812 222.296875 187.480469 223.21875 187.453125 224.140625 C 187.492188 223.214844 187.507812 222.28125 187.507812 221.34375 "/>
<path style=" stroke:none;fill-rule:nonzero;fill:rgb(40.779114%,71.759033%,71.759033%);fill-opacity:1;" d="M 47.640625 221.347656 C 47.640625 222.285156 47.660156 223.222656 47.695312 224.152344 C 47.667969 223.226562 47.640625 222.296875 47.640625 221.347656 "/>
<path style=" stroke:none;fill-rule:nonzero;fill:rgb(49.798584%,75.289917%,74.119568%);fill-opacity:1;" d="M 47.699219 218.445312 C 47.699219 218.480469 47.695312 218.507812 47.695312 218.542969 C 47.667969 219.464844 47.640625 220.394531 47.640625 221.34375 C 47.640625 222.296875 47.667969 223.222656 47.695312 224.148438 C 47.695312 224.183594 47.699219 224.210938 47.699219 224.246094 C 47.738281 223.273438 47.796875 222.308594 47.878906 221.34375 C 47.796875 220.382812 47.738281 219.417969 47.699219 218.445312 "/>
<path style=" stroke:none;fill-rule:nonzero;fill:rgb(49.798584%,75.289917%,74.119568%);fill-opacity:1;" d="M 187.449219 218.445312 C 187.410156 219.417969 187.351562 220.382812 187.273438 221.34375 C 187.351562 222.308594 187.410156 223.273438 187.449219 224.242188 C 187.453125 224.207031 187.453125 224.179688 187.453125 224.140625 C 187.480469 223.21875 187.507812 222.296875 187.507812 221.34375 C 187.507812 220.394531 187.480469 219.46875 187.453125 218.546875 C 187.453125 218.511719 187.453125 218.480469 187.449219 218.445312 "/>
<path style=" stroke:none;fill-rule:nonzero;fill:rgb(67.059326%,38.42926%,21.958923%);fill-opacity:1;" d="M 16.433594 169.351562 L 14.335938 169.671875 C 13.199219 169.816406 12.761719 171.128906 13.722656 172.234375 C 17.859375 177.011719 22.988281 181.816406 28.960938 186.476562 C 29.109375 187.351562 29.777344 187.933594 30.359375 188.34375 C 30.972656 186.625 31.671875 184.964844 32.429688 183.304688 C 31.90625 182.925781 31.265625 182.457031 30.566406 181.902344 C 25.144531 177.796875 20.394531 173.574219 16.433594 169.351562 "/>
<path style=" stroke:none;fill-rule:nonzero;fill:rgb(67.059326%,38.42926%,21.958923%);fill-opacity:1;" d="M 358.550781 169.441406 C 333.488281 195.859375 280.195312 221.664062 210.644531 226.441406 C 210.558594 228.394531 210.382812 230.34375 210.148438 232.296875 C 229.625 230.988281 247.824219 228.03125 264.496094 223.871094 C 288.648438 217.84375 309.59375 209.296875 326.53125 199.589844 C 341.375 191.078125 353.140625 181.671875 361.292969 172.289062 C 361.613281 171.929688 361.78125 171.546875 361.8125 171.191406 C 361.839844 170.925781 361.792969 170.675781 361.6875 170.460938 C 361.527344 170.132812 361.226562 169.886719 360.824219 169.785156 C 360.777344 169.773438 360.730469 169.761719 360.679688 169.757812 L 358.550781 169.441406 "/>
<path style=" stroke:none;fill-rule:nonzero;fill:rgb(25.878906%,24.308777%,25.099182%);fill-opacity:1;" d="M 326.53125 199.589844 C 309.59375 209.296875 288.648438 217.847656 264.496094 223.875 C 288.648438 217.847656 309.59375 209.300781 326.53125 199.589844 M 361.6875 170.460938 C 361.792969 170.675781 361.839844 170.925781 361.8125 171.191406 C 361.839844 170.929688 361.792969 170.675781 361.6875 170.460938 M 358.554688 169.4375 C 358.550781 169.4375 358.550781 169.441406 358.546875 169.445312 L 360.675781 169.757812 C 360.730469 169.765625 360.777344 169.773438 360.824219 169.785156 C 360.777344 169.773438 360.730469 169.761719 360.679688 169.757812 L 358.554688 169.4375 "/>
<path style=" stroke:none;fill-rule:nonzero;fill:rgb(17.248535%,23.919678%,32.548523%);fill-opacity:1;" d="M 13.710938 172.222656 C 12.765625 171.132812 13.195312 169.828125 14.347656 169.65625 L 42.816406 165.4375 C 46.5 160.476562 50.667969 155.894531 55.238281 151.757812 L 12.644531 158.070312 C 7.414062 158.847656 3.34375 161.90625 1.75 166.242188 C 0.105469 170.710938 1.261719 175.695312 4.921875 179.914062 C 11.011719 186.941406 18.421875 193.542969 26.894531 199.652344 C 27.859375 195.570312 29.09375 191.597656 30.570312 187.742188 C 23.902344 182.664062 18.234375 177.445312 13.710938 172.222656 "/>
<path style=" stroke:none;fill-rule:nonzero;fill:rgb(75.689697%,78.039551%,80.778503%);fill-opacity:1;" d="M 290.136719 130.140625 C 255.050781 143.25 219.589844 150.007812 184.5625 150.472656 L 178.066406 150.210938 C 180.949219 152.6875 183.691406 155.335938 186.226562 158.164062 L 189.605469 156.152344 C 223.609375 155.164062 257.964844 148.203125 291.941406 135.328125 L 290.136719 130.140625 "/>
<g clip-path="url(#clip1)" clip-rule="nonzero">
<path style=" stroke:none;fill-rule:nonzero;fill:rgb(17.248535%,23.919678%,32.548523%);fill-opacity:1;" d="M 304.820312 136.8125 L 267.523438 29.644531 C 263.445312 19.21875 253.769531 12.460938 242.839844 12.460938 C 235.003906 12.460938 228.828125 16.449219 222.386719 20.382812 C 209.828125 28.074219 196.6875 38.820312 180.949219 36.171875 C 172.558594 34.742188 165.710938 30.347656 158.863281 25.539062 C 150.472656 19.65625 141.117188 12.34375 130.394531 12.34375 C 119.320312 12.34375 109.648438 19.246094 105.683594 30.144531 L 70.164062 138.851562 C 69.929688 139.523438 69.84375 140.21875 69.875 140.890625 C 74.359375 138.210938 79.082031 135.878906 84.035156 133.957031 L 88.753906 119.480469 C 93.011719 121.605469 100.0625 124.8125 109.621094 128.015625 C 112.242188 127.8125 114.894531 127.664062 117.574219 127.664062 C 133.335938 127.664062 148.167969 131.628906 161.195312 138.589844 C 167.632812 139.144531 174.394531 139.464844 181.476562 139.464844 C 211.195312 139.464844 246.542969 133.929688 285.792969 117.585938 L 291.941406 135.328125 C 256.273438 148.84375 220.199219 155.835938 184.5625 156.300781 C 188 159.851562 191.148438 163.699219 194.003906 167.777344 C 229.757812 166.230469 265.863281 158.339844 301.46875 144.183594 C 304.355469 143.046875 305.839844 139.78125 304.820312 136.8125 Z M 92.425781 108.207031 L 116.699219 33.984375 C 118.914062 27.871094 124.1875 24.054688 130.394531 24.054688 C 138.234375 24.054688 146.246094 30.636719 152.191406 35.152344 C 162.679688 43.046875 176.84375 49.65625 190.246094 48.054688 C 204.667969 46.308594 216.414062 37.773438 228.476562 30.375 C 233.023438 27.578125 237.191406 24.171875 242.839844 24.171875 C 249.019531 24.171875 254.324219 27.925781 256.597656 33.726562 L 281.917969 106.488281 C 181.5625 148.519531 106.386719 115.253906 92.425781 108.207031 "/>
</g>
</g>
</svg>
