<?xml version="1.0" encoding="UTF-8"?>
<svg xmlns="http://www.w3.org/2000/svg" xmlns:xlink="http://www.w3.org/1999/xlink" width="375pt" height="374.999991pt" viewBox="0 0 375 374.999991" version="1.2">
<g id="surface1">
<path style=" stroke:none;fill-rule:nonzero;fill:rgb(90.19928%,45.098877%,10.198975%);fill-opacity:1;" d="M 187.308594 365.761719 C 88.660156 365.761719 8.742188 285.84375 8.742188 187.195312 C 8.742188 88.660156 88.660156 8.742188 187.308594 8.742188 C 285.882812 8.742188 365.761719 88.660156 365.761719 187.195312 C 365.761719 285.84375 285.882812 365.761719 187.308594 365.761719 Z M 187.308594 -0.214844 C 83.707031 -0.214844 -0.214844 83.707031 -0.214844 187.195312 C -0.214844 290.796875 83.707031 374.722656 187.308594 374.722656 C 290.835938 374.722656 374.722656 290.796875 374.722656 187.195312 C 374.722656 83.707031 290.835938 -0.214844 187.308594 -0.214844 "/>
<path style=" stroke:none;fill-rule:nonzero;fill:rgb(90.19928%,45.098877%,10.198975%);fill-opacity:1;" d="M 110.160156 244.683594 C 105.011719 247.105469 100.039062 246.292969 95.742188 242.652344 C 91.523438 239.054688 90.054688 234.351562 91.390625 228.894531 C 91.96875 226.496094 93.460938 225.410156 95.453125 225.816406 C 97.175781 226.167969 98.007812 227.90625 97.5625 230.210938 C 97.484375 230.636719 97.425781 231.082031 97.386719 231.527344 C 97 234.679688 98.683594 237.699219 101.546875 238.976562 C 104.394531 240.234375 107.914062 239.519531 109.945312 237.175781 C 111.570312 235.300781 112.210938 233.132812 111.609375 230.636719 C 111.417969 229.84375 111.183594 228.972656 111.339844 228.21875 C 111.648438 226.804688 112.617188 225.894531 114.164062 225.796875 C 115.675781 225.703125 116.835938 226.378906 117.300781 227.753906 C 117.804688 229.242188 117.996094 230.828125 118.210938 231.835938 C 117.898438 238.085938 115.269531 242.285156 110.160156 244.683594 Z M 101.414062 221.5625 C 101.566406 219.703125 102.980469 218.734375 104.722656 218.851562 C 106.386719 218.949219 107.605469 220.167969 107.742188 221.949219 C 107.835938 223.089844 107.761719 224.25 107.761719 225.390625 C 107.761719 226.457031 107.796875 227.558594 107.761719 228.625 C 107.683594 230.460938 106.519531 231.777344 104.914062 231.933594 C 103.191406 232.085938 101.546875 231.023438 101.394531 229.164062 C 101.179688 226.648438 101.199219 224.078125 101.414062 221.5625 Z M 104.566406 211.148438 C 92.800781 211.148438 83.261719 220.710938 83.261719 232.457031 C 83.261719 244.203125 92.800781 253.761719 104.566406 253.761719 C 116.3125 253.761719 125.871094 244.203125 125.871094 232.457031 C 125.871094 220.710938 116.3125 211.148438 104.566406 211.148438 "/>
<path style=" stroke:none;fill-rule:nonzero;fill:rgb(90.19928%,45.098877%,10.198975%);fill-opacity:1;" d="M 154.976562 117.9375 L 154.976562 104.644531 C 154.976562 97.273438 148.976562 91.273438 141.605469 91.273438 L 67.511719 91.273438 C 60.136719 91.273438 54.140625 97.273438 54.140625 104.644531 L 54.140625 268.042969 C 54.140625 275.414062 60.136719 281.414062 67.511719 281.414062 L 141.605469 281.414062 C 148.648438 281.414062 154.433594 275.9375 154.9375 269.027344 C 149.617188 268.175781 145.378906 265.429688 142.824219 261.171875 L 142.824219 268.042969 C 142.824219 268.699219 142.261719 269.261719 141.605469 269.261719 L 67.511719 269.261719 C 66.851562 269.261719 66.292969 268.699219 66.292969 268.042969 L 66.292969 104.644531 C 66.292969 103.988281 66.851562 103.425781 67.511719 103.425781 L 141.605469 103.425781 C 142.261719 103.425781 142.824219 103.988281 142.824219 104.644531 L 142.824219 125.523438 C 145.261719 121.363281 149.460938 118.671875 154.976562 117.9375 "/>
<path style=" stroke:none;fill-rule:nonzero;fill:rgb(90.19928%,45.098877%,10.198975%);fill-opacity:1;" d="M 91.449219 118.636719 L 91.449219 121.671875 C 91.449219 122.601562 90.710938 123.355469 89.78125 123.355469 L 76.722656 123.355469 C 75.8125 123.355469 75.058594 122.601562 75.058594 121.671875 L 75.058594 118.636719 C 75.058594 117.707031 75.8125 116.953125 76.722656 116.953125 L 89.78125 116.953125 C 90.710938 116.953125 91.449219 117.707031 91.449219 118.636719 "/>
<path style=" stroke:none;fill-rule:nonzero;fill:rgb(90.19928%,45.098877%,10.198975%);fill-opacity:1;" d="M 103.117188 120.164062 C 103.117188 122 101.625 123.492188 99.769531 123.492188 C 97.929688 123.492188 96.441406 122 96.441406 120.164062 C 96.441406 118.304688 97.929688 116.816406 99.769531 116.816406 C 101.625 116.816406 103.117188 118.304688 103.117188 120.164062 "/>
<path style=" stroke:none;fill-rule:nonzero;fill:rgb(90.19928%,45.098877%,10.198975%);fill-opacity:1;" d="M 112.695312 120.164062 C 112.695312 122 111.183594 123.492188 109.347656 123.492188 C 107.507812 123.492188 106 122 106 120.164062 C 106 118.304688 107.507812 116.816406 109.347656 116.816406 C 111.183594 116.816406 112.695312 118.304688 112.695312 120.164062 "/>
<path style=" stroke:none;fill-rule:nonzero;fill:rgb(90.19928%,45.098877%,10.198975%);fill-opacity:1;" d="M 134.058594 118.636719 L 134.058594 121.671875 C 134.058594 122.601562 133.320312 123.355469 132.394531 123.355469 L 119.332031 123.355469 C 118.421875 123.355469 117.667969 122.601562 117.667969 121.671875 L 117.667969 118.636719 C 117.667969 117.707031 118.421875 116.953125 119.332031 116.953125 L 132.394531 116.953125 C 133.320312 116.953125 134.058594 117.707031 134.058594 118.636719 "/>
<path style=" stroke:none;fill-rule:nonzero;fill:rgb(90.19928%,45.098877%,10.198975%);fill-opacity:1;" d="M 162.871094 235.898438 L 162.871094 145.4375 L 304.789062 145.4375 Z M 162.871094 235.898438 "/>
<path style=" stroke:none;fill-rule:nonzero;fill:rgb(90.19928%,45.098877%,10.198975%);fill-opacity:1;" d="M 286.5 195.726562 L 264.65625 185.046875 L 266.339844 209.292969 L 274.3125 203.933594 L 282.804688 216.570312 C 283.132812 217.050781 283.773438 217.167969 284.257812 216.859375 L 286.753906 215.175781 C 287.238281 214.847656 287.351562 214.207031 287.042969 213.722656 L 278.53125 201.089844 L 286.5 195.726562 "/>
<path style=" stroke:none;fill-rule:nonzero;fill:rgb(90.19928%,45.098877%,10.198975%);fill-opacity:1;" d="M 315.625 236.5 L 315.625 242.554688 L 155.109375 242.554688 C 155.089844 218.40625 155.070312 173.105469 155.070312 141.273438 C 155.070312 138.296875 155.886719 137.519531 158.980469 137.519531 C 181.523438 137.5 200.664062 137.5 222.742188 137.5 L 236.265625 137.519531 C 262.234375 137.519531 285.613281 137.519531 312.21875 137.539062 C 314.945312 137.539062 315.605469 138.179688 315.605469 140.867188 C 315.625 166.160156 315.625 210.046875 315.625 236.5 Z M 230.308594 252.542969 C 230.308594 249.367188 232.882812 246.773438 236.074219 246.773438 C 239.246094 246.773438 241.839844 249.367188 241.839844 252.542969 C 241.839844 255.734375 239.246094 258.328125 236.074219 258.328125 C 232.882812 258.328125 230.308594 255.734375 230.308594 252.542969 Z M 327.835938 140.578125 C 327.835938 131.523438 321.71875 125.386719 312.605469 125.292969 C 308.328125 125.234375 161.476562 125.253906 161.476562 125.253906 C 160.859375 125.253906 160.546875 125.253906 158.769531 125.273438 C 148.957031 125.40625 142.863281 131.503906 142.84375 141.199219 C 142.824219 168.289062 142.824219 200.488281 142.824219 228.894531 L 142.824219 245.960938 C 142.824219 247.585938 142.863281 249.328125 143.363281 251.128906 C 145.359375 258.191406 151.28125 262.410156 159.214844 262.410156 L 226.070312 262.410156 L 226.070312 269.589844 C 226.070312 269.761719 225.933594 269.898438 225.78125 269.898438 L 213.046875 269.898438 C 209.429688 269.898438 206.46875 272.839844 206.429688 276.457031 L 206.429688 276.515625 C 206.429688 276.632812 206.429688 276.769531 206.449219 276.882812 L 206.429688 276.882812 L 206.429688 283.230469 L 264.25 283.230469 L 264.25 276.882812 C 264.25 276.808594 264.269531 276.691406 264.269531 276.59375 L 264.269531 276.457031 C 264.269531 272.800781 261.289062 269.820312 257.628906 269.820312 L 244.609375 269.820312 C 244.433594 269.820312 244.296875 269.707031 244.296875 269.53125 L 244.296875 262.410156 L 312.429688 262.410156 C 321.351562 262.410156 327.835938 255.890625 327.835938 246.929688 C 327.875 213.570312 327.875 172.835938 327.835938 140.578125 "/>
</g>
</svg>
