<?xml version="1.0" encoding="UTF-8"?>
<svg xmlns="http://www.w3.org/2000/svg" xmlns:xlink="http://www.w3.org/1999/xlink" width="375pt" height="374.999991pt" viewBox="0 0 375 374.999991" version="1.2">
<defs>
<clipPath id="clip1">
  <path d="M 0 48.515625 L 375 48.515625 L 375 326.765625 L 0 326.765625 Z M 0 48.515625 "/>
</clipPath>
</defs>
<g id="surface1">
<path style=" stroke:none;fill-rule:nonzero;fill:rgb(66.668701%,69.799805%,74.119568%);fill-opacity:1;" d="M 296.269531 320.992188 L 30.386719 320.992188 C 17.027344 320.992188 6.214844 310.160156 6.214844 296.773438 L 6.214844 103.011719 C 6.214844 89.625 17.027344 78.789062 30.386719 78.789062 L 235.84375 78.789062 L 235.84375 90.902344 C 235.84375 97.546875 241.269531 103.011719 247.929688 103.011719 L 320.441406 103.011719 C 327.097656 103.011719 332.527344 97.546875 332.527344 90.902344 L 332.527344 78.789062 L 344.613281 78.789062 C 357.972656 78.789062 368.785156 89.625 368.785156 103.011719 L 368.785156 248.332031 L 296.269531 248.332031 L 296.269531 320.992188 "/>
<path style=" stroke:none;fill-rule:nonzero;fill:rgb(98.81897%,84.309387%,43.919373%);fill-opacity:1;" d="M 326.484375 127.230469 C 336.515625 127.230469 344.613281 135.34375 344.613281 145.394531 C 344.613281 155.449219 336.515625 163.5625 326.484375 163.5625 C 316.453125 163.5625 308.355469 155.449219 308.355469 145.394531 C 308.355469 135.34375 316.453125 127.230469 326.484375 127.230469 "/>
<path style=" stroke:none;fill-rule:nonzero;fill:rgb(98.81897%,84.309387%,43.919373%);fill-opacity:1;" d="M 266.054688 127.230469 C 276.089844 127.230469 284.183594 135.34375 284.183594 145.394531 C 284.183594 155.449219 276.089844 163.5625 266.054688 163.5625 C 256.023438 163.5625 247.929688 155.449219 247.929688 145.394531 C 247.929688 135.34375 256.023438 127.230469 266.054688 127.230469 "/>
<path style=" stroke:none;fill-rule:nonzero;fill:rgb(100%,50.979614%,43.139648%);fill-opacity:1;" d="M 42.472656 103.011719 C 49.128906 103.011719 54.558594 108.476562 54.558594 115.121094 C 54.558594 121.765625 49.128906 127.230469 42.472656 127.230469 C 35.816406 127.230469 30.386719 121.765625 30.386719 115.121094 C 30.386719 108.476562 35.816406 103.011719 42.472656 103.011719 "/>
<path style=" stroke:none;fill-rule:nonzero;fill:rgb(100%,50.979614%,43.139648%);fill-opacity:1;" d="M 235.84375 78.789062 L 235.84375 66.679688 C 235.84375 60.035156 241.269531 54.570312 247.929688 54.570312 L 320.441406 54.570312 C 327.097656 54.570312 332.527344 60.035156 332.527344 66.679688 L 332.527344 90.902344 C 332.527344 97.546875 327.097656 103.011719 320.441406 103.011719 L 247.929688 103.011719 C 241.269531 103.011719 235.84375 97.546875 235.84375 90.902344 L 235.84375 78.789062 "/>
<path style=" stroke:none;fill-rule:nonzero;fill:rgb(70.588684%,86.669922%,49.798584%);fill-opacity:1;" d="M 253.972656 260.441406 C 264.003906 260.441406 272.097656 268.554688 272.097656 278.605469 C 272.097656 288.660156 264.003906 296.773438 253.972656 296.773438 C 243.9375 296.773438 235.84375 288.660156 235.84375 278.605469 C 235.84375 268.554688 243.9375 260.441406 253.972656 260.441406 "/>
<path style=" stroke:none;fill-rule:nonzero;fill:rgb(90.19928%,91.369629%,92.939758%);fill-opacity:1;" d="M 368.785156 248.332031 L 368.785156 296.773438 C 368.785156 310.160156 357.972656 320.992188 344.613281 320.992188 L 296.269531 320.992188 L 296.269531 248.332031 L 368.785156 248.332031 "/>
<path style=" stroke:none;fill-rule:nonzero;fill:rgb(100%,50.979614%,43.139648%);fill-opacity:1;" d="M 332.527344 272.550781 C 339.183594 272.550781 344.613281 277.992188 344.613281 284.660156 C 344.613281 291.332031 339.183594 296.773438 332.527344 296.773438 C 325.871094 296.773438 320.441406 291.332031 320.441406 284.660156 C 320.441406 277.992188 325.871094 272.550781 332.527344 272.550781 "/>
<path style=" stroke:none;fill-rule:nonzero;fill:rgb(41.178894%,83.918762%,95.689392%);fill-opacity:1;" d="M 344.613281 187.78125 L 344.613281 224.113281 L 247.929688 224.113281 L 247.929688 187.78125 L 344.613281 187.78125 "/>
<path style=" stroke:none;fill-rule:nonzero;fill:rgb(98.81897%,84.309387%,43.919373%);fill-opacity:1;" d="M 187.5 260.441406 L 187.5 266.496094 C 187.5 269.832031 184.785156 272.550781 181.457031 272.550781 L 72.6875 272.550781 C 69.359375 272.550781 66.644531 269.832031 66.644531 266.496094 L 66.644531 157.507812 C 66.644531 154.171875 69.359375 151.453125 72.6875 151.453125 L 181.457031 151.453125 C 184.785156 151.453125 187.5 154.171875 187.5 157.507812 L 187.5 260.441406 "/>
<path style=" stroke:none;fill-rule:nonzero;fill:rgb(100%,91.758728%,65.489197%);fill-opacity:1;" d="M 163.328125 175.671875 L 163.328125 248.332031 L 90.816406 248.332031 L 90.816406 175.671875 L 163.328125 175.671875 "/>
<g clip-path="url(#clip1)" clip-rule="nonzero">
<path style=" stroke:none;fill-rule:nonzero;fill:rgb(0%,0%,0%);fill-opacity:1;" d="M 344.613281 314.9375 L 302.3125 314.9375 L 302.3125 254.386719 L 362.742188 254.386719 L 362.742188 296.773438 C 362.742188 306.800781 354.621094 314.9375 344.613281 314.9375 Z M 12.257812 296.773438 L 12.257812 103.011719 C 12.257812 92.980469 20.378906 84.847656 30.386719 84.847656 L 229.800781 84.847656 L 229.800781 90.902344 C 229.800781 100.929688 237.917969 109.066406 247.929688 109.066406 L 320.441406 109.066406 C 330.449219 109.066406 338.570312 100.929688 338.570312 90.902344 L 338.570312 84.847656 L 344.613281 84.847656 C 354.621094 84.847656 362.742188 92.980469 362.742188 103.011719 L 362.742188 242.277344 L 290.226562 242.277344 L 290.226562 314.9375 L 30.386719 314.9375 C 20.378906 314.9375 12.257812 306.800781 12.257812 296.773438 Z M 241.886719 66.679688 C 241.886719 63.347656 244.601562 60.625 247.929688 60.625 L 320.441406 60.625 C 323.769531 60.625 326.484375 63.347656 326.484375 66.679688 L 326.484375 90.902344 C 326.484375 94.234375 323.769531 96.957031 320.441406 96.957031 L 247.929688 96.957031 C 244.601562 96.957031 241.886719 94.234375 241.886719 90.902344 Z M 344.613281 72.734375 L 338.570312 72.734375 L 338.570312 66.679688 C 338.570312 56.652344 330.449219 48.515625 320.441406 48.515625 L 247.929688 48.515625 C 237.917969 48.515625 229.800781 56.652344 229.800781 66.679688 L 229.800781 72.734375 L 30.386719 72.734375 C 13.722656 72.734375 0.171875 86.3125 0.171875 103.011719 L 0.171875 296.773438 C 0.171875 313.46875 13.722656 327.046875 30.386719 327.046875 L 344.613281 327.046875 C 361.277344 327.046875 374.828125 313.46875 374.828125 296.773438 L 374.828125 103.011719 C 374.828125 86.3125 361.277344 72.734375 344.613281 72.734375 "/>
</g>
<path style=" stroke:none;fill-rule:nonzero;fill:rgb(0%,0%,0%);fill-opacity:1;" d="M 36.429688 115.121094 C 36.429688 111.785156 39.144531 109.066406 42.472656 109.066406 C 45.800781 109.066406 48.515625 111.785156 48.515625 115.121094 C 48.515625 118.457031 45.800781 121.175781 42.472656 121.175781 C 39.144531 121.175781 36.429688 118.457031 36.429688 115.121094 Z M 60.601562 115.121094 C 60.601562 105.09375 52.480469 96.957031 42.472656 96.957031 C 32.464844 96.957031 24.34375 105.09375 24.34375 115.121094 C 24.34375 125.148438 32.464844 133.285156 42.472656 133.285156 C 52.480469 133.285156 60.601562 125.148438 60.601562 115.121094 "/>
<path style=" stroke:none;fill-rule:nonzero;fill:rgb(0%,0%,0%);fill-opacity:1;" d="M 332.527344 290.71875 C 329.199219 290.71875 326.484375 287.996094 326.484375 284.660156 C 326.484375 281.328125 329.199219 278.605469 332.527344 278.605469 C 335.855469 278.605469 338.570312 281.328125 338.570312 284.660156 C 338.570312 287.996094 335.855469 290.71875 332.527344 290.71875 Z M 332.527344 266.496094 C 322.519531 266.496094 314.398438 274.632812 314.398438 284.660156 C 314.398438 294.691406 322.519531 302.828125 332.527344 302.828125 C 342.535156 302.828125 350.65625 294.691406 350.65625 284.660156 C 350.65625 274.632812 342.535156 266.496094 332.527344 266.496094 "/>
<path style=" stroke:none;fill-rule:nonzero;fill:rgb(0%,0%,0%);fill-opacity:1;" d="M 96.859375 181.726562 L 157.285156 181.726562 L 157.285156 242.277344 L 96.859375 242.277344 Z M 84.773438 254.386719 L 169.371094 254.386719 L 169.371094 169.617188 L 84.773438 169.617188 L 84.773438 254.386719 "/>
<path style=" stroke:none;fill-rule:nonzero;fill:rgb(0%,0%,0%);fill-opacity:1;" d="M 72.6875 266.496094 L 72.6875 157.507812 L 181.457031 157.507812 L 181.457031 266.496094 Z M 181.457031 145.394531 L 181.457031 121.175781 L 169.371094 121.175781 L 169.371094 145.394531 L 157.285156 145.394531 L 157.285156 121.175781 L 145.199219 121.175781 L 145.199219 145.394531 L 133.113281 145.394531 L 133.113281 121.175781 L 121.027344 121.175781 L 121.027344 145.394531 L 108.945312 145.394531 L 108.945312 121.175781 L 96.859375 121.175781 L 96.859375 145.394531 L 84.773438 145.394531 L 84.773438 121.175781 L 72.6875 121.175781 L 72.6875 145.394531 C 66.03125 145.394531 60.601562 150.835938 60.601562 157.507812 L 36.429688 157.507812 L 36.429688 169.617188 L 60.601562 169.617188 L 60.601562 181.726562 L 36.429688 181.726562 L 36.429688 193.835938 L 60.601562 193.835938 L 60.601562 205.945312 L 36.429688 205.945312 L 36.429688 218.054688 L 60.601562 218.054688 L 60.601562 230.167969 L 36.429688 230.167969 L 36.429688 242.277344 L 60.601562 242.277344 L 60.601562 254.386719 L 36.429688 254.386719 L 36.429688 266.496094 L 60.601562 266.496094 C 60.601562 273.167969 66.03125 278.605469 72.6875 278.605469 L 72.6875 302.828125 L 84.773438 302.828125 L 84.773438 278.605469 L 96.859375 278.605469 L 96.859375 302.828125 L 108.945312 302.828125 L 108.945312 278.605469 L 121.027344 278.605469 L 121.027344 302.828125 L 133.113281 302.828125 L 133.113281 278.605469 L 145.199219 278.605469 L 145.199219 302.828125 L 157.285156 302.828125 L 157.285156 278.605469 L 169.371094 278.605469 L 169.371094 302.828125 L 181.457031 302.828125 L 181.457031 278.605469 C 188.113281 278.605469 193.542969 273.167969 193.542969 266.496094 L 217.714844 266.496094 L 217.714844 254.386719 L 193.542969 254.386719 L 193.542969 242.277344 L 217.714844 242.277344 L 217.714844 230.167969 L 193.542969 230.167969 L 193.542969 218.054688 L 217.714844 218.054688 L 217.714844 205.945312 L 193.542969 205.945312 L 193.542969 193.835938 L 217.714844 193.835938 L 217.714844 181.726562 L 193.542969 181.726562 L 193.542969 169.617188 L 217.714844 169.617188 L 217.714844 157.507812 L 193.542969 157.507812 C 193.542969 150.835938 188.113281 145.394531 181.457031 145.394531 "/>
<path style=" stroke:none;fill-rule:nonzero;fill:rgb(0%,0%,0%);fill-opacity:1;" d="M 266.054688 133.285156 C 272.710938 133.285156 278.140625 138.726562 278.140625 145.394531 C 278.140625 152.066406 272.710938 157.507812 266.054688 157.507812 C 259.398438 157.507812 253.972656 152.066406 253.972656 145.394531 C 253.972656 138.726562 259.398438 133.285156 266.054688 133.285156 Z M 266.054688 169.617188 C 279.394531 169.617188 290.226562 158.761719 290.226562 145.394531 C 290.226562 132.03125 279.394531 121.175781 266.054688 121.175781 C 252.71875 121.175781 241.886719 132.03125 241.886719 145.394531 C 241.886719 158.761719 252.71875 169.617188 266.054688 169.617188 "/>
<path style=" stroke:none;fill-rule:nonzero;fill:rgb(0%,0%,0%);fill-opacity:1;" d="M 326.484375 133.285156 C 333.140625 133.285156 338.570312 138.726562 338.570312 145.394531 C 338.570312 152.066406 333.140625 157.507812 326.484375 157.507812 C 319.828125 157.507812 314.398438 152.066406 314.398438 145.394531 C 314.398438 138.726562 319.828125 133.285156 326.484375 133.285156 Z M 326.484375 169.617188 C 339.820312 169.617188 350.65625 158.761719 350.65625 145.394531 C 350.65625 132.03125 339.820312 121.175781 326.484375 121.175781 C 313.148438 121.175781 302.3125 132.03125 302.3125 145.394531 C 302.3125 158.761719 313.148438 169.617188 326.484375 169.617188 "/>
<path style=" stroke:none;fill-rule:nonzero;fill:rgb(0%,0%,0%);fill-opacity:1;" d="M 338.570312 218.054688 L 253.972656 218.054688 L 253.972656 193.835938 L 338.570312 193.835938 Z M 350.65625 181.726562 L 241.886719 181.726562 L 241.886719 230.167969 L 350.65625 230.167969 L 350.65625 181.726562 "/>
<path style=" stroke:none;fill-rule:nonzero;fill:rgb(0%,0%,0%);fill-opacity:1;" d="M 253.972656 290.71875 C 247.3125 290.71875 241.886719 285.277344 241.886719 278.605469 C 241.886719 271.9375 247.3125 266.496094 253.972656 266.496094 C 260.628906 266.496094 266.054688 271.9375 266.054688 278.605469 C 266.054688 285.277344 260.628906 290.71875 253.972656 290.71875 Z M 253.972656 254.386719 C 240.632812 254.386719 229.800781 265.242188 229.800781 278.605469 C 229.800781 291.96875 240.632812 302.828125 253.972656 302.828125 C 267.308594 302.828125 278.140625 291.96875 278.140625 278.605469 C 278.140625 265.242188 267.308594 254.386719 253.972656 254.386719 "/>
<path style=" stroke:none;fill-rule:nonzero;fill:rgb(0%,0%,0%);fill-opacity:1;" d="M 314.398438 72.734375 L 302.3125 72.734375 L 302.3125 84.847656 L 314.398438 84.847656 L 314.398438 72.734375 "/>
<path style=" stroke:none;fill-rule:nonzero;fill:rgb(0%,0%,0%);fill-opacity:1;" d="M 290.226562 72.734375 L 278.140625 72.734375 L 278.140625 84.847656 L 290.226562 84.847656 L 290.226562 72.734375 "/>
<path style=" stroke:none;fill-rule:nonzero;fill:rgb(0%,0%,0%);fill-opacity:1;" d="M 266.054688 72.734375 L 253.972656 72.734375 L 253.972656 84.847656 L 266.054688 84.847656 L 266.054688 72.734375 "/>
</g>
</svg>
