<?xml version="1.0" encoding="UTF-8"?>
<svg xmlns="http://www.w3.org/2000/svg" xmlns:xlink="http://www.w3.org/1999/xlink" width="375pt" height="374.999991pt" viewBox="0 0 375 374.999991" version="1.2">
<defs>
<clipPath id="clip1">
  <path d="M 69 139 L 364 139 L 364 371.34375 L 69 371.34375 Z M 69 139 "/>
</clipPath>
</defs>
<g id="surface1">
<path style=" stroke:none;fill-rule:nonzero;fill:rgb(24.708557%,76.858521%,75.689697%);fill-opacity:1;" d="M 305.886719 63.890625 L 298.921875 47.128906 C 297.714844 44.222656 293.742188 43.847656 292.011719 46.476562 L 288.503906 51.8125 C 285.390625 49.621094 282.214844 47.519531 278.984375 45.550781 C 210.039062 3.496094 121.671875 13.765625 64.089844 70.519531 C 16.960938 116.96875 0.015625 185.054688 19.863281 248.203125 C 20.40625 249.941406 22.011719 251.050781 23.742188 251.050781 C 24.148438 251.050781 24.558594 250.992188 24.964844 250.863281 C 27.109375 250.191406 28.300781 247.910156 27.628906 245.765625 C 8.703125 185.539062 24.863281 120.605469 69.808594 76.304688 C 124.722656 22.183594 208.996094 12.386719 274.742188 52.492188 C 277.894531 54.414062 280.996094 56.46875 284.035156 58.613281 L 280.8125 63.511719 C 279.085938 66.140625 281.003906 69.632812 284.152344 69.585938 L 302.316406 69.3125 C 305.089844 69.273438 306.949219 66.449219 305.886719 63.890625 Z M 305.886719 63.890625 "/>
<g clip-path="url(#clip1)" clip-rule="nonzero">
<path style=" stroke:none;fill-rule:nonzero;fill:rgb(24.708557%,76.858521%,75.689697%);fill-opacity:1;" d="M 355.136719 142.761719 C 354.464844 140.621094 352.179688 139.429688 350.035156 140.101562 C 347.890625 140.773438 346.699219 143.054688 347.371094 145.199219 C 366.300781 205.421875 350.132812 270.359375 305.191406 314.65625 C 272.859375 346.523438 230.363281 363.019531 187.453125 363.019531 C 157.476562 363.019531 127.296875 354.964844 100.257812 338.46875 C 97.128906 336.5625 94.046875 334.523438 91.027344 332.394531 L 94.441406 327.203125 C 96.171875 324.570312 94.25 321.078125 91.101562 321.125 L 72.9375 321.398438 C 70.164062 321.4375 68.304688 324.265625 69.371094 326.824219 L 76.332031 343.585938 C 77.539062 346.492188 81.511719 346.867188 83.242188 344.234375 L 86.554688 339.195312 C 89.652344 341.367188 92.808594 343.457031 96.015625 345.410156 C 124.375 362.714844 156.011719 371.15625 187.453125 371.152344 C 232.441406 371.152344 277.015625 353.851562 310.910156 320.445312 C 358.039062 273.996094 374.984375 205.910156 355.136719 142.761719 Z M 355.136719 142.761719 "/>
</g>
<path style=" stroke:none;fill-rule:nonzero;fill:rgb(59.999084%,84.709167%,93.728638%);fill-opacity:1;" d="M 346.980469 111.753906 C 346.980469 112.324219 346.925781 112.894531 346.8125 113.457031 C 346.699219 114.019531 346.535156 114.566406 346.3125 115.097656 C 346.09375 115.628906 345.824219 116.132812 345.503906 116.609375 C 345.1875 117.085938 344.824219 117.527344 344.417969 117.933594 C 344.011719 118.339844 343.570312 118.703125 343.089844 119.019531 C 342.613281 119.339844 342.109375 119.609375 341.578125 119.828125 C 341.046875 120.046875 340.5 120.214844 339.9375 120.328125 C 339.375 120.4375 338.804688 120.496094 338.230469 120.496094 C 337.65625 120.496094 337.085938 120.4375 336.523438 120.328125 C 335.957031 120.214844 335.410156 120.046875 334.878906 119.828125 C 334.347656 119.609375 333.84375 119.339844 333.367188 119.019531 C 332.890625 118.703125 332.449219 118.339844 332.042969 117.933594 C 331.636719 117.527344 331.273438 117.085938 330.953125 116.609375 C 330.632812 116.132812 330.363281 115.628906 330.144531 115.097656 C 329.925781 114.566406 329.757812 114.019531 329.644531 113.457031 C 329.535156 112.894531 329.476562 112.324219 329.476562 111.753906 C 329.476562 111.179688 329.535156 110.609375 329.644531 110.046875 C 329.757812 109.484375 329.925781 108.9375 330.144531 108.40625 C 330.363281 107.875 330.632812 107.371094 330.953125 106.894531 C 331.273438 106.417969 331.636719 105.976562 332.042969 105.570312 C 332.449219 105.164062 332.890625 104.800781 333.367188 104.484375 C 333.84375 104.164062 334.351562 103.894531 334.878906 103.675781 C 335.410156 103.457031 335.957031 103.289062 336.523438 103.175781 C 337.085938 103.066406 337.65625 103.007812 338.230469 103.007812 C 338.804688 103.007812 339.375 103.066406 339.9375 103.175781 C 340.5 103.289062 341.046875 103.457031 341.578125 103.675781 C 342.109375 103.894531 342.613281 104.164062 343.089844 104.484375 C 343.570312 104.800781 344.011719 105.164062 344.417969 105.570312 C 344.824219 105.976562 345.1875 106.417969 345.503906 106.894531 C 345.824219 107.371094 346.09375 107.875 346.3125 108.40625 C 346.535156 108.9375 346.699219 109.484375 346.8125 110.046875 C 346.925781 110.609375 346.980469 111.179688 346.980469 111.753906 Z M 346.980469 111.753906 "/>
<path style=" stroke:none;fill-rule:nonzero;fill:rgb(59.999084%,84.709167%,93.728638%);fill-opacity:1;" d="M 330.148438 84.050781 C 330.148438 84.625 330.09375 85.195312 329.980469 85.757812 C 329.867188 86.320312 329.703125 86.867188 329.480469 87.394531 C 329.261719 87.925781 328.992188 88.429688 328.671875 88.90625 C 328.355469 89.386719 327.992188 89.828125 327.585938 90.230469 C 327.179688 90.636719 326.738281 91 326.257812 91.320312 C 325.78125 91.636719 325.277344 91.90625 324.746094 92.128906 C 324.214844 92.347656 323.667969 92.511719 323.105469 92.625 C 322.542969 92.738281 321.972656 92.792969 321.398438 92.792969 C 320.824219 92.792969 320.253906 92.738281 319.691406 92.625 C 319.128906 92.511719 318.578125 92.347656 318.050781 92.128906 C 317.519531 91.90625 317.015625 91.636719 316.535156 91.320312 C 316.058594 91 315.617188 90.636719 315.210938 90.230469 C 314.804688 89.828125 314.441406 89.386719 314.121094 88.90625 C 313.804688 88.429688 313.535156 87.925781 313.3125 87.394531 C 313.09375 86.867188 312.925781 86.320312 312.816406 85.757812 C 312.703125 85.195312 312.648438 84.625 312.648438 84.050781 C 312.648438 83.476562 312.703125 82.910156 312.816406 82.34375 C 312.925781 81.78125 313.09375 81.234375 313.3125 80.707031 C 313.535156 80.175781 313.804688 79.671875 314.121094 79.195312 C 314.441406 78.71875 314.804688 78.277344 315.210938 77.871094 C 315.617188 77.464844 316.058594 77.101562 316.535156 76.78125 C 317.015625 76.464844 317.519531 76.195312 318.050781 75.976562 C 318.578125 75.753906 319.128906 75.589844 319.691406 75.476562 C 320.253906 75.367188 320.824219 75.308594 321.398438 75.308594 C 321.972656 75.308594 322.542969 75.367188 323.105469 75.476562 C 323.667969 75.589844 324.214844 75.753906 324.746094 75.976562 C 325.277344 76.195312 325.78125 76.464844 326.257812 76.78125 C 326.738281 77.101562 327.179688 77.464844 327.585938 77.871094 C 327.992188 78.277344 328.355469 78.71875 328.671875 79.195312 C 328.992188 79.671875 329.261719 80.175781 329.480469 80.707031 C 329.703125 81.234375 329.867188 81.78125 329.980469 82.34375 C 330.09375 82.910156 330.148438 83.476562 330.148438 84.050781 Z M 330.148438 84.050781 "/>
<path style=" stroke:none;fill-rule:nonzero;fill:rgb(59.999084%,84.709167%,93.728638%);fill-opacity:1;" d="M 42.160156 275.714844 C 42.160156 276.289062 42.105469 276.859375 41.992188 277.421875 C 41.878906 277.984375 41.714844 278.53125 41.492188 279.058594 C 41.273438 279.589844 41.003906 280.09375 40.683594 280.570312 C 40.367188 281.050781 40.003906 281.492188 39.597656 281.894531 C 39.191406 282.300781 38.75 282.664062 38.269531 282.984375 C 37.792969 283.300781 37.289062 283.570312 36.757812 283.792969 C 36.226562 284.011719 35.679688 284.175781 35.117188 284.289062 C 34.554688 284.402344 33.984375 284.457031 33.410156 284.457031 C 32.835938 284.457031 32.265625 284.402344 31.703125 284.289062 C 31.136719 284.175781 30.589844 284.011719 30.058594 283.792969 C 29.53125 283.570312 29.023438 283.300781 28.546875 282.984375 C 28.070312 282.664062 27.628906 282.300781 27.222656 281.894531 C 26.816406 281.492188 26.453125 281.050781 26.132812 280.570312 C 25.8125 280.09375 25.542969 279.589844 25.324219 279.058594 C 25.105469 278.53125 24.9375 277.984375 24.828125 277.421875 C 24.714844 276.859375 24.660156 276.289062 24.660156 275.714844 C 24.660156 275.140625 24.714844 274.574219 24.828125 274.007812 C 24.9375 273.445312 25.105469 272.898438 25.324219 272.371094 C 25.542969 271.839844 25.8125 271.335938 26.132812 270.859375 C 26.453125 270.382812 26.816406 269.941406 27.222656 269.535156 C 27.628906 269.128906 28.070312 268.765625 28.546875 268.445312 C 29.023438 268.128906 29.53125 267.859375 30.058594 267.640625 C 30.589844 267.417969 31.136719 267.253906 31.703125 267.140625 C 32.265625 267.03125 32.835938 266.972656 33.410156 266.972656 C 33.984375 266.972656 34.554688 267.03125 35.117188 267.140625 C 35.679688 267.253906 36.226562 267.417969 36.757812 267.640625 C 37.289062 267.859375 37.792969 268.128906 38.269531 268.445312 C 38.75 268.765625 39.191406 269.128906 39.597656 269.535156 C 40.003906 269.941406 40.367188 270.382812 40.683594 270.859375 C 41.003906 271.335938 41.273438 271.839844 41.492188 272.371094 C 41.714844 272.898438 41.878906 273.445312 41.992188 274.007812 C 42.105469 274.574219 42.160156 275.140625 42.160156 275.714844 Z M 42.160156 275.714844 "/>
<path style=" stroke:none;fill-rule:nonzero;fill:rgb(59.999084%,84.709167%,93.728638%);fill-opacity:1;" d="M 60.574219 305.234375 C 60.574219 305.808594 60.519531 306.375 60.40625 306.9375 C 60.296875 307.5 60.128906 308.046875 59.910156 308.578125 C 59.691406 309.109375 59.421875 309.613281 59.101562 310.089844 C 58.78125 310.566406 58.417969 311.007812 58.011719 311.414062 C 57.605469 311.820312 57.164062 312.183594 56.6875 312.5 C 56.210938 312.820312 55.703125 313.089844 55.175781 313.308594 C 54.644531 313.527344 54.097656 313.695312 53.53125 313.804688 C 52.96875 313.917969 52.398438 313.972656 51.824219 313.972656 C 51.25 313.972656 50.683594 313.917969 50.117188 313.804688 C 49.554688 313.695312 49.007812 313.527344 48.476562 313.308594 C 47.945312 313.089844 47.441406 312.820312 46.964844 312.5 C 46.484375 312.183594 46.042969 311.820312 45.636719 311.414062 C 45.230469 311.007812 44.867188 310.566406 44.550781 310.089844 C 44.230469 309.613281 43.960938 309.109375 43.742188 308.578125 C 43.519531 308.046875 43.355469 307.5 43.242188 306.9375 C 43.132812 306.375 43.074219 305.808594 43.074219 305.234375 C 43.074219 304.660156 43.132812 304.089844 43.242188 303.527344 C 43.355469 302.964844 43.519531 302.417969 43.742188 301.886719 C 43.960938 301.355469 44.230469 300.851562 44.550781 300.375 C 44.867188 299.898438 45.230469 299.457031 45.636719 299.050781 C 46.042969 298.644531 46.484375 298.285156 46.964844 297.964844 C 47.441406 297.644531 47.945312 297.375 48.476562 297.15625 C 49.007812 296.9375 49.554688 296.769531 50.117188 296.660156 C 50.683594 296.546875 51.25 296.492188 51.824219 296.492188 C 52.398438 296.492188 52.96875 296.546875 53.53125 296.660156 C 54.097656 296.769531 54.644531 296.9375 55.175781 297.15625 C 55.703125 297.375 56.210938 297.644531 56.6875 297.964844 C 57.164062 298.285156 57.605469 298.644531 58.011719 299.050781 C 58.417969 299.457031 58.78125 299.898438 59.101562 300.375 C 59.421875 300.851562 59.691406 301.355469 59.910156 301.886719 C 60.128906 302.417969 60.296875 302.964844 60.40625 303.527344 C 60.519531 304.089844 60.574219 304.660156 60.574219 305.234375 Z M 60.574219 305.234375 "/>
<path style=" stroke:none;fill-rule:nonzero;fill:rgb(100%,65.879822%,0%);fill-opacity:1;" d="M 265.34375 272.644531 C 244.441406 293.242188 216.765625 304.601562 187.34375 304.601562 C 126.0625 304.601562 76.199219 254.792969 76.199219 193.574219 C 76.199219 164.199219 87.554688 136.5625 108.191406 115.652344 Z M 265.34375 272.644531 "/>
<path style=" stroke:none;fill-rule:nonzero;fill:rgb(100%,80.389404%,0%);fill-opacity:1;" d="M 298.484375 193.574219 C 298.484375 223.296875 286.882812 251.207031 265.835938 272.152344 C 265.671875 272.316406 265.507812 272.480469 265.34375 272.644531 L 108.191406 115.652344 C 108.355469 115.472656 108.519531 115.308594 108.699219 115.125 C 129.648438 94.132812 157.589844 82.542969 187.34375 82.542969 C 248.625 82.542969 298.484375 132.355469 298.484375 193.574219 Z M 298.484375 193.574219 "/>
<path style=" stroke:none;fill-rule:nonzero;fill:rgb(100%,92.939758%,39.99939%);fill-opacity:1;" d="M 239.738281 247.066406 C 226.226562 260.285156 207.730469 268.4375 187.34375 268.4375 C 145.957031 268.4375 112.402344 234.917969 112.402344 193.574219 C 112.402344 173.207031 120.566406 154.730469 133.796875 141.230469 Z M 239.738281 247.066406 "/>
<path style=" stroke:none;fill-rule:nonzero;fill:rgb(100%,98.039246%,81.17981%);fill-opacity:1;" d="M 262.28125 193.574219 C 262.28125 214.269531 253.875 233.011719 240.28125 246.539062 C 240.101562 246.722656 239.917969 246.902344 239.738281 247.066406 L 133.796875 141.230469 C 133.960938 141.050781 134.140625 140.871094 134.324219 140.691406 C 147.867188 127.109375 166.625 118.710938 187.34375 118.710938 C 228.730469 118.710938 262.28125 152.230469 262.28125 193.574219 Z M 262.28125 193.574219 "/>
<path style=" stroke:none;fill-rule:nonzero;fill:rgb(100%,51.759338%,0%);fill-opacity:1;" d="M 210.449219 194.429688 C 208.535156 192.96875 208.472656 190.203125 210.167969 188.496094 C 212.71875 185.878906 214.527344 182.117188 214.527344 177.167969 C 214.527344 168.535156 208.535156 160.449219 193.414062 159.808594 L 193.414062 151.785156 C 193.414062 150.519531 192.394531 149.484375 191.109375 149.484375 L 187.71875 149.484375 C 186.453125 149.484375 185.417969 150.519531 185.417969 151.785156 L 185.417969 159.742188 L 178.832031 159.742188 L 178.832031 151.785156 C 178.832031 150.519531 177.8125 149.484375 176.527344 149.484375 L 173.140625 149.484375 C 171.871094 149.484375 170.835938 150.519531 170.835938 151.785156 L 170.835938 159.742188 L 162 159.742188 C 159.8125 159.742188 158.046875 161.5 158.046875 163.671875 L 158.046875 223.476562 C 158.046875 225.648438 159.8125 227.40625 162 227.40625 L 170.835938 227.40625 L 170.835938 235.363281 C 170.835938 236.628906 171.871094 237.664062 173.140625 237.664062 L 176.527344 237.664062 C 177.8125 237.664062 178.832031 236.628906 178.832031 235.363281 L 178.832031 227.40625 L 185.417969 227.40625 L 185.417969 235.363281 C 185.417969 236.628906 186.453125 237.664062 187.71875 237.664062 L 191.109375 237.664062 C 192.394531 237.664062 193.414062 236.628906 193.414062 235.363281 L 193.414062 227.355469 C 208.042969 226.78125 216.632812 218.578125 216.632812 207.132812 C 216.632812 201.265625 213.902344 197.09375 210.449219 194.429688 Z M 174.0625 176 C 174.0625 173.832031 175.824219 172.070312 177.996094 172.070312 L 189.21875 172.070312 C 194.535156 172.070312 198.171875 174.257812 198.171875 179.027344 C 198.171875 183.199219 195.738281 186.125 189.003906 186.125 L 177.996094 186.125 C 175.824219 186.125 174.0625 184.367188 174.0625 182.195312 Z M 188.9375 215.125 L 177.996094 215.125 C 175.824219 215.125 174.0625 213.347656 174.0625 211.179688 L 174.0625 202.351562 C 174.0625 200.183594 175.824219 198.425781 177.996094 198.425781 L 189.253906 198.425781 C 196.410156 198.425781 199.734375 201.414062 199.734375 206.511719 C 199.734375 212.492188 196.0625 215.125 188.9375 215.125 Z M 188.9375 215.125 "/>
<path style=" stroke:none;fill-rule:nonzero;fill:rgb(100%,100%,100%);fill-opacity:1;" d="M 199.734375 206.511719 C 199.734375 212.492188 196.0625 215.125 188.9375 215.125 L 177.996094 215.125 C 175.824219 215.125 174.0625 213.347656 174.0625 211.179688 L 174.0625 202.351562 C 174.0625 200.183594 175.824219 198.425781 177.996094 198.425781 L 189.253906 198.425781 C 196.410156 198.425781 199.734375 201.414062 199.734375 206.511719 Z M 199.734375 206.511719 "/>
<path style=" stroke:none;fill-rule:nonzero;fill:rgb(100%,100%,100%);fill-opacity:1;" d="M 198.171875 179.027344 C 198.171875 183.199219 195.738281 186.128906 189.003906 186.128906 L 177.996094 186.128906 C 175.824219 186.128906 174.0625 184.367188 174.0625 182.195312 L 174.0625 176 C 174.0625 173.828125 175.824219 172.070312 177.996094 172.070312 L 189.21875 172.070312 C 194.535156 172.070312 198.171875 174.257812 198.171875 179.027344 Z M 198.171875 179.027344 "/>
</g>
</svg>
