<?xml version="1.0" encoding="UTF-8"?>
<svg xmlns="http://www.w3.org/2000/svg" xmlns:xlink="http://www.w3.org/1999/xlink" width="375pt" height="374.999991pt" viewBox="0 0 375 374.999991" version="1.2">
<defs>
<clipPath id="clip1">
  <path d="M 187.5 237.4375 L 162.4375 237.4375 L 162.4375 262.5 L 187.5 262.5 Z M 200 231.1875 L 200 268.75 C 200 272.203125 197.203125 275 193.75 275 L 156.1875 275 C 152.734375 275 149.9375 272.203125 149.9375 268.75 L 149.9375 231.1875 C 149.9375 227.734375 152.734375 224.9375 156.1875 224.9375 L 193.75 224.9375 C 197.203125 224.9375 200 227.734375 200 231.1875 Z M 125.0625 237.4375 L 100 237.4375 L 100 262.5 L 125.0625 262.5 Z M 137.5625 231.1875 L 137.5625 268.75 C 137.5625 272.203125 134.765625 275 131.3125 275 L 93.75 275 C 90.296875 275 87.5 272.203125 87.5 268.75 L 87.5 231.1875 C 87.5 227.734375 90.296875 224.9375 93.75 224.9375 L 131.3125 224.9375 C 134.765625 224.9375 137.5625 227.734375 137.5625 231.1875 Z M 62.5625 237.4375 L 37.5 237.4375 L 37.5 262.5 L 62.5625 262.5 Z M 75.0625 231.1875 L 75.0625 268.75 C 75.0625 272.203125 72.265625 275 68.8125 275 L 31.25 275 C 27.796875 275 25 272.203125 25 268.75 L 25 231.1875 C 25 227.734375 27.796875 224.9375 31.25 224.9375 L 68.8125 224.9375 C 72.265625 224.9375 75.0625 227.734375 75.0625 231.1875 Z M 62.5625 174.9375 L 37.5 174.9375 L 37.5 200 L 62.5625 200 Z M 75.0625 168.6875 L 75.0625 206.25 C 75.0625 209.703125 72.265625 212.5 68.8125 212.5 L 31.25 212.5 C 27.796875 212.5 25 209.703125 25 206.25 L 25 168.6875 C 25 165.234375 27.796875 162.4375 31.25 162.4375 L 68.8125 162.4375 C 72.265625 162.4375 75.0625 165.234375 75.0625 168.6875 Z M 99.9375 200 L 125 200 L 125 174.9375 L 99.9375 174.9375 Z M 87.4375 206.25 L 87.4375 168.6875 C 87.4375 165.234375 90.234375 162.4375 93.6875 162.4375 L 131.25 162.4375 C 134.703125 162.4375 137.5 165.234375 137.5 168.6875 L 137.5 206.25 C 137.5 209.703125 134.703125 212.5 131.25 212.5 L 93.6875 212.5 C 90.234375 212.5 87.4375 209.703125 87.4375 206.25 Z M 187.5625 174.9375 L 162.5 174.9375 L 162.5 200 L 187.5625 200 Z M 200.0625 168.6875 L 200.0625 206.25 C 200.0625 209.703125 197.265625 212.5 193.8125 212.5 L 156.25 212.5 C 152.796875 212.5 150 209.703125 150 206.25 L 150 168.6875 C 150 165.234375 152.796875 162.4375 156.25 162.4375 L 193.8125 162.4375 C 197.265625 162.4375 200.0625 165.234375 200.0625 168.6875 Z M 187.5625 112.4375 L 162.5 112.4375 L 162.5 137.5 L 187.5625 137.5 Z M 200.0625 106.1875 L 200.0625 143.75 C 200.0625 147.203125 197.265625 150 193.8125 150 L 156.25 150 C 152.796875 150 150 147.203125 150 143.75 L 150 106.1875 C 150 102.734375 152.796875 99.9375 156.25 99.9375 L 193.8125 99.9375 C 197.265625 99.9375 200.0625 102.734375 200.0625 106.1875 Z M 99.9375 137.5 L 125 137.5 L 125 112.4375 L 99.9375 112.4375 Z M 87.4375 143.75 L 87.4375 106.1875 C 87.4375 102.734375 90.234375 99.9375 93.6875 99.9375 L 131.25 99.9375 C 134.703125 99.9375 137.5 102.734375 137.5 106.1875 L 137.5 143.75 C 137.5 147.203125 134.703125 150 131.25 150 L 93.6875 150 C 90.234375 150 87.4375 147.203125 87.4375 143.75 Z M 37.4375 137.5 L 62.5 137.5 L 62.5 112.4375 L 37.4375 112.4375 Z M 24.9375 143.75 L 24.9375 106.1875 C 24.9375 102.734375 27.734375 99.9375 31.1875 99.9375 L 68.75 99.9375 C 72.203125 99.9375 75 102.734375 75 106.1875 L 75 143.75 C 75 147.203125 72.203125 150 68.75 150 L 31.1875 150 C 27.734375 150 24.9375 147.203125 24.9375 143.75 Z M 250 268.75 L 262.5 268.75 L 262.5 256.25 L 250 256.25 Z M 237.5 256.25 L 212.5 256.25 L 212.5 268.75 L 237.5 268.75 Z M 250 231.25 L 212.5 231.25 L 212.5 243.75 L 250 243.75 Z M 262.5 206.25 L 212.5 206.25 L 212.5 218.75 L 262.5 218.75 Z M 243.75 181.25 L 212.5 181.25 L 212.5 193.75 L 243.75 193.75 Z M 237.5 156.25 L 212.5 156.25 L 212.5 168.75 L 237.5 168.75 Z M 250 131.25 L 212.5 131.25 L 212.5 143.75 L 250 143.75 Z M 281.25 106.25 L 268.75 106.25 L 268.75 118.75 L 281.25 118.75 Z M 256.25 106.25 L 212.5 106.25 L 212.5 118.75 L 256.25 118.75 Z M 337.5 337.5 L 337.5 155.179688 C 337.5 145.445312 333.710938 136.300781 326.832031 129.417969 C 321.183594 123.777344 314.015625 120.210938 306.25 119.113281 L 306.25 159.910156 L 316.917969 170.582031 C 318.140625 171.800781 318.75 173.402344 318.75 175 C 318.75 176.597656 318.140625 178.199219 316.917969 179.417969 C 314.476562 181.859375 310.523438 181.859375 308.082031 179.417969 L 287.769531 159.105469 C 285.191406 156.53125 281.765625 155.113281 278.125 155.113281 C 274.484375 155.113281 271.058594 156.53125 268.480469 159.105469 C 263.164062 164.425781 263.164062 173.074219 268.480469 178.394531 L 304.417969 214.332031 C 306.859375 216.773438 306.859375 220.726562 304.417969 223.167969 L 296.023438 231.5625 C 278.96875 248.621094 278.96875 276.378906 296.023438 293.4375 L 304.417969 301.832031 C 305.589844 303.003906 306.25 304.59375 306.25 306.25 L 306.25 337.5 Z M 293.75 323.925781 C 291.792969 324.617188 289.691406 325 287.5 325 L 125 325 C 122.808594 325 120.707031 324.617188 118.75 323.925781 L 118.75 356.25 C 118.75 359.695312 121.554688 362.5 125 362.5 L 287.5 362.5 C 290.945312 362.5 293.75 359.695312 293.75 356.25 Z M 118.75 300 L 118.75 306.25 C 118.75 309.695312 121.554688 312.5 125 312.5 L 287.5 312.5 C 290.175781 312.5 292.460938 310.804688 293.347656 308.4375 L 287.1875 302.273438 C 265.253906 280.34375 265.253906 244.65625 287.1875 222.726562 L 291.160156 218.75 L 259.644531 187.230469 C 249.453125 177.042969 249.453125 160.457031 259.644531 150.269531 C 268.929688 140.980469 283.519531 140.15625 293.75 147.792969 L 293.75 68.75 C 293.75 65.304688 290.945312 62.5 287.5 62.5 L 125 62.5 C 121.554688 62.5 118.75 65.304688 118.75 68.75 L 118.75 75 L 231.25 75 L 231.25 87.5 L 12.5 87.5 L 12.5 287.5 L 231.25 287.5 L 231.25 300 Z M 118.75 18.75 L 118.75 51.074219 C 120.707031 50.382812 122.808594 50 125 50 L 287.5 50 C 289.691406 50 291.792969 50.382812 293.75 51.074219 L 293.75 18.75 C 293.75 15.304688 290.945312 12.5 287.5 12.5 L 125 12.5 C 121.554688 12.5 118.75 15.304688 118.75 18.75 Z M 375 343.75 L 375 375 L 362.5 375 L 362.5 350 L 306.25 350 L 306.25 356.25 C 306.25 366.589844 297.839844 375 287.5 375 L 125 375 C 114.660156 375 106.25 366.589844 106.25 356.25 L 106.25 300 L 6.25 300 C 2.796875 300 0 297.203125 0 293.75 L 0 81.25 C 0 77.796875 2.796875 75 6.25 75 L 106.25 75 L 106.25 18.75 C 106.25 8.410156 114.660156 0 125 0 L 287.5 0 C 297.839844 0 306.25 8.410156 306.25 18.75 L 306.25 106.527344 C 317.363281 107.6875 327.65625 112.574219 335.667969 120.582031 C 344.910156 129.820312 350 142.109375 350 155.179688 L 350 337.5 L 368.75 337.5 C 372.203125 337.5 375 340.296875 375 343.75 Z M 181.25 350 L 231.25 350 L 231.25 337.5 L 181.25 337.5 Z M 231.25 25 L 181.25 25 L 181.25 37.5 L 231.25 37.5 Z M 275 37.5 C 278.453125 37.5 281.25 34.703125 281.25 31.25 C 281.25 27.796875 278.453125 25 275 25 C 271.546875 25 268.75 27.796875 268.75 31.25 C 268.75 34.703125 271.546875 37.5 275 37.5 Z M 243.75 31.25 C 243.75 27.796875 246.546875 25 250 25 C 253.453125 25 256.25 27.796875 256.25 31.25 C 256.25 34.703125 253.453125 37.5 250 37.5 C 246.546875 37.5 243.75 34.703125 243.75 31.25 Z M 243.75 31.25 "/>
</clipPath>
<clipPath id="clip2">
  <path d="M 187.5 237.4375 L 162.4375 237.4375 L 162.4375 262.5 L 187.5 262.5 Z M 200 231.1875 L 200 268.75 C 200 272.203125 197.203125 275 193.75 275 L 156.1875 275 C 152.734375 275 149.9375 272.203125 149.9375 268.75 L 149.9375 231.1875 C 149.9375 227.734375 152.734375 224.9375 156.1875 224.9375 L 193.75 224.9375 C 197.203125 224.9375 200 227.734375 200 231.1875 Z M 125.0625 237.4375 L 100 237.4375 L 100 262.5 L 125.0625 262.5 Z M 137.5625 231.1875 L 137.5625 268.75 C 137.5625 272.203125 134.765625 275 131.3125 275 L 93.75 275 C 90.296875 275 87.5 272.203125 87.5 268.75 L 87.5 231.1875 C 87.5 227.734375 90.296875 224.9375 93.75 224.9375 L 131.3125 224.9375 C 134.765625 224.9375 137.5625 227.734375 137.5625 231.1875 Z M 62.5625 237.4375 L 37.5 237.4375 L 37.5 262.5 L 62.5625 262.5 Z M 75.0625 231.1875 L 75.0625 268.75 C 75.0625 272.203125 72.265625 275 68.8125 275 L 31.25 275 C 27.796875 275 25 272.203125 25 268.75 L 25 231.1875 C 25 227.734375 27.796875 224.9375 31.25 224.9375 L 68.8125 224.9375 C 72.265625 224.9375 75.0625 227.734375 75.0625 231.1875 Z M 62.5625 174.9375 L 37.5 174.9375 L 37.5 200 L 62.5625 200 Z M 75.0625 168.6875 L 75.0625 206.25 C 75.0625 209.703125 72.265625 212.5 68.8125 212.5 L 31.25 212.5 C 27.796875 212.5 25 209.703125 25 206.25 L 25 168.6875 C 25 165.234375 27.796875 162.4375 31.25 162.4375 L 68.8125 162.4375 C 72.265625 162.4375 75.0625 165.234375 75.0625 168.6875 Z M 99.9375 200 L 125 200 L 125 174.9375 L 99.9375 174.9375 Z M 87.4375 206.25 L 87.4375 168.6875 C 87.4375 165.234375 90.234375 162.4375 93.6875 162.4375 L 131.25 162.4375 C 134.703125 162.4375 137.5 165.234375 137.5 168.6875 L 137.5 206.25 C 137.5 209.703125 134.703125 212.5 131.25 212.5 L 93.6875 212.5 C 90.234375 212.5 87.4375 209.703125 87.4375 206.25 Z M 187.5625 174.9375 L 162.5 174.9375 L 162.5 200 L 187.5625 200 Z M 200.0625 168.6875 L 200.0625 206.25 C 200.0625 209.703125 197.265625 212.5 193.8125 212.5 L 156.25 212.5 C 152.796875 212.5 150 209.703125 150 206.25 L 150 168.6875 C 150 165.234375 152.796875 162.4375 156.25 162.4375 L 193.8125 162.4375 C 197.265625 162.4375 200.0625 165.234375 200.0625 168.6875 Z M 187.5625 112.4375 L 162.5 112.4375 L 162.5 137.5 L 187.5625 137.5 Z M 200.0625 106.1875 L 200.0625 143.75 C 200.0625 147.203125 197.265625 150 193.8125 150 L 156.25 150 C 152.796875 150 150 147.203125 150 143.75 L 150 106.1875 C 150 102.734375 152.796875 99.9375 156.25 99.9375 L 193.8125 99.9375 C 197.265625 99.9375 200.0625 102.734375 200.0625 106.1875 Z M 99.9375 137.5 L 125 137.5 L 125 112.4375 L 99.9375 112.4375 Z M 87.4375 143.75 L 87.4375 106.1875 C 87.4375 102.734375 90.234375 99.9375 93.6875 99.9375 L 131.25 99.9375 C 134.703125 99.9375 137.5 102.734375 137.5 106.1875 L 137.5 143.75 C 137.5 147.203125 134.703125 150 131.25 150 L 93.6875 150 C 90.234375 150 87.4375 147.203125 87.4375 143.75 Z M 37.4375 137.5 L 62.5 137.5 L 62.5 112.4375 L 37.4375 112.4375 Z M 24.9375 143.75 L 24.9375 106.1875 C 24.9375 102.734375 27.734375 99.9375 31.1875 99.9375 L 68.75 99.9375 C 72.203125 99.9375 75 102.734375 75 106.1875 L 75 143.75 C 75 147.203125 72.203125 150 68.75 150 L 31.1875 150 C 27.734375 150 24.9375 147.203125 24.9375 143.75 Z M 250 268.75 L 262.5 268.75 L 262.5 256.25 L 250 256.25 Z M 237.5 256.25 L 212.5 256.25 L 212.5 268.75 L 237.5 268.75 Z M 250 231.25 L 212.5 231.25 L 212.5 243.75 L 250 243.75 Z M 262.5 206.25 L 212.5 206.25 L 212.5 218.75 L 262.5 218.75 Z M 243.75 181.25 L 212.5 181.25 L 212.5 193.75 L 243.75 193.75 Z M 237.5 156.25 L 212.5 156.25 L 212.5 168.75 L 237.5 168.75 Z M 250 131.25 L 212.5 131.25 L 212.5 143.75 L 250 143.75 Z M 281.25 106.25 L 268.75 106.25 L 268.75 118.75 L 281.25 118.75 Z M 256.25 106.25 L 212.5 106.25 L 212.5 118.75 L 256.25 118.75 Z M 337.5 337.5 L 337.5 155.179688 C 337.5 145.445312 333.710938 136.300781 326.832031 129.417969 C 321.183594 123.777344 314.015625 120.210938 306.25 119.113281 L 306.25 159.910156 L 316.917969 170.582031 C 318.140625 171.800781 318.75 173.402344 318.75 175 C 318.75 176.597656 318.140625 178.199219 316.917969 179.417969 C 314.476562 181.859375 310.523438 181.859375 308.082031 179.417969 L 287.769531 159.105469 C 285.191406 156.53125 281.765625 155.113281 278.125 155.113281 C 274.484375 155.113281 271.058594 156.53125 268.480469 159.105469 C 263.164062 164.425781 263.164062 173.074219 268.480469 178.394531 L 304.417969 214.332031 C 306.859375 216.773438 306.859375 220.726562 304.417969 223.167969 L 296.023438 231.5625 C 278.96875 248.621094 278.96875 276.378906 296.023438 293.4375 L 304.417969 301.832031 C 305.589844 303.003906 306.25 304.59375 306.25 306.25 L 306.25 337.5 Z M 293.75 323.925781 C 291.792969 324.617188 289.691406 325 287.5 325 L 125 325 C 122.808594 325 120.707031 324.617188 118.75 323.925781 L 118.75 356.25 C 118.75 359.695312 121.554688 362.5 125 362.5 L 287.5 362.5 C 290.945312 362.5 293.75 359.695312 293.75 356.25 Z M 118.75 300 L 118.75 306.25 C 118.75 309.695312 121.554688 312.5 125 312.5 L 287.5 312.5 C 290.175781 312.5 292.460938 310.804688 293.347656 308.4375 L 287.1875 302.273438 C 265.253906 280.34375 265.253906 244.65625 287.1875 222.726562 L 291.160156 218.75 L 259.644531 187.230469 C 249.453125 177.042969 249.453125 160.457031 259.644531 150.269531 C 268.929688 140.980469 283.519531 140.15625 293.75 147.792969 L 293.75 68.75 C 293.75 65.304688 290.945312 62.5 287.5 62.5 L 125 62.5 C 121.554688 62.5 118.75 65.304688 118.75 68.75 L 118.75 75 L 231.25 75 L 231.25 87.5 L 12.5 87.5 L 12.5 287.5 L 231.25 287.5 L 231.25 300 Z M 118.75 18.75 L 118.75 51.074219 C 120.707031 50.382812 122.808594 50 125 50 L 287.5 50 C 289.691406 50 291.792969 50.382812 293.75 51.074219 L 293.75 18.75 C 293.75 15.304688 290.945312 12.5 287.5 12.5 L 125 12.5 C 121.554688 12.5 118.75 15.304688 118.75 18.75 Z M 375 343.75 L 375 375 L 362.5 375 L 362.5 350 L 306.25 350 L 306.25 356.25 C 306.25 366.589844 297.839844 375 287.5 375 L 125 375 C 114.660156 375 106.25 366.589844 106.25 356.25 L 106.25 300 L 6.25 300 C 2.796875 300 0 297.203125 0 293.75 L 0 81.25 C 0 77.796875 2.796875 75 6.25 75 L 106.25 75 L 106.25 18.75 C 106.25 8.410156 114.660156 0 125 0 L 287.5 0 C 297.839844 0 306.25 8.410156 306.25 18.75 L 306.25 106.527344 C 317.363281 107.6875 327.65625 112.574219 335.667969 120.582031 C 344.910156 129.820312 350 142.109375 350 155.179688 L 350 337.5 L 368.75 337.5 C 372.203125 337.5 375 340.296875 375 343.75 Z M 181.25 350 L 231.25 350 L 231.25 337.5 L 181.25 337.5 Z M 231.25 25 L 181.25 25 L 181.25 37.5 L 231.25 37.5 Z M 275 37.5 C 278.453125 37.5 281.25 34.703125 281.25 31.25 C 281.25 27.796875 278.453125 25 275 25 C 271.546875 25 268.75 27.796875 268.75 31.25 C 268.75 34.703125 271.546875 37.5 275 37.5 Z M 243.75 31.25 C 243.75 27.796875 246.546875 25 250 25 C 253.453125 25 256.25 27.796875 256.25 31.25 C 256.25 34.703125 253.453125 37.5 250 37.5 C 246.546875 37.5 243.75 34.703125 243.75 31.25 "/>
</clipPath>
<clipPath id="clip3">
  <path d="M -187.5 187.5 L 187.5 562.5 L 562.5 187.5 L 187.5 -187.5 Z M -187.5 187.5 "/>
</clipPath>
<linearGradient id="linear0" gradientUnits="userSpaceOnUse" x1="-0.132966" y1="0" x2="1.1348" y2="0" gradientTransform="matrix(295.795983,-295.795983,295.795983,295.795983,58.995837,355.334313)">
<stop offset="0" style="stop-color:rgb(39.99939%,17.599487%,54.899597%);stop-opacity:1;"/>
<stop offset="0.0625" style="stop-color:rgb(39.99939%,17.599487%,54.899597%);stop-opacity:1;"/>
<stop offset="0.09375" style="stop-color:rgb(39.99939%,17.599487%,54.899597%);stop-opacity:1;"/>
<stop offset="0.109375" style="stop-color:rgb(40.0177%,17.599487%,54.899597%);stop-opacity:1;"/>
<stop offset="0.113281" style="stop-color:rgb(40.428162%,17.599487%,54.899597%);stop-opacity:1;"/>
<stop offset="0.117187" style="stop-color:rgb(40.818787%,17.599487%,54.899597%);stop-opacity:1;"/>
<stop offset="0.125" style="stop-color:rgb(41.009521%,17.599487%,54.899597%);stop-opacity:1;"/>
<stop offset="0.128906" style="stop-color:rgb(41.589355%,17.456055%,54.699707%);stop-opacity:1;"/>
<stop offset="0.132812" style="stop-color:rgb(41.97998%,17.312622%,54.499817%);stop-opacity:1;"/>
<stop offset="0.140625" style="stop-color:rgb(42.170715%,17.304993%,54.499817%);stop-opacity:1;"/>
<stop offset="0.148437" style="stop-color:rgb(42.552185%,17.298889%,54.499817%);stop-opacity:1;"/>
<stop offset="0.152344" style="stop-color:rgb(43.121338%,17.298889%,54.499817%);stop-opacity:1;"/>
<stop offset="0.15625" style="stop-color:rgb(43.499756%,17.298889%,54.499817%);stop-opacity:1;"/>
<stop offset="0.160156" style="stop-color:rgb(43.702698%,17.298889%,54.496765%);stop-opacity:1;"/>
<stop offset="0.164062" style="stop-color:rgb(43.90564%,17.298889%,54.493713%);stop-opacity:1;"/>
<stop offset="0.167969" style="stop-color:rgb(44.102478%,17.298889%,54.295349%);stop-opacity:1;"/>
<stop offset="0.171875" style="stop-color:rgb(44.299316%,17.298889%,54.098511%);stop-opacity:1;"/>
<stop offset="0.175781" style="stop-color:rgb(44.682312%,17.298889%,54.098511%);stop-opacity:1;"/>
<stop offset="0.179687" style="stop-color:rgb(45.066833%,17.298889%,54.098511%);stop-opacity:1;"/>
<stop offset="0.1875" style="stop-color:rgb(45.257568%,17.123413%,54.098511%);stop-opacity:1;"/>
<stop offset="0.191406" style="stop-color:rgb(45.687866%,16.923523%,54.098511%);stop-opacity:1;"/>
<stop offset="0.195312" style="stop-color:rgb(45.928955%,16.899109%,54.098511%);stop-opacity:1;"/>
<stop offset="0.199219" style="stop-color:rgb(46.313477%,16.899109%,54.098511%);stop-opacity:1;"/>
<stop offset="0.203125" style="stop-color:rgb(46.699524%,16.899109%,54.098511%);stop-opacity:1;"/>
<stop offset="0.207031" style="stop-color:rgb(46.894836%,16.899109%,53.901672%);stop-opacity:1;"/>
<stop offset="0.210937" style="stop-color:rgb(47.091675%,16.899109%,53.70636%);stop-opacity:1;"/>
<stop offset="0.214844" style="stop-color:rgb(47.294617%,16.899109%,53.701782%);stop-opacity:1;"/>
<stop offset="0.21875" style="stop-color:rgb(47.499084%,16.899109%,53.69873%);stop-opacity:1;"/>
<stop offset="0.222656" style="stop-color:rgb(47.825623%,16.899109%,53.69873%);stop-opacity:1;"/>
<stop offset="0.226562" style="stop-color:rgb(48.153687%,16.899109%,53.69873%);stop-opacity:1;"/>
<stop offset="0.230469" style="stop-color:rgb(48.394775%,16.880798%,53.69873%);stop-opacity:1;"/>
<stop offset="0.234375" style="stop-color:rgb(48.635864%,16.864014%,53.69873%);stop-opacity:1;"/>
<stop offset="0.242187" style="stop-color:rgb(48.825073%,16.680908%,53.69873%);stop-opacity:1;"/>
<stop offset="0.246094" style="stop-color:rgb(49.406433%,16.499329%,53.69873%);stop-opacity:1;"/>
<stop offset="0.25" style="stop-color:rgb(49.797058%,16.499329%,53.69873%);stop-opacity:1;"/>
<stop offset="0.253906" style="stop-color:rgb(49.998474%,16.499329%,53.49884%);stop-opacity:1;"/>
<stop offset="0.257812" style="stop-color:rgb(50.19989%,16.499329%,53.29895%);stop-opacity:1;"/>
<stop offset="0.261719" style="stop-color:rgb(50.579834%,16.499329%,53.29895%);stop-opacity:1;"/>
<stop offset="0.265625" style="stop-color:rgb(50.959778%,16.499329%,53.29895%);stop-opacity:1;"/>
<stop offset="0.269531" style="stop-color:rgb(51.199341%,16.499329%,53.29895%);stop-opacity:1;"/>
<stop offset="0.273438" style="stop-color:rgb(51.44043%,16.499329%,53.29895%);stop-opacity:1;"/>
<stop offset="0.28125" style="stop-color:rgb(51.631165%,16.499329%,53.29895%);stop-opacity:1;"/>
<stop offset="0.285156" style="stop-color:rgb(52.160645%,16.299438%,53.297424%);stop-opacity:1;"/>
<stop offset="0.289062" style="stop-color:rgb(52.49939%,16.099548%,53.295898%);stop-opacity:1;"/>
<stop offset="0.292969" style="stop-color:rgb(52.69165%,16.099548%,53.097534%);stop-opacity:1;"/>
<stop offset="0.296875" style="stop-color:rgb(52.883911%,16.099548%,52.89917%);stop-opacity:1;"/>
<stop offset="0.300781" style="stop-color:rgb(53.091431%,16.099548%,52.89917%);stop-opacity:1;"/>
<stop offset="0.304688" style="stop-color:rgb(53.29895%,16.099548%,52.89917%);stop-opacity:1;"/>
<stop offset="0.308594" style="stop-color:rgb(53.672791%,16.099548%,52.89917%);stop-opacity:1;"/>
<stop offset="0.3125" style="stop-color:rgb(54.046631%,16.099548%,52.89917%);stop-opacity:1;"/>
<stop offset="0.316406" style="stop-color:rgb(54.286194%,16.099548%,52.89917%);stop-opacity:1;"/>
<stop offset="0.320312" style="stop-color:rgb(54.527283%,16.099548%,52.89917%);stop-opacity:1;"/>
<stop offset="0.328125" style="stop-color:rgb(54.718018%,16.099548%,52.89917%);stop-opacity:1;"/>
<stop offset="0.332031" style="stop-color:rgb(55.299377%,16.099548%,52.703857%);stop-opacity:1;"/>
<stop offset="0.335938" style="stop-color:rgb(55.690002%,16.099548%,52.508545%);stop-opacity:1;"/>
<stop offset="0.34375" style="stop-color:rgb(55.879211%,15.913391%,52.503967%);stop-opacity:1;"/>
<stop offset="0.347656" style="stop-color:rgb(56.283569%,15.713501%,52.49939%);stop-opacity:1;"/>
<stop offset="0.351562" style="stop-color:rgb(56.498718%,15.699768%,52.49939%);stop-opacity:1;"/>
<stop offset="0.355469" style="stop-color:rgb(56.898499%,15.699768%,52.49939%);stop-opacity:1;"/>
<stop offset="0.359375" style="stop-color:rgb(57.299805%,15.699768%,52.49939%);stop-opacity:1;"/>
<stop offset="0.367188" style="stop-color:rgb(57.45697%,15.699768%,52.49939%);stop-opacity:1;"/>
<stop offset="0.375" style="stop-color:rgb(57.806396%,15.699768%,52.349854%);stop-opacity:1;"/>
<stop offset="0.378906" style="stop-color:rgb(58.387756%,15.699768%,52.200317%);stop-opacity:1;"/>
<stop offset="0.382812" style="stop-color:rgb(58.776855%,15.699768%,52.198792%);stop-opacity:1;"/>
<stop offset="0.390625" style="stop-color:rgb(58.966064%,15.699768%,52.198792%);stop-opacity:1;"/>
<stop offset="0.394531" style="stop-color:rgb(59.397888%,15.499878%,52.198792%);stop-opacity:1;"/>
<stop offset="0.398438" style="stop-color:rgb(59.638977%,15.299988%,52.198792%);stop-opacity:1;"/>
<stop offset="0.402344" style="stop-color:rgb(60.018921%,15.299988%,52.198792%);stop-opacity:1;"/>
<stop offset="0.40625" style="stop-color:rgb(60.398865%,15.299988%,52.198792%);stop-opacity:1;"/>
<stop offset="0.410156" style="stop-color:rgb(60.598755%,15.299988%,52.197266%);stop-opacity:1;"/>
<stop offset="0.414062" style="stop-color:rgb(60.800171%,15.299988%,52.197266%);stop-opacity:1;"/>
<stop offset="0.417969" style="stop-color:rgb(61.000061%,15.299988%,51.997375%);stop-opacity:1;"/>
<stop offset="0.421875" style="stop-color:rgb(61.199951%,15.299988%,51.799011%);stop-opacity:1;"/>
<stop offset="0.425781" style="stop-color:rgb(61.581421%,15.299988%,51.799011%);stop-opacity:1;"/>
<stop offset="0.429688" style="stop-color:rgb(61.962891%,15.299988%,51.799011%);stop-opacity:1;"/>
<stop offset="0.4375" style="stop-color:rgb(62.153625%,15.299988%,51.799011%);stop-opacity:1;"/>
<stop offset="0.445312" style="stop-color:rgb(62.533569%,15.286255%,51.799011%);stop-opacity:1;"/>
<stop offset="0.449219" style="stop-color:rgb(63.111877%,15.086365%,51.799011%);stop-opacity:1;"/>
<stop offset="0.453125" style="stop-color:rgb(63.499451%,14.898682%,51.799011%);stop-opacity:1;"/>
<stop offset="0.460938" style="stop-color:rgb(63.693237%,14.898682%,51.605225%);stop-opacity:1;"/>
<stop offset="0.464844" style="stop-color:rgb(64.093018%,14.898682%,51.405334%);stop-opacity:1;"/>
<stop offset="0.46875" style="stop-color:rgb(64.299011%,14.898682%,51.399231%);stop-opacity:1;"/>
<stop offset="0.472656" style="stop-color:rgb(64.674377%,14.898682%,51.399231%);stop-opacity:1;"/>
<stop offset="0.476562" style="stop-color:rgb(65.049744%,14.898682%,51.399231%);stop-opacity:1;"/>
<stop offset="0.480469" style="stop-color:rgb(65.289307%,14.898682%,51.399231%);stop-opacity:1;"/>
<stop offset="0.484375" style="stop-color:rgb(65.530396%,14.898682%,51.399231%);stop-opacity:1;"/>
<stop offset="0.492188" style="stop-color:rgb(65.72113%,14.898682%,51.399231%);stop-opacity:1;"/>
<stop offset="0.496094" style="stop-color:rgb(66.30249%,14.701843%,51.202393%);stop-opacity:1;"/>
<stop offset="0.5" style="stop-color:rgb(66.693115%,14.506531%,51.005554%);stop-opacity:1;"/>
<stop offset="0.507812" style="stop-color:rgb(66.882324%,14.501953%,51.002502%);stop-opacity:1;"/>
<stop offset="0.511719" style="stop-color:rgb(67.285156%,14.498901%,50.999451%);stop-opacity:1;"/>
<stop offset="0.515625" style="stop-color:rgb(67.498779%,14.498901%,50.999451%);stop-opacity:1;"/>
<stop offset="0.519531" style="stop-color:rgb(67.848206%,14.498901%,50.999451%);stop-opacity:1;"/>
<stop offset="0.523438" style="stop-color:rgb(68.199158%,14.498901%,50.999451%);stop-opacity:1;"/>
<stop offset="0.527344" style="stop-color:rgb(68.408203%,14.498901%,50.999451%);stop-opacity:1;"/>
<stop offset="0.53125" style="stop-color:rgb(68.617249%,14.498901%,50.999451%);stop-opacity:1;"/>
<stop offset="0.539062" style="stop-color:rgb(68.807983%,14.498901%,50.999451%);stop-opacity:1;"/>
<stop offset="0.542969" style="stop-color:rgb(69.389343%,14.498901%,50.799561%);stop-opacity:1;"/>
<stop offset="0.546875" style="stop-color:rgb(69.779968%,14.498901%,50.59967%);stop-opacity:1;"/>
<stop offset="0.554688" style="stop-color:rgb(69.969177%,14.318848%,50.59967%);stop-opacity:1;"/>
<stop offset="0.558594" style="stop-color:rgb(70.379639%,14.118958%,50.59967%);stop-opacity:1;"/>
<stop offset="0.5625" style="stop-color:rgb(70.599365%,14.099121%,50.59967%);stop-opacity:1;"/>
<stop offset="0.566406" style="stop-color:rgb(70.999146%,14.099121%,50.59967%);stop-opacity:1;"/>
<stop offset="0.570312" style="stop-color:rgb(71.398926%,14.099121%,50.59967%);stop-opacity:1;"/>
<stop offset="0.574219" style="stop-color:rgb(71.600342%,14.099121%,50.59967%);stop-opacity:1;"/>
<stop offset="0.578125" style="stop-color:rgb(71.803284%,14.099121%,50.59967%);stop-opacity:1;"/>
<stop offset="0.582031" style="stop-color:rgb(72.000122%,14.099121%,50.405884%);stop-opacity:1;"/>
<stop offset="0.585938" style="stop-color:rgb(72.198486%,14.099121%,50.213623%);stop-opacity:1;"/>
<stop offset="0.589844" style="stop-color:rgb(72.531128%,14.099121%,50.205994%);stop-opacity:1;"/>
<stop offset="0.59375" style="stop-color:rgb(72.865295%,14.099121%,50.19989%);stop-opacity:1;"/>
<stop offset="0.601562" style="stop-color:rgb(73.05603%,14.099121%,50.19989%);stop-opacity:1;"/>
<stop offset="0.605469" style="stop-color:rgb(73.486328%,13.899231%,50.19989%);stop-opacity:1;"/>
<stop offset="0.609375" style="stop-color:rgb(73.727417%,13.699341%,50.19989%);stop-opacity:1;"/>
<stop offset="0.613281" style="stop-color:rgb(74.113464%,13.699341%,50.19989%);stop-opacity:1;"/>
<stop offset="0.617188" style="stop-color:rgb(74.499512%,13.699341%,50.19989%);stop-opacity:1;"/>
<stop offset="0.621094" style="stop-color:rgb(74.694824%,13.699341%,50.003052%);stop-opacity:1;"/>
<stop offset="0.625" style="stop-color:rgb(74.890137%,13.699341%,49.807739%);stop-opacity:1;"/>
<stop offset="0.628906" style="stop-color:rgb(75.094604%,13.699341%,49.803162%);stop-opacity:1;"/>
<stop offset="0.632812" style="stop-color:rgb(75.299072%,13.699341%,49.798584%);stop-opacity:1;"/>
<stop offset="0.636719" style="stop-color:rgb(75.675964%,13.699341%,49.798584%);stop-opacity:1;"/>
<stop offset="0.640625" style="stop-color:rgb(76.052856%,13.699341%,49.798584%);stop-opacity:1;"/>
<stop offset="0.644531" style="stop-color:rgb(76.292419%,13.699341%,49.798584%);stop-opacity:1;"/>
<stop offset="0.648438" style="stop-color:rgb(76.533508%,13.699341%,49.798584%);stop-opacity:1;"/>
<stop offset="0.65625" style="stop-color:rgb(76.724243%,13.691711%,49.798584%);stop-opacity:1;"/>
<stop offset="0.660156" style="stop-color:rgb(77.255249%,13.491821%,49.798584%);stop-opacity:1;"/>
<stop offset="0.664062" style="stop-color:rgb(77.597046%,13.299561%,49.798584%);stop-opacity:1;"/>
<stop offset="0.667969" style="stop-color:rgb(77.786255%,13.299561%,49.598694%);stop-opacity:1;"/>
<stop offset="0.671875" style="stop-color:rgb(77.97699%,13.299561%,49.398804%);stop-opacity:1;"/>
<stop offset="0.675781" style="stop-color:rgb(78.187561%,13.299561%,49.398804%);stop-opacity:1;"/>
<stop offset="0.679688" style="stop-color:rgb(78.399658%,13.299561%,49.398804%);stop-opacity:1;"/>
<stop offset="0.683594" style="stop-color:rgb(78.768921%,13.299561%,49.398804%);stop-opacity:1;"/>
<stop offset="0.6875" style="stop-color:rgb(79.139709%,13.299561%,49.398804%);stop-opacity:1;"/>
<stop offset="0.691406" style="stop-color:rgb(79.379272%,13.299561%,49.398804%);stop-opacity:1;"/>
<stop offset="0.695312" style="stop-color:rgb(79.620361%,13.299561%,49.398804%);stop-opacity:1;"/>
<stop offset="0.703125" style="stop-color:rgb(79.811096%,13.299561%,49.397278%);stop-opacity:1;"/>
<stop offset="0.707031" style="stop-color:rgb(80.392456%,13.1073%,49.197388%);stop-opacity:1;"/>
<stop offset="0.710938" style="stop-color:rgb(80.783081%,12.916565%,48.999023%);stop-opacity:1;"/>
<stop offset="0.71875" style="stop-color:rgb(80.97229%,12.90741%,48.999023%);stop-opacity:1;"/>
<stop offset="0.722656" style="stop-color:rgb(81.381226%,12.89978%,48.999023%);stop-opacity:1;"/>
<stop offset="0.726562" style="stop-color:rgb(81.599426%,12.89978%,48.999023%);stop-opacity:1;"/>
<stop offset="0.730469" style="stop-color:rgb(81.999207%,12.89978%,48.999023%);stop-opacity:1;"/>
<stop offset="0.734375" style="stop-color:rgb(82.398987%,12.89978%,48.999023%);stop-opacity:1;"/>
<stop offset="0.742188" style="stop-color:rgb(82.553101%,12.89978%,48.999023%);stop-opacity:1;"/>
<stop offset="0.746094" style="stop-color:rgb(82.902527%,12.89978%,48.803711%);stop-opacity:1;"/>
<stop offset="0.75" style="stop-color:rgb(83.099365%,12.89978%,48.609924%);stop-opacity:1;"/>
<stop offset="0.753906" style="stop-color:rgb(83.483887%,12.89978%,48.603821%);stop-opacity:1;"/>
<stop offset="0.757812" style="stop-color:rgb(83.869934%,12.89978%,48.599243%);stop-opacity:1;"/>
<stop offset="0.765625" style="stop-color:rgb(84.059143%,12.724304%,48.599243%);stop-opacity:1;"/>
<stop offset="0.769531" style="stop-color:rgb(84.490967%,12.524414%,48.599243%);stop-opacity:1;"/>
<stop offset="0.773438" style="stop-color:rgb(84.732056%,12.5%,48.599243%);stop-opacity:1;"/>
<stop offset="0.777344" style="stop-color:rgb(85.115051%,12.5%,48.599243%);stop-opacity:1;"/>
<stop offset="0.78125" style="stop-color:rgb(85.499573%,12.5%,48.599243%);stop-opacity:1;"/>
<stop offset="0.785156" style="stop-color:rgb(85.696411%,12.5%,48.599243%);stop-opacity:1;"/>
<stop offset="0.789062" style="stop-color:rgb(85.89325%,12.5%,48.599243%);stop-opacity:1;"/>
<stop offset="0.792969" style="stop-color:rgb(86.096191%,12.5%,48.399353%);stop-opacity:1;"/>
<stop offset="0.796875" style="stop-color:rgb(86.299133%,12.5%,48.199463%);stop-opacity:1;"/>
<stop offset="0.800781" style="stop-color:rgb(86.677551%,12.5%,48.199463%);stop-opacity:1;"/>
<stop offset="0.804688" style="stop-color:rgb(87.055969%,12.5%,48.199463%);stop-opacity:1;"/>
<stop offset="0.8125" style="stop-color:rgb(87.246704%,12.5%,48.199463%);stop-opacity:1;"/>
<stop offset="0.820312" style="stop-color:rgb(87.626648%,12.348938%,48.199463%);stop-opacity:1;"/>
<stop offset="0.824219" style="stop-color:rgb(88.208008%,12.199402%,48.199463%);stop-opacity:1;"/>
<stop offset="0.828125" style="stop-color:rgb(88.598633%,12.199402%,48.199463%);stop-opacity:1;"/>
<stop offset="0.832031" style="stop-color:rgb(88.789368%,12.199402%,47.999573%);stop-opacity:1;"/>
<stop offset="0.835938" style="stop-color:rgb(88.980103%,12.199402%,47.799683%);stop-opacity:1;"/>
<stop offset="0.839844" style="stop-color:rgb(89.189148%,12.199402%,47.799683%);stop-opacity:1;"/>
<stop offset="0.84375" style="stop-color:rgb(89.399719%,12.199402%,47.799683%);stop-opacity:1;"/>
<stop offset="0.847656" style="stop-color:rgb(89.770508%,12.199402%,47.799683%);stop-opacity:1;"/>
<stop offset="0.851562" style="stop-color:rgb(90.142822%,12.199402%,47.799683%);stop-opacity:1;"/>
<stop offset="0.855469" style="stop-color:rgb(90.382385%,12.199402%,47.799683%);stop-opacity:1;"/>
<stop offset="0.859375" style="stop-color:rgb(90.623474%,12.199402%,47.799683%);stop-opacity:1;"/>
<stop offset="0.867188" style="stop-color:rgb(90.814209%,12.19635%,47.799683%);stop-opacity:1;"/>
<stop offset="0.871094" style="stop-color:rgb(91.395569%,11.99646%,47.654724%);stop-opacity:1;"/>
<stop offset="0.875" style="stop-color:rgb(91.786194%,11.799622%,47.509766%);stop-opacity:1;"/>
<stop offset="0.882812" style="stop-color:rgb(91.975403%,11.799622%,47.503662%);stop-opacity:1;"/>
<stop offset="0.890625" style="stop-color:rgb(92.332458%,11.799622%,47.499084%);stop-opacity:1;"/>
<stop offset="0.898438" style="stop-color:rgb(92.596436%,11.799622%,47.499084%);stop-opacity:1;"/>
<stop offset="0.90625" style="stop-color:rgb(92.796326%,11.799622%,47.499084%);stop-opacity:1;"/>
<stop offset="0.9375" style="stop-color:rgb(92.89856%,11.799622%,47.499084%);stop-opacity:1;"/>
<stop offset="1" style="stop-color:rgb(92.89856%,11.799622%,47.499084%);stop-opacity:1;"/>
</linearGradient>
</defs>
<g id="surface1">
<g clip-path="url(#clip1)" clip-rule="nonzero">
<g clip-path="url(#clip2)" clip-rule="nonzero">
<g clip-path="url(#clip3)" clip-rule="nonzero">
<path style=" stroke:none;fill-rule:nonzero;fill:url(#linear0);" d="M -187.5 187.5 L 187.5 562.5 L 562.5 187.5 L 187.5 -187.5 Z M -187.5 187.5 "/>
</g>
</g>
</g>
</g>
</svg>
