<?xml version="1.0" encoding="UTF-8"?>
<svg xmlns="http://www.w3.org/2000/svg" xmlns:xlink="http://www.w3.org/1999/xlink" width="375pt" height="374.999991pt" viewBox="0 0 375 374.999991" version="1.2">
<defs>
<clipPath id="clip1">
  <path d="M 48.386719 181.453125 L 108.871094 181.453125 L 108.871094 193.546875 L 48.386719 193.546875 Z M 96.773438 157.257812 L 108.871094 157.257812 L 108.871094 169.355469 L 96.773438 169.355469 Z M 84.675781 169.355469 L 72.582031 169.355469 L 72.582031 157.257812 L 84.675781 157.257812 Z M 60.484375 169.355469 L 48.386719 169.355469 L 48.386719 157.257812 L 60.484375 157.257812 Z M 284.273438 72.582031 C 294.292969 72.582031 302.417969 80.707031 302.417969 90.726562 C 302.417969 100.742188 294.292969 108.871094 284.273438 108.871094 C 274.257812 108.871094 266.128906 100.742188 266.128906 90.726562 C 266.128906 80.707031 274.257812 72.582031 284.273438 72.582031 Z M 284.273438 120.96875 C 300.953125 120.96875 314.515625 107.40625 314.515625 90.726562 C 314.515625 74.046875 300.953125 60.484375 284.273438 60.484375 C 267.59375 60.484375 254.03125 74.046875 254.03125 90.726562 C 254.03125 107.40625 267.59375 120.96875 284.273438 120.96875 Z M 362.902344 104.121094 L 348.703125 107.617188 L 347.6875 110.855469 C 346.601562 114.304688 345.113281 117.824219 343.316406 121.296875 L 341.757812 124.300781 L 349.339844 136.84375 L 330.394531 155.792969 L 317.847656 148.210938 L 314.847656 149.769531 C 311.375 151.5625 307.851562 153.050781 304.402344 154.140625 L 301.167969 155.15625 L 296.960938 172.285156 L 296.324219 172.898438 C 290.722656 170.628906 284.628906 169.355469 278.226562 169.355469 C 274.042969 169.355469 270.003906 169.945312 266.128906 170.960938 L 266.128906 141.925781 C 271.941406 143.980469 278.035156 145.160156 284.273438 145.160156 C 314.304688 145.160156 338.710938 120.753906 338.710938 90.726562 C 338.710938 60.695312 314.304688 36.289062 284.273438 36.289062 C 254.246094 36.289062 229.839844 60.695312 229.839844 90.726562 C 229.839844 96.964844 231.019531 103.058594 233.074219 108.871094 L 205.644531 108.871094 L 205.644531 77.328125 L 219.84375 73.832031 L 220.859375 70.597656 C 221.949219 67.148438 223.4375 63.625 225.230469 60.152344 L 226.789062 57.152344 L 219.207031 44.605469 L 238.15625 25.660156 L 250.699219 33.242188 L 253.703125 31.683594 C 257.175781 29.886719 260.695312 28.398438 264.144531 27.3125 L 267.382812 26.296875 L 270.878906 12.097656 L 297.671875 12.097656 L 301.167969 26.296875 L 304.402344 27.3125 C 307.851562 28.398438 311.375 29.886719 314.847656 31.683594 L 317.847656 33.242188 L 330.394531 25.660156 L 349.339844 44.605469 L 341.757812 57.152344 L 343.316406 60.152344 C 345.113281 63.625 346.601562 67.148438 347.6875 70.597656 L 348.703125 73.832031 L 362.902344 77.328125 Z M 314.515625 217.742188 C 314.515625 237.753906 298.238281 254.03125 278.226562 254.03125 C 258.214844 254.03125 241.933594 237.753906 241.933594 217.742188 C 241.933594 197.730469 258.214844 181.453125 278.226562 181.453125 C 298.238281 181.453125 314.515625 197.730469 314.515625 217.742188 Z M 299.703125 268.988281 L 278.226562 346.339844 L 256.75 268.988281 C 263.625 267.191406 270.785156 266.128906 278.226562 266.128906 C 285.667969 266.128906 292.828125 267.191406 299.703125 268.988281 Z M 362.902344 350.804688 L 362.902344 362.902344 L 344.757812 362.902344 L 344.757812 314.515625 L 332.660156 314.515625 L 332.660156 362.902344 L 300.742188 362.902344 L 321.367188 326.800781 L 315.839844 315.722656 L 326.210938 305.324219 L 329.800781 283.800781 C 349.886719 299.300781 362.902344 323.519531 362.902344 350.804688 Z M 193.546875 362.902344 L 193.546875 350.804688 C 193.546875 323.519531 206.566406 299.300781 226.648438 283.800781 L 230.242188 305.324219 L 240.613281 315.722656 L 235.082031 326.800781 L 255.710938 362.902344 L 223.789062 362.902344 L 223.789062 314.515625 L 211.695312 314.515625 L 211.695312 362.902344 Z M 54.433594 362.902344 L 54.433594 350.804688 L 181.453125 350.804688 L 181.453125 362.902344 Z M 90.726562 314.515625 L 188.5625 314.515625 C 185.46875 322.148438 183.367188 330.273438 182.300781 338.710938 L 90.726562 338.710938 Z M 12.097656 284.273438 L 12.097656 278.226562 L 214.433594 278.226562 C 206.566406 285.148438 199.832031 293.300781 194.539062 302.417969 L 30.242188 302.417969 C 20.222656 302.417969 12.097656 294.292969 12.097656 284.273438 Z M 108.871094 266.128906 L 96.773438 266.128906 L 96.773438 217.742188 L 108.871094 217.742188 Z M 157.257812 266.128906 L 145.160156 266.128906 L 145.160156 193.546875 L 157.257812 193.546875 Z M 229.839844 266.128906 L 217.742188 266.128906 L 217.742188 157.257812 L 181.453125 157.257812 L 181.453125 266.128906 L 169.355469 266.128906 L 169.355469 181.453125 L 133.066406 181.453125 L 133.066406 266.128906 L 120.96875 266.128906 L 120.96875 205.644531 L 84.675781 205.644531 L 84.675781 266.128906 L 36.289062 266.128906 L 36.289062 145.160156 L 229.839844 145.160156 Z M 241.933594 261.144531 L 241.933594 249.636719 C 244.699219 252.78125 247.820312 255.589844 251.292969 257.929688 C 248.101562 258.851562 244.984375 259.914062 241.933594 261.144531 Z M 205.644531 266.128906 L 193.546875 266.128906 L 193.546875 169.355469 L 205.644531 169.355469 Z M 269.648438 362.902344 L 248.789062 326.425781 L 255.355469 313.3125 L 241.535156 299.511719 L 237.707031 276.476562 C 240.140625 275.128906 242.667969 273.902344 245.242188 272.816406 L 270.261719 362.902344 Z M 307.664062 326.425781 L 286.800781 362.902344 L 286.1875 362.902344 L 311.207031 272.816406 C 313.785156 273.902344 316.3125 275.128906 318.746094 276.476562 L 314.917969 299.511719 L 301.097656 313.3125 Z M 241.933594 90.726562 C 241.933594 67.382812 260.929688 48.386719 284.273438 48.386719 C 307.617188 48.386719 326.613281 67.382812 326.613281 90.726562 C 326.613281 114.070312 307.617188 133.066406 284.273438 133.066406 C 277.089844 133.066406 270.097656 131.175781 263.859375 127.726562 C 260.789062 120.210938 254.789062 114.210938 247.273438 111.140625 C 243.824219 104.902344 241.933594 97.910156 241.933594 90.726562 Z M 30.242188 120.96875 L 235.886719 120.96875 C 245.90625 120.96875 254.03125 129.09375 254.03125 139.113281 L 254.03125 175.898438 C 249.472656 178.546875 245.410156 181.925781 241.933594 185.847656 L 241.933594 145.160156 C 241.933594 138.5 236.5 133.066406 229.839844 133.066406 L 36.289062 133.066406 C 29.628906 133.066406 24.195312 138.5 24.195312 145.160156 L 24.195312 266.128906 L 12.097656 266.128906 L 12.097656 139.113281 C 12.097656 129.09375 20.222656 120.96875 30.242188 120.96875 Z M 355.578125 57.671875 L 364.605469 42.765625 L 332.234375 10.394531 L 317.328125 19.421875 C 315.34375 18.476562 313.3125 17.648438 311.304688 16.894531 L 307.167969 0 L 261.378906 0 L 257.246094 16.894531 C 255.238281 17.648438 253.207031 18.476562 251.21875 19.421875 L 236.3125 10.394531 L 203.945312 42.765625 L 212.96875 57.671875 C 212.023438 59.65625 211.199219 61.6875 210.441406 63.695312 L 193.546875 67.832031 L 193.546875 108.871094 L 30.242188 108.871094 C 13.5625 108.871094 0 122.433594 0 139.113281 L 0 284.273438 C 0 300.953125 13.5625 314.515625 30.242188 314.515625 L 78.628906 314.515625 L 78.628906 338.710938 L 54.433594 338.710938 C 47.773438 338.710938 42.339844 344.144531 42.339844 350.804688 L 42.339844 362.902344 C 42.339844 369.566406 47.773438 375 54.433594 375 L 375 375 L 375 350.804688 C 375 306.789062 345.441406 269.625 305.160156 257.929688 C 318.082031 249.234375 326.613281 234.46875 326.613281 217.742188 C 326.613281 201.960938 318.980469 187.972656 307.261719 179.113281 L 307.878906 178.523438 L 311.304688 164.558594 C 313.3125 163.800781 315.34375 162.976562 317.328125 162.03125 L 332.234375 171.054688 L 364.605469 138.6875 L 355.578125 123.777344 C 356.523438 121.792969 357.351562 119.761719 358.105469 117.753906 L 375 113.621094 L 375 67.832031 L 358.105469 63.695312 C 357.351562 61.6875 356.523438 59.65625 355.578125 57.671875 Z M 355.578125 57.671875 "/>
</clipPath>
<clipPath id="clip2">
  <path d="M 48.386719 181.453125 L 108.871094 181.453125 L 108.871094 193.546875 L 48.386719 193.546875 Z M 96.773438 157.257812 L 108.871094 157.257812 L 108.871094 169.355469 L 96.773438 169.355469 Z M 84.675781 169.355469 L 72.582031 169.355469 L 72.582031 157.257812 L 84.675781 157.257812 Z M 60.484375 169.355469 L 48.386719 169.355469 L 48.386719 157.257812 L 60.484375 157.257812 Z M 284.273438 72.582031 C 294.292969 72.582031 302.417969 80.707031 302.417969 90.726562 C 302.417969 100.742188 294.292969 108.871094 284.273438 108.871094 C 274.257812 108.871094 266.128906 100.742188 266.128906 90.726562 C 266.128906 80.707031 274.257812 72.582031 284.273438 72.582031 Z M 284.273438 120.96875 C 300.953125 120.96875 314.515625 107.40625 314.515625 90.726562 C 314.515625 74.046875 300.953125 60.484375 284.273438 60.484375 C 267.59375 60.484375 254.03125 74.046875 254.03125 90.726562 C 254.03125 107.40625 267.59375 120.96875 284.273438 120.96875 Z M 362.902344 104.121094 L 348.703125 107.617188 L 347.6875 110.855469 C 346.601562 114.304688 345.113281 117.824219 343.316406 121.296875 L 341.757812 124.300781 L 349.339844 136.84375 L 330.394531 155.792969 L 317.847656 148.210938 L 314.847656 149.769531 C 311.375 151.5625 307.851562 153.050781 304.402344 154.140625 L 301.167969 155.15625 L 296.960938 172.285156 L 296.324219 172.898438 C 290.722656 170.628906 284.628906 169.355469 278.226562 169.355469 C 274.042969 169.355469 270.003906 169.945312 266.128906 170.960938 L 266.128906 141.925781 C 271.941406 143.980469 278.035156 145.160156 284.273438 145.160156 C 314.304688 145.160156 338.710938 120.753906 338.710938 90.726562 C 338.710938 60.695312 314.304688 36.289062 284.273438 36.289062 C 254.246094 36.289062 229.839844 60.695312 229.839844 90.726562 C 229.839844 96.964844 231.019531 103.058594 233.074219 108.871094 L 205.644531 108.871094 L 205.644531 77.328125 L 219.84375 73.832031 L 220.859375 70.597656 C 221.949219 67.148438 223.4375 63.625 225.230469 60.152344 L 226.789062 57.152344 L 219.207031 44.605469 L 238.15625 25.660156 L 250.699219 33.242188 L 253.703125 31.683594 C 257.175781 29.886719 260.695312 28.398438 264.144531 27.3125 L 267.382812 26.296875 L 270.878906 12.097656 L 297.671875 12.097656 L 301.167969 26.296875 L 304.402344 27.3125 C 307.851562 28.398438 311.375 29.886719 314.847656 31.683594 L 317.847656 33.242188 L 330.394531 25.660156 L 349.339844 44.605469 L 341.757812 57.152344 L 343.316406 60.152344 C 345.113281 63.625 346.601562 67.148438 347.6875 70.597656 L 348.703125 73.832031 L 362.902344 77.328125 Z M 314.515625 217.742188 C 314.515625 237.753906 298.238281 254.03125 278.226562 254.03125 C 258.214844 254.03125 241.933594 237.753906 241.933594 217.742188 C 241.933594 197.730469 258.214844 181.453125 278.226562 181.453125 C 298.238281 181.453125 314.515625 197.730469 314.515625 217.742188 Z M 299.703125 268.988281 L 278.226562 346.339844 L 256.75 268.988281 C 263.625 267.191406 270.785156 266.128906 278.226562 266.128906 C 285.667969 266.128906 292.828125 267.191406 299.703125 268.988281 Z M 362.902344 350.804688 L 362.902344 362.902344 L 344.757812 362.902344 L 344.757812 314.515625 L 332.660156 314.515625 L 332.660156 362.902344 L 300.742188 362.902344 L 321.367188 326.800781 L 315.839844 315.722656 L 326.210938 305.324219 L 329.800781 283.800781 C 349.886719 299.300781 362.902344 323.519531 362.902344 350.804688 Z M 193.546875 362.902344 L 193.546875 350.804688 C 193.546875 323.519531 206.566406 299.300781 226.648438 283.800781 L 230.242188 305.324219 L 240.613281 315.722656 L 235.082031 326.800781 L 255.710938 362.902344 L 223.789062 362.902344 L 223.789062 314.515625 L 211.695312 314.515625 L 211.695312 362.902344 Z M 54.433594 362.902344 L 54.433594 350.804688 L 181.453125 350.804688 L 181.453125 362.902344 Z M 90.726562 314.515625 L 188.5625 314.515625 C 185.46875 322.148438 183.367188 330.273438 182.300781 338.710938 L 90.726562 338.710938 Z M 12.097656 284.273438 L 12.097656 278.226562 L 214.433594 278.226562 C 206.566406 285.148438 199.832031 293.300781 194.539062 302.417969 L 30.242188 302.417969 C 20.222656 302.417969 12.097656 294.292969 12.097656 284.273438 Z M 108.871094 266.128906 L 96.773438 266.128906 L 96.773438 217.742188 L 108.871094 217.742188 Z M 157.257812 266.128906 L 145.160156 266.128906 L 145.160156 193.546875 L 157.257812 193.546875 Z M 229.839844 266.128906 L 217.742188 266.128906 L 217.742188 157.257812 L 181.453125 157.257812 L 181.453125 266.128906 L 169.355469 266.128906 L 169.355469 181.453125 L 133.066406 181.453125 L 133.066406 266.128906 L 120.96875 266.128906 L 120.96875 205.644531 L 84.675781 205.644531 L 84.675781 266.128906 L 36.289062 266.128906 L 36.289062 145.160156 L 229.839844 145.160156 Z M 241.933594 261.144531 L 241.933594 249.636719 C 244.699219 252.78125 247.820312 255.589844 251.292969 257.929688 C 248.101562 258.851562 244.984375 259.914062 241.933594 261.144531 Z M 205.644531 266.128906 L 193.546875 266.128906 L 193.546875 169.355469 L 205.644531 169.355469 Z M 269.648438 362.902344 L 248.789062 326.425781 L 255.355469 313.3125 L 241.535156 299.511719 L 237.707031 276.476562 C 240.140625 275.128906 242.667969 273.902344 245.242188 272.816406 L 270.261719 362.902344 Z M 307.664062 326.425781 L 286.800781 362.902344 L 286.1875 362.902344 L 311.207031 272.816406 C 313.785156 273.902344 316.3125 275.128906 318.746094 276.476562 L 314.917969 299.511719 L 301.097656 313.3125 Z M 241.933594 90.726562 C 241.933594 67.382812 260.929688 48.386719 284.273438 48.386719 C 307.617188 48.386719 326.613281 67.382812 326.613281 90.726562 C 326.613281 114.070312 307.617188 133.066406 284.273438 133.066406 C 277.089844 133.066406 270.097656 131.175781 263.859375 127.726562 C 260.789062 120.210938 254.789062 114.210938 247.273438 111.140625 C 243.824219 104.902344 241.933594 97.910156 241.933594 90.726562 Z M 30.242188 120.96875 L 235.886719 120.96875 C 245.90625 120.96875 254.03125 129.09375 254.03125 139.113281 L 254.03125 175.898438 C 249.472656 178.546875 245.410156 181.925781 241.933594 185.847656 L 241.933594 145.160156 C 241.933594 138.5 236.5 133.066406 229.839844 133.066406 L 36.289062 133.066406 C 29.628906 133.066406 24.195312 138.5 24.195312 145.160156 L 24.195312 266.128906 L 12.097656 266.128906 L 12.097656 139.113281 C 12.097656 129.09375 20.222656 120.96875 30.242188 120.96875 Z M 355.578125 57.671875 L 364.605469 42.765625 L 332.234375 10.394531 L 317.328125 19.421875 C 315.34375 18.476562 313.3125 17.648438 311.304688 16.894531 L 307.167969 0 L 261.378906 0 L 257.246094 16.894531 C 255.238281 17.648438 253.207031 18.476562 251.21875 19.421875 L 236.3125 10.394531 L 203.945312 42.765625 L 212.96875 57.671875 C 212.023438 59.65625 211.199219 61.6875 210.441406 63.695312 L 193.546875 67.832031 L 193.546875 108.871094 L 30.242188 108.871094 C 13.5625 108.871094 0 122.433594 0 139.113281 L 0 284.273438 C 0 300.953125 13.5625 314.515625 30.242188 314.515625 L 78.628906 314.515625 L 78.628906 338.710938 L 54.433594 338.710938 C 47.773438 338.710938 42.339844 344.144531 42.339844 350.804688 L 42.339844 362.902344 C 42.339844 369.566406 47.773438 375 54.433594 375 L 375 375 L 375 350.804688 C 375 306.789062 345.441406 269.625 305.160156 257.929688 C 318.082031 249.234375 326.613281 234.46875 326.613281 217.742188 C 326.613281 201.960938 318.980469 187.972656 307.261719 179.113281 L 307.878906 178.523438 L 311.304688 164.558594 C 313.3125 163.800781 315.34375 162.976562 317.328125 162.03125 L 332.234375 171.054688 L 364.605469 138.6875 L 355.578125 123.777344 C 356.523438 121.792969 357.351562 119.761719 358.105469 117.753906 L 375 113.621094 L 375 67.832031 L 358.105469 63.695312 C 357.351562 61.6875 356.523438 59.65625 355.578125 57.671875 "/>
</clipPath>
<linearGradient id="linear0" gradientUnits="userSpaceOnUse" x1="0.00000008284" y1="0" x2="1" y2="0" gradientTransform="matrix(0,-374.999991,374.999991,0,187.5,374.999993)">
<stop offset="0" style="stop-color:rgb(62.399292%,18.399048%,100%);stop-opacity:1;"/>
<stop offset="0.00390625" style="stop-color:rgb(62.199402%,18.598938%,100%);stop-opacity:1;"/>
<stop offset="0.0078125" style="stop-color:rgb(61.999512%,18.798828%,100%);stop-opacity:1;"/>
<stop offset="0.0117188" style="stop-color:rgb(61.799622%,18.998718%,99.798584%);stop-opacity:1;"/>
<stop offset="0.015625" style="stop-color:rgb(61.599731%,19.198608%,99.598694%);stop-opacity:1;"/>
<stop offset="0.0195312" style="stop-color:rgb(61.376953%,19.419861%,99.598694%);stop-opacity:1;"/>
<stop offset="0.0234375" style="stop-color:rgb(61.155701%,19.642639%,99.598694%);stop-opacity:1;"/>
<stop offset="0.0273438" style="stop-color:rgb(60.777283%,19.833374%,99.586487%);stop-opacity:1;"/>
<stop offset="0.03125" style="stop-color:rgb(60.398865%,20.024109%,99.57428%);stop-opacity:1;"/>
<stop offset="0.0351562" style="stop-color:rgb(60.198975%,20.214844%,99.386597%);stop-opacity:1;"/>
<stop offset="0.0390625" style="stop-color:rgb(59.999084%,20.405579%,99.198914%);stop-opacity:1;"/>
<stop offset="0.0429688" style="stop-color:rgb(59.805298%,20.602417%,99.198914%);stop-opacity:1;"/>
<stop offset="0.046875" style="stop-color:rgb(59.611511%,20.799255%,99.198914%);stop-opacity:1;"/>
<stop offset="0.0507812" style="stop-color:rgb(59.405518%,20.999146%,99.198914%);stop-opacity:1;"/>
<stop offset="0.0546875" style="stop-color:rgb(59.199524%,21.199036%,99.198914%);stop-opacity:1;"/>
<stop offset="0.0585938" style="stop-color:rgb(58.999634%,21.398926%,98.999023%);stop-opacity:1;"/>
<stop offset="0.0625" style="stop-color:rgb(58.799744%,21.598816%,98.799133%);stop-opacity:1;"/>
<stop offset="0.0664062" style="stop-color:rgb(58.583069%,21.813965%,98.799133%);stop-opacity:1;"/>
<stop offset="0.0703125" style="stop-color:rgb(58.36792%,22.03064%,98.799133%);stop-opacity:1;"/>
<stop offset="0.0742188" style="stop-color:rgb(57.983398%,22.219849%,98.79303%);stop-opacity:1;"/>
<stop offset="0.078125" style="stop-color:rgb(57.598877%,22.409058%,98.786926%);stop-opacity:1;"/>
<stop offset="0.0859375" style="stop-color:rgb(57.450867%,22.554016%,98.59314%);stop-opacity:1;"/>
<stop offset="0.0898438" style="stop-color:rgb(57.113647%,22.898865%,98.399353%);stop-opacity:1;"/>
<stop offset="0.09375" style="stop-color:rgb(56.924438%,23.098755%,98.399353%);stop-opacity:1;"/>
<stop offset="0.0976562" style="stop-color:rgb(56.733704%,23.298645%,98.399353%);stop-opacity:1;"/>
<stop offset="0.101562" style="stop-color:rgb(56.542969%,23.498535%,98.399353%);stop-opacity:1;"/>
<stop offset="0.105469" style="stop-color:rgb(56.30188%,23.716736%,98.199463%);stop-opacity:1;"/>
<stop offset="0.109375" style="stop-color:rgb(56.062317%,23.936462%,97.999573%);stop-opacity:1;"/>
<stop offset="0.117188" style="stop-color:rgb(55.871582%,24.127197%,97.999573%);stop-opacity:1;"/>
<stop offset="0.121094" style="stop-color:rgb(55.290222%,24.508667%,97.799683%);stop-opacity:1;"/>
<stop offset="0.125" style="stop-color:rgb(54.899597%,24.699402%,97.599792%);stop-opacity:1;"/>
<stop offset="0.128906" style="stop-color:rgb(54.708862%,24.899292%,97.599792%);stop-opacity:1;"/>
<stop offset="0.132812" style="stop-color:rgb(54.518127%,25.099182%,97.599792%);stop-opacity:1;"/>
<stop offset="0.136719" style="stop-color:rgb(54.327393%,25.299072%,97.599792%);stop-opacity:1;"/>
<stop offset="0.140625" style="stop-color:rgb(54.136658%,25.498962%,97.599792%);stop-opacity:1;"/>
<stop offset="0.144531" style="stop-color:rgb(53.895569%,25.720215%,97.44873%);stop-opacity:1;"/>
<stop offset="0.148438" style="stop-color:rgb(53.656006%,25.942993%,97.299194%);stop-opacity:1;"/>
<stop offset="0.15625" style="stop-color:rgb(53.465271%,26.133728%,97.299194%);stop-opacity:1;"/>
<stop offset="0.164062" style="stop-color:rgb(53.083801%,26.515198%,97.299194%);stop-opacity:1;"/>
<stop offset="0.167969" style="stop-color:rgb(52.696228%,26.902771%,97.105408%);stop-opacity:1;"/>
<stop offset="0.171875" style="stop-color:rgb(52.49939%,27.099609%,96.911621%);stop-opacity:1;"/>
<stop offset="0.175781" style="stop-color:rgb(52.165222%,27.2995%,96.905518%);stop-opacity:1;"/>
<stop offset="0.179688" style="stop-color:rgb(51.831055%,27.49939%,96.899414%);stop-opacity:1;"/>
<stop offset="0.1875" style="stop-color:rgb(51.64032%,27.648926%,96.899414%);stop-opacity:1;"/>
<stop offset="0.191406" style="stop-color:rgb(51.223755%,28.015137%,96.699524%);stop-opacity:1;"/>
<stop offset="0.195312" style="stop-color:rgb(50.999451%,28.230286%,96.499634%);stop-opacity:1;"/>
<stop offset="0.199219" style="stop-color:rgb(50.793457%,28.421021%,96.499634%);stop-opacity:1;"/>
<stop offset="0.203125" style="stop-color:rgb(50.587463%,28.611755%,96.499634%);stop-opacity:1;"/>
<stop offset="0.210938" style="stop-color:rgb(50.393677%,28.805542%,96.499634%);stop-opacity:1;"/>
<stop offset="0.214844" style="stop-color:rgb(49.998474%,29.199219%,96.311951%);stop-opacity:1;"/>
<stop offset="0.21875" style="stop-color:rgb(49.798584%,29.399109%,96.124268%);stop-opacity:1;"/>
<stop offset="0.222656" style="stop-color:rgb(49.420166%,29.598999%,96.112061%);stop-opacity:1;"/>
<stop offset="0.226562" style="stop-color:rgb(49.043274%,29.798889%,96.099854%);stop-opacity:1;"/>
<stop offset="0.230469" style="stop-color:rgb(48.820496%,30.01709%,96.099854%);stop-opacity:1;"/>
<stop offset="0.234375" style="stop-color:rgb(48.599243%,30.236816%,96.099854%);stop-opacity:1;"/>
<stop offset="0.238281" style="stop-color:rgb(48.399353%,30.427551%,95.898438%);stop-opacity:1;"/>
<stop offset="0.242188" style="stop-color:rgb(48.199463%,30.618286%,95.698547%);stop-opacity:1;"/>
<stop offset="0.246094" style="stop-color:rgb(47.999573%,30.809021%,95.698547%);stop-opacity:1;"/>
<stop offset="0.25" style="stop-color:rgb(47.799683%,30.999756%,95.698547%);stop-opacity:1;"/>
<stop offset="0.253906" style="stop-color:rgb(47.648621%,31.390381%,95.698547%);stop-opacity:1;"/>
<stop offset="0.257812" style="stop-color:rgb(47.499084%,31.781006%,95.698547%);stop-opacity:1;"/>
<stop offset="0.261719" style="stop-color:rgb(47.299194%,31.971741%,95.498657%);stop-opacity:1;"/>
<stop offset="0.265625" style="stop-color:rgb(47.099304%,32.162476%,95.298767%);stop-opacity:1;"/>
<stop offset="0.269531" style="stop-color:rgb(46.876526%,32.330322%,95.298767%);stop-opacity:1;"/>
<stop offset="0.273438" style="stop-color:rgb(46.655273%,32.499695%,95.298767%);stop-opacity:1;"/>
<stop offset="0.277344" style="stop-color:rgb(46.276855%,32.699585%,95.28656%);stop-opacity:1;"/>
<stop offset="0.28125" style="stop-color:rgb(45.899963%,32.899475%,95.274353%);stop-opacity:1;"/>
<stop offset="0.285156" style="stop-color:rgb(45.698547%,33.099365%,95.08667%);stop-opacity:1;"/>
<stop offset="0.289062" style="stop-color:rgb(45.498657%,33.299255%,94.898987%);stop-opacity:1;"/>
<stop offset="0.296875" style="stop-color:rgb(45.304871%,33.493042%,94.898987%);stop-opacity:1;"/>
<stop offset="0.300781" style="stop-color:rgb(44.90509%,33.877563%,94.898987%);stop-opacity:1;"/>
<stop offset="0.304688" style="stop-color:rgb(44.699097%,34.068298%,94.898987%);stop-opacity:1;"/>
<stop offset="0.308594" style="stop-color:rgb(44.499207%,34.259033%,94.699097%);stop-opacity:1;"/>
<stop offset="0.3125" style="stop-color:rgb(44.299316%,34.449768%,94.499207%);stop-opacity:1;"/>
<stop offset="0.316406" style="stop-color:rgb(44.082642%,34.674072%,94.499207%);stop-opacity:1;"/>
<stop offset="0.320312" style="stop-color:rgb(43.867493%,34.899902%,94.499207%);stop-opacity:1;"/>
<stop offset="0.324219" style="stop-color:rgb(43.482971%,35.099792%,94.493103%);stop-opacity:1;"/>
<stop offset="0.328125" style="stop-color:rgb(43.099976%,35.299683%,94.487%);stop-opacity:1;"/>
<stop offset="0.332031" style="stop-color:rgb(42.901611%,35.496521%,94.293213%);stop-opacity:1;"/>
<stop offset="0.335938" style="stop-color:rgb(42.704773%,35.693359%,94.099426%);stop-opacity:1;"/>
<stop offset="0.34375" style="stop-color:rgb(42.56134%,35.884094%,94.099426%);stop-opacity:1;"/>
<stop offset="0.351562" style="stop-color:rgb(42.230225%,36.264038%,94.099426%);stop-opacity:1;"/>
<stop offset="0.355469" style="stop-color:rgb(41.801453%,36.676025%,93.899536%);stop-opacity:1;"/>
<stop offset="0.359375" style="stop-color:rgb(41.56189%,36.898804%,93.699646%);stop-opacity:1;"/>
<stop offset="0.363281" style="stop-color:rgb(41.371155%,37.098694%,93.699646%);stop-opacity:1;"/>
<stop offset="0.367188" style="stop-color:rgb(41.18042%,37.298584%,93.699646%);stop-opacity:1;"/>
<stop offset="0.371094" style="stop-color:rgb(40.789795%,37.44812%,93.499756%);stop-opacity:1;"/>
<stop offset="0.375" style="stop-color:rgb(40.39917%,37.599182%,93.299866%);stop-opacity:1;"/>
<stop offset="0.382812" style="stop-color:rgb(40.208435%,37.789917%,93.299866%);stop-opacity:1;"/>
<stop offset="0.390625" style="stop-color:rgb(39.826965%,38.171387%,93.299866%);stop-opacity:1;"/>
<stop offset="0.394531" style="stop-color:rgb(39.395142%,38.580322%,93.09845%);stop-opacity:1;"/>
<stop offset="0.398438" style="stop-color:rgb(39.155579%,38.798523%,92.89856%);stop-opacity:1;"/>
<stop offset="0.402344" style="stop-color:rgb(38.964844%,38.998413%,92.89856%);stop-opacity:1;"/>
<stop offset="0.40625" style="stop-color:rgb(38.774109%,39.199829%,92.89856%);stop-opacity:1;"/>
<stop offset="0.410156" style="stop-color:rgb(38.583374%,39.399719%,92.89856%);stop-opacity:1;"/>
<stop offset="0.414062" style="stop-color:rgb(38.392639%,39.599609%,92.89856%);stop-opacity:1;"/>
<stop offset="0.417969" style="stop-color:rgb(38.195801%,39.793396%,92.704773%);stop-opacity:1;"/>
<stop offset="0.421875" style="stop-color:rgb(37.998962%,39.987183%,92.510986%);stop-opacity:1;"/>
<stop offset="0.425781" style="stop-color:rgb(37.660217%,40.177917%,92.504883%);stop-opacity:1;"/>
<stop offset="0.429688" style="stop-color:rgb(37.322998%,40.368652%,92.498779%);stop-opacity:1;"/>
<stop offset="0.4375" style="stop-color:rgb(37.135315%,40.557861%,92.498779%);stop-opacity:1;"/>
<stop offset="0.441406" style="stop-color:rgb(36.723328%,40.9729%,92.349243%);stop-opacity:1;"/>
<stop offset="0.445312" style="stop-color:rgb(36.499023%,41.19873%,92.199707%);stop-opacity:1;"/>
<stop offset="0.449219" style="stop-color:rgb(36.29303%,41.398621%,92.199707%);stop-opacity:1;"/>
<stop offset="0.453125" style="stop-color:rgb(36.087036%,41.598511%,92.199707%);stop-opacity:1;"/>
<stop offset="0.457031" style="stop-color:rgb(35.89325%,41.795349%,92.199707%);stop-opacity:1;"/>
<stop offset="0.460938" style="stop-color:rgb(35.699463%,41.993713%,92.199707%);stop-opacity:1;"/>
<stop offset="0.464844" style="stop-color:rgb(35.499573%,42.182922%,92.012024%);stop-opacity:1;"/>
<stop offset="0.46875" style="stop-color:rgb(35.299683%,42.373657%,91.824341%);stop-opacity:1;"/>
<stop offset="0.472656" style="stop-color:rgb(34.921265%,42.520142%,91.812134%);stop-opacity:1;"/>
<stop offset="0.476562" style="stop-color:rgb(34.542847%,42.666626%,91.799927%);stop-opacity:1;"/>
<stop offset="0.480469" style="stop-color:rgb(34.320068%,42.883301%,91.799927%);stop-opacity:1;"/>
<stop offset="0.484375" style="stop-color:rgb(34.098816%,43.099976%,91.799927%);stop-opacity:1;"/>
<stop offset="0.488281" style="stop-color:rgb(33.898926%,43.299866%,91.598511%);stop-opacity:1;"/>
<stop offset="0.492188" style="stop-color:rgb(33.699036%,43.499756%,91.398621%);stop-opacity:1;"/>
<stop offset="0.496094" style="stop-color:rgb(33.499146%,43.699646%,91.398621%);stop-opacity:1;"/>
<stop offset="0.5" style="stop-color:rgb(33.299255%,43.899536%,91.398621%);stop-opacity:1;"/>
<stop offset="0.503906" style="stop-color:rgb(33.099365%,44.099426%,91.398621%);stop-opacity:1;"/>
<stop offset="0.507812" style="stop-color:rgb(32.899475%,44.299316%,91.398621%);stop-opacity:1;"/>
<stop offset="0.511719" style="stop-color:rgb(32.699585%,44.499207%,91.19873%);stop-opacity:1;"/>
<stop offset="0.515625" style="stop-color:rgb(32.499695%,44.699097%,90.99884%);stop-opacity:1;"/>
<stop offset="0.519531" style="stop-color:rgb(32.327271%,44.920349%,90.99884%);stop-opacity:1;"/>
<stop offset="0.523438" style="stop-color:rgb(32.154846%,45.143127%,90.99884%);stop-opacity:1;"/>
<stop offset="0.527344" style="stop-color:rgb(31.776428%,45.333862%,90.986633%);stop-opacity:1;"/>
<stop offset="0.53125" style="stop-color:rgb(31.399536%,45.524597%,90.974426%);stop-opacity:1;"/>
<stop offset="0.535156" style="stop-color:rgb(31.199646%,45.715332%,90.786743%);stop-opacity:1;"/>
<stop offset="0.539062" style="stop-color:rgb(30.999756%,45.906067%,90.59906%);stop-opacity:1;"/>
<stop offset="0.542969" style="stop-color:rgb(30.805969%,46.102905%,90.59906%);stop-opacity:1;"/>
<stop offset="0.546875" style="stop-color:rgb(30.612183%,46.299744%,90.59906%);stop-opacity:1;"/>
<stop offset="0.550781" style="stop-color:rgb(30.404663%,46.499634%,90.59906%);stop-opacity:1;"/>
<stop offset="0.554688" style="stop-color:rgb(30.198669%,46.699524%,90.59906%);stop-opacity:1;"/>
<stop offset="0.558594" style="stop-color:rgb(29.998779%,46.899414%,90.39917%);stop-opacity:1;"/>
<stop offset="0.5625" style="stop-color:rgb(29.798889%,47.099304%,90.19928%);stop-opacity:1;"/>
<stop offset="0.566406" style="stop-color:rgb(29.58374%,47.309875%,90.19928%);stop-opacity:1;"/>
<stop offset="0.570312" style="stop-color:rgb(29.368591%,47.521973%,90.19928%);stop-opacity:1;"/>
<stop offset="0.574219" style="stop-color:rgb(28.98407%,47.666931%,90.193176%);stop-opacity:1;"/>
<stop offset="0.578125" style="stop-color:rgb(28.599548%,47.81189%,90.187073%);stop-opacity:1;"/>
<stop offset="0.582031" style="stop-color:rgb(28.40271%,48.005676%,89.993286%);stop-opacity:1;"/>
<stop offset="0.585938" style="stop-color:rgb(28.205872%,48.199463%,89.7995%);stop-opacity:1;"/>
<stop offset="0.589844" style="stop-color:rgb(28.015137%,48.399353%,89.7995%);stop-opacity:1;"/>
<stop offset="0.59375" style="stop-color:rgb(27.824402%,48.599243%,89.7995%);stop-opacity:1;"/>
<stop offset="0.597656" style="stop-color:rgb(27.677917%,48.799133%,89.7995%);stop-opacity:1;"/>
<stop offset="0.601562" style="stop-color:rgb(27.531433%,48.999023%,89.7995%);stop-opacity:1;"/>
<stop offset="0.605469" style="stop-color:rgb(27.296448%,49.217224%,89.599609%);stop-opacity:1;"/>
<stop offset="0.609375" style="stop-color:rgb(27.061462%,49.436951%,89.399719%);stop-opacity:1;"/>
<stop offset="0.617188" style="stop-color:rgb(26.870728%,49.627686%,89.399719%);stop-opacity:1;"/>
<stop offset="0.621094" style="stop-color:rgb(26.289368%,50.009155%,89.199829%);stop-opacity:1;"/>
<stop offset="0.625" style="stop-color:rgb(25.898743%,50.19989%,88.999939%);stop-opacity:1;"/>
<stop offset="0.628906" style="stop-color:rgb(25.708008%,50.39978%,88.999939%);stop-opacity:1;"/>
<stop offset="0.632812" style="stop-color:rgb(25.517273%,50.59967%,88.999939%);stop-opacity:1;"/>
<stop offset="0.636719" style="stop-color:rgb(25.326538%,50.799561%,88.999939%);stop-opacity:1;"/>
<stop offset="0.640625" style="stop-color:rgb(25.137329%,50.999451%,88.999939%);stop-opacity:1;"/>
<stop offset="0.644531" style="stop-color:rgb(24.89624%,51.220703%,88.798523%);stop-opacity:1;"/>
<stop offset="0.648438" style="stop-color:rgb(24.655151%,51.443481%,88.598633%);stop-opacity:1;"/>
<stop offset="0.65625" style="stop-color:rgb(24.464417%,51.634216%,88.598633%);stop-opacity:1;"/>
<stop offset="0.664062" style="stop-color:rgb(24.082947%,52.01416%,88.598633%);stop-opacity:1;"/>
<stop offset="0.667969" style="stop-color:rgb(23.695374%,52.351379%,88.404846%);stop-opacity:1;"/>
<stop offset="0.671875" style="stop-color:rgb(23.498535%,52.49939%,88.21106%);stop-opacity:1;"/>
<stop offset="0.675781" style="stop-color:rgb(23.114014%,52.69928%,88.204956%);stop-opacity:1;"/>
<stop offset="0.679688" style="stop-color:rgb(22.731018%,52.89917%,88.198853%);stop-opacity:1;"/>
<stop offset="0.683594" style="stop-color:rgb(22.583008%,53.09906%,88.198853%);stop-opacity:1;"/>
<stop offset="0.6875" style="stop-color:rgb(22.436523%,53.29895%,88.198853%);stop-opacity:1;"/>
<stop offset="0.691406" style="stop-color:rgb(22.216797%,53.514099%,87.998962%);stop-opacity:1;"/>
<stop offset="0.695312" style="stop-color:rgb(21.998596%,53.730774%,87.799072%);stop-opacity:1;"/>
<stop offset="0.699219" style="stop-color:rgb(21.792603%,53.921509%,87.799072%);stop-opacity:1;"/>
<stop offset="0.703125" style="stop-color:rgb(21.586609%,54.112244%,87.799072%);stop-opacity:1;"/>
<stop offset="0.710938" style="stop-color:rgb(21.392822%,54.30603%,87.799072%);stop-opacity:1;"/>
<stop offset="0.714844" style="stop-color:rgb(20.999146%,54.699707%,87.658691%);stop-opacity:1;"/>
<stop offset="0.71875" style="stop-color:rgb(20.799255%,54.899597%,87.518311%);stop-opacity:1;"/>
<stop offset="0.722656" style="stop-color:rgb(20.420837%,55.099487%,87.509155%);stop-opacity:1;"/>
<stop offset="0.726562" style="stop-color:rgb(20.042419%,55.299377%,87.5%);stop-opacity:1;"/>
<stop offset="0.730469" style="stop-color:rgb(19.821167%,55.517578%,87.5%);stop-opacity:1;"/>
<stop offset="0.734375" style="stop-color:rgb(19.599915%,55.737305%,87.5%);stop-opacity:1;"/>
<stop offset="0.738281" style="stop-color:rgb(19.398499%,55.926514%,87.298584%);stop-opacity:1;"/>
<stop offset="0.742188" style="stop-color:rgb(19.198608%,56.117249%,87.098694%);stop-opacity:1;"/>
<stop offset="0.746094" style="stop-color:rgb(18.998718%,56.307983%,87.098694%);stop-opacity:1;"/>
<stop offset="0.75" style="stop-color:rgb(18.798828%,56.498718%,87.098694%);stop-opacity:1;"/>
<stop offset="0.753906" style="stop-color:rgb(18.598938%,56.889343%,87.098694%);stop-opacity:1;"/>
<stop offset="0.757812" style="stop-color:rgb(18.399048%,57.279968%,87.098694%);stop-opacity:1;"/>
<stop offset="0.761719" style="stop-color:rgb(18.199158%,57.424927%,86.898804%);stop-opacity:1;"/>
<stop offset="0.765625" style="stop-color:rgb(17.999268%,57.571411%,86.698914%);stop-opacity:1;"/>
<stop offset="0.769531" style="stop-color:rgb(17.782593%,57.785034%,86.698914%);stop-opacity:1;"/>
<stop offset="0.773438" style="stop-color:rgb(17.565918%,57.998657%,86.698914%);stop-opacity:1;"/>
<stop offset="0.777344" style="stop-color:rgb(17.23175%,58.198547%,86.686707%);stop-opacity:1;"/>
<stop offset="0.78125" style="stop-color:rgb(16.899109%,58.399963%,86.6745%);stop-opacity:1;"/>
<stop offset="0.785156" style="stop-color:rgb(16.699219%,58.599854%,86.486816%);stop-opacity:1;"/>
<stop offset="0.789062" style="stop-color:rgb(16.499329%,58.799744%,86.299133%);stop-opacity:1;"/>
<stop offset="0.796875" style="stop-color:rgb(16.305542%,58.99353%,86.299133%);stop-opacity:1;"/>
<stop offset="0.800781" style="stop-color:rgb(15.905762%,59.376526%,86.299133%);stop-opacity:1;"/>
<stop offset="0.804688" style="stop-color:rgb(15.699768%,59.567261%,86.299133%);stop-opacity:1;"/>
<stop offset="0.808594" style="stop-color:rgb(15.499878%,59.757996%,86.099243%);stop-opacity:1;"/>
<stop offset="0.8125" style="stop-color:rgb(15.299988%,59.94873%,85.899353%);stop-opacity:1;"/>
<stop offset="0.816406" style="stop-color:rgb(15.083313%,60.173035%,85.899353%);stop-opacity:1;"/>
<stop offset="0.820312" style="stop-color:rgb(14.868164%,60.398865%,85.899353%);stop-opacity:1;"/>
<stop offset="0.824219" style="stop-color:rgb(14.483643%,60.598755%,85.89325%);stop-opacity:1;"/>
<stop offset="0.828125" style="stop-color:rgb(14.099121%,60.798645%,85.887146%);stop-opacity:1;"/>
<stop offset="0.832031" style="stop-color:rgb(13.902283%,60.995483%,85.693359%);stop-opacity:1;"/>
<stop offset="0.835938" style="stop-color:rgb(13.705444%,61.192322%,85.499573%);stop-opacity:1;"/>
<stop offset="0.84375" style="stop-color:rgb(13.514709%,61.383057%,85.499573%);stop-opacity:1;"/>
<stop offset="0.851562" style="stop-color:rgb(13.13324%,61.764526%,85.499573%);stop-opacity:1;"/>
<stop offset="0.855469" style="stop-color:rgb(12.705994%,62.176514%,85.299683%);stop-opacity:1;"/>
<stop offset="0.859375" style="stop-color:rgb(12.471008%,62.399292%,85.099792%);stop-opacity:1;"/>
<stop offset="0.867188" style="stop-color:rgb(12.32605%,62.548828%,85.099792%);stop-opacity:1;"/>
<stop offset="0.871094" style="stop-color:rgb(11.790466%,62.89978%,84.898376%);stop-opacity:1;"/>
<stop offset="0.875" style="stop-color:rgb(11.399841%,63.09967%,84.698486%);stop-opacity:1;"/>
<stop offset="0.882812" style="stop-color:rgb(11.209106%,63.290405%,84.698486%);stop-opacity:1;"/>
<stop offset="0.890625" style="stop-color:rgb(10.827637%,63.670349%,84.698486%);stop-opacity:1;"/>
<stop offset="0.894531" style="stop-color:rgb(10.395813%,64.079285%,84.498596%);stop-opacity:1;"/>
<stop offset="0.898438" style="stop-color:rgb(10.154724%,64.299011%,84.298706%);stop-opacity:1;"/>
<stop offset="0.902344" style="stop-color:rgb(9.963989%,64.498901%,84.298706%);stop-opacity:1;"/>
<stop offset="0.90625" style="stop-color:rgb(9.77478%,64.698792%,84.298706%);stop-opacity:1;"/>
<stop offset="0.910156" style="stop-color:rgb(9.584045%,64.898682%,84.298706%);stop-opacity:1;"/>
<stop offset="0.914062" style="stop-color:rgb(9.393311%,65.098572%,84.298706%);stop-opacity:1;"/>
<stop offset="0.917969" style="stop-color:rgb(9.196472%,65.292358%,84.104919%);stop-opacity:1;"/>
<stop offset="0.921875" style="stop-color:rgb(8.999634%,65.486145%,83.911133%);stop-opacity:1;"/>
<stop offset="0.925781" style="stop-color:rgb(8.615112%,65.67688%,83.905029%);stop-opacity:1;"/>
<stop offset="0.929688" style="stop-color:rgb(8.230591%,65.867615%,83.898926%);stop-opacity:1;"/>
<stop offset="0.9375" style="stop-color:rgb(8.039856%,66.05835%,83.898926%);stop-opacity:1;"/>
<stop offset="0.941406" style="stop-color:rgb(7.673645%,66.473389%,83.699036%);stop-opacity:1;"/>
<stop offset="0.945312" style="stop-color:rgb(7.499695%,66.699219%,83.499146%);stop-opacity:1;"/>
<stop offset="0.949219" style="stop-color:rgb(7.292175%,66.899109%,83.499146%);stop-opacity:1;"/>
<stop offset="0.953125" style="stop-color:rgb(7.086182%,67.098999%,83.499146%);stop-opacity:1;"/>
<stop offset="0.957031" style="stop-color:rgb(6.892395%,67.295837%,83.499146%);stop-opacity:1;"/>
<stop offset="0.960938" style="stop-color:rgb(6.698608%,67.492676%,83.499146%);stop-opacity:1;"/>
<stop offset="0.964844" style="stop-color:rgb(6.498718%,67.636108%,83.311462%);stop-opacity:1;"/>
<stop offset="0.96875" style="stop-color:rgb(6.298828%,67.781067%,83.123779%);stop-opacity:1;"/>
<stop offset="0.972656" style="stop-color:rgb(5.92041%,67.967224%,83.111572%);stop-opacity:1;"/>
<stop offset="0.976562" style="stop-color:rgb(5.543518%,68.154907%,83.099365%);stop-opacity:1;"/>
<stop offset="0.980469" style="stop-color:rgb(5.32074%,68.37616%,83.099365%);stop-opacity:1;"/>
<stop offset="0.984375" style="stop-color:rgb(5.099487%,68.598938%,83.099365%);stop-opacity:1;"/>
<stop offset="0.988281" style="stop-color:rgb(4.899597%,68.798828%,82.899475%);stop-opacity:1;"/>
<stop offset="0.992188" style="stop-color:rgb(4.699707%,68.998718%,82.699585%);stop-opacity:1;"/>
<stop offset="0.996094" style="stop-color:rgb(4.499817%,69.198608%,82.699585%);stop-opacity:1;"/>
<stop offset="1" style="stop-color:rgb(4.299927%,69.398499%,82.699585%);stop-opacity:1;"/>
</linearGradient>
</defs>
<g id="surface1">
<g clip-path="url(#clip1)" clip-rule="nonzero">
<g clip-path="url(#clip2)" clip-rule="nonzero">
<rect x="0" y="0" width="375" height="374.999991" style="fill:url(#linear0);stroke:none;"/>
</g>
</g>
</g>
</svg>
