<?xml version="1.0" encoding="UTF-8"?>
<svg xmlns="http://www.w3.org/2000/svg" xmlns:xlink="http://www.w3.org/1999/xlink" width="375pt" height="374.999991pt" viewBox="0 0 375 374.999991" version="1.2">
<defs>
<clipPath id="clip1">
  <path d="M 19.453125 252 L 355.359375 252 L 355.359375 311 L 19.453125 311 Z M 19.453125 252 "/>
</clipPath>
<clipPath id="clip2">
  <path d="M 19.453125 25 L 355.359375 25 L 355.359375 259 L 19.453125 259 Z M 19.453125 25 "/>
</clipPath>
</defs>
<g id="surface1">
<path style=" stroke:none;fill-rule:nonzero;fill:rgb(67.83905%,70.979309%,76.469421%);fill-opacity:1;" d="M 245.542969 349.082031 L 129.269531 349.082031 L 129.269531 303.839844 L 245.542969 303.839844 L 245.542969 349.082031 "/>
<g clip-path="url(#clip1)" clip-rule="nonzero">
<path style=" stroke:none;fill-rule:nonzero;fill:rgb(80.778503%,83.529663%,86.268616%);fill-opacity:1;" d="M 355.359375 258.597656 L 355.359375 290.914062 C 355.359375 301.644531 346.703125 310.304688 335.980469 310.304688 L 38.832031 310.304688 C 28.109375 310.304688 19.453125 301.644531 19.453125 290.914062 L 19.453125 258.597656 L 25.914062 252.132812 L 348.898438 252.132812 L 355.359375 258.597656 "/>
</g>
<g clip-path="url(#clip2)" clip-rule="nonzero">
<path style=" stroke:none;fill-rule:nonzero;fill:rgb(14.898682%,23.919678%,29.40979%);fill-opacity:1;" d="M 355.359375 45.304688 L 355.359375 258.597656 L 19.453125 258.597656 L 19.453125 45.304688 C 19.453125 34.578125 28.109375 25.917969 38.832031 25.917969 L 335.980469 25.917969 C 346.703125 25.917969 355.359375 34.578125 355.359375 45.304688 "/>
</g>
<path style=" stroke:none;fill-rule:nonzero;fill:rgb(20.779419%,32.939148%,38.42926%);fill-opacity:1;" d="M 45.292969 226.28125 L 45.292969 58.234375 C 45.292969 54.671875 48.195312 51.769531 51.75 51.769531 L 323.0625 51.769531 C 326.617188 51.769531 329.519531 54.671875 329.519531 58.234375 L 329.519531 226.28125 C 329.519531 229.839844 326.617188 232.742188 323.0625 232.742188 L 51.75 232.742188 C 48.195312 232.742188 45.292969 229.839844 45.292969 226.28125 "/>
<path style=" stroke:none;fill-rule:nonzero;fill:rgb(80.778503%,83.529663%,86.268616%);fill-opacity:1;" d="M 284.300781 374.9375 L 90.511719 374.9375 C 86.953125 374.9375 84.050781 372.035156 84.050781 368.472656 L 84.050781 355.546875 C 84.050781 348.402344 89.828125 342.621094 96.96875 342.621094 L 277.84375 342.621094 C 284.984375 342.621094 290.761719 348.402344 290.761719 355.546875 L 290.761719 368.472656 C 290.761719 372.035156 287.859375 374.9375 284.300781 374.9375 "/>
<path style=" stroke:none;fill-rule:nonzero;fill:rgb(76.078796%,78.42865%,82.749939%);fill-opacity:1;" d="M 277.84375 206.890625 L 96.96875 206.890625 C 89.828125 206.890625 84.050781 201.109375 84.050781 193.964844 L 84.050781 12.988281 C 84.050781 5.84375 89.828125 0.0625 96.96875 0.0625 L 277.84375 0.0625 C 284.984375 0.0625 290.761719 5.84375 290.761719 12.988281 L 290.761719 193.964844 C 290.761719 201.109375 284.984375 206.890625 277.84375 206.890625 "/>
<path style=" stroke:none;fill-rule:nonzero;fill:rgb(67.83905%,70.979309%,76.469421%);fill-opacity:1;" d="M 193.867188 290.914062 L 180.945312 290.914062 C 177.386719 290.914062 174.488281 288.011719 174.488281 284.449219 C 174.488281 280.890625 177.386719 277.988281 180.945312 277.988281 L 193.867188 277.988281 C 197.425781 277.988281 200.324219 280.890625 200.324219 284.449219 C 200.324219 288.011719 197.425781 290.914062 193.867188 290.914062 "/>
<path style=" stroke:none;fill-rule:nonzero;fill:rgb(17.649841%,32.159424%,45.878601%);fill-opacity:1;" d="M 122.808594 58.234375 L 109.890625 58.234375 C 106.332031 58.234375 103.429688 55.328125 103.429688 51.769531 C 103.429688 48.210938 106.332031 45.304688 109.890625 45.304688 L 122.808594 45.304688 C 126.367188 45.304688 129.269531 48.210938 129.269531 51.769531 C 129.269531 55.328125 126.367188 58.234375 122.808594 58.234375 "/>
<path style=" stroke:none;fill-rule:nonzero;fill:rgb(17.649841%,32.159424%,45.878601%);fill-opacity:1;" d="M 264.921875 58.234375 L 187.40625 58.234375 C 183.847656 58.234375 180.945312 55.328125 180.945312 51.769531 C 180.945312 48.210938 183.847656 45.304688 187.40625 45.304688 L 264.921875 45.304688 C 268.480469 45.304688 271.382812 48.210938 271.382812 51.769531 C 271.382812 55.328125 268.480469 58.234375 264.921875 58.234375 "/>
<path style=" stroke:none;fill-rule:nonzero;fill:rgb(17.649841%,32.159424%,45.878601%);fill-opacity:1;" d="M 264.921875 168.109375 L 109.890625 168.109375 C 106.332031 168.109375 103.429688 165.207031 103.429688 161.648438 C 103.429688 158.085938 106.332031 155.183594 109.890625 155.183594 L 264.921875 155.183594 C 268.480469 155.183594 271.382812 158.085938 271.382812 161.648438 C 271.382812 165.207031 268.480469 168.109375 264.921875 168.109375 "/>
<path style=" stroke:none;fill-rule:nonzero;fill:rgb(23.139954%,42.349243%,58.039856%);fill-opacity:1;" d="M 136.082031 97.011719 L 155.082031 58.257812 L 174.109375 97.011719 Z M 166.691406 52.550781 C 164.496094 48.082031 160.054688 45.304688 155.109375 45.304688 C 150.160156 45.304688 145.722656 48.082031 143.527344 52.550781 L 104.085938 132.941406 C 102.519531 136.148438 103.832031 140.035156 107.039062 141.601562 C 110.242188 143.164062 114.128906 141.851562 115.691406 138.644531 L 129.75 109.941406 L 180.441406 109.941406 L 194.523438 138.644531 C 195.65625 140.917969 197.953125 142.257812 200.324219 142.257812 C 201.285156 142.257812 202.242188 142.054688 203.175781 141.601562 C 206.382812 140.035156 207.695312 136.148438 206.128906 132.941406 L 166.691406 52.550781 "/>
<path style=" stroke:none;fill-rule:nonzero;fill:rgb(23.139954%,42.349243%,58.039856%);fill-opacity:1;" d="M 245.542969 129.328125 C 238.429688 129.328125 232.625 123.523438 232.625 116.402344 C 232.625 109.285156 238.429688 103.476562 245.542969 103.476562 C 252.660156 103.476562 258.464844 109.285156 258.464844 116.402344 C 258.464844 123.523438 252.660156 129.328125 245.542969 129.328125 Z M 264.921875 90.550781 C 262.273438 90.550781 260.003906 92.140625 259.019531 94.4375 C 255.082031 92.015625 250.488281 90.550781 245.542969 90.550781 C 231.285156 90.550781 219.703125 102.136719 219.703125 116.402344 C 219.703125 130.667969 231.285156 142.257812 245.542969 142.257812 C 250.488281 142.257812 255.082031 140.792969 259.019531 138.367188 C 260.003906 140.664062 262.273438 142.257812 264.921875 142.257812 C 268.480469 142.257812 271.382812 139.351562 271.382812 135.792969 L 271.382812 97.011719 C 271.382812 93.453125 268.480469 90.550781 264.921875 90.550781 "/>
</g>
</svg>
